/* XPM */
static char *stick_active[] = {
/* columns rows colors chars-per-pixel */
"27 24 4 1 ",
"  c black",
". c #B2B2B2 s active_shadow_2",
"X c #D8D8D8 s active_color_2",
"o c white",
/* pixels */
"XXXXXXXXXXXXXXXXXXXXXXXXXXX",
"XXXXXXXXXXXXXXXXXXXXXXXXXXX",
"XXX.....................XXX",
"XXX..                  oXXX",
"XXX..                  oXXX",
"XXX.. ooooooooooooooo  oXXX",
"XXX.. ooXXXXXXXXXXXX.  oXXX",
"XXX.. ooXXXXXXXXXXXX.  oXXX",
"XXX.. oo.............  oXXX",
"XXX..                  oXXX",
"XXX..                  oXXX",
"XXX.. ooooooooooooooo  oXXX",
"XXX.. oo.............  oXXX",
"XXX.. oo.............  oXXX",
"XXX..                  oXXX",
"XXX.. ooooooooooooooo  oXXX",
"XXX.. ooooooooooooooo  oXXX",
"XXX.. ooXXXXXXXXXXXX.  oXXX",
"XXX.. oo.............  oXXX",
"XXX.. oo.............  oXXX",
"XXX..                  oXXX",
"XXX..oooooooooooooooooooXXX",
"XXX..oooooooooooooooooooXXX",
"XXXXXXXXXXXXXXXXXXXXXXXXXXX"
};
