/* XPM */
static char *stick_pressed[] = {
/* columns rows colors chars-per-pixel */
"40 50 4 1 ",
"  c None",
". c #143D52 s active_shadow_1",
"X c #0A5E89 s active_color_1",
"o c #007EBF s active_hilight_1",
/* pixels */
"                                        ",
"                                        ",
"                                        ",
"                                        ",
"                                        ",
"                                        ",
"                                        ",
"                                        ",
"                                        ",
"                                        ",
"........................................",
"........................................",
"..XXXXXXXXXXXXXXXXXXXXXXXXXXXXXXXXXXXXoo",
"..XXXXXXXXXXXXXXXXXXXXXXXXXXXXXXXXXXXXoo",
"..XXXXXXXXXXXXXXXXXXXXXXXXXXXXXXXXXXXXoo",
"..XXXXXXXXXXXXXXXXXXXXXXXXXXXXXXXXXXXXoo",
"..XXXXXXXXXXXXXXXXXXXXXXXXXXXXXXXXXXXXoo",
"..XXXXXXXXXXXXXXXXXXXXXXXXXXXXXXXXXXXXoo",
"..XXXXXXXXoooooooooooooooo..XXXXXXXXXXoo",
"..XXXXXXXXoooooooooooooooo..XXXXXXXXXXoo",
"..XXXXXXXXooXXXXXXXXXXXXXX..XXXXXXXXXXoo",
"..XXXXXXXXooXXXXXXXXXXXXXX..XXXXXXXXXXoo",
"..XXXXXXXXooXXXXXXXXXXXXXX..XXXXXXXXXXoo",
"..XXXXXXXXooXXXXXXXXXXXXXX..XXXXXXXXXXoo",
"..XXXXXXXXoo......XX........XXXXXXXXXXoo",
"..XXXXXXXXoo......XX........XXXXXXXXXXoo",
"..XXXXXXXXXXXXXXooXX..XXXXXXXXXXXXXXXXoo",
"..XXXXXXXXXXXXXXooXX..XXXXXXXXXXXXXXXXoo",
"..XXXXXXXXXXXXXXooXX..XXXXXXXXXXXXXXXXoo",
"..XXXXXXXXXXXXXXooXX..XXXXXXXXXXXXXXXXoo",
"..XXXXXXXXXXXXXXooXX..XXXXXXXXXXXXXXXXoo",
"..XXXXXXXXXXXXXXooXX..XXXXXXXXXXXXXXXXoo",
"..XXXXXXXXXXXXXXooXX..XXXXXXXXXXXXXXXXoo",
"..XXXXXXXXXXXXXXooXX..XXXXXXXXXXXXXXXXoo",
"..XXXXXXXXXXXXXXooXX..XXXXXXXXXXXXXXXXoo",
"..XXXXXXXXXXXXXXooXX..XXXXXXXXXXXXXXXXoo",
"..XXXXXXXXXXXXXXooXX..XXXXXXXXXXXXXXXXoo",
"..XXXXXXXXXXXXXXooXX..XXXXXXXXXXXXXXXXoo",
"..XXXXXXXXXXXXXXoo....XXXXXXXXXXXXXXXXoo",
"..XXXXXXXXXXXXXXoo....XXXXXXXXXXXXXXXXoo",
"..XXXXXXXXXXXXXXXXXXXXXXXXXXXXXXXXXXXXoo",
"..XXXXXXXXXXXXXXXXXXXXXXXXXXXXXXXXXXXXoo",
"..XXXXXXXXXXXXXXXXXXXXXXXXXXXXXXXXXXXXoo",
"..XXXXXXXXXXXXXXXXXXXXXXXXXXXXXXXXXXXXoo",
"..XXXXXXXXXXXXXXXXXXXXXXXXXXXXXXXXXXXXoo",
"..XXXXXXXXXXXXXXXXXXXXXXXXXXXXXXXXXXXXoo",
"..XXXXXXXXXXXXXXXXXXXXXXXXXXXXXXXXXXXXoo",
"..XXXXXXXXXXXXXXXXXXXXXXXXXXXXXXXXXXXXoo",
"..oooooooooooooooooooooooooooooooooooooo",
"..oooooooooooooooooooooooooooooooooooooo"
};
