/* XPM */
static char *title_4_active[] = {
/* columns rows colors chars-per-pixel */
"16 50 4 1 ",
"  c #00007E s active_color_1",
". c #606060 s active_shadow_2",
"X c #C0C0C0 s active_color_2",
"o c gray96",
/* pixels */
"XXXXXXXXXXXXXXXX",
"XXXXXXXXXXXXXXXX",
"oooooooooooooooo",
"oooooooooooooooo",
"XXXXXXXXXXXXXXXX",
"XXXXXXXXXXXXXXXX",
"........ooXXXXXX",
"........ooXXXXXX",
"        ooXXXXXX",
"        ooXXXXXX",
"        ooXXXXXX",
"        ooXXXXXX",
"        ooXXXXXX",
"        ooXXXXXX",
"        ooXXXXXX",
"        ooXXXXXX",
"        ooXXXXXX",
"        ooXXXXXX",
"        ooXXXXXX",
"        ooXXXXXX",
"        ooXXXXXX",
"        ooXXXXXX",
"        ooXXXXXX",
"        ooXXXXXX",
"        ooXXXXXX",
"        ooXXXXXX",
"        ooXXXXXX",
"        ooXXXXXX",
"        ooXXXXXX",
"        ooXXXXXX",
"        ooXXXXXX",
"        ooXXXXXX",
"        ooXXXXXX",
"        ooXXXXXX",
"        ooXXXXXX",
"        ooXXXXXX",
"        ooXXXXXX",
"        ooXXXXXX",
"        ooXXXXXX",
"        ooXXXXXX",
"        ooXXXXXX",
"        ooXXXXXX",
"        ooXXXXXX",
"        ooXXXXXX",
"ooooooooooXXXXXX",
"ooooooooooXXXXXX",
"XXXXXXXXXXXXXXXX",
"XXXXXXXXXXXXXXXX",
"XXXXXXXXXXXXXXXX",
"XXXXXXXXXXXXXXXX"
};
