/* XPM */
static char *menu_inactive[] = {
/* columns rows colors chars-per-pixel */
"32 36 4 1 ",
"  c None",
". c #4B58A2 s inactive_shadow_1",
"X c #949595 s inactive_shadow_1",
"o c white",
/* pixels */
"                                ",
"                                ",
"                                ",
"                                ",
"    ........................    ",
"    ........................    ",
"  ..oooooooooooooooooooooooo..  ",
"  ..oooooooooooooooooooooooo..  ",
"..oooooooooooooooooooooooooooo..",
"..oooooooooooooooooooooooooooo..",
"..oooooooooooooooooooooooooooo..",
"..oooooooooooooooooooooooooooo..",
"..oooooooooooooooooooooooooooo..",
"..oooooooooooooooooooooooooooo..",
"..ooooooooXXooooooooXXoooooooo..",
"..ooooooooXXooooooooXXoooooooo..",
"..ooooooXXXXXXooooXXXXXXoooooo..",
"..ooooooXXXXXXooooXXXXXXoooooo..",
"..ooooooXXXXXXXXXXXXXXXXoooooo..",
"..ooooooXXXXXXXXXXXXXXXXoooooo..",
"..ooooooooXXXXXXXXXXXXoooooooo..",
"..ooooooooXXXXXXXXXXXXoooooooo..",
"..ooooooooooXXXXXXXXoooooooooo..",
"..ooooooooooXXXXXXXXoooooooooo..",
"..ooooooooooooXXXXoooooooooooo..",
"..ooooooooooooXXXXoooooooooooo..",
"..oooooooooooooooooooooooooooo..",
"..oooooooooooooooooooooooooooo..",
"..oooooooooooooooooooooooooooo..",
"..oooooooooooooooooooooooooooo..",
"..oooooooooooooooooooooooooooo..",
"..oooooooooooooooooooooooooooo..",
"  ..oooooooooooooooooooooooo..  ",
"  ..oooooooooooooooooooooooo..  ",
"    ........................    ",
"    ........................    "
};
