/* XPM */
static char *top_left_inactive[] = {
/* columns rows colors chars-per-pixel */
"8 31 28 1 ",
"  c None",
". c black",
"X c #E2E4E2",
"o c #E4E5E4",
"O c #E5E7E5",
"+ c #E7E8E7",
"@ c #E8EAE8",
"# c #EAECEA",
"$ c #ECEDEC",
"% c #EDEFED",
"& c gray94",
"* c #F0F2F0",
"= c #F3F3F3",
"- c #F3F4F3",
"; c #F4F5F4",
": c gray96",
"> c #F6F6F6",
", c #F6F7F6",
"< c #F8F8F8",
"1 c #F9F9F9",
"2 c #F9FAF9",
"3 c gray98",
"4 c #FAFBFA",
"5 c #FBFBFB",
"6 c gray99",
"7 c #FCFDFC",
"8 c #FEFEFE",
"9 c white",
/* pixels */
"       .",
"    ...9",
"    ...9",
"   .9999",
" ..93XXX",
" ..9oooo",
".999oooo",
".999oooo",
".999++++",
".99-@@@@",
".99:####",
".99:####",
".99:%%%%",
".99:%%%%",
".993&&&&",
".993&&&&",
".993&&&&",
".993&&&&",
".993::::",
".993::::",
".993::::",
".9993333",
".9993333",
".9993333",
".9993333",
".9999999",
".9999999",
".9999333",
".999%%%%",
".999%%%%",
".99&...."
};
