/* XPM */
static char *maximize_active[] = {
/* columns rows colors chars-per-pixel */
"24 36 5 1 ",
"  c None",
". c black",
"X c #B2B2B2 s active_shadow_2",
"o c #D8D8D8 s active_color_2",
"O c white",
/* pixels */
"                        ",
"                        ",
"                        ",
"                        ",
"                        ",
"                        ",
"                        ",
"                        ",
"                        ",
"OOOOOOOOOOOOOOOOOOOOOOO.",
"OOOOOOOOOOOOOOOOOOOOOOO.",
"OOoooooooooooooooooooXX.",
"OOooo.............oooXX.",
"OOooo.............oooXX.",
"OOooo.............oooXX.",
"OOooo.ooooooooooo.oooXX.",
"OOooo.ooooooooooo.oooXX.",
"OOooo.ooooooooooo.oooXX.",
"OOooo.ooooooooooo.oooXX.",
"OOooo.ooooooooooo.oooXX.",
"OOooo.ooooooooooo.oooXX.",
"OOooo.ooooooooooo.oooXX.",
"OOooo.ooooooooooo.oooXX.",
"OOooo.ooooooooooo.oooXX.",
"OOooo.............oooXX.",
"OOooo.............oooXX.",
"OOoooooooooooooooooooXX.",
"OOXXXXXXXXXXXXXXXXXXXXX.",
"OOXXXXXXXXXXXXXXXXXXXXX.",
"........................",
"                        ",
"                        ",
"                        ",
"                        ",
"                        ",
"                        "
};
