/* XPM */
static char *title_1_active[] = {
/* columns rows colors chars-per-pixel */
"8 36 3 1 ",
"  c black",
". c #D6D6CC s active_color_2",
"X c white",
/* pixels */
"        ",
"        ",
"XXXXXXXX",
"XXXXXXXX",
"........",
"........",
"........",
"........",
"........",
"........",
"........",
"........",
"........",
"........",
"........",
"........",
"........",
"........",
"........",
"........",
"........",
"........",
"........",
"........",
"........",
"........",
"........",
"........",
"........",
"........",
"........",
"........",
"........",
"........",
"........",
"........"
};
