/* XPM */
static char *stick_toggled_active[] = {
/* columns rows colors chars-per-pixel */
"40 28 3 1 ",
"  c None",
". c #A0A0FF s active_shadow_1",
"X c white",
/* pixels */
"  ....................................  ",
"  ....................................  ",
"........................................",
"........................................",
"........................................",
"........................................",
"................XXXXXXXX................",
"................XXXXXXXX................",
"..............XXXXXXXXXXXX..............",
"..............XXXXXXXXXXXX..............",
"............XXXX........XXXX............",
"............XXXX........XXXX............",
"............XXXX..XXXX..XXXX............",
"............XXXX..XXXX..XXXX............",
"............XXXX..XXXX..XXXX............",
"............XXXX..XXXX..XXXX............",
"............XXXX........XXXX............",
"............XXXX........XXXX............",
"..............XXXXXXXXXXXX..............",
"..............XXXXXXXXXXXX..............",
"................XXXXXXXX................",
"................XXXXXXXX................",
"........................................",
"........................................",
"........................................",
"........................................",
"  ....................................  ",
"  ....................................  "
};
