/* XPM */
static char *maximize_active[] = {
/* columns rows colors chars-per-pixel */
"18 30 106 2 ",
"   c None",
".  c #13152C",
"X  c #12142E",
"o  c #14162F",
"O  c #171833",
"+  c #181937",
"@  c #161738",
"#  c #17183A",
"$  c #1C1E39",
"%  c #1D1F3B",
"&  c #191A3C",
"*  c #1A1B40",
"=  c #1A1D41",
"-  c #1B1D42",
";  c #1E2248",
":  c #212242",
">  c #222342",
",  c #212349",
"<  c #21254A",
"1  c #23254B",
"2  c #2A2C49",
"3  c #2E304E",
"4  c #252A51",
"5  c #282C53",
"6  c #2F365B",
"7  c #2F355C",
"8  c #313352",
"9  c #333457",
"0  c #34355C",
"q  c #34375F",
"w  c #383A5D",
"e  c #353760",
"r  c #343860",
"t  c #353961",
"y  c #363E63",
"u  c #393E66",
"i  c #3A3F67",
"p  c #3D4061",
"a  c #3E4161",
"s  c #3A4065",
"d  c #394266",
"f  c #3C4569",
"g  c #434568",
"h  c #40446D",
"j  c #42476F",
"k  c #484A6D",
"l  c #434970",
"z  c #424C71",
"x  c #4B4D70",
"c  c #4B4E70",
"v  c #4C4E71",
"b  c #4C4F72",
"n  c #4D4F73",
"m  c #484D77",
"M  c #494F79",
"N  c #475073",
"B  c #485176",
"V  c #4D5478",
"C  c #4D5579",
"Z  c #4E5579",
"A  c #4E577A",
"S  c #4F557E",
"D  c #505178",
"F  c #51537E",
"G  c #545D7F",
"H  c #525481",
"J  c #525783",
"K  c #545D80",
"L  c #555E80",
"P  c #555E81",
"I  c #585E86",
"U  c #585E89",
"Y  c #595F8A",
"T  c #5B6486",
"R  c #5B6586",
"E  c #5B6487",
"W  c #5B6488",
"Q  c #5B628C",
"!  c #616B8C",
"~  c #626B8C",
"^  c #626B8E",
"/  c #636B8E",
"(  c #666F8F",
")  c #636991",
"_  c #656B93",
"`  c #666E90",
"'  c #666F90",
"]  c #666E91",
"[  c #687091",
"{  c #6A7293",
"}  c #6E7699",
"|  c #6F779A",
" . c #71789B",
".. c #78809F",
"X. c #7780A0",
"o. c #7881A0",
"O. c #7D86A5",
"+. c #7E86A5",
"@. c #838CAA",
"#. c #848CA9",
"$. c #848CAA",
"%. c #8A92AF",
"&. c #8A92B0",
"*. c #8B93B0",
"=. c #8C94B0",
"-. c #8D95B1",
/* pixels */
"                                    ",
"                                    ",
"                                    ",
"                                    ",
"                                    ",
"                                    ",
"                                    ",
"    X X                     X X     ",
"  % % % % % % % % % % % % % % % %   ",
"X 2 p p p p p p p p p p p p p p 2 X ",
"o 3 c c b b b b b b b b b b c c 3 o ",
"O 8 b b k g g g g g g g g k b b 8 O ",
"+ 9 D D w : : : : : : : : w D D 9 + ",
"& 0 F F 0 # @ @ @ @ @ @ # 0 F F 0 & ",
"* 0 H H e - , 1 < < < , - e H H 0 * ",
"- r H H r < h M m m M h < r H H r - ",
"; i U U i 5 S Q U U Q S 5 i U U i ; ",
"4 l ) ) h 7 I _ ) ) _ I 7 h ) ) l 4 ",
"6 Z | | Z d /  .| |  ./ d Z | | Z 6 ",
"y L X.X.G d Z L L L L Z d G X.X.L y ",
"f R +.+./ N N N N N N N N / +.+.R f ",
"z / @.@.+.o.............o.+.#.@./ z ",
"B [ %.*.*.-.-.-.-.-.-.-.-.=.*.%.[ B ",
"Z [ #.#.#.#.#.#.#.#.#.#.#.#.#.#.[ Z ",
"  / ` ` ` ` ` ` ` ` ` ` ` ( ` ` /   ",
"    R R                     R W     ",
"                                    ",
"                                    ",
"                                    ",
"                                    "
};
