/* XPM */
static char *maximize_toggled_active[] = {
/* columns rows colors chars-per-pixel */
"60 75 4 1 ",
"  c None",
". c #143D52 s active_shadow_1",
"X c #0A5E89 s active_color_1",
"o c #007EBF s active_hilight_1",
/* pixels */
"                                                            ",
"                                                            ",
"                                                            ",
"                                                            ",
"                                                            ",
"                                                            ",
"                                                            ",
"                                                            ",
"                                                            ",
"                                                            ",
"                                                            ",
"                                                            ",
"                                                            ",
"                                                            ",
"                                                            ",
"oooooooooooooooooooooooooooooooooooooooooooooooooooooooooooo",
"oooooooooooooooooooooooooooooooooooooooooooooooooooooooooooo",
"oooooooooooooooooooooooooooooooooooooooooooooooooooooooooooo",
"oooXXXXXXXXXXXXXXXXXXXXXXXXXXXXXXXXXXXXXXXXXXXXXXXXXXXXXX...",
"oooXXXXXXXXXXXXXXXXXXXXXXXXXXXXXXXXXXXXXXXXXXXXXXXXXXXXXX...",
"oooXXXXXXXXXXXXXXXXXXXXXXXXXXXXXXXXXXXXXXXXXXXXXXXXXXXXXX...",
"oooXXXXXXXXXXXXXXXXXXXXXXXXXXXXXXXXXXXXXXXXXXXXXXXXXXXXXX...",
"oooXXXXXXXXXXXXXXXXXXXXXXXXXXXXXXXXXXXXXXXXXXXXXXXXXXXXXX...",
"oooXXXXXXXXXXXXXXXXXXXXXXXXXXXXXXXXXXXXXXXXXXXXXXXXXXXXXX...",
"oooXXXXXXXXXXXXXXXXXXXXXXXXXXXXXXXXXXXXXXXXXXXXXXXXXXXXXX...",
"oooXXXXXXXXXXXXXXXXXXXXXXXXXXXXXXXXXXXXXXXXXXXXXXXXXXXXXX...",
"oooXXXXXXXXXXXXXXXXXXXXXXXXXXXXXXXXXXXXXXXXXXXXXXXXXXXXXX...",
"oooXXXXXXXXX..............................oooXXXXXXXXXXXX...",
"oooXXXXXXXXX..............................oooXXXXXXXXXXXX...",
"oooXXXXXXXXX..............................oooXXXXXXXXXXXX...",
"oooXXXXXXXXX...XXXXXXXXXXXXXXXXXXXXXXXXXXXoooXXXXXXXXXXXX...",
"oooXXXXXXXXX...XXXXXXXXXXXXXXXXXXXXXXXXXXXoooXXXXXXXXXXXX...",
"oooXXXXXXXXX...XXXXXXXXXXXXXXXXXXXXXXXXXXXoooXXXXXXXXXXXX...",
"oooXXXXXXXXX...XXXXXXXXXXXXXXXXXXXXXXXXXXXoooXXXXXXXXXXXX...",
"oooXXXXXXXXX...XXXXXXXXXXXXXXXXXXXXXXXXXXXoooXXXXXXXXXXXX...",
"oooXXXXXXXXX...XXXXXXXXXXXXXXXXXXXXXXXXXXXoooXXXXXXXXXXXX...",
"oooXXXXXXXXX...XXXXXXXXXXXXXXXXXXXXXXXXXXXoooXXXXXXXXXXXX...",
"oooXXXXXXXXX...XXXXXXXXXXXXXXXXXXXXXXXXXXXoooXXXXXXXXXXXX...",
"oooXXXXXXXXX...XXXXXXXXXXXXXXXXXXXXXXXXXXXoooXXXXXXXXXXXX...",
"oooXXXXXXXXX...XXXXXXXXXXXXXXXXXXXXXXXXXXXoooXXXXXXXXXXXX...",
"oooXXXXXXXXX...XXXXXXXXXXXXXXXXXXXXXXXXXXXoooXXXXXXXXXXXX...",
"oooXXXXXXXXX...XXXXXXXXXXXXXXXXXXXXXXXXXXXoooXXXXXXXXXXXX...",
"oooXXXXXXXXX...XXXXXXXXXXXXXXXXXXXXXXXXXXXoooXXXXXXXXXXXX...",
"oooXXXXXXXXX...XXXXXXXXXXXXXXXXXXXXXXXXXXXoooXXXXXXXXXXXX...",
"oooXXXXXXXXX...XXXXXXXXXXXXXXXXXXXXXXXXXXXoooXXXXXXXXXXXX...",
"oooXXXXXXXXX...XXXXXXXXXXXXXXXXXXXXXXXXXXXoooXXXXXXXXXXXX...",
"oooXXXXXXXXX...XXXXXXXXXXXXXXXXXXXXXXXXXXXoooXXXXXXXXXXXX...",
"oooXXXXXXXXX...XXXXXXXXXXXXXXXXXXXXXXXXXXXoooXXXXXXXXXXXX...",
"oooXXXXXXXXX...XXXXXXXXXXXXXXXXXXXXXXXXXXXoooXXXXXXXXXXXX...",
"oooXXXXXXXXX...XXXXXXXXXXXXXXXXXXXXXXXXXXXoooXXXXXXXXXXXX...",
"oooXXXXXXXXX...XXXXXXXXXXXXXXXXXXXXXXXXXXXoooXXXXXXXXXXXX...",
"oooXXXXXXXXX...XXXXXXXXXXXXXXXXXXXXXXXXXXXoooXXXXXXXXXXXX...",
"oooXXXXXXXXX...XXXXXXXXXXXXXXXXXXXXXXXXXXXoooXXXXXXXXXXXX...",
"oooXXXXXXXXX...XXXXXXXXXXXXXXXXXXXXXXXXXXXoooXXXXXXXXXXXX...",
"oooXXXXXXXXX...XXXXXXXXXXXXXXXXXXXXXXXXXXXoooXXXXXXXXXXXX...",
"oooXXXXXXXXX...XXXXXXXXXXXXXXXXXXXXXXXXXXXoooXXXXXXXXXXXX...",
"oooXXXXXXXXX...XXXXXXXXXXXXXXXXXXXXXXXXXXXoooXXXXXXXXXXXX...",
"oooXXXXXXXXX...ooooooooooooooooooooooooooooooXXXXXXXXXXXX...",
"oooXXXXXXXXX...ooooooooooooooooooooooooooooooXXXXXXXXXXXX...",
"oooXXXXXXXXX...ooooooooooooooooooooooooooooooXXXXXXXXXXXX...",
"oooXXXXXXXXXXXXXXXXXXXXXXXXXXXXXXXXXXXXXXXXXXXXXXXXXXXXXX...",
"oooXXXXXXXXXXXXXXXXXXXXXXXXXXXXXXXXXXXXXXXXXXXXXXXXXXXXXX...",
"oooXXXXXXXXXXXXXXXXXXXXXXXXXXXXXXXXXXXXXXXXXXXXXXXXXXXXXX...",
"oooXXXXXXXXXXXXXXXXXXXXXXXXXXXXXXXXXXXXXXXXXXXXXXXXXXXXXX...",
"oooXXXXXXXXXXXXXXXXXXXXXXXXXXXXXXXXXXXXXXXXXXXXXXXXXXXXXX...",
"oooXXXXXXXXXXXXXXXXXXXXXXXXXXXXXXXXXXXXXXXXXXXXXXXXXXXXXX...",
"oooXXXXXXXXXXXXXXXXXXXXXXXXXXXXXXXXXXXXXXXXXXXXXXXXXXXXXX...",
"oooXXXXXXXXXXXXXXXXXXXXXXXXXXXXXXXXXXXXXXXXXXXXXXXXXXXXXX...",
"oooXXXXXXXXXXXXXXXXXXXXXXXXXXXXXXXXXXXXXXXXXXXXXXXXXXXXXX...",
"oooXXXXXXXXXXXXXXXXXXXXXXXXXXXXXXXXXXXXXXXXXXXXXXXXXXXXXX...",
"oooXXXXXXXXXXXXXXXXXXXXXXXXXXXXXXXXXXXXXXXXXXXXXXXXXXXXXX...",
"oooXXXXXXXXXXXXXXXXXXXXXXXXXXXXXXXXXXXXXXXXXXXXXXXXXXXXXX...",
"ooo.........................................................",
"ooo.........................................................",
"ooo........................................................."
};
