/* XPM */
static char *hide_active[] = {
/* columns rows colors chars-per-pixel */
"30 38 5 1 ",
"  c black",
". c #143D52 s active_shadow_1",
"X c #0A5E89 s active_color_1",
"o c #007EBF s active_hilight_1",
"O c white",
/* pixels */
"                              ",
"                              ",
"oooooooooooooooooooooooooooooo",
"XXXXXXXXXXXXXXXXXXXXXXXXXXXXXX",
"XXXXXXXXXXXXXXXXXXXXXXXXXXXXXX",
"XXXXXXXXXXXXXXXXXXXXXXXXXXXXXX",
"XXXXXXXXXXXXXXXXXXXXXXXXXXXXXX",
"XXXXXXXXXXXXXXXXXXXXXXXXXXXXXX",
"XXXXXXXXXXXXXXXXXXXXXXXXXXXXXX",
"XXXXXXXXXXXXXXXXXXXXXXXXXXXXXX",
"XXXXXXXXXXXXXXXXXXXXXXXXXXXXXX",
"XXXXXXXXXXXXXXXXXXXXXXXXXXXXXX",
"XXXXXXXXXXXXXXXXXXXXXXXXXXXXXX",
"XXXXXXXXXXXXXXXXXXXXXXXXXXXXXX",
"XXXXXXXXXXXXXXXXXXXXXXXXXXXXXX",
"XXXXXXXXXXXXOOOOOOXXXXXXXXXXXX",
"XXXXXXXXXXXXOOOOOOXXXXXXXXXXXX",
"XXXXXXXXXXXXOO   O  XXXXXXXXXX",
"XXXXXXXXXXXXOO XXO  XXXXXXXXXX",
"XXXXXXXXXXXXOO XXO  XXXXXXXXXX",
"XXXXXXXXXXXXOOOOOO  XXXXXXXXXX",
"XXXXXXXXXXXXXX      XXXXXXXXXX",
"XXXXXXXXXXXXXX      XXXXXXXXXX",
"XXXXXXXXXXXXXXXXXXXXXXXXXXXXXX",
"XXXXXXXXXXXXXXXXXXXXXXXXXXXXXX",
"XXXXXXXXXXXXXXXXXXXXXXXXXXXXXX",
"XXXXXXXXXXXXXXXXXXXXXXXXXXXXXX",
"XXXXXXXXXXXXXXXXXXXXXXXXXXXXXX",
"XXXXXXXXXXXXXXXXXXXXXXXXXXXXXX",
"XXXXXXXXXXXXXXXXXXXXXXXXXXXXXX",
"XXXXXXXXXXXXXXXXXXXXXXXXXXXXXX",
"XXXXXXXXXXXXXXXXXXXXXXXXXXXXXX",
"XXXXXXXXXXXXXXXXXXXXXXXXXXXXXX",
"XXXXXXXXXXXXXXXXXXXXXXXXXXXXXX",
"XXXXXXXXXXXXXXXXXXXXXXXXXXXXXX",
"..............................",
"                              ",
"                              "
};
