/* XPM */
static char *close_inactive[] = {
/* columns rows colors chars-per-pixel */
"24 39 157 2 ",
"   c None",
".  c #010101",
"X  c #1E1F20",
"o  c #1F2021",
"O  c #212223",
"+  c #2A2B2C",
"@  c #2D2F31",
"#  c #323334",
"$  c #363739",
"%  c #393A3A",
"&  c #144575",
"*  c #194775",
"=  c #1B4977",
"-  c #1B4A7A",
";  c #214C77",
":  c #21507F",
">  c #696C6F",
",  c #6C6E70",
"<  c #6E7072",
"1  c #757575",
"2  c #76797C",
"3  c #7C7E7F",
"4  c #225281",
"5  c #2A5784",
"6  c #325A81",
"7  c #335E89",
"8  c #35608B",
"9  c #3B648D",
"0  c #436483",
"q  c #446B93",
"w  c #486E96",
"e  c #51769B",
"r  c #577B9E",
"t  c #65798E",
"y  c #697D92",
"u  c #5C7FA1",
"i  c #7A8086",
"p  c #7D8389",
"a  c #6C8298",
"s  c #6485A6",
"d  c #6E89A4",
"f  c #6C8CAB",
"g  c #718CA6",
"h  c #7C8FA3",
"j  c #718FAD",
"k  c #7C91A7",
"l  c #7391AE",
"z  c #7D95AD",
"x  c #7694B1",
"c  c #7A96B3",
"v  c #7D99B6",
"b  c #82868B",
"n  c #86898D",
"m  c #8B8E91",
"M  c #939495",
"N  c #839BB4",
"B  c #859EB8",
"V  c #9DA1A6",
"C  c #8BA0B5",
"Z  c #8DA5BD",
"A  c #91A1B1",
"S  c #90A4B8",
"D  c #94A8BC",
"F  c #A2A5A8",
"G  c #ABACAE",
"H  c #ABB2B9",
"J  c #B0B7BF",
"K  c #94ABC2",
"L  c #99AEC2",
"P  c #94AEC9",
"I  c #9CB1C6",
"U  c #9FB4C8",
"Y  c #A1B3C5",
"T  c #A9B8C6",
"R  c #A6B8CB",
"E  c #A8BBCD",
"W  c #B4BBC2",
"Q  c #B1BDCA",
"!  c #ADBED0",
"~  c #BAC5CF",
"^  c #B5C5D4",
"/  c #BFC7D1",
"(  c #BEC8D1",
")  c #BECBD9",
"_  c #AEC8E3",
"`  c #BED0E3",
"'  c #BFD8F1",
"]  c #C3CBD5",
"[  c #C2CFDC",
"{  c #CAD0D7",
"}  c #C5D1DD",
"|  c #CCD3DB",
" . c #D2D4D7",
".. c #D3D6D9",
"X. c #D7D8D9",
"o. c #D9DADC",
"O. c #CBD6E1",
"+. c #CED9E4",
"@. c #D3DCE6",
"#. c #DBDFE4",
"$. c #D5DFE9",
"%. c #DDE2E7",
"&. c #D7E0E8",
"*. c #DCE3EB",
"=. c #E1E6EC",
"-. c #E3E8EE",
";. c #EAECEE",
":. c #E0E7F0",
">. c #E5EBF1",
",. c #E9EEF3",
"<. c #E0ECF8",
"1. c #ECF0F5",
"2. c #EDF1F5",
"3. c #ECF0F4",
"4. c #EEF2F6",
"5. c #EFF3F6",
"6. c #ECF1F6",
"7. c #E5F2FE",
"8. c #E9F2FB",
"9. c #EDF2F8",
"0. c #EFF5FB",
"q. c #F1F2F3",
"w. c #F1F3F7",
"e. c #F0F3F7",
"r. c #F0F4F7",
"t. c #F1F4F7",
"y. c #F2F4F7",
"u. c #F2F5F7",
"i. c #F0F4F7",
"p. c #F2F5F8",
"a. c #F3F5F8",
"s. c #F3F5F9",
"d. c #F2F4F8",
"f. c #F4F6F8",
"g. c #F4F6F9",
"h. c #F5F7F9",
"j. c #F5F7FA",
"k. c #F1F5F9",
"l. c #F6F8FA",
"z. c #F7F8FA",
"x. c #F7F9FB",
"c. c #F6F8FB",
"v. c #F8F9FB",
"b. c #F9FAFB",
"n. c #F9F9FC",
"m. c #F8FAFC",
"M. c #F9FAFC",
"N. c #FAFBFD",
"B. c #FAFBFE",
"V. c #F9FCFF",
"C. c #FBFCFE",
"Z. c #FAFCFF",
"A. c #F8FEFF",
"S. c #FCFDFE",
"D. c #FDFDFE",
"F. c #FDFEFF",
"G. c white",
/* pixels */
"                                                ",
"                                                ",
"                                                ",
"                                                ",
"                                                ",
"                                                ",
"                                                ",
"                                                ",
"g.s.s.s.g.g.g.s.s.s.r.r.r.r.r.r.s.g.w.w.w.s.M.S.",
">.3.s.g.c.m.c.s.w.3.3.3.3.,.,.,.r.g.,.-.>.>.s.S.",
"&.-.3.3.r.c.M.c.g.s.r.r.3.3.,.>.3.s.>.*.*.&.,.m.",
"O.$.>.>.,.r.C.S.C.m.c.c.g.s.3.3.3.3.-.=.*.+.*.q.",
") +.-.-.>.3.c.S.S.M.M.M.m.c.s.3.3.,.-.=.&.[ +.=.",
"! } *.*.>...m 1 M ;.S.M.m.S.;.m , n { >.$.^ ] o.",
"I ) *.&.>.W O . O G ,.M.M.;.G O . O W >.@.E ~ X.",
"Z ^ *.$.*.W O . . O M C.C.M O . . O H >.+.I Q X.",
"v ! &.@.$.] n # . . % 3 3 % . . @ i ( *.+.Z T X.",
"l R &.+.+.$.>.m o . . . . . . X p @.+.$.O.B Y ..",
"s U &.+.O.@.>.%.F O . . . . O V | +.O.$.} c L | ",
"u L &.+.O.@.*.C. .+ . . . . + { 8.+.O.$.} j D | ",
"e K &.+.O.@.:.%.F O . . . . O V | +.+.$.[ f S ..",
"w Z &.@.+.$.>.n o . . . . . . X p @.+.&.[ s C ..",
"9 Z &.$.$.] b # . . $ 2 2 $ . . @ i ] *.[ r N ..",
"7 B &.&.*.J O . . o m 9.9.m o . . O W >.) e z  .",
"5 N &.&.>.W O . o F %.3.3.%.F o . O W 3.) w l [ ",
": c &.*.*.{ b > n #.0.>.>.k.%.m < n | ,.) q j { ",
"- c *.*.*.*.-.>.>.>.>.>.,.,.3.s.r.,.>.,.[ 9 g  .",
"& l *.*.*.*.-.>.>.>.>.>.>.>.,.9.s.s.3.r.} 8 d  .",
"9 e f f f f f j j j j j l l x x x x x c s 6 k  .",
"v e 4 - = * * * * * * * * * * * * * * * ; 0 A | ",
"' _ P z a t t t t t t t t t t t t t t t y h Y ` ",
"7.<.$.( W H H H H H H H H H H H H H H H H Q } $.",
"s.3.;.#... . . . . . . . . . . . . . . . .o.=.,.",
"                                                ",
"                                                ",
"                                                ",
"                                                ",
"                                                ",
"                                                "
};
