/* XPM */
static char *menu_pressed[] = {
/* columns rows colors chars-per-pixel */
"48 57 157 2 ",
"   c #313031",
".  c #727715",
"X  c #777F13",
"o  c #747C18",
"O  c #7F5E25",
"+  c #727823",
"@  c #7E7B26",
"#  c #4A4D4A",
"$  c #655C40",
"%  c #635C44",
"&  c #706F56",
"*  c #797857",
"=  c #75725C",
"-  c #9C6A1E",
";  c #A07F23",
":  c #7A8019",
">  c #71921B",
",  c #7EA50B",
"<  c #69B20D",
"1  c #7CB809",
"2  c #73892F",
"3  c #7D8F2D",
"4  c #759526",
"5  c #6E8B3A",
"6  c #829417",
"7  c #8D9F12",
"8  c #88A609",
"9  c #8DB907",
"0  c #99B809",
"q  c #A5BF06",
"w  c #83812B",
"e  c #8A832B",
"r  c #928F2F",
"t  c #868935",
"y  c #999634",
"u  c #B28521",
"i  c #AC972C",
"p  c #ABA133",
"a  c #B6A430",
"s  c #F6A71E",
"d  c #FCAF1F",
"f  c #CD9222",
"g  c #C7B231",
"h  c #FCB622",
"j  c #FFBF22",
"k  c #82CA0E",
"l  c #93C306",
"z  c #A7CB05",
"x  c #B3C707",
"c  c #B1D304",
"v  c #8DF500",
"b  c #8DF40D",
"n  c #94F500",
"m  c #8FF314",
"M  c #A0E801",
"N  c #A7EB0F",
"B  c #AFED0A",
"V  c #BDE601",
"C  c #BDEE03",
"Z  c #A8F300",
"A  c #ACF300",
"S  c #B7F200",
"D  c #BCF200",
"F  c #A0E81E",
"G  c #BEE91B",
"H  c #B9EA1D",
"J  c #AED42D",
"K  c #AAE82B",
"L  c #B9E63A",
"P  c #C3DE02",
"I  c #C1E601",
"U  c #CCE401",
"Y  c #CEEA01",
"T  c #C2F200",
"R  c #C5F000",
"E  c #CCF100",
"W  c #D5F000",
"Q  c #DBCC39",
"!  c #FFC123",
"~  c #FFC626",
"^  c #FFC926",
"/  c #F0CA2F",
"(  c #FFCF2A",
")  c #FFD22B",
"_  c #FFD32F",
"`  c #FFC233",
"'  c #C0E030",
"]  c #FEEB3C",
"[  c #FFEF3E",
"{  c #928F49",
"}  c #8D9840",
"|  c #9C9140",
" . c #909056",
".. c #A7A055",
"X. c #828164",
"o. c #96946E",
"O. c #858470",
"+. c #9D9D71",
"@. c #9C9A76",
"#. c #91907C",
"$. c #96947C",
"%. c #A0A662",
"&. c #ABB561",
"*. c #A8B56C",
"=. c #BFBF65",
"-. c #A3A970",
";. c #A2A07F",
":. c #CA9F4B",
">. c #AAD24F",
",. c #ADEF5A",
"<. c #FFCD40",
"1. c #FFDD46",
"2. c #FFF442",
"3. c #FCF346",
"4. c #FFF54A",
"5. c #FFF949",
"6. c #FFF94D",
"7. c #FFFC4C",
"8. c #EDEC51",
"9. c #FEF054",
"0. c #F8F458",
"q. c #FFFD5F",
"w. c #C5DD7F",
"e. c #FFD76D",
"r. c #FED778",
"t. c #FFE071",
"y. c #FFFF7F",
"u. c #96938A",
"i. c #A5A284",
"p. c #A9A687",
"a. c #AFB088",
"s. c #B0AD90",
"d. c #B6B398",
"f. c #BCBAA1",
"g. c #B2B0A8",
"h. c #EFDA83",
"j. c #EEEE81",
"k. c #FFFC81",
"l. c #FFFA8A",
"z. c #FFFF8C",
"x. c #FFEB95",
"c. c #C2C0A9",
"v. c #C9C6B2",
"b. c #D0CCBA",
"n. c #CFD3B8",
"m. c #D1E2AF",
"M. c #D4D1C2",
"N. c #DBD8C8",
"B. c #DCD8CB",
"V. c #E2DFD4",
"C. c #DFE6C9",
"Z. c #E3EDCA",
"A. c #E5E1DA",
"S. c #E9E5DC",
"D. c #EEECE1",
"F. c #F0ECE5",
"G. c #F6F1ED",
/* pixels */
"# # # # # # # # # # # # # # # # # # # # # # # # # # # # # # # # # # # # # # # # # # # # # # # # ",
"# # # # # # # # # # # # # # # # # # # # # # # # # # # # # # # # # # # # # # # # # # # # # # # # ",
"# # # # # # # # # # # # # # # # # # # # # # # # # # # # # # # # # # # # # # # # # # # # # # # # ",
"                                                                                                ",
"                                                                                                ",
"                                                                                                ",
"G.G.G.G.G.G.G.G.G.G.G.G.G.G.G.G.G.G.G.G.G.G.G.G.G.G.G.G.G.G.G.G.G.G.G.G.G.G.G.G.G.G.G.G.G.G.G.G.",
"G.G.G.G.G.G.G.G.G.G.G.G.G.G.G.G.G.G.G.G.G.G.G.G.G.G.G.G.G.G.G.G.G.G.G.G.G.G.G.G.G.G.G.G.G.G.G.G.",
"G.G.G.G.G.G.G.G.G.G.G.G.G.G.G.G.G.G.G.G.G.G.G.G.G.G.G.G.G.G.G.G.G.G.G.G.G.G.G.G.G.G.G.G.G.G.G.G.",
"F.F.F.F.F.F.F.F.F.F.F.F.F.F.F.F.F.F.D.D.D.Z.Z.Z.g.g.g.#.#.#.u.u.u.A.A.A.F.F.F.F.F.F.F.F.F.F.F.F.",
"F.F.F.F.F.F.F.F.F.F.F.F.F.F.F.F.F.F.D.D.D.Z.Z.Z.g.g.g.#.#.#.u.u.u.A.A.A.F.F.F.F.F.F.F.F.F.F.F.F.",
"F.F.F.F.F.F.F.F.F.F.F.F.F.F.F.F.F.F.D.D.D.Z.Z.Z.g.g.g.#.#.#.u.u.u.A.A.A.F.F.F.F.F.F.F.F.F.F.F.F.",
"S.S.S.S.S.S.S.S.S.S.S.S.C.C.C.,.,.,.b b b < < < =.=.=.y.y.y.8.8.8.* * * S.S.S.S.S.S.S.S.S.S.S.S.",
"S.S.S.S.S.S.S.S.S.S.S.S.C.C.C.,.,.,.b b b < < < =.=.=.y.y.y.8.8.8.* * * S.S.S.S.S.S.S.S.S.S.S.S.",
"S.S.S.S.S.S.S.S.S.S.S.S.C.C.C.,.,.,.b b b < < < =.=.=.y.y.y.8.8.8.* * * S.S.S.S.S.S.S.S.S.S.S.S.",
"V.V.V.V.V.V.V.V.V.m.m.m.m m m v v v n n n 4 4 4 z.z.z.q.q.q.7.7.7.y y y n.n.n.V.V.V.V.V.V.V.V.V.",
"V.V.V.V.V.V.V.V.V.m.m.m.m m m v v v n n n 4 4 4 z.z.z.q.q.q.7.7.7.y y y n.n.n.V.V.V.V.V.V.V.V.V.",
"V.V.V.V.V.V.V.V.V.m.m.m.m m m v v v n n n 4 4 4 z.z.z.q.q.q.7.7.7.y y y n.n.n.V.V.V.V.V.V.V.V.V.",
"B.B.B.B.B.B.M.M.M.5 5 5 } } } 3 3 3 1 1 1 > > > 0.0.0.5.5.5.3.3.3.w w w K K K N.N.N.B.B.B.B.B.B.",
"B.B.B.B.B.B.M.M.M.5 5 5 } } } 3 3 3 1 1 1 > > > 0.0.0.5.5.5.3.3.3.w w w K K K N.N.N.B.B.B.B.B.B.",
"B.B.B.B.B.B.M.M.M.5 5 5 } } } 3 3 3 1 1 1 > > > 0.0.0.5.5.5.3.3.3.w w w K K K N.N.N.B.B.B.B.B.B.",
"M.M.M.M.M.M.O.O.O.j.j.j.k.k.k.6.6.6.r r r l l l + + + p p p e e e , , , A A A w.w.w.M.M.M.M.M.M.",
"M.M.M.M.M.M.O.O.O.j.j.j.k.k.k.6.6.6.r r r l l l + + + p p p e e e , , , A A A w.w.w.M.M.M.M.M.M.",
"M.M.M.M.M.M.O.O.O.j.j.j.k.k.k.6.6.6.r r r l l l + + + p p p e e e , , , A A A w.w.w.M.M.M.M.M.M.",
"b.b.b.b.b.b. . . .l.l.l.4.4.4.2.2.2.Q Q Q 8 8 8 R R R c c c V V V T T T S S S L L L b.b.b.b.b.b.",
"b.b.b.b.b.b. . . .l.l.l.4.4.4.2.2.2.Q Q Q 8 8 8 R R R c c c V V V T T T S S S L L L b.b.b.b.b.b.",
"b.b.b.b.b.b. . . .l.l.l.4.4.4.2.2.2.Q Q Q 8 8 8 R R R c c c V V V T T T S S S L L L b.b.b.b.b.b.",
"v.v.v.v.v.v.2 2 2 9.9.9.[ [ [ ] ] ] a a a q q q W W W U U U Y Y Y E E E T T T H H H v.v.v.v.v.v.",
"v.v.v.v.v.v.2 2 2 9.9.9.[ [ [ ] ] ] a a a q q q W W W U U U Y Y Y E E E T T T H H H v.v.v.v.v.v.",
"v.v.v.v.v.v.2 2 2 9.9.9.[ [ [ ] ] ] a a a q q q W W W U U U Y Y Y E E E T T T H H H v.v.v.v.v.v.",
"c.c.c.c.c.c.k k k @ @ @ g g g i i i X X X x x x t t t ......| | | : : : I I I G G G c.c.c.c.c.c.",
"c.c.c.c.c.c.k k k @ @ @ g g g i i i X X X x x x t t t ......| | | : : : I I I G G G c.c.c.c.c.c.",
"c.c.c.c.c.c.k k k @ @ @ g g g i i i X X X x x x t t t ......| | | : : : I I I G G G c.c.c.c.c.c.",
"f.f.f.f.f.f.F F F M M M 9 9 9 z z z P P P { { { x.x.x.t.t.t.1.1.1./ / / . . . ' ' ' f.f.f.f.f.f.",
"f.f.f.f.f.f.F F F M M M 9 9 9 z z z P P P { { { x.x.x.t.t.t.1.1.1./ / / . . . ' ' ' f.f.f.f.f.f.",
"f.f.f.f.f.f.F F F M M M 9 9 9 z z z P P P { { { x.x.x.t.t.t.1.1.1./ / / . . . ' ' ' f.f.f.f.f.f.",
"d.d.d.d.d.d.>.>.>.Z Z Z S S S R R R 7 7 7 h.h.h.e.e.e._ _ _ ) ) ) ( ( ( ; ; ; &.&.&.d.d.d.d.d.d.",
"d.d.d.d.d.d.>.>.>.Z Z Z S S S R R R 7 7 7 h.h.h.e.e.e._ _ _ ) ) ) ( ( ( ; ; ; &.&.&.d.d.d.d.d.d.",
"d.d.d.d.d.d.>.>.>.Z Z Z S S S R R R 7 7 7 h.h.h.e.e.e._ _ _ ) ) ) ( ( ( ; ; ; &.&.&.d.d.d.d.d.d.",
"s.s.s.s.s.s.a.a.a.N N N S S S T T T 6 6 6 r.r.r.<.<.<.^ ^ ^ ^ ^ ^ ~ ~ ~ u u u $.$.$.s.s.s.s.s.s.",
"s.s.s.s.s.s.a.a.a.N N N S S S T T T 6 6 6 r.r.r.<.<.<.^ ^ ^ ^ ^ ^ ~ ~ ~ u u u $.$.$.s.s.s.s.s.s.",
"s.s.s.s.s.s.a.a.a.N N N S S S T T T 6 6 6 r.r.r.<.<.<.^ ^ ^ ^ ^ ^ ~ ~ ~ u u u $.$.$.s.s.s.s.s.s.",
"p.p.p.p.p.p.p.p.p.*.*.*.B B B D D D 0 0 0 :.:.:.` ` ` ! ! ! j j j h h h O O O i.i.i.p.p.p.p.p.p.",
"p.p.p.p.p.p.p.p.p.*.*.*.B B B D D D 0 0 0 :.:.:.` ` ` ! ! ! j j j h h h O O O i.i.i.p.p.p.p.p.p.",
"p.p.p.p.p.p.p.p.p.*.*.*.B B B D D D 0 0 0 :.:.:.` ` ` ! ! ! j j j h h h O O O i.i.i.p.p.p.p.p.p.",
";.;.;.;.;.;.;.;.;.;.;.;.-.-.-.J J J C C C o o o f f f d d d s s s - - - = = = ;.;.;.;.;.;.;.;.;.",
";.;.;.;.;.;.;.;.;.;.;.;.-.-.-.J J J C C C o o o f f f d d d s s s - - - = = = ;.;.;.;.;.;.;.;.;.",
";.;.;.;.;.;.;.;.;.;.;.;.-.-.-.J J J C C C o o o f f f d d d s s s - - - = = = ;.;.;.;.;.;.;.;.;.",
"@.@.@.@.@.@.@.@.@.@.@.@.@.@.@.@.@.@.+.+.+.%.%.%.& & & $ $ $ % % % X.X.X.@.@.@.@.@.@.@.@.@.@.@.@.",
"@.@.@.@.@.@.@.@.@.@.@.@.@.@.@.@.@.@.+.+.+.%.%.%.& & & $ $ $ % % % X.X.X.@.@.@.@.@.@.@.@.@.@.@.@.",
"@.@.@.@.@.@.@.@.@.@.@.@.@.@.@.@.@.@.+.+.+.%.%.%.& & & $ $ $ % % % X.X.X.@.@.@.@.@.@.@.@.@.@.@.@.",
"o.o.o.o.o.o.o.o.o.o.o.o.o.o.o.o.o.o.o.o.o.o.o.o.o.o.o.o.o.o.o.o.o.o.o.o.o.o.o.o.o.o.o.o.o.o.o.o.",
"o.o.o.o.o.o.o.o.o.o.o.o.o.o.o.o.o.o.o.o.o.o.o.o.o.o.o.o.o.o.o.o.o.o.o.o.o.o.o.o.o.o.o.o.o.o.o.o.",
"o.o.o.o.o.o.o.o.o.o.o.o.o.o.o.o.o.o.o.o.o.o.o.o.o.o.o.o.o.o.o.o.o.o.o.o.o.o.o.o.o.o.o.o.o.o.o.o.",
"                                                                                                ",
"                                                                                                ",
"                                                                                                "
};
