/* XPM */
static char *bottom_right_active[] = {
/* columns rows colors chars-per-pixel */
"46 28 8 1 ",
"  c None",
". c black",
"X c #666A82",
"o c #7F8297",
"O c #949594 s active_shadow_2",
"+ c #9195A6",
"@ c #BEBFCA",
"# c #D5D6D5 s active_color_2",
/* pixels */
"                                       ..#OO..",
"                                       ..#OO..",
"                                       ..@++..",
"                                       ..@++..",
"                                       ..@XX..",
"                                       ..@XX..",
"                                       ..@XX..",
"                                       ..@XX..",
"                                       ..@XX..",
"                                       ..@XX..",
"                                       ..@XX..",
"                                       ..@XX..",
"                                       ..@XX..",
"                                       ..@XX..",
"                                       ..@XX..",
"                                       ..@XX..",
"                                     ..@@+XX..",
"                                     ..@@+XX..",
".....................................@@++oXX..",
"##@@@@@@@@@@@@@@@@@@@@@@@@@@@@@@@@@@@++ooX..  ",
"##@@@@@@@@@@@@@@@@@@@@@@@@@@@@@@@@@@@++ooX..  ",
"OO@@+++++++++++++++++++++++++++++++++ooooX..  ",
"OO@@+++++++++++++++++++++++++++++++++ooooX..  ",
"OO@@oooooooooooooooooooooooooooooooooXXXX.    ",
"OO@@oooooooooooooooooooooooooooooooooXXXX.    ",
"OO++XXXXXXXXXXXXXXXXXXXXXXXXXXXXXXXXX....     ",
".....................................         ",
".....................................         "
};
