/* XPM */
static char *stick_inactive[] = {
/* columns rows colors chars-per-pixel */
"36 36 4 1 ",
"  c None",
". c #B0B0FF s inactive_mid_1",
"X c #C0C0FF s inactive_color_1",
"o c #D0D0FF s inactive_hilight_1",
/* pixels */
"                                    ",
"                                    ",
"    ............................    ",
"    ............................    ",
"  ................................  ",
"  ................................  ",
"  ................................  ",
"  ................................  ",
"  ..........XXooooooooXX..........  ",
"  ..........XXooooooooXX..........  ",
"  ........XXooooooooooooXX........  ",
"  ........XXooooooooooooXX........  ",
"  ........oooooo....oooooo........  ",
"  ........oooooo....oooooo........  ",
"  ........oooo........oooo........  ",
"  ........oooo........oooo........  ",
"  ........oooo........oooo........  ",
"  ........oooo........oooo........  ",
"  ........oooooo....oooooo........  ",
"  ........oooooo....oooooo........  ",
"  ........XXooooooooooooXX........  ",
"  ........XXooooooooooooXX........  ",
"  ..........XXooooooooXX..........  ",
"  ..........XXooooooooXX..........  ",
"  ................................  ",
"  ................................  ",
"  ................................  ",
"  ................................  ",
"    ............................    ",
"    ............................    ",
"                                    ",
"                                    ",
"                                    ",
"                                    ",
"                                    ",
"                                    "
};
