/* XPM */
static char *maximize_active[] = {
/* columns rows colors chars-per-pixel */
"60 78 104 2 ",
"   c None",
".  c #1E1F26",
"X  c #1E2027",
"o  c #1F2127",
"O  c #202128",
"+  c #212329",
"@  c #23242A",
"#  c #24252C",
"$  c #25262C",
"%  c #26272D",
"&  c #27282D",
"*  c #28292E",
"=  c #292A2F",
"-  c #292A30",
";  c #2C2C32",
":  c #2C2D32",
">  c #2E2F34",
",  c #2F3034",
"<  c #313236",
"1  c #323236",
"2  c #333438",
"3  c #353539",
"4  c #353639",
"5  c #37373A",
"6  c #37383B",
"7  c #38393C",
"8  c #3A3D4B",
"9  c #454753",
"0  c #626369",
"q  c #66676D",
"w  c #64677F",
"e  c #63687E",
"r  c #71737D",
"t  c #636880",
"y  c #666A80",
"u  c #656982",
"i  c #6A6D82",
"p  c #6E7286",
"a  c #797C86",
"s  c #73768B",
"d  c #787B8E",
"f  c #767B90",
"g  c #787C91",
"h  c #797D92",
"j  c #7B7E92",
"k  c #7E8093",
"l  c #7F8394",
"z  c #7E8296",
"x  c #838696",
"c  c #838797",
"v  c #8B8C95",
"b  c #868A9C",
"n  c #8B8C9D",
"m  c #8B8E9D",
"M  c #90929B",
"N  c #91939E",
"B  c #8C90A1",
"V  c #8E92A3",
"C  c #9194A2",
"Z  c #9396A3",
"A  c #9295A4",
"S  c #9597A4",
"D  c #9B9CA6",
"F  c #9699A8",
"G  c #989BAB",
"H  c #9B9DAB",
"J  c #9A9DAC",
"K  c #9A9DAD",
"L  c #9EA0AC",
"P  c #9DA0B0",
"I  c #A3A5AC",
"U  c #A5A6AE",
"Y  c #A2A4B0",
"T  c #A2A5B3",
"R  c #A4A6B6",
"E  c #A6A8B3",
"W  c #AAACB3",
"Q  c #A8ABB5",
"!  c #AAACB7",
"~  c #A9ABBA",
"^  c #ACAEBB",
"/  c #AEB0BA",
"(  c #B1B3BB",
")  c #B3B4BD",
"_  c #B4B6C1",
"`  c #B4B6C2",
"'  c #B4B6C3",
"]  c #B5B7C3",
"[  c #B6B8C1",
"{  c #B7B9C2",
"}  c #B8BAC3",
"|  c #BCBEC6",
" . c #BCBEC9",
".. c #BFC1CA",
"X. c #C0C2CA",
"o. c #C1C3CC",
"O. c #C0C2CD",
"+. c #C2C4CE",
"@. c #C5C7D0",
"#. c #C6C8D1",
"$. c #CDCFD7",
"%. c #D5D7DE",
"&. c #D6D7DE",
"*. c #D9DAE0",
/* pixels */
"                                                                                                                        ",
"                                                                                                                        ",
"                                                                                                                        ",
"                                                                                                                        ",
"                                                                                                                        ",
"                                                                                                                        ",
"                                                                                                                        ",
"                                                                                                                        ",
"                                                                                                                        ",
"                                                                                                                        ",
"                                                                                                                        ",
"                                                                                                                        ",
"u u u 8 8 8 . . . . . . . . . . . . . . . . . . . . . . . . . . . . . . . . . . . . . . . . . . . . . . . . 8 8 8 u u u ",
"u u u 8 8 8 . . . . . . . . . . . . . . . . . . . . . . . . . . . . . . . . . . . . . . . . . . . . . . . . 8 8 8 u u u ",
"u u u 8 8 8 . . . . . . . . . . . . . . . . . . . . . . . . . . . . . . . . . . . . . . . . . . . . . . . . 8 8 8 u u u ",
"t t t . . . #.#.#.#.#.#.#.#.#.#.#.#.#.#.#.#.#.#.#.#.#.#.#.#.#.#.#.#.#.#.#.#.#.#.#.#.#.#.#.#.#.#.#.#.#.#.#.#.. . . t t t ",
"t t t . . . #.#.#.#.#.#.#.#.#.#.#.#.#.#.#.#.#.#.#.#.#.#.#.#.#.#.#.#.#.#.#.#.#.#.#.#.#.#.#.#.#.#.#.#.#.#.#.#.. . . t t t ",
"t t t . . . #.#.#.#.#.#.#.#.#.#.#.#.#.#.#.#.#.#.#.#.#.#.#.#.#.#.#.#.#.#.#.#.#.#.#.#.#.#.#.#.#.#.#.#.#.#.#.#.. . . t t t ",
"w w w X X X B B B B B B B B B B B B B B B B B B B B B B B B B B B B B B B B B B B B B B B B B B B B B B B B X X X w w w ",
"w w w X X X B B B B B B B B B B B B B B B B B B B B B B B B B B B B B B B B B B B B B B B B B B B B B B B B X X X w w w ",
"w w w X X X B B B B B B B B B B B B B B B B B B B B B B B B B B B B B B B B B B B B B B B B B B B B B B B B X X X w w w ",
"e e e X X X f f f f f f f f f f f f f f f f f f f f f f f f f f f f f f f f f f f f f f f f f f f f f f f f X X X e e e ",
"e e e X X X f f f f f f f f f f f f f f f f f f f f f f f f f f f f f f f f f f f f f f f f f f f f f f f f X X X e e e ",
"e e e X X X f f f f f f f f f f f f f f f f f f f f f f f f f f f f f f f f f f f f f f f f f f f f f f f f X X X e e e ",
"u u u O O O h h h h h h h h h 9 9 9 @ @ @ @ @ @ @ @ @ @ @ @ @ @ @ @ @ @ @ @ @ @ @ @ 9 9 9 h h h h h h h h h O O O u u u ",
"u u u O O O h h h h h h h h h 9 9 9 @ @ @ @ @ @ @ @ @ @ @ @ @ @ @ @ @ @ @ @ @ @ @ @ 9 9 9 h h h h h h h h h O O O u u u ",
"u u u O O O h h h h h h h h h 9 9 9 @ @ @ @ @ @ @ @ @ @ @ @ @ @ @ @ @ @ @ @ @ @ @ @ 9 9 9 h h h h h h h h h O O O u u u ",
"i i i O O O z z z z z z h h h $ $ $ *.*.*.*.*.*.*.*.*.*.*.*.*.*.*.*.*.*.*.*.*.*.*.*.$ $ $ h h h z z z z z z O O O i i i ",
"i i i O O O z z z z z z h h h $ $ $ *.*.*.*.*.*.*.*.*.*.*.*.*.*.*.*.*.*.*.*.*.*.*.*.$ $ $ h h h z z z z z z O O O i i i ",
"i i i O O O z z z z z z h h h $ $ $ *.*.*.*.*.*.*.*.*.*.*.*.*.*.*.*.*.*.*.*.*.*.*.*.$ $ $ h h h z z z z z z O O O i i i ",
"p p p @ @ @ b b b b b b z z z & & & R R R R R R R R R R R R R R R R R R R R R R R R * & & z z z b b b b b b @ @ @ p p p ",
"p p p @ @ @ b b b b b b z z z & & & R R R R R R R R R R R R R R R R R R R R R R R R * & & z z z b b b b b b @ @ @ p p p ",
"p p p @ @ @ b b b b b b z z z & & & R R R R R R R R R R R R R R R R R R R R R R R R & & & z z z b b b b b b @ @ @ p p p ",
"s s s $ $ $ B B B B B B c c c * * * ~ ~ ~ ~ ~ ~ ~ ~ ~ ~ ~ ~ ~ ~ ~ ~ ~ ~ ~ ~ ~ ~ ~ ~ * * * c c c B B B B B B $ $ $ s s s ",
"s s s $ $ $ B B B B B B c c c * * * ~ ~ ~ ~ ~ ~ ~ ~ ~ ~ ~ ~ ~ ~ ~ ~ ~ ~ ~ ~ ~ ~ ~ ~ * * * c c c B B B B B B $ $ $ s s s ",
"s s s $ $ $ B B B B B B c c c * * * ~ ~ ~ ~ ~ ~ ~ ~ ~ ~ ~ ~ ~ ~ ~ ~ ~ ~ ~ ~ ~ ~ ~ ~ * * * c c c B B B B B B $ $ $ s s s ",
"d d d $ $ $ G G G G G G m m m : : : ' ' ' : : : : : : : : : : : : : : : : : : ' ' ' : : : m m m G G G G G G $ $ $ d d d ",
"d d d $ $ $ G G G G G G m m m : : : ' ' ' : : : : : : : : : : : : : : : : : : ' ' ' : : : m m m G G G G G G $ $ $ d d d ",
"d d d $ $ $ G G G G G G m m m : : : ' ' ' : : : : : : : : : : : : : : : : : : ' ' ' : : : m m m G G G G G G $ $ $ d d d ",
"k k k * * * T T T T T T S S S , , , O.O.O., , , r r r a a a a a a r r r , , , O.O.O., , , S S S T T T T T T * * * k k k ",
"k k k * * * T T T T T T S S S , , , O.O.O., , , r r r a a a a a a r r r , , , O.O.O., , , S S S T T T T T T * * * k k k ",
"k k k * * * T T T T T T S S S , , , O.O.O., , , r r r a a a a a a r r r , , , O.O.O., , , S S S T T T T T T * * * k k k ",
"c c c - - - ^ ^ ^ ^ ^ ^ L L L 1 1 1 $.$.$.1 1 1 N N N L L L L L L N N N 1 1 1 $.$.$.1 1 1 L L L ^ ^ ^ ^ ^ ^ - - - c c c ",
"c c c - - - ^ ^ ^ ^ ^ ^ L L L 1 1 1 $.$.$.1 1 1 N N N L L L L L L N N N 1 1 1 $.$.$.1 1 1 L L L ^ ^ ^ ^ ^ ^ - - - c c c ",
"c c c - - - ^ ^ ^ ^ ^ ^ L L L 1 1 1 $.$.$.1 1 1 N N N L L L L L L N N N 1 1 1 $.$.$.1 1 1 L L L ^ ^ ^ ^ ^ ^ - - - c c c ",
"m m m : : : ' ' ' ' ' ' E E E 3 3 3 &.&.&.3 3 3 3 3 3 3 3 3 3 3 3 3 3 3 3 3 3 &.&.&.3 3 3 E E E ' ' ' ' ' ' : : : m m m ",
"m m m : : : ' ' ' ' ' ' E E E 3 3 3 &.&.&.3 3 3 3 3 3 3 3 3 3 3 3 3 3 3 3 3 3 &.&.&.3 3 3 E E E ' ' ' ' ' ' ; ; : m m m ",
"m m m : : : ' ' ' ' ' ' E E E 3 3 3 &.&.&.3 3 3 3 3 3 3 3 3 3 3 3 3 3 3 3 3 3 &.&.&.3 3 3 E E E ' ' ' ' ' ' ; ; ; m m m ",
"Z Z Z > > >  . . . . . ./ / / 3 3 3 &.&.&.&.&.&.&.&.&.&.&.&.&.&.&.&.&.&.&.&.&.&.&.&.3 3 3 / / /  . . . . . .> > > Z Z Z ",
"Z Z Z > > >  . . . . . ./ / / 3 3 3 &.&.&.&.&.&.&.&.&.&.&.&.&.&.&.&.&.&.&.&.&.&.&.&.3 3 3 / / /  . . . . . .> > > Z Z Z ",
"Z Z Z > > >  . . . . . ./ / / 3 3 3 &.&.&.&.&.&.&.&.&.&.&.&.&.&.&.&.&.&.&.&.&.&.&.&.3 3 3 / / /  . . . . . .> > > Z Z Z ",
"G G G 1 1 1 +.+.+.+.+.+.} } } q q q 7 7 7 7 7 7 7 7 7 7 7 7 7 7 7 7 7 7 7 7 7 7 7 7 q q q } } } +.+.+.+.+.+.1 1 1 G G G ",
"G G H 1 1 1 +.+.+.+.+.+.} } } q q q 7 7 7 7 7 7 7 7 7 7 7 7 7 7 7 7 7 7 7 7 7 7 7 7 q q q } } } +.+.+.+.+.+.1 1 1 G G G ",
"G G G 1 1 1 +.+.+.+.+.+.} } } q q q 7 7 7 7 7 7 7 7 7 7 7 7 7 7 7 7 7 7 7 7 7 7 7 7 q q q } } } +.+.+.+.+.+.1 1 1 G G G ",
"T T T 3 2 2 +.@.@.@.@.@.X.X.X.{ { { W W W U U U U U U U U U U U U U U U U U U W W W { { { X.X.X.@.@.@.@.@.@.2 2 2 T T T ",
"T T T 3 2 2 @.@.@.@.@.@.X.X.X.{ { { W W W U U U U U U U U U U U U U U U U U U W W W { { { X.X.X.@.@.@.@.@.@.2 2 2 T T T ",
"T T T 2 3 2 @.@.@.@.@.@.X.X.X.{ { { W W W U U U U U U U U U U U U U U U U U U W W W { { { X.X.X.@.@.@.@.#.#.3 3 2 U T T ",
"Q Q Q 3 3 3 O.O.O.O.O.O.......| | | { { { ) ) ) ( ( ( ( ) ) ) ) ( ( ( ( ) ) ) { } } | | | ......O.O.O.O.+.+.3 3 3 Q Q Q ",
"Q Q Q 3 3 3 O.O.O.O.O.O.......| | | } } { ) ) ) ( ( ( ( ( ( ) ( ( ( ( ( ) ) ) { } } | | | ......O.O.O.O.+.+.3 3 3 Q Q Q ",
"Q Q Q 3 3 3 O.O.O.O.O.O.......| | | { { { ) ) ) ( ( ( ( ( ( ) ( ( ( ( ( ) ) ) { } } | | | ......O.O.O.O.O.O.3 3 3 Q Q Q ",
"/ / / 3 6 6 G G G G G G G G G G G G G G G G G G G G G G G G G G G G G G G G G G G G G G G G G G G G G G G G 3 3 3 / / / ",
"/ / / 3 6 6 G G G G G G G G G G G G G G G G G G G G G G G G G G G G G G G G G G G G G G G G G G G G G G G G 3 3 3 / / / ",
"/ / / 3 6 6 G G G G G G G G G G G G G G G G G G G G G G G G G G G G G G G G G G G G G G G G G G G G G G G G 3 3 3 / / / ",
"' ' ' 0 0 0 7 7 6 6 7 7 7 6 6 6 7 7 7 7 6 6 7 7 7 6 6 6 7 7 7 7 6 6 7 7 7 6 6 6 7 7 7 7 6 7 7 7 6 6 6 6 6 6 0 0 0 ' ' ' ",
"' ' ' 0 0 0 6 6 6 6 6 6 6 6 6 6 6 6 6 6 6 6 6 6 6 6 6 6 6 6 6 6 6 6 6 6 6 6 6 6 6 6 6 6 6 6 6 6 6 6 6 6 6 6 0 0 0 ' ' ' ",
"' ' ' 0 0 0 6 6 6 6 6 6 6 6 6 6 6 6 6 6 6 6 6 6 6 6 6 6 6 6 6 6 6 6 6 6 6 6 6 6 6 6 6 6 6 6 6 6 6 6 6 6 6 6 0 0 0 ' ' ' ",
"' ' ' W W W D D D M M M v v v v v v v v v v v v v v v v v v v v v v v v v v v v v v v v v v v v M M M D D D W W W ' ' ' ",
"' ' ' W W W D D D M M M v v v v v v v v v v v v v v v v v v v v v v v v v v v v v v v v v v v v M M M D D D W W W ' ' ' ",
"' ' ' W W W D D D M M M v v v v v v v v v v v v v v v v v v v v v v v v v v v v v v v v v v v v M M M D D D W W W ' ' ' ",
"P P P G G G F F F A A A Z Z Z Z Z Z Z Z C C Z Z C C C Z Z Z Z Z Z C C C Z Z Z Z Z Z Z Z C C Z Z A A A F F F G G G P P P ",
"P P P G G G F F F A A A Z Z Z Z Z Z Z Z C C C Z C C Z Z Z Z Z Z Z C C C Z Z Z Z Z Z Z Z C C C Z A A A F F F G G G P P P ",
"P P P G G G F F F A A A Z Z Z Z Z Z Z Z C C C C C C C Z Z Z Z Z Z Z Z C Z Z Z Z Z Z Z Z C C C C A A A F F F G G G P P P ",
"                                                                                                                        ",
"                                                                                                                        ",
"                                                                                                                        ",
"                                                                                                                        ",
"                                                                                                                        ",
"                                                                                                                        "
};
