/* XPM */
static char *bottom_right_inactive[] = {
/* columns rows colors chars-per-pixel */
"18 18 4 1 ",
"  c None",
". c #B4BAB4",
"X c #D5DAD5",
"o c #E6EAE6",
/* pixels */
"              oXX.",
"              oXX.",
"              oXX.",
"              oXX.",
"              oXX.",
"              oXX.",
"              oXX.",
"              oXX.",
"              oXX.",
"              oXX.",
"              oXX.",
"              oXX.",
"              oXX.",
"              oXX.",
"oooooooooooooooXX.",
"XXXXXXXXXXXXXXXXX.",
"XXXXXXXXXXXXXXXXX.",
".................."
};
