/* XPM */
static char *right_inactive[] = {
/* columns rows colors chars-per-pixel */
"6 96 3 1 ",
"  c black",
". c #979786",
"X c #AEAE9D",
/* pixels */
"  X.. ",
"  X.. ",
"  X.. ",
"  X.. ",
"  X.. ",
"  X.. ",
"  X.. ",
"  X.. ",
"  X.. ",
"  X.. ",
"  X.. ",
"  X.. ",
"  X.. ",
"  X.. ",
"  X.. ",
"  X.. ",
"  X.. ",
"  X.. ",
"  X.. ",
"  X.. ",
"  X.. ",
"  X.. ",
"  X.. ",
"  X.. ",
"  X.. ",
"  X.. ",
"  X.. ",
"  X.. ",
"  X.. ",
"  X.. ",
"  X.. ",
"  X.. ",
"  X.. ",
"  X.. ",
"  X.. ",
"  X.. ",
"  X.. ",
"  X.. ",
"  X.. ",
"  X.. ",
"  X.. ",
"  X.. ",
"  X.. ",
"  X.. ",
"  X.. ",
"  X.. ",
"  X.. ",
"  X.. ",
"  X.. ",
"  X.. ",
"  X.. ",
"  X.. ",
"  X.. ",
"  X.. ",
"  X.. ",
"  X.. ",
"  X.. ",
"  X.. ",
"  X.. ",
"  X.. ",
"  X.. ",
"  X.. ",
"  X.. ",
"  X.. ",
"  X.. ",
"  X.. ",
"  X.. ",
"  X.. ",
"  X.. ",
"  X.. ",
"  X.. ",
"  X.. ",
"  X.. ",
"  X.. ",
"  X.. ",
"  X.. ",
"  X.. ",
"  X.. ",
"  X.. ",
"  X.. ",
"  X.. ",
"  X.. ",
"  X.. ",
"  X.. ",
"  X.. ",
"  X.. ",
"  X.. ",
"  X.. ",
"  X.. ",
"  X.. ",
"  X.. ",
"  X.. ",
"  X.. ",
"  X.. ",
"  X.. ",
"  X.. "
};
