/* XPM */
static char *menu_inactive[] = {
/* columns rows colors chars-per-pixel */
"38 48 139 2 ",
"   c black",
".  c gray62",
"X  c #B6B7B7",
"o  c #B7B8B6",
"O  c #B9B9B7",
"+  c #B7B9B9",
"@  c #BABBBB",
"#  c #BBBCBC",
"$  c #BDBEBE",
"%  c #C7B293",
"&  c #C9B695",
"*  c #C9B895",
"=  c #CCBA97",
"-  c #C9BE95",
";  c #CCBE97",
":  c #CCBE98",
">  c #C3BEB5",
",  c #C0BFBB",
"<  c #CCC19A",
"1  c #CCC39E",
"2  c #CCC3A2",
"3  c #CCC6AA",
"4  c #CCC7B3",
"5  c #C9C1B5",
"6  c #CFC4B4",
"7  c #CCC8B7",
"8  c #C7C2B8",
"9  c #C4C3BE",
"0  c #CCC8B8",
"q  c #D2C6B3",
"w  c #D4C6B3",
"e  c #D0C7B6",
"r  c #DFCDB3",
"t  c #DACFB6",
"y  c #D3CDB9",
"u  c #D0CDBD",
"i  c #D8CCBA",
"p  c #EFD4AF",
"a  c #E8D3B1",
"s  c #EBD3B2",
"d  c #EED3B0",
"f  c #EAD4B5",
"g  c #EAD5B9",
"h  c #F3D7B3",
"j  c #F3D8B3",
"k  c #F3DCB3",
"l  c #F6DAB6",
"z  c #F6DDB6",
"x  c #F2DAB8",
"c  c #F5DFBA",
"v  c #EDE0B6",
"b  c #F4E1B4",
"n  c #F4E5B4",
"m  c #F6E8B6",
"M  c #F2E0BD",
"N  c #F9E1B9",
"B  c #FAE6BA",
"V  c #F6EAB8",
"C  c #F6EBBE",
"Z  c #FCEBBC",
"A  c #FCEEBC",
"S  c #FDF0BD",
"D  c #C3C3C3",
"F  c #C6C5C2",
"G  c #C3C4C4",
"H  c #C6C6C5",
"J  c #C8C8C6",
"K  c #CACBC9",
"L  c #CCCBC8",
"P  c #CFCFCB",
"I  c gray80",
"U  c #CDCDCD",
"Y  c gray81",
"T  c #D5D1C5",
"R  c #DAD6C2",
"E  c #D4D2C9",
"W  c #D2D1CE",
"Q  c #DAD7CB",
"!  c #DEDAC8",
"~  c #D0D0D0",
"^  c #D2D3D1",
"/  c #D4D4D3",
"(  c gray83",
")  c gray84",
"_  c #DADAD9",
"`  c #DEDED9",
"'  c #DDDDDC",
"]  c #DFDFDF",
"[  c #E5DFC4",
"{  c #E8DDC0",
"}  c #E5E0C9",
"|  c #F6ECC0",
" . c #FCF0C1",
".. c #FEF4C2",
"X. c #FEF4CA",
"o. c #FCF3CF",
"O. c #E9E5D4",
"+. c #E0E0DF",
"@. c #EAE8DE",
"#. c #F9F1D1",
"$. c #FCF4D1",
"%. c #FEF5D4",
"&. c #FDF6D8",
"*. c #FAF4DE",
"=. c #FCF5DD",
"-. c #FEF9DA",
";. c #FEF8DF",
":. c #E1E1E1",
">. c #E3E3E3",
",. c #E4E4E3",
"<. c #E4E4E4",
"1. c #E5E5E4",
"2. c gray91",
"3. c #E9E9E8",
"4. c #EFEEE8",
"5. c #EFEFEF",
"6. c #F5F1E0",
"7. c #FAF5E0",
"8. c #FAF6E4",
"9. c #FCF7E7",
"0. c #FEFAE3",
"q. c #FDF8E4",
"w. c #F2F2EC",
"e. c #F7F5ED",
"r. c #FAF7E9",
"t. c #F8F6EC",
"y. c #FEFAE9",
"u. c #FCF8EB",
"i. c #FEFBEC",
"p. c #F3F3F3",
"a. c #F4F4F3",
"s. c gray96",
"d. c #FEFBF0",
"f. c #FEFCF2",
"g. c #FEFEF7",
"h. c #F8F8F8",
"j. c #FBFBFB",
"k. c #FEFEF9",
"l. c white",
/* pixels */
"                                                                            ",
"                                                                            ",
"                                                                            ",
"                                                                            ",
"l.l.l.l.l.l.l.l.l.l.l.l.l.l.l.l.l.l.l.l.l.l.l.l.l.l.l.l.l.l.l.l.l.l.l.l.l.l.",
"l.l.l.l.l.l.l.l.l.l.l.l.l.l.l.l.l.l.l.l.l.l.l.l.l.l.l.l.l.l.l.l.l.l.l.l.l.l.",
"l.l.l.l.l.l.l.l.l.l.l.l.j.j.5.5.3.3.1.1.3.3.a.a.j.j.l.l.l.l.l.l.l.l.l.l.l.l.",
"l.l.l.l.l.l.l.l.l.l.l.l.j.j.5.5.3.3.1.1.3.3.a.a.j.j.l.l.l.l.l.l.l.l.l.l.l.l.",
"l.l.l.l.l.l.l.l.j.j.1.1.^ ^ P P P P P P L L K K ) ) 5.5.l.l.l.l.l.l.l.l.l.l.",
"l.l.l.l.l.l.l.l.j.j.1.1.W W P P P P P P L L K K ) ) 5.5.l.l.l.l.l.l.l.l.l.l.",
"l.l.l.l.l.l.p.p./ / P K ` ` 4.4.t.t.r.r.6.6.O.O.E E H H :.:.j.j.l.l.l.l.l.l.",
"l.l.l.l.l.l.p.p./ / K K ` ` 4.4.t.t.r.r.6.6.O.O.E E H H :.:.j.j.l.l.l.l.l.l.",
"l.l.l.l.s.s.^ ^ W W w.w.k.k.g.g.f.f.i.i.0.0.-.-.$.$.} } F F ' ' l.l.l.l.l.l.",
"l.l.l.l.s.s.^ ^ W W w.w.k.k.g.g.f.f.i.i.0.0.-.-.$.$.} } F F ' ' l.l.l.l.l.l.",
"l.l.j.j._ _ P P e.e.g.g.g.g.g.g.d.d.y.y.;.;.%.%.X.X.....[ [ H H 1.1.l.l.l.l.",
"l.l.j.j._ _ P P e.e.g.g.g.g.g.g.d.d.y.y.;.;.%.%.X.X.....[ [ H H 1.1.l.l.l.l.",
"l.l.5.5.J J @.@.f.f.d.d.d.d.d.d.i.i.q.q.&.&.o.o. . .S S A A T T U U s.s.l.l.",
"l.l.5.5.J J @.@.f.f.d.d.d.d.d.d.i.i.q.q.&.&.o.o. . .S S A A T T U U s.s.l.l.",
"j.j._ _ P P 8.8.r.r.y.y.i.i.y.y.9.9.=.=.o.o. . .A A Z Z A A { { D D 1.1.j.j.",
"j.j._ _ P P 8.8.r.r.y.y.i.i.y.y.9.9.=.=.o.o. . .A A Z Z A A { { D D 1.1.j.j.",
"j.j.U U Q Q *.*.*.*.7.7.0 0 7 7 4 4 3 3 1 1 < < : : B B B B M M F F _ _ s.s.",
"j.j.U U Q Q *.*.*.*.7.7.0 0 7 7 4 4 3 3 1 1 < < : : B B B B M M F F _ _ s.s.",
"s.s.H H ! ! #.#.#.#.#.#.3 3 3 3 2 2 < < ; ; ; ; = = N N N N c c F F ^ ^ p.p.",
"s.s.H H ! ! #.#.#.#.#.#.3 3 3 3 2 2 < < ; ; ; ; = = N N N N c c F F ^ ^ p.p.",
"s.s.G G R R | | | | C C C C - - - - * * * * & & z z z z z z x x 9 9 U U 5.5.",
"s.s.G G R R | | | | C C C C - - - - * * * * & & z z z z z z x x 9 9 U U 5.5.",
"p.p.K K u u V V m m n n n n n n * * & & & & l l l l l l l l g g $ $ ) ) 5.5.",
"p.p.K K u u V V m m m n n n n n * * & & & & l l l l l l l l g g $ $ ) ) 5.5.",
"p.p.) ) , , v v n n b b b b z z z z % % l l l l l l l l l l i i # # _ ' 5.5.",
"p.p.) ) , , v v n n b b b b z z z z % % l l l l l l l l l l i i # # ' ' 5.5.",
"5.5.:.:.# # y y b b b b k k j j j j h h h h h h h h j j f f , , H H :.:.5.5.",
"5.5.:.:.# # y y b b k b k k j j j j h h h h h h h h j j f f , , H H :.:.5.5.",
"5.5.3.3.W W @ O t t k k j j h h h h h h h h p p p h a a 8 8 @ @ ) ) :.:.3.3.",
"5.5.3.3.W W O O t t k k j j h h h h h h h h p p p d a a 8 8 @ @ ) ) :.:.3.3.",
"3.3.3.3.1.,.H H o o e e a a p p p p p p p p p p r r > > @ @ W W ' ' 1.1.3.3.",
"3.3.3.3.1.1.H H o o e e a a p p p p p p p p p p r r > > @ @ W W ' ' 1.1.3.3.",
"3.3.1.1.1.1.' ' K K X X O O 5 5 q q w w 6 6 > > X X # # U U _ _ :.:.3.3.3.3.",
"3.3.3.3.1.1.' ' K K X X O O 5 5 q q w w 6 6 > > X X # # U U _ _ 1.:.3.3.3.3.",
"1.1.1.1.1.1.1.1.+.+./ / F H @ @ X X X X + + $ $ K K ) ) ' ' :.:.3.3.3.3.1.1.",
"1.1.1.1.1.1.1.1.+.+./ / F H @ @ X X X X + + $ $ K K ) ) ' ' :.:.3.3.3.3.1.1.",
":.:.:.:.:.:.:.:.:.:.' ' _ _ ) ) ^ ^ U U ^ ^ ) ) _ _ ' ' :.:.:.:.:.:.:.:.:.:.",
":.1.:.:.:.:.:.:.:.:.' ' _ _ ) ) ^ ^ U U ^ ^ ) ) _ _ ' ' :.:.:.:.:.:.:.:.:.:.",
"U U ^ U U U U U U U U U U U U U K K K K K K U U U U ^ ^ U U U U U ^ U U U U ",
"U U ^ ^ ^ U U U U U U U U U U U K K K K K K U U U U ^ ^ ^ U U U ^ ^ U U U U ",
". . . . . . . . . . . . . . . . . . . . . . . . . . . . . . . . . . . . . . ",
". . . . . . . . . . . . . . . . . . . . . . . . . . . . . . . . . . . . . . ",
"                                                                            ",
"                                                                            "
};
