/* XPM */
static char *title_5_inactive[] = {
/* columns rows colors chars-per-pixel */
"10 33 16 1 ",
"  c black",
". c #818181",
"X c gray53",
"o c #8B8B8B",
"O c #909090",
"+ c gray59",
"@ c #9B9B9B",
"# c #9F9F9F",
"$ c #A4A4A4",
"% c gray66",
"& c #AEAEAE",
"* c #B4B4B4",
"= c #BCBCBC",
"- c gray76",
"; c gray79",
": c #CDCDCD",
/* pixels */
"          ",
"::::::::::",
"::::::::::",
"&&&&&&&&&&",
"XXXXXXXXXX",
"..........",
"..........",
"..........",
"XXXXXXXXXX",
"XXXXXXXXXX",
"oooooooooo",
"OOOOOOOOOO",
"OOOOOOOOOo",
"++++++++++",
"@@@@@@@@@@",
"##########",
"##########",
"$$$$$$$$$$",
"%%%%%%%%%%",
"&&&&&&&&&&",
"**********",
"**********",
"==========",
"----------",
";;;;;;;;;;",
";;;;;:;;;;",
";;;;;;;;;;",
"::::::::::",
";;;;;;;;;;",
"**********",
"@@@@@@@@@@",
"@@@@@@@@@@",
"          "
};
