/* XPM */
static char *close_pressed[] = {
/* columns rows colors chars-per-pixel */
"23 23 4 1 ",
"  c None",
". c #A0A0FF s active_shadow_1",
"X c #D0D0FF s active_hilight_1",
"o c white",
/* pixels */
"                       ",
"   .................   ",
"   .................   ",
" ..................... ",
" ..................... ",
" ..................... ",
" .....XXo.....oXX..... ",
" .....XXo.....oXX..... ",
" .....oooo...oooo..... ",
" .......ooooooo....... ",
" ........ooooo........ ",
" ........ooooo........ ",
" ........ooooo........ ",
" .......ooooooo....... ",
" .....oooo...oooo..... ",
" .....XXo.....oXX..... ",
" .....XXo.....oXX..... ",
" ..................... ",
"   .................   ",
"                       ",
"                       ",
"                       ",
"                       "
};
