/* XPM */
static char *title_1_active[] = {
/* columns rows colors chars-per-pixel */
"2 38 4 1 ",
"  c black",
". c gray57",
"X c #E6E6E6 s active_color_2",
"o c white",
/* pixels */
"  ",
"  ",
"oo",
"oo",
"XX",
"XX",
"XX",
"XX",
"XX",
"XX",
"XX",
"XX",
"XX",
"XX",
"XX",
"XX",
"XX",
"XX",
"XX",
"XX",
"XX",
"XX",
"XX",
"XX",
"XX",
"XX",
"XX",
"XX",
"XX",
"XX",
"XX",
"XX",
"XX",
"XX",
"XX",
"XX",
"..",
".."
};
