/* XPM */
static char *hide_inactive[] = {
/* columns rows colors chars-per-pixel */
"34 38 38 1 ",
"  c None",
". c #919291",
"X c #929392",
"o c #939493",
"O c #989998",
"+ c #9A9C9A",
"@ c #9A9D9A",
"# c #9B9D9B",
"$ c #9B9E9B",
"% c #A1A2A1",
"& c #A3A4A3",
"* c #A4A5A4",
"= c #A9ABA9",
"- c #ABB0AB",
"; c #ACB0AC",
": c #B0B1B0",
"> c #B6B9B6",
", c #BCBDBC",
"< c #BCC1BC",
"1 c #BDC2BD",
"2 c #C3C7C3",
"3 c #C5C6C5",
"4 c #C7C8C7",
"5 c #C9CAC9",
"6 c #CBCDCB",
"7 c #CDD0CD",
"8 c #CED0CE",
"9 c #CFD1CF",
"0 c #D1D2D1",
"q c #D3D5D3",
"w c #D4D5D4",
"e c #D5D6D5 s inactive_color_2",
"r c #D6D6D6",
"t c #D6D7D6",
"y c #D7D8D7",
"u c #E0E0E0",
"i c #F5F5F5",
"p c white",
/* pixels */
"                                  ",
"                                  ",
"pppppppppppppppppppppppppppppppppp",
"iiiiiiiiiiiiiiiiiiiiiiiiiiiiiiiiii",
"uuuuuuuuuuuuuuuuuuuuuuuuuuuuuuuuuu",
"wwwwwwwwwwwwwwwwwwwwwwwwwwwwwwwwww",
"wwwwwwwwwwwwwwwwwwwwwwwwwwwwwwwwww",
"wwwwwwwwwwwwwwwwwwwwwwwwwwwwwwwwww",
"wwwwwwwwwwwwwwwwwwwwwwwwwwwwwwwwww",
"wwwwwwwwwwwwwwwwwwwwwwwwwwwwwwwwww",
"wwwwwwwwwwwwwwwwwwwwwwwwwwwwwwwwww",
"wwwwwwwwwwwwwwwwyywwwwwwwwwwwwwwww",
"wwwwwwwwwwwwyyyyyyyyyywwwwwwwwwwww",
"wwwwwwwwwww053333333350wwwwwwwwwww",
"wwwwwwwwwwy5:&&****&&:5ywwwwwwwwww",
"wwwwwwwwwwy3&........&3ywwwwwwwwww",
"wwwwwwwwwwy3&..o..o..&3ywwwwwwwwww",
"wwwwwwwwwwy3*.oO%%Oo.*3ywwwwwwwwww",
"wwwwwwwwwwy3*..%,,%..*3ywwwwwwwwww",
"wwwwwwwwwwy3*..%,,%..*3ywwwwwwwwww",
"wwwwwwwwwwy3*.oO%%Oo.*3ywwwwwwwwww",
"wwwwwwwwwwy3*.oo..oo.*3ywwwwwwwwww",
"wwwwwwwwwwy3&..oooo..&3ywwwwwwwwww",
"wwwwwwwwwwy4=$$$$$$$$=4wwwwwwwwwww",
"wwwwwwwwwww6>--;;;;-->6wwwwwwwwwww",
"wwwwwwwwwww021111111120wwwwwwwwwww",
"wwwwwwwwwwww0888888880wwwwwwwwwwww",
"wwwwwwwwwwwwwwwwwwwwwwwwwwwwwwwwww",
"wwwwwwwwwwwwwwwwwwwwwwwwwwwwwwwwww",
"wwwwwwwwwwwwwwwwwwwwwwwwwwwwwwwwww",
"wwwwwwwwwwwwwwwwwwwwwwwwwwwwwwwwww",
"8888888888888888888888888888888888",
"1111111111111111111111111111111111",
";;;;------------------------------",
"$$$$$$$$$$$$$$$$$$$$$$$$$$$$$$$$$$",
"oooooooooooooooooooooooooooooooooo",
"                                  ",
"                                  "
};
