/* XPM */
static char *shade_active[] = {
/* columns rows colors chars-per-pixel */
"38 48 201 2 ",
"   c None",
".  c #373B3F",
"X  c #393D40",
"o  c #414346",
"O  c #41484F",
"+  c #44484D",
"@  c #434951",
"#  c #464B51",
"$  c #474B51",
"%  c #4A4D50",
"&  c #494F56",
"*  c #53575D",
"=  c #585C61",
"-  c #5B5E69",
";  c #585F6A",
":  c #5C626A",
">  c #616263",
",  c #626466",
"<  c #646666",
"1  c #686969",
"2  c #6B6B6A",
"3  c #6B6C6C",
"4  c #6C6D6D",
"5  c gray43",
"6  c #656A72",
"7  c #6E7070",
"8  c gray44",
"9  c #727271",
"0  c #737372",
"q  c #747473",
"w  c #757574",
"e  c #767675",
"r  c #767676",
"t  c #777776",
"y  c #777777",
"u  c #797977",
"i  c #797978",
"p  c #797979",
"a  c #7A7A78",
"s  c #7A7A79",
"d  c #7B7B79",
"f  c #797A7A",
"g  c #7B7B7A",
"h  c #7C7C7B",
"j  c #7B7D7D",
"k  c #7E7E7C",
"l  c #7D7E7E",
"z  c #7F7F7E",
"x  c #80807F",
"c  c #7F8182",
"v  c #7E8186",
"b  c #7B8593",
"n  c #828280",
"m  c #808182",
"M  c #838382",
"N  c #858583",
"B  c #828384",
"V  c #818486",
"C  c #838586",
"Z  c #878785",
"A  c #858587",
"S  c #878786",
"D  c #888887",
"F  c #81858C",
"G  c #86898C",
"H  c #888888",
"J  c #8B8B8A",
"K  c #8D8D8C",
"L  c #8E8E8C",
"P  c #8F8F8D",
"I  c #90908E",
"U  c #91918F",
"Y  c #818996",
"T  c #828D9C",
"R  c #848E9D",
"E  c #8D9093",
"W  c #8C9094",
"Q  c #86919A",
"!  c #8D959D",
"~  c #939391",
"^  c #949492",
"/  c #949493",
"(  c #959594",
")  c #959595",
"_  c #969694",
"`  c #94979A",
"'  c #95989D",
"]  c #9D9D9C",
"[  c #9F9F9E",
"{  c #A1A19F",
"}  c #8593A1",
"|  c #8F9BA5",
" . c #9096A0",
".. c #99A0A8",
"X. c #A2A2A1",
"o. c #A3A3A1",
"O. c #A5A5A4",
"+. c #A6A6A5",
"@. c #A7A7A5",
"#. c #A9A9A7",
"$. c gray66",
"%. c #A9A9A8",
"&. c #AAAAA8",
"*. c #ABABA9",
"=. c #ABABAA",
"-. c #ACACAA",
";. c #ACACAB",
":. c #ADADAB",
">. c #AEAEAD",
",. c #AFAFAE",
"<. c #B0B0AE",
"1. c #B1B1AF",
"2. c #A2A6B0",
"3. c #ACB2BA",
"4. c #B1B1B0",
"5. c #B2B2B0",
"6. c #B3B3B1",
"7. c #B3B3B2",
"8. c #B4B4B2",
"9. c #B5B5B3",
"0. c #B5B5B4",
"q. c #B6B6B4",
"w. c #B6B6B5",
"e. c #B7B7B5",
"r. c #B6B6B6",
"t. c #B8B8B6",
"y. c #B9B9B7",
"u. c #B1B1BA",
"i. c gray72",
"p. c #B9B9B8",
"a. c #BABAB9",
"s. c #BBBBBA",
"d. c #BCBCBA",
"f. c #BDBDBC",
"g. c #BEBEBC",
"h. c #BEBEBD",
"j. c #BFBFBD",
"k. c #C1C1BF",
"l. c #B7BDC7",
"z. c #B5BDC9",
"x. c #BFC6CE",
"c. c #B4C3D8",
"v. c #B4C3D9",
"b. c #BBC7D9",
"n. c #BFC9D8",
"m. c #BCC8DB",
"M. c #BED2E5",
"N. c #C1C1C0",
"B. c #C6C6C5",
"V. c #C7C7C5",
"C. c gray79",
"Z. c #CACAC9",
"A. c #CBCBCA",
"S. c #CCCCCB",
"D. c #CDCDCC",
"F. c #CECECE",
"G. c #C0CCDE",
"H. c #CDCDD9",
"J. c #D1D1D0",
"K. c #D2D2D1",
"L. c #D4D4D3",
"P. c #D5D5D4",
"I. c #D6D6D5",
"U. c #D7D7D6",
"Y. c #D8D8D7",
"T. c #D9D9D8",
"R. c #DCDCDB",
"E. c #DFDFDE",
"W. c #E0E0DF",
"Q. c #C2CEE0",
"!. c #C3D3E1",
"~. c #C5D1E2",
"^. c #C5D1E3",
"/. c #C4D4EB",
"(. c #C4D5EC",
"). c #CCD5EC",
"_. c #C5DAEE",
"`. c #CBD8EC",
"'. c #CDDAED",
"]. c #CEDAEE",
"[. c #CDDEEE",
"{. c #D2DBEA",
"}. c #D3DCEC",
"|. c #D4DDED",
" X c #D5DEEE",
".X c #CBDCF4",
"XX c #CDDEF6",
"oX c #D3E3F3",
"OX c #D3E0F4",
"+X c #D5E2F6",
"@X c #D3E4F4",
"#X c #D5E6F6",
"$X c #DCE8F4",
"%X c #DEEAF7",
"&X c #E4E4E3",
"*X c #E5E5E4",
"=X c #E6E6E5",
"-X c #E7E7E6",
";X c #E4E4F4",
":X c #E6E6F6",
">X c #E6F2FF",
/* pixels */
"                                                                            ",
"                                                                            ",
"                                                                            ",
"                                                                            ",
"                                                                            ",
"                                                                            ",
"                                                                            ",
"                                                                            ",
" X X X X X X X X X Xl.l.' ' C C l l m m E E 3.3.{.{. X X X X X X X X X X X X",
" X X X X X X X X X Xl.l.' ' C C l l m m E E 3.3.{.{. X X X X X X X X X X X X",
":X:X:X:X:X:XH.H.A A a a ) ) >.>.i.i.7.7.[ [ x x t t u.u.:X:X:X:X:X:X:X:X:X:X",
":X:X:X:X:X:XH.H.A A a a ) ) >.>.i.i.7.7.[ [ x x t t u.u.:X:X:X:X:X:X:X:X:X:X",
">X>X>X>Xx.x.t t U U B.B.E.E.=X=X=X=X=X=XW.W.J.J.X.X.t t W W %X%X>X>X>X>X>X>X",
">X>X>X>Xx.x.t t U U B.B.E.E.=X=X=X=X=X=XW.W.J.J.X.X.t t W W %X%X>X>X>X>X>X>X",
"+X+Xn.n.t t ^ ^ F.F.E.E.&X&X=X=X=X=X=X=X=X=XW.W.L.L.$.$.t t F F '.'.+X+X+X+X",
"+X+Xn.n.t t ^ ^ F.F.E.E.&X&X=X=X=X=X=X=X=X=XW.W.L.L.$.$.t t F F '.'.+X+X+X+X",
" X XB B A A N.N.U.U.R.R.R.R.R.R.R.R.R.R.R.R.R.R.T.T.S.S.) ) 8 8  . .}.}. X X",
" X XB B A A N.N.U.U.R.R.R.R.R.R.R.R.R.R.R.R.R.R.T.T.S.S.) ) 8 8  . .}.}. X X",
"z.z.a a { { A.A.J.J.J.J.J.J.J.J.J.J.J.J.J.J.J.J.J.J.F.F.1.1.l l , , b.b.+X+X",
"z.z.a a { { A.A.J.J.J.J.J.J.J.J.J.J.J.J.J.J.J.J.J.J.F.F.1.1.l l , , b.b.+X+X",
"` ` N N :.:.g.g.d.d.t.t.0.0.0.0.9.9.0.0.0.0.t.t.i.i.g.g.0.0.J J 1 1 ! ! %X%X",
"` ` N N :.:.g.g.d.d.t.t.0.0.0.0.9.9.0.0.0.0.t.t.d.i.g.g.0.0.J J 1 1 ! ! %X%X",
"c c L L #.#.7.7.7.7.7.7.7.7.7.7.7.7.7.7.7.7.7.7.9.9.7.7.$.$.~ ~ 8 8 : : '.'.",
"c c L L #.#.7.7.7.7.7.7.7.7.7.7.7.7.7.7.7.7.7.7.7.7.7.7.$.$.~ ~ 8 8 : : '.'.",
"a a U U $.$.7.7.7.7.7.7.7.7.7.7.7.7.7.7.7.7.7.7.7.7.7.7.:.:.) ) q q # # n.n.",
"a a U U $.$.7.7.7.7.7.7.7.7.7.7.7.7.7.7.7.7.7.7.7.7.7.7.:.:.) ) q q # # n.n.",
"j j L L $.$.7.7.7.7.7.7.7.7.7.7.7.7.7.7.7.7.7.7.7.7.7.7.:.:.^ ^ 8 8 + + G.G.",
"j j L L $.$.7.7.7.7.7.7.7.7.7.7.7.7.7.7.7.7.7.7.7.7.7.7.:.:.^ ^ 8 8 + + G.G.",
"G G D D @.+.1.1.7.7.7.7.7.7.7.7.7.7.7.7.7.7.7.7.7.7.7.7.#.#.L L 4 4 # # !.!.",
"G G D D +.+.1.1.7.7.7.7.7.7.7.7.7.7.7.7.7.7.7.7.7.7.7.7.#.#.L L 4 4 # # !.!.",
"2.2.l l X.X.1.1.7.7.7.7.7.7.7.7.7.7.7.7.7.7.7.7.7.7.1.1.+.+.A A > > ; ; ).).",
"2.2.l l X.X.1.1.7.7.7.7.7.7.7.7.7.7.7.7.7.7.7.7.7.7.1.1.+.+.A A > > ; ; ).).",
"~.~.t t [ [ 0.0.0.0.9.9.7.7.7.7.7.7.7.7.7.7.9.9.0.0.t.t.+.+.a a o o Y Y `.`.",
"~.~.t t [ [ 0.0.0.0.9.9.7.7.7.7.7.7.7.7.7.7.9.9.0.0.t.t.+.+.a a o o Y Y `.`.",
"XXXX....m m >.>.B.B.B.B.N.N.g.g.d.d.g.g.k.k.B.B.A.A.0.0.J J < < @ @ v.v.XXXX",
"XXXX....m m >.>.B.B.B.B.N.N.g.g.d.d.g.g.k.k.B.B.A.A.0.0.J J < < @ @ v.v.XXXX",
"#X#XoXoXC C m m :.:.A.A.U.U.U.U.Y.Y.Y.Y.U.U.S.S.7.7.D D 4 4 X X | | @X@X#X#X",
"#X#XoXoXC C m m :.:.A.A.U.U.U.U.Y.Y.Y.Y.U.U.S.S.7.7.D D 4 4 X X | | @X@X#X#X",
"XXXXXXXX/./.v v u u U U $.$.i.i.g.g.i.i.:.:.^ ^ a a 1 1 . . b b (.(.XXXXXXXX",
"XXXXXXXX/./.v v u u U U $.$.i.i.g.g.i.i.:.:.^ ^ a a 1 1 . . b b (.(.XXXXXXXX",
"_._._._._._.M.M.Q Q 7 7 t t a a h h a a t t 3 3 % % O O } } M.M._._._._._._.",
"_._._._._._.M.M.Q Q 7 7 t t a a h h a a t t 3 3 % % O O } } M.M._._._._._._.",
"XXXXXXXXXXXXXXXX.X.Xv.v.R R 6 6 = = * * & & ; ; T T v.v..X.XXXXXXXXXXXXXXXXX",
"XXXXXXXXXXXXXXXX.X.Xv.v.R R 6 6 = = * * & & ; ; T T v.v..X.XXXXXXXXXXXXXXXXX",
"+X+X+X+X+X+X+X+X+X+X+X+XOXOX'.'.~.~.Q.Q.~.~.'.'.OXOX+X+X+X+X+X+X+X+X+X+X+X+X",
"+X+X+X+X+X+X+X+X+X+X+X+XOXOX'.'.~.~.Q.Q.~.~.'.'.OXOX+X+X+X+X+X+X+X+X+X+X+X+X",
"[.[.[.[.[.[.[.[.[.[.[.[.[.[.[.[.[.[.[.[.[.[.[.[.[.[.[.[.[.[.[.[.[.[.[.[.[.[.",
"[.[.[.[.[.[.[.[.[.[.[.[.[.[.[.[.[.[.[.[.[.[.[.[.[.[.[.[.[.[.[.[.[.[.[.[.[.[."
};
