/* XPM */
static char *title_5_active[] = {
/* columns rows colors chars-per-pixel */
"9 44 6 1 ",
"  c black",
". c #81817B s active_shadow_1",
"X c #919189 s active_shadow_2",
"o c #CCCCC7 s active_color_2",
"O c #EBEBE9 s active_hilight_1",
"+ c #FFFFFF s active_hilight_2",
/* pixels */
"+++++++++",
"+++++++++",
"ooooooooo",
"ooooooooo",
"ooooooooo",
"XXXXXXXXX",
"XXXXXXXXX",
"         ",
"         ",
"OOOOOOOOO",
"OOOOOOOOO",
"ooooooooo",
"ooooooooo",
"ooooooooo",
"ooooooooo",
"ooooooooo",
"ooooooooo",
"ooooooooo",
"ooooooooo",
"ooooooooo",
"ooooooooo",
"ooooooooo",
"ooooooooo",
"ooooooooo",
"ooooooooo",
"ooooooooo",
"ooooooooo",
"ooooooooo",
"ooooooooo",
"ooooooooo",
"ooooooooo",
"ooooooooo",
"ooooooooo",
"ooooooooo",
"ooooooooo",
"ooooooooo",
"ooooooooo",
"ooooooooo",
"ooooooooo",
"ooooooooo",
".........",
".........",
"         ",
"         "
};
