/* XPM */
static char *left_inactive[] = {
/* columns rows colors chars-per-pixel */
"8 48 5 1 ",
"  c black",
". c #203345",
"X c #4A78A1",
"o c #4C7BA6 s inactive_color_2",
"O c #4E7EA9",
/* pixels */
" .XOoooo",
" .XOoooo",
" .XOoooo",
" .XOoooo",
" .XOoooo",
" .XOoooo",
" .XOoooo",
" .XOoooo",
" .XOoooo",
" .XOoooo",
" .XOoooo",
" .XOoooo",
" .XOoooo",
" .XOoooo",
" .XOoooo",
" .XOoooo",
" .XOoooo",
" .XOoooo",
" .XOoooo",
" .XOoooo",
" .XOoooo",
" .XOoooo",
" .XOoooo",
" .XOoooo",
" .XOoooo",
" .XOoooo",
" .XOoooo",
" .XOoooo",
" .XOoooo",
" .XOoooo",
" .XOoooo",
" .XOoooo",
" .XOoooo",
" .XOoooo",
" .XOoooo",
" .XOoooo",
" .XOoooo",
" .XOoooo",
" .XOoooo",
" .XOoooo",
" .XOoooo",
" .XOoooo",
" .XOoooo",
" .XOoooo",
" .XOoooo",
" .XOoooo",
" .XOoooo",
" .XOoooo"
};
