/* XPM */
static char *maximize_inactive[] = {
/* columns rows colors chars-per-pixel */
"24 29 6 1 ",
"  c None",
". c black",
"X c #949594 s inactive_shadow_2",
"o c #B4BAB4 s inactive_mid_2",
"O c #D5D6D5 s inactive_color_2",
"+ c white",
/* pixels */
"                        ",
"                        ",
"                        ",
"                        ",
"                        ",
"                        ",
"+++++++++++++++++++++OOO",
"+++++++++++++++++++++OOO",
"+++OOOOOOOOOOOOOOOOOOooX",
"+OOOOOOOOOOOOOOOOOOOOOOX",
"+OOOO..............OOOOX",
"+OOOO..............OOOOX",
"+OOOO..............OOOOX",
"+OOOO..............OOOOX",
"+OOOO.OOOOOOOOOOOO.OOOOX",
"+OOOO.OOOOOOOOOOOO.OOOOX",
"+OOOO.OOOOOOOOOOOO.OOOOX",
"+OOOO.OOOOOOOOOOOO.OOOOX",
"+OOOO.OOOOOOOOOOOO.OOOOX",
"+OOOO.OOOOOOOOOOOO.OOOOX",
"+OOOO.OOOOOOOOOOOO.OOOOX",
"+OOOO.OOOOOOOOOOOO.OOOOX",
"+OOOO.OOOOOOOOOOOO.OOOOX",
"+OOOO..............OOOOX",
"+ooOOOOOOOOOOOOOOOOOOooX",
"OooooooooooooooooooooooX",
"XXXXXXXXXXXXXXXXXXXXXXXX",
"XXXXXXXXXXXXXXXXXXXXXXXX",
"                        "
};
