/* XPM */
static char *close_active[] = {
/* columns rows colors chars-per-pixel */
"27 27 5 1 ",
"  c black",
". c #000044 s active_shadow_1",
"X c #000088 s active_color_1",
"o c #0000EE s active_hilight_1",
"O c #FFFFFF s active_text_color",
/* pixels */
"                           ",
" ooooooooooooooooooooooooo ",
" ooooooooooooooooooooooooo ",
" ooXXXXXXXXXXXXXXXXXXXXX.. ",
" ooXXXXXXXXXXXXXXXXXXXXX.. ",
" ooXXXXXXXXXXXXXXXXXXXXX.. ",
" ooXXXXXXXXXXXXXXXXXXXXX.. ",
" ooXXXXXXXXXXXXXXXXXXXXX.. ",
" ooXXXXXOOXXXXXXXOOXXXXX.. ",
" ooXXXXXOOOOXXXOOOOXXXXX.. ",
" ooXXXXXXOOOOXOOOOXXXXXX.. ",
" ooXXXXXXOOOOXOOOOXXXXXX.. ",
" ooXXXXXXXOOOOOOOXXXXXXX.. ",
" ooXXXXXXXXXOOOXXXXXXXXX.. ",
" ooXXXXXXXOOOOOOOXXXXXXX.. ",
" ooXXXXXXOOOOXOOOOXXXXXX.. ",
" ooXXXXXXOOOOXOOOOXXXXXX.. ",
" ooXXXXXOOOOXXXOOOOXXXXX.. ",
" ooXXXXXOOXXXXXXXOOXXXXX.. ",
" ooXXXXXXXXXXXXXXXXXXXXX.. ",
" ooXXXXXXXXXXXXXXXXXXXXX.. ",
" ooXXXXXXXXXXXXXXXXXXXXX.. ",
" ooXXXXXXXXXXXXXXXXXXXXX.. ",
" ooXXXXXXXXXXXXXXXXXXXXX.. ",
" oo....................... ",
" oo....................... ",
"                           "
};
