/* XPM */
static char *top_right_active[] = {
/* columns rows colors chars-per-pixel */
"11 39 6 1 ",
"  c None",
". c black",
"X c #949594 s active_shadow_1",
"o c #B4BAB4 s active_mid_1",
"O c #D5D6D5 s active_color_1",
"+ c white",
/* pixels */
"..         ",
"..         ",
"++....     ",
"++....     ",
"OO++OO.    ",
"OOOOooX..  ",
"OOOOooX..  ",
"OOOOooX..  ",
"OOOOooX..  ",
"OOOOOOoXX..",
"OOOOOOoXX..",
"OOOOOOoXX..",
"OOOOOOoXX..",
"OOOOOOoXX..",
"OOOOOOoXX..",
"OOOOOOoXX..",
"OOOOOOoXX..",
"OOOOOOoXX..",
"OOOOOOoXX..",
"OOOOOOoXX..",
"OOOOOOoXX..",
"OOOOOOoXX..",
"OOOOOOoXX..",
"OOOOOOoXX..",
"OOOOOOoXX..",
"OOOOOOoXX..",
"OOOOOOoXX..",
"OOOOOOoXX..",
"OOOOOOoXX..",
"OOOOOOoXX..",
"OOOOOOoXX..",
"OOOOOOoXX..",
"OOOOOOoXX..",
"OOOOOOoXX..",
"OOOOOOoXX..",
"ooOOOOoXX..",
"ooOOOOoXX..",
"XX++OOoXX..",
"XX++OOoXX.."
};
