/* XPM */
static char *top_left_active[] = {
/* columns rows colors chars-per-pixel */
"11 47 26 1 ",
"  c #333333",
". c #2F466F",
"X c #2F4873",
"o c #304B77",
"O c #314E7B",
"+ c #32517F",
"@ c #4D4D4D",
"# c #335484",
"$ c #345788",
"% c #355A8C",
"& c #365D90",
"* c #375F95",
"= c #376095",
"- c #3B6399",
"; c #3F669D",
": c #4369A1",
"> c #466CA5",
", c #4A6FA9",
"< c #4E71AD",
"1 c #5174B1",
"2 c #5577B5",
"3 c #587AB9",
"4 c #5C7DBD",
"5 c #6080C1",
"6 c #6382C6",
"7 c #94ABD7",
/* pixels */
"@@@@@@@@@@@",
"@@@@@@@@@@@",
"@@         ",
"@@  7777777",
"@@  7777777",
"@@  7766666",
"@@  7766666",
"@@  7766666",
"@@  7766666",
"@@  7755555",
"@@  7744444",
"@@  7744444",
"@@  7733333",
"@@  7733333",
"@@  7722222",
"@@  7722222",
"@@  7711111",
"@@  77<<<<<",
"@@  77<<<<<",
"@@  77,,,,,",
"@@  77,,,,,",
"@@  77>>>>>",
"@@  77>>>>>",
"@@  77:::::",
"@@  77;;;;;",
"@@  77;;;;;",
"@@  77-----",
"@@  77-----",
"@@  77=====",
"@@  77=====",
"@@  77*====",
"@@  77&&&  ",
"@@  77&&&  ",
"@@  77%%%  ",
"@@  77%%%  ",
"@@  77$$$  ",
"@@  77$$$  ",
"@@  77###  ",
"@@  77+++  ",
"@@  77+++  ",
"@@  77OOO  ",
"@@  77OOO  ",
"@@  77ooo  ",
"@@  77ooo  ",
"@@  77XXX  ",
"@@  .....  ",
"@@  .....  "
};
