/* XPM */
static char *menu_inactive[] = {
/* columns rows colors chars-per-pixel */
"24 42 138 2 ",
"   c None",
".  c #060C3A",
"X  c #060C3B",
"o  c #060D3B",
"O  c #070D3B",
"+  c #070D3C",
"@  c #070E3C",
"#  c #080E3C",
"$  c #23284B",
"%  c #25294C",
"&  c #252A4C",
"*  c #262B4D",
"=  c #272B4E",
"-  c #272C4E",
";  c #282D4F",
":  c #292E50",
">  c #2A2E51",
",  c #2B2F52",
"<  c #2B3052",
"1  c #2C3153",
"2  c #2D3254",
"3  c #2E3355",
"4  c #2F3356",
"5  c #303457",
"6  c #303557",
"7  c #303558",
"8  c #313658",
"9  c #323759",
"0  c #33385A",
"q  c #34385A",
"w  c #34385B",
"e  c #565656",
"r  c #575757",
"t  c #585858",
"y  c #595959",
"u  c #5A5A5A",
"i  c #5C5C5C",
"p  c #4D4F61",
"a  c #5D5F6A",
"s  c #5E5F6A",
"d  c #5F606B",
"f  c #646464",
"g  c #656565",
"h  c #666666",
"j  c #60616C",
"k  c #61636E",
"l  c #6B6B6B",
"z  c #6E6E6E",
"x  c #636470",
"c  c #656772",
"v  c #686974",
"b  c #6A6C77",
"n  c #6D6E7A",
"m  c #6F717C",
"M  c #747474",
"N  c #72747F",
"B  c #787878",
"V  c #7A7A7A",
"C  c #7B7B7B",
"Z  c #7D7D7C",
"A  c #7F7E7D",
"S  c #7E7E7E",
"D  c #7F7F7E",
"F  c #807F7D",
"G  c #81817F",
"H  c #757681",
"J  c #717486",
"K  c #777984",
"L  c #7A7B87",
"P  c #7C7E89",
"I  c #7F818C",
"U  c #818181",
"Y  c #828280",
"T  c #828281",
"R  c #828282",
"E  c #838382",
"W  c #838383",
"Q  c #848484",
"!  c #858584",
"~  c #858585",
"^  c #868685",
"/  c #82838F",
"(  c #898988",
")  c #8A8A89",
"_  c #8B8B8B",
"`  c #8D8D8C",
"'  c #8E8E8D",
"]  c #8F8F8F",
"[  c #848691",
"{  c #888A95",
"}  c #8B8D98",
"|  c #8C8D98",
" . c #8C8E99",
".. c #8D8F99",
"X. c #919190",
"o. c #919191",
"O. c #929190",
"+. c #949494",
"@. c #959494",
"#. c #959594",
"$. c #959595",
"%. c #969696",
"&. c #979797",
"*. c #989897",
"=. c #999897",
"-. c #999999",
";. c #9B9B9A",
":. c #9C9C9B",
">. c #9D9D9D",
",. c #9E9E9D",
"<. c #9E9E9E",
"1. c #9F9F9E",
"2. c #A0A0A0",
"3. c #A1A1A1",
"4. c #A3A3A2",
"5. c #A3A3A3",
"6. c #A4A4A4",
"7. c #A5A5A4",
"8. c #A5A5A5",
"9. c #A6A6A5",
"0. c #A6A6A6",
"q. c #A7A7A7",
"w. c #A9A8A8",
"e. c #AAAAA9",
"r. c #AAAAAA",
"t. c #ABABAB",
"y. c #ACACAB",
"u. c #ADADAC",
"i. c #ADADAD",
"p. c #AEAEAE",
"a. c #B0B0AF",
"s. c #B1B1B0",
"d. c #B3B3B3",
"f. c #B6B6B4",
"g. c #B7B7B5",
"h. c #B8B8B7",
"j. c #BBBBB9",
"k. c #BDBCBA",
/* pixels */
"                                                ",
"                                                ",
"                                                ",
"                                                ",
"                                                ",
"                                                ",
"                                                ",
"                                                ",
"                                                ",
"                                                ",
"                                                ",
"                                                ",
"    # # # # # @ # # @ @ @ @ @ @ # # # # # #     ",
"    $ & & & & & & & & & & & & & & & & & & $     ",
"# $ p d s s s s s s s s s s s s s s s s d p $ # ",
"# & j F A A A A A A A A A A A A A A A A F j & # ",
"# & j U G A A A A A A A A A A A A A A G U j & # ",
"# & x U U U U U U U U U U U U U U U U U U x & @ ",
"# ; c Q Q Q Q Q Q Q Q Q Q Q Q Q Q Q Q Q Q c - @ ",
"@ ; v ( ( Q A V V V V V V V V V V A Q ( ( v ; @ ",
"@ , b ` ` U z f f f f f f f f f f z U ` ` b , @ ",
"@ , n X.X.U f r t t t t t t t t r f U X.X.n , @ ",
"O , N @.@.Q f r t t t t t t t t r f U @.@.N , O ",
"O < N *.-.( M f i t t t t t t i f M ( *.-.N 1 O ",
"O 1 H :.-.@.` A f t t t t t t f A ` @.-.:.H 1 O ",
"O 4 K 1.1.1.1.X.B f i t t i f V X.1.1.1.1.K 4 O ",
"O 4 L 4.4.4.4.1.@.U f r r f U @.1.4.4.4.4.L 4 O ",
"O 4 P 9.9.4.4.9.9.&.V l l V @.9.9.4.4.9.9.P 4 O ",
"O 5 I e.e.9.9.9.e.4.-.@.@.-.4.q.9.9.9.e.e.I 5 O ",
"O 8 / u.y.e.e.e.e.e.t.u.u.t.e.e.e.e.e.u.u./ 5 O ",
"O 8 [ s.u.u.u.u.u.u.u.u.u.u.u.u.u.u.u.u.s.[ 8 O ",
"O 8 { f.f.s.s.s.s.s.s.d.d.d.s.s.s.s.s.f.g.{ 8 O ",
"O 0 | k.j.h.h.h.h.h.h.h.h.h.h.h.h.h.h.j.k.| 0 O ",
"O 8 J | | } } } } } } } } } } } } } } | | J 8 O ",
"    8 w w 0 0 0 0 0 0 0 0 0 0 0 0 0 0 w w 8     ",
"    O O O O O O O O O O O O O O O O O O O O     ",
"                                                ",
"                                                ",
"                                                ",
"                                                ",
"                                                ",
"                                                "
};
