/* XPM */
static char *shade_active[] = {
/* columns rows colors chars-per-pixel */
"32 46 108 2 ",
"   c None",
".  c #000000 s active_text_color",
"X  c #020202",
"o  c #070707",
"O  c #1C1B1B",
"+  c #1E1D1D",
"@  c #212020",
"#  c #2A2928",
"$  c #2B2A2A",
"%  c #2E2C2C",
"&  c #313030",
"*  c #323030",
"=  c #535050",
"-  c #555251",
";  c #585555",
":  c #595656",
">  c #716D6C",
",  c #74706F",
"<  c #7E7876",
"1  c #7F7977",
"2  c #807A78",
"3  c #817B79",
"4  c #827C7A",
"5  c #837D7B s active_shadow_1",
"6  c #8A8482",
"7  c #8C8583",
"8  c #908A88",
"9  c #918B89",
"0  c #928C8A",
"q  c #948D8C",
"w  c #97918F",
"e  c #989392",
"r  c #999492",
"t  c #9A9494",
"y  c #9A9594",
"u  c #9C9695",
"i  c #9C9696",
"p  c #9D9897",
"a  c #9F9B99",
"s  c #A09B9A",
"d  c #A19C9B",
"f  c #A19D9B",
"g  c #A49E9C",
"h  c #A59F9F",
"j  c #A6A09F",
"k  c #A6A1A0",
"l  c #A7A1A1",
"z  c #A8A2A2",
"x  c #A9A3A2",
"c  c #AAA3A2",
"v  c #ABA5A5",
"b  c #ACA6A5",
"n  c #AFAAA9",
"m  c #B8B1B0",
"M  c #B8B2B0",
"N  c #B9B2B1",
"B  c #BAB3B2",
"V  c #BBB4B3",
"C  c #BAB6B5",
"Z  c #C0BAB9",
"A  c #C3BCBB",
"S  c #C3BDBC",
"D  c #C4BEBD",
"F  c #C6BFBE",
"G  c #C9C3C2",
"H  c #CBC3C2",
"J  c #CBC4C3",
"K  c #CCC4C3",
"L  c #C8C6C5",
"P  c #CCC5C4",
"I  c #CDC5C4",
"U  c #CDC6C5 s active_color_1",
"Y  c #CEC6C5",
"T  c #CDC7C6",
"R  c #CEC7C6",
"E  c #CFC7C6",
"W  c #CFC8C7",
"Q  c #D0C8C7",
"!  c #D0C9C8",
"~  c #D1C9C8",
"^  c #D1C9C9",
"/  c #D1CAC9",
"(  c #D2CBCA",
")  c #D4CDCC",
"_  c #D7D4D4",
"`  c #DAD5D4",
"'  c #DBD6D5",
"]  c #DCD7D6",
"[  c #DDD7D7",
"{  c #E0DFDE",
"}  c #E0DFDF",
"|  c #E1DFDF",
" . c #E1E0DF",
".. c #E1E0E0",
"X. c #E2E1E0",
"o. c #E5E2E2",
"O. c #E6E2E2",
"+. c #E6E4E4",
"@. c #E7E4E4",
"#. c #E9E8E8",
"$. c #EFEEEE",
"%. c #F4F2F2",
"&. c #F6F4F4",
"*. c #F7F5F5",
"=. c #F7F6F6",
"-. c #F8F8F8",
";. c #FBFAF9",
":. c #FFFFFF s active_hilight_1",
/* pixels */
"                                                                ",
"                                                                ",
"                                                                ",
"                                                                ",
"                                                                ",
"                                                                ",
"                                                                ",
"                                                                ",
"5 5 2 1 1 1 1 1 1 1 1 1 1 1 1 1 1 1 1 1 1 1 1 1 1 1 1 1 1 q B P ",
"5 6 r f f f f f f f f f f f f f f f f f f f f f f f f p w j H ` ",
"2 r L X.X. . . .| |  . . . . . . . . . . . . . . .X.X._ D H O.%.",
"1 f X.:.;.&.&.&.&.&.&.&.&.&.&.&.&.&.&.&.&.&.&.&.&.&.&.@.H P $.:.",
"1 f X.;.O.` ` ` ` ` ` ` ` ` ` ` ` ` ` ` ` ` ` ` ` [ [ H g n @.:.",
"1 f  .&.` H J P P P P P P P P P P P P P P P P P P P P B 8 a | :.",
"1 f  .&.` J J P P P P P P P P P P P P P P P P P P P P B 8 s | :.",
"1 f  .&.` P P P P P P P P P P P P P P P P P P P P P W B 0 f | :.",
"1 f  .&.` P P P P P P P P P P P P P P P P P P P P P W B 0 f | :.",
"1 f  .&.` P P P P P P P P P W ! ! W P P P P P P P P W B 0 f | :.",
"1 f  .&.` P P P P P P P P P ! ! ! ! P P P P P P P W W B 0 f | :.",
"1 f  .&.` P P P P P P W ! D z y y z D ! W P P P P W W B 0 f | :.",
"1 f  .&.` P P P P P P ! ) v ; # $ ; v ) ! P P P P P W B 0 f | :.",
"1 f  .&.` P P P P W ! F b , @ . . @ , b D ! W P P P W B 0 f | :.",
"1 f  .&.` P P P P ! ) b ; @ o . . o @ ; b ) ! P P P W B 0 f | :.",
"1 f  .&.` P P W ! D b , @ . . . . . . @ , b D ! P P W B 0 f | :.",
"1 f | &.` P P ! ) b ; @ o . . . . . . o @ ; b ) ! P W B 0 f  .:.",
"1 f | &.` P P A z > + . . . . . . . . . . + > x A W ! B 0 f  .:.",
"1 f  .&.` P ! l = O . . . . . . . . . . . . O = l ! ! B 0 f | :.",
"1 f | &.` P ! l = # % * * * * * * * * * * % # = l ! ! B 0 f | :.",
"1 f  .&.` P P Z j e y i i i i i i i i i i y e j Z W W B 0 f | :.",
"1 f  .&.` P P P ! ! ! ! ! ! ! ! ! ! ! ! ! ! ! ! P P W B 0 f | :.",
"1 f  .&.` P P P ! ! ! ! ! ! ! ! ! ! ! ! ! ! ! W P P W B 0 f | :.",
"1 f  .&.` P P P P P P P P P P P P P P P P P P P P P W B 0 f | :.",
"1 f  .&.` P P P P P P P P P P P P P P P P P P P P P W B 0 f | :.",
"1 f X.&.[ P P P P P P P P P P P P P P P P P W W P W ! B 0 f | :.",
"1 f X.&.[ P P W W W W W W W W W W W W W W W W W W ! ! V 0 f | :.",
"1 p _ @.H B B B B B B B B B B B B B B B B B B B B V V z 7 s | :.",
"1 w D H g 8 8 0 0 0 0 0 0 0 0 0 0 0 0 0 0 0 0 0 0 0 0 7 2 s | :.",
"q j H P n a s f f f f f f f f f f f f f f f f f f f f s s C #.:.",
"B H O.$.@.| | | | | | | | | | | | | | | | | | | | | | | | #.;.:.",
"P ` %.:.:.:.:.:.:.:.:.:.:.:.:.:.:.:.:.:.:.:.:.:.:.:.:.:.:.:.:.:.",
"                                                                ",
"                                                                ",
"                                                                ",
"                                                                ",
"                                                                ",
"                                                                "
};
