/* XPM */
static char *bottom_left_inactive[] = {
/* columns rows colors chars-per-pixel */
"30 30 6 1 ",
"  c None",
". c black",
"X c #8B898B s inactive_shadow_2",
"o c #B4AEAC s inactive_mid_2",
"O c #CDC6C5 s inactive_color_2",
"+ c #FFFFFF s inactive_hilight_2",
/* pixels */
"..+OOX                        ",
"..+OOX                        ",
"..+OOX                        ",
"..+OOX                        ",
"..+OOX                        ",
"..+OOX                        ",
"..+OOX                        ",
"..+OOX                        ",
"..+OOX                        ",
"..+OOX                        ",
"..+OOX                        ",
"..+OOX                        ",
"..+OOX                        ",
"..+OOX                        ",
"..+OOX                        ",
"..+OOX                        ",
"..+OOX                        ",
"..+OOX                        ",
"..+OOX                        ",
"..+OOX                        ",
"..+OOX                        ",
"..+OOX                        ",
"..+OOX                        ",
"..+OOX                        ",
"..+OOo++++++++++++++++++++++++",
"..+OOo++++++++++++++++++++++++",
"..+OOOOOOOOOOOOOOOOOOOOOOOOOOO",
"..oXXXXXXXXXXXXXXXXXXXXXXXXXXX",
"..oXXXXXXXXXXXXXXXXXXXXXXXXXXX",
".............................."
};
