/* XPM */
static char *hide_pressed[] = {
/* columns rows colors chars-per-pixel */
"24 30 18 1 ",
"  c None",
". c #0F0F5D",
"X c #111156",
"o c #111158",
"O c #101059",
"+ c #10105A s active_shadow_1",
"@ c #0E0E63",
"# c #0D0D65",
"$ c #0B0B6E",
"% c #090975",
"& c #08087B",
"* c #04048D",
"= c #030391",
"- c #020293",
"; c #00009B",
": c #00009C s active_color_1",
"> c #00009D",
", c #00009E",
/* pixels */
"                        ",
"                        ",
"::::::::::::::::::::::::",
"::::::::::::::::::::::::",
"::::::::::::::::::::::::",
"::::::::::::::::::::::::",
"::::::::::::::::::::::::",
"::::::::::::::::::::::::",
"::::::::::::::::::::::::",
"::::::::::::::::::::::::",
"::::::::::::::::::::::::",
"::::::::::::::::::::::::",
"::::::::::::::::::::::::",
"::::::::::::::::::::::::",
":::::;============;:::::",
":::::-$@########@$=:::::",
"::::*%.XOOOOOOOOX.%*::::",
"::::&OOOOOOOOOOOOOO&::::",
"::::&OOOOOOOOOOOOOO&::::",
"::::*%.XOOOOOOOOX.%*::::",
":::::=$@########@$=:::::",
":::::;============;:::::",
"::::::::::::::::::::::::",
"::::::::::::::::::::::::",
"::::::::::::::::::::::::",
"                        ",
"                        ",
"                        ",
"                        ",
"                        "
};
