/* XPM */
static char *stick_active[] = {
/* columns rows colors chars-per-pixel */
"57 72 178 2 ",
"   c black",
".  c #191B1A",
"X  c #1F201D",
"o  c #202016",
"O  c #21211C",
"+  c #26261D",
"@  c #2F2D1F",
"#  c #1F2424",
"$  c #212324",
"%  c #222525",
"&  c #242827",
"*  c #2D2D25",
"=  c #222628",
"-  c #282A2A",
";  c #2A2E2F",
":  c #373321",
">  c #383420",
",  c #37372B",
"<  c #31312C",
"1  c #39392E",
"2  c #343436",
"3  c #3E3E31",
"4  c #343438",
"5  c #363939",
"6  c #383B3A",
"7  c #4F4323",
"8  c #564724",
"9  c #5C4B24",
"0  c #5E5623",
"q  c #434336",
"w  c #4A4A35",
"e  c #595732",
"r  c #6F5624",
"t  c #686225",
"y  c #424344",
"u  c #444646",
"i  c #4F4F43",
"p  c #4C4C4B",
"a  c #51514C",
"s  c #4F4F51",
"d  c #515251",
"f  c #5C5C56",
"g  c #5D5E5D",
"h  c #7E7D4E",
"j  c #606060",
"k  c #676767",
"l  c #6E6E6B",
"z  c #6F6F6D",
"x  c #70706F",
"c  c #7C7C79",
"v  c #7F7F7C",
"b  c #866524",
"n  c #866C25",
"m  c #936C23",
"M  c #906B24",
"N  c #817225",
"B  c #9A7022",
"V  c #9E9024",
"C  c #908A39",
"Z  c #9B9337",
"A  c #A88924",
"S  c #B39522",
"D  c #E4A51E",
"F  c #EBA11E",
"G  c #EEA61C",
"H  c #E1AE1F",
"J  c #FFA819",
"K  c #FFAF18",
"L  c #FCAA1C",
"P  c #F3B01B",
"I  c #FFB119",
"U  c #FFB519",
"Y  c #FFBB19",
"T  c #FFBE19",
"R  c #C18922",
"E  c #D19121",
"W  c #DF9920",
"Q  c #E5C71D",
"!  c #FFC319",
"~  c #FFC519",
"^  c #FFCA18",
"/  c #FFCC19",
"(  c #FFD217",
")  c #FFD816",
"_  c #FFDE17",
"`  c #FFD119",
"'  c #FFD418",
"]  c #FFDB18",
"[  c #FFDD18",
"{  c #FFE117",
"}  c #FFE418",
"|  c #FFEA21",
" . c #FFE92A",
".. c #FFF32A",
"X. c #FFED39",
"o. c #96934B",
"O. c #818177",
"+. c #80807F",
"@. c #ACAB67",
"#. c #FFEE42",
"$. c #FFF34B",
"%. c #FFFB4D",
"&. c #FFF254",
"*. c #FAF365",
"=. c #FFF568",
"-. c #FFF770",
";. c #FFF97A",
":. c #FFFF7C",
">. c #828281",
",. c #888886",
"<. c #8C8C8A",
"1. c #919191",
"2. c #979797",
"3. c #999996",
"4. c gray60",
"5. c #9C9C9B",
"6. c gray62",
"7. c #B4B492",
"8. c #A3A3A1",
"9. c #A5A5A3",
"0. c #A9A9A8",
"q. c #AEAEAD",
"w. c #B3B3B2",
"e. c #B7B7B7",
"r. c #BABABA",
"t. c #BDBDBD",
"y. c #DCDC9D",
"u. c #FFFC86",
"i. c #FFFF8D",
"p. c #FFFF9C",
"a. c #C3C3B9",
"s. c #C0C0BE",
"d. c #FFFFA0",
"f. c #FFFFA4",
"g. c #FFFFA8",
"h. c #FFFFAF",
"j. c #FFFFB1",
"k. c #FFFFB4",
"l. c #F9F9B9",
"z. c #C2C2C1",
"x. c #C3C3C3",
"c. c #C4C4C4",
"v. c #C7C7C6",
"b. c #CACACA",
"n. c #CCCCCC",
"m. c gray81",
"M. c #D2D2CB",
"N. c #D1D1D0",
"B. c #D4D4D3",
"V. c #D6D6D6",
"C. c #DCDCDA",
"Z. c gainsboro",
"A. c #DFDFDF",
"S. c #F0F0C4",
"D. c #FFFFC5",
"F. c #FFFFCD",
"G. c #E3E3D0",
"H. c #E9E9D1",
"J. c #FFFFD3",
"K. c #FFFFDA",
"L. c #E2E2E2",
"P. c gray89",
"I. c #E7E7E7",
"U. c #E8E8E7",
"Y. c #E8E8E8",
"T. c gray92",
"R. c #EFEFEF",
"E. c #FFFFE2",
"W. c #FFFFE8",
"Q. c #FFFFED",
"!. c #F3F3F2",
"~. c #F4F4F4",
"^. c #FFFFF3",
"/. c #F8F8F7",
"(. c #FAFAFA",
"). c #FBFBFB",
"_. c #FFFFF8",
"`. c white",
/* pixels */
"                                                                                                                  ",
"                                                                                                                  ",
"                                                                                                                  ",
"                                                                                                                  ",
"                                                                                                                  ",
"                                                                                                                  ",
"`.`.`.`.`.`.`.`.`.`.`.`.`.`.`.`.`.`.`.`.`.`.`.`.`.`.`.`.`.`.`.`.`.`.`.`.`.`.`.`.`.`.`.`.`.`.`.`.`.`.`.`.`.`.`.`.`.",
"`.`.`.`.`.`.`.`.`.`.`.`.`.`.`.`.`.`.`.`.`.`.`.`.`.`.`.`.`.`.`.`.`.`.`.`.`.`.`.`.`.`.`.`.`.`.`.`.`.`.`.`.`.`.`.`.`.",
"`.`.`.`.`.`.`.`.`.`.`.`.`.`.`.`.`.`.`.`.`.`.`.`.`.`.`.`.`.`.`.`.`.`.`.`.`.`.`.`.`.`.`.`.`.`.`.`.`.`.`.`.`.`.`.`.`.",
"`.`.`.`.`.`.`.`.`.`.`.`.`.`.`.`.`.`.Y.U.U.c.c.c.0.0.0.8.8.8.w.w.w.V.V.V.!.!.!.`.`.`.`.`.`.`.`.`.`.`.`.`.`.`.`.`.`.",
"`.`.`.`.`.`.`.`.`.`.`.`.`.`.`.`.`.`.U.U.I.c.c.c.0.0.0.8.8.8.w.w.w.V.V.V.!.!.!.`.`.`.`.`.`.`.`.`.`.`.`.`.`.`.`.`.`.",
"`.`.`.`.`.`.`.`.`.`.`.`.`.`.`.`.`.`.U.U.I.c.c.c.0.0.0.8.8.8.w.w.w.V.V.V.!.!.!.`.`.`.`.`.`.`.`.`.`.`.`.`.`.`.`.`.`.",
"`.`.`.`.`.`.`.`.`.`.`.`.U.U.U.3.3.3.i i i 1 1 1 3 3 3 3 3 3 , , , < < < j j j z.z.z./././.`.`.`.`.`.`.`.`.`.`.`.`.",
"`.`.`.`.`.`.`.`.`.`.`.`.U.U.U.3.3.3.i i i 1 1 1 3 3 3 3 3 3 , , , < < < j j j z.z.z./././.`.`.`.`.`.`.`.`.`.`.`.`.",
"`.`.`.`.`.`.`.`.`.`.`.`.U.U.U.3.3.3.p i i 1 1 1 3 3 3 3 3 3 , , , < < < j j j z.z.z./././.`.`.`.`.`.`.`.`.`.`.`.`.",
"`.`.`.`.`.`.`.`.`.B.B.B.f f f 1 1 1 O.O.O.a.a.a.H.H.H.S.S.S.y.y.y.@.@.@.e e e X X X <.<.<.!.!.!.`.`.`.`.`.`.`.`.`.",
"`.`.`.`.`.`.`.`.`.B.B.B.f f f 1 1 1 O.O.O.a.a.a.H.H.H.S.S.S.y.y.y.@.@.@.e e e X X X <.<.<.!.!.!.`.`.`.`.`.`.`.`.`.",
"`.`.`.`.`.`.`.`.`.B.B.B.f f f 1 1 1 O.O.O.a.a.a.H.H.H.S.S.S.y.y.y.@.@.@.e e e X O X <.<.<.!.!.!.`.`.`.`.`.`.`.`.`.",
"`.`.`.`.`.`.C.C.C.a a a i i i M.M.M.`.`.`.`.`.`.W.W.W.J.J.J.j.j.j.i.i.i.*.*.*.Z Z Z o o . c v v (.(.(.`.`.`.`.`.`.",
"`.`.`.`.`.`.C.C.C.a a a i i i M.M.M.`.`.`.`.`.`.W.W.W.J.J.J.j.j.j.i.i.i.*.*.*.Z Z Z o . . c v v (.(.(.`.`.`.`.`.`.",
"`.`.`.`.`.`.C.C.C.a a a i i i M.M.M.`.`.`.`.`.`.W.W.W.J.J.J.j.j.j.i.i.i.*.*.*.Z Z Z o o o v v v (.(.(.`.`.`.`.`.`.",
"`.`.`.!.!.!.l l l q q q G.G.G.`.`.`._._._.^.^.^.E.E.E.D.D.D.p.p.p.-.-.-.$.$.$.......V V V . . . 9.9.9.`.`.`.`.`.`.",
"`.`.`.!.!.!.l l l q q q G.G.G.`.`.`._._._.^.^.^.E.E.E.D.D.D.p.p.p.-.-.-.$.$.$.......V V V . . . 9.9.9.`.`.`.`.`.`.",
"`.`.`.!.!.!.l l l q q q G.G.G.`.`.`._._._.^.^.^.E.E.E.D.D.D.p.p.p.-.-.-.$.$.$.......V V V . . . 9.9.9.`.`.`.`.`.`.",
"`.`.`.s.s.s.* * * 7.7.7.W.W.W.W.W.W.Q.Q.Q.W.W.W.K.K.K.k.k.k.u.u.u.&.&.&. . . .} } } ] ] ] 0 0 0 y y y A.A.A.(.(.(.",
"`.`.`.s.s.s.* * * 7.7.7.W.W.W.W.W.W.Q.Q.Q.W.W.W.K.K.K.k.k.k.u.u.u.&.&.&. . . .} } } ] ] ] 0 0 0 y y y A.A.A.(.(.(.",
"`.`.`.s.s.s.* * * 7.7.7.W.W.W.W.W.W.Q.Q.Q.W.W.W.K.K.K.k.k.k.u.u.u.&.&.&. . . .} } } ] ] ] 0 0 0 y y y A.A.A.(.(.(.",
"(.(.(.v v v w w w l.l.l.F.F.F.J.J.J.K.K.K.K.K.K.      d.d.d.=.=.=.      { { { ] ] ] ] ] ] S S S X X X q.q.q.~.~.!.",
"(.(.(.v v v w w w l.l.l.F.F.F.J.J.J.K.K.K.K.K.K.      d.d.d.=.=.=.      { { { ] ] ] ] ] ] S S S X X X q.q.q.~.~.!.",
"(.(.(.v v v w w w l.l.l.F.F.F.J.J.J.K.K.K.K.K.K.      d.d.d.=.=.=.      { { { ] ] ] ] ] ] S S S X X X q.q.q.~.~.~.",
"(.(.(.p p p h h h f.f.f.g.g.g.h.h.h.k.k.k.j.j.j.                        ' ' ' / / / ^ ^ ^ H H H @ @ @ v v v Y.Y.Y.",
"(.(.(.p p p h h h f.f.f.g.g.g.h.h.h.k.k.k.j.j.j.                        ' ' ' / / / ^ ^ ^ H H H @ @ @ v v v Y.Y.Y.",
"(.(.(.p p p h h h f.f.f.g.g.g.h.h.h.k.k.k.j.j.j.                        ' ' ' / / / ^ ^ ^ H H H @ @ @ v v v Y.Y.Y.",
"~.~.~.2 2 2 o.o.o.:.:.:.;.;.;.;.;.;.                                    ~ ~ ~ T T T Y Y Y P P P > > > k k k L.L.L.",
"~.~.~.2 2 2 o.o.o.:.:.:.;.;.;.;.;.;.                                    ~ ~ ~ T T T Y Y Y P P P > > > k k k L.L.L.",
"~.~.~.2 2 2 o.o.o.:.:.:.;.;.;.;.;.;.                                    ~ ~ ~ T T T Y Y Y P P P > > > k k k L.L.L.",
"~.~.~.4 4 4 C C C %.%.%.#.#.#.X.X.X.                                    U U U I I I I I I G G G : : : k k k A.A.A.",
"~.~.~.4 4 4 C C C %.%.%.#.#.#.X.X.X.                                    U U U I I I I I I G G G : : : k k k A.A.A.",
"~.~.~.4 4 4 C C C %.%.%.#.#.#.X.X.X.                                    U U U I I I I I I G G G : : : k k k A.A.A.",
"!.~.~.d s s t t t | | | } } } _ _ _ ) ) ) ( ( (                         J J J J J J K K K E E E + + + v v v A.A.A.",
"!.!.!.s s s t t t | | | } } } _ _ _ ) ) ) ( ( (                         J J J J J J K K K E E E + + + v v v A.A.A.",
"!.!.!.s s s t t t | | | } } } _ _ _ ) ) ) ( ( (                         J J J J J J K K K E E E + + + v v v A.A.A.",
"!.!.!.+.+.+.@ @ @ Q Q Q [ [ [ ` ` ` ^ ^ ^ ! ! !       K K K J J J       J J J J J J I I I M M M # # # 6.6.6.A.A.A.",
"!.!.!.+.+.+.@ @ @ Q Q Q [ [ [ ` ` ` ^ ^ ^ ! ! !       K K K J J J       J J J J J J I I I M M M # # # 6.6.6.A.A.A.",
"!.!.!.+.+.+.@ @ @ Q Q Q [ [ [ ` ` ` ^ ^ ^ ! ! !       K K K J J J       J J J J J J I I I M M M # # # 6.6.6.A.A.A.",
"R.R.R.s.s.s.$ $ $ N N N ' ' ' ^ ^ ^ T T ! Y Y Y K K K J J J J J J J J J J J J K K K W W W : : : d d d r.r.r.L.L.L.",
"R.R.R.s.s.s.$ $ $ N N N ' ' ' ^ ^ ^ T T ! Y Y Y K K K J J J J J J J J J J J J K K K W W W : : : d d d r.r.r.L.L.L.",
"R.R.R.s.s.s.$ $ $ N N N ' ' ' ^ ^ ^ T T ! Y Y Y K K K J J J J J J J J J J J J K K K W W W : : : d d d r.r.r.L.L.L.",
"R.R.R.I.I.I.v v v O O O A A A ~ ~ ~ T T T I K I J J J J J J J J J J J J I I I F F F 9 9 9 - - - 3.3.3.n.n.n.Y.Y.Y.",
"R.R.R.I.I.I.v v v O O O A A A ~ ~ ~ T T T I K K J J J J J J J J J J J J I I I F F F 9 9 9 - - - 3.3.3.n.n.n.Y.Y.Y.",
"Y.Y.R.I.I.I.v v v O O O A A A ~ ~ ~ T T T I I I J J J J J J J J J J J J I I I F F F 9 9 9 - - - 3.3.3.n.n.n.Y.Y.Y.",
"Y.Y.Y.I.I.I.N.N.M.g g g O O O n n n D D D K K K I I I I I I K K K L L L R R R 7 7 7 & & & >.>.>.t.t.t.A.A.A.Y.Y.Y.",
"Y.Y.Y.I.I.I.N.N.N.g g g O O O n n n D D D K K K I I I I I I K K K L L L R R R 7 7 7 & & % >.>.>.t.t.t.A.A.A.Y.Y.Y.",
"Y.Y.Y.I.I.I.N.N.N.g g g O O O n n n D D D K K K I I I I I I K K K L L L R R R 7 7 7 & & % >.>.>.t.t.t.A.A.A.Y.Y.Y.",
"I.Y.Y.I.I.I.A.A.A.c.c.c.z z z % % % : : : r r r m m m B B B b b b 8 8 8 O O O 6 6 6 ,.,.,.e.e.e.V.V.V.Y.Y.Y.Y.Y.Y.",
"Y.Y.Y.I.I.I.A.A.A.c.c.c.z z z % % % : : : r r r m m m B B B b b b 8 8 8 O O O 6 6 6 ,.,.,.e.e.e.V.V.V.Y.Y.Y.Y.Y.Y.",
"Y.Y.Y.I.I.I.A.A.G.c.c.c.z z z % % % : : : r r r m m m B B B b b b 8 8 8 O O O 6 6 6 ,.,.,.e.e.e.V.V.V.Y.I.I.Y.Y.Y.",
"I.I.I.I.I.I.I.I.I.A.A.C.b.b.b.5.5.6.g g g 5 5 5 = = = # # # ; ; ; u u u x x x 8.8.8.t.t.t.C.C.C.I.I.I.I.I.I.I.I.I.",
"I.I.I.I.I.I.I.I.I.C.C.C.b.b.b.5.6.6.g g g 5 5 5 = = = # # # ; ; ; u u u x x x 8.8.8.t.t.t.C.C.C.I.I.I.I.I.I.I.I.I.",
"I.I.I.I.I.I.I.I.I.C.C.C.b.b.b.5.6.6.g g g 5 5 5 = = = # # # ; ; ; u u u x x x 8.8.8.t.t.t.C.C.C.I.I.I.I.I.I.I.Y.I.",
"L.L.L.L.L.L.L.I.L.L.L.L.C.C.C.n.n.n.z.z.z.0.0.0.2.2.2.1.1.1.4.4.4.0.0.0.r.r.r.b.b.b.C.A.A.I.I.L.L.L.L.L.I.I.I.I.L.",
"L.L.L.L.L.L.L.I.L.L.L.L.C.C.C.n.n.n.z.z.z.0.0.0.2.2.2.1.1.1.4.4.4.0.0.0.r.r.r.b.b.b.A.A.A.I.I.L.L.L.L.L.L.L.I.I.L.",
"L.L.L.L.L.L.L.L.L.L.L.L.C.C.C.n.n.n.z.z.z.0.0.0.2.2.2.1.1.1.4.4.4.0.0.0.r.r.r.b.b.b.C.C.A.L.L.L.L.L.L.L.L.L.L.L.L.",
"n.n.n.n.n.n.n.n.n.n.n.n.n.n.n.n.n.n.b.b.b.c.c.c.c.c.c.z.z.z.z.z.z.c.c.c.n.n.n.n.n.n.n.n.n.n.n.n.n.n.n.n.n.n.n.n.n.",
"n.n.N.N.N.n.n.n.n.n.n.n.n.n.N.n.n.n.b.b.b.c.c.c.c.c.c.z.z.z.z.z.z.c.c.c.n.n.n.n.n.n.n.n.n.n.n.n.n.n.N.N.N.n.n.n.n.",
"n.n.N.N.N.n.n.n.n.n.n.n.n.n.N.n.n.n.b.b.b.c.c.c.c.c.c.z.z.z.z.z.z.c.c.c.n.n.n.n.n.n.n.n.n.n.n.n.n.n.N.N.N.n.n.n.n.",
"6.6.6.6.6.6.6.6.6.6.6.6.6.6.6.6.6.6.6.6.6.6.6.6.6.6.6.6.6.6.6.6.6.6.6.6.6.6.6.6.6.6.6.6.6.6.6.6.6.6.6.6.6.6.6.6.6.",
"6.6.6.6.6.6.6.6.6.6.6.6.6.6.6.6.6.6.6.6.6.6.6.6.6.6.6.6.6.6.6.6.6.6.6.6.6.6.6.6.6.6.6.6.6.6.6.6.6.6.6.6.6.6.6.6.6.",
"6.6.6.6.6.6.6.6.6.6.6.6.6.6.6.6.6.6.6.6.6.6.6.6.6.6.6.6.6.6.6.6.6.6.6.6.6.6.6.6.6.6.6.6.6.6.6.6.6.6.6.6.6.6.6.6.6.",
"                                                                                                                  ",
"                                                                                                                  ",
"                                                                                                                  "
};
