/* XPM */
static char *top_left_active[] = {
/* columns rows colors chars-per-pixel */
"24 75 24 1 ",
"  c None",
". c #020202",
"X c #32669A",
"o c #366A9E",
"O c #3A6E9E",
"+ c #3A6EA2",
"@ c #3E6EA2",
"# c #3E72A6",
"$ c #4272A6",
"% c #4276A6",
"& c #4676AA",
"* c #467AAE",
"= c #4A7AAA",
"- c #4A7AAE",
"; c #4A7EAE",
": c #4E7EB2",
"> c #4E82B2",
", c #5282B6",
"< c #5286BA",
"1 c #5686BA",
"2 c #568ABA",
"3 c #5A8ABE",
"4 c #7EAAD6",
"5 c #9EC6EE",
/* pixels */
"            ............",
"            ............",
"            ............",
"      ......555555555555",
"      ......555555555555",
"      ......555555555555",
"   ...555444444444444444",
"   ...555444444444444444",
"   ...555444444444444444",
"   ...==================",
"   ...==================",
"   ...==================",
"...XXX===ooooooooooooooo",
"...XXX===ooooooooooooooo",
"...XXX===ooooooooooooooo",
"...XXX===OOOOOOOOOOOOOOO",
"...XXX===OOOOOOOOOOOOOOO",
"...XXX===OOOOOOOOOOOOOOO",
"...XXX===+++++++++++++++",
"...XXX===+++++++++++++++",
"...XXX===+++++++++++++++",
"...XXX===@@@@@@@@@@@@@@@",
"...XXX===@@@@@@@@@@@@@@@",
"...XXX===@@@@@@@@@@@@@@@",
"...XXX===###############",
"...XXX===###############",
"...XXX===###############",
"...XXX===$$$$$$$$$$$$$$$",
"...XXX===$$$$$$$$$$$$$$$",
"...XXX===$$$$$$$$$$$$$$$",
"...XXX===%%%%%%%%%%%%%%%",
"...XXX===%%%%%%%%%%%%%%%",
"...XXX===%%%%%%%%%%%%%%%",
"...XXX===&&&&&&&&&&&&&&&",
"...XXX===&&&&&&&&&&&&&&&",
"...XXX===&&&&&&&&&&&&&&&",
"...XXX===&&&&&&&&&&&&&&&",
"...XXX===&&&&&&&&&&&&&&&",
"...XXX===&&&&&&&&&&&&&&&",
"...XXX===***************",
"...XXX===***************",
"...XXX===***************",
"...XXX===---------------",
"...XXX===---------------",
"...XXX===---------------",
"...XXX===;;;;;;;;;;;;;;;",
"...XXX===;;;;;;;;;;;;;;;",
"...XXX===;;;;;;;;;;;;;;;",
"...XXX===:::::::::::::::",
"...XXX===:::::::::::::::",
"...XXX===:::::::::::::::",
"...XXX===>>>>>>>>>>>>>>>",
"...XXX===>>>>>>>>>>>>>>>",
"...XXX===>>>>>>>>>>>>>>>",
"...XXX===,,,,,,,,,,,,,,,",
"...XXX===,,,,,,,,,,,,,,,",
"...XXX===,,,,,,,,,,,,,,,",
"...XXX===,,,,,,,,,,,,,,,",
"...XXX===,,,,,,,,,,,,,,,",
"...XXX===,,,,,,,,,,,,,,,",
"...XXX===<<<<<<<<<<<<<<<",
"...XXX===<<<<<<<<<<<<<<<",
"...XXX===<<<<<<<<<<<<<<<",
"...XXX===111111111111111",
"...XXX===111111111111111",
"...XXX===111111111111111",
"...XXX===222222222222222",
"...XXX===222222222222222",
"...XXX===222222222222222",
"...XXX===333333333333333",
"...XXX===333333333333333",
"...XXX===333333333333333",
"...XXXXXXXXXXXXXXXXXXXXX",
"...XXXXXXXXXXXXXXXXXXXXX",
"...XXXXXXXXXXXXXXXXXXXXX"
};
