/* XPM */
static char *title_3_active[] = {
/* columns rows colors chars-per-pixel */
"13 32 5 1 ",
"  c black",
". c #0A5E89 s active_color_1",
"X c #919189 s active_shadow_2",
"o c #CCCCC7 s active_color_2",
"O c #FFFFFF s active_hilight_2",
/* pixels */
"             ",
"OOOOOOOOOOOOO",
"OOOOOOOOOOOOO",
"ooooooooooooo",
"ooooooooooooo",
"ooooooooooooo",
"XXXXXXXXXXXXX",
"XXXXXXXXXXXXX",
".............",
".............",
".............",
".............",
".............",
".............",
".............",
".............",
".............",
".............",
".............",
".............",
".............",
".............",
".............",
".............",
".............",
".............",
".............",
".............",
".............",
"OOOOOOOOOOOOO",
"OOOOOOOOOOOOO",
"             "
};
