/* XPM */
static char *close_active[] = {
/* columns rows colors chars-per-pixel */
"26 29 102 2 ",
"   c None",
".  c #000000",
"X  c #010101",
"o  c #020202",
"O  c #060606",
"+  c #0E0E0E",
"@  c #0F0F0F",
"#  c #141414",
"$  c #161616",
"%  c #181818",
"&  c #191919",
"*  c #1B1B1B",
"=  c #1D1D1D",
"-  c #1E1F1E",
";  c #1F1F1F",
":  c #232323",
">  c #252525",
",  c #292929",
"<  c #2C2D2C",
"1  c #2D2D2D",
"2  c #2D2E2D",
"3  c #363636",
"4  c #373837",
"5  c #505050",
"6  c #535353",
"7  c #535453",
"8  c #555655",
"9  c #595A59",
"0  c #5D5D5D",
"q  c #5E5E5E",
"w  c #5E5F5E",
"e  c #5F605F",
"r  c #616261",
"t  c #626362",
"y  c #656665",
"u  c #717271",
"i  c #757575",
"p  c #757675",
"a  c #787978",
"s  c #828382",
"d  c #858685",
"f  c #868786",
"g  c #8A8B8A",
"h  c #8C8D8C",
"j  c #909090",
"k  c #929592",
"l  c #939493",
"z  c #929692",
"x  c #949794",
"c  c #979A97",
"v  c #989A98",
"b  c #999A99",
"n  c #9A9D9A",
"m  c #9C9E9C",
"M  c #9C9F9C",
"N  c #A1A4A1",
"B  c #A4A5A4",
"V  c #ACAEAC",
"C  c #ADB2AD",
"Z  c #AEB4AE",
"A  c #B1B6B1",
"S  c #B2B7B2",
"D  c #B3B9B3",
"F  c #B4B8B4",
"G  c #B7BBB7",
"H  c #B5BCB5",
"J  c #B7BEB7",
"K  c #B8BCB8",
"L  c #B9BEB9",
"P  c #B9BFB9",
"I  c #BCBDBC",
"U  c #BDBEBD",
"Y  c #C2C3C2",
"T  c #C1C5C1",
"R  c #C3C4C3",
"E  c #C2C6C2",
"W  c #C4C7C4",
"Q  c #C6C7C6",
"!  c #C4C8C4",
"~  c #C5C9C5",
"^  c #C7C8C7",
"/  c #C6CAC6",
"(  c #C7CAC7",
")  c #C8CAC8",
"_  c #C8CBC8",
"`  c #CACCCA",
"'  c #CBCCCB",
"]  c #CECFCE",
"[  c #CFD0CF",
"{  c #D1D2D1",
"}  c #D3D4D3",
"|  c #D3D5D3",
" . c #D4D5D4",
".. c #D5D6D5 s active_color_2",
"X. c #D6D7D6",
"o. c #D7D8D7",
"O. c #D8D9D8",
"+. c #D9DAD9",
"@. c #DADBDA",
"#. c #DCDDDC",
"$. c #DEDFDE",
"%. c #F9F9F9",
/* pixels */
"                                                    ",
"                                                    ",
"%.%.%.%.%.%.%.%.%.%.%.%.%.%.%.%.%.%.%.%.%.%.%.%.%.%.",
"$.$.$.$.$.$.$.$.$.$.$.$.$.$.$.$.$.$.$.$.$.$.$.$.$.$.",
"| | | | | | ....| | | | | | | | ........| | ....| | ",
"....................................................",
"............O.O.O.................O.O.O.............",
"........O.' l a f Y $.........$.Y f a l ' O.........",
"........$.I 4 X $ h ] ........] h $ X 4 I $.........",
"........$.I < X X : i | O.O.| i : X X < I $.........",
"........O.R q % X X , f Q Q f , X X % q R O.........",
"........o.] B 9 + X X $ j j $ X X + 9 B ] o.........",
"..........{ K l e % X X < < X X % e l K { ..........",
"..........| / G n 8 - X X X X - 8 n G / | ..........",
".............._ A x 6 O X X O 6 x A _ ..............",
"..............O.Q t - X X X X - t Q O...............",
"............O.R g > X X - - X X > g R O.............",
"............| s $ X X + y y + X X $ s | ............",
"........O.Q u , X X % q c c q % X X , u Q O.........",
"........$.I < X X % 7 m K K m 6 % X X < I $.........",
"........$.I 3 X + t n A ' ' A n t + X 3 I $.........",
"........O./ i 6 q l K _ | | _ G l q 6 i / O.........",
"........o.[ V m N G / ......../ G N m V [ o.........",
"..........{ K Z D _ | ........| _ G Z K { ..........",
"/ / / / / R K H H R / / / / / / R H H K R / / / / / ",
"C C C C C C C C C C C C C C C C C C C C C C C C C C ",
"v v v v v v v v v v v v v v v v v v v v v v v v v v ",
"                                                    ",
"                                                    "
};
