/* XPM */
static char *title_2_inactive[] = {
/* columns rows colors chars-per-pixel */
"3 32 3 1 ",
"  c black",
". c #4C7BA6 s inactive_color_1",
"X c #6EA0CD s inactive_hilight_1",
/* pixels */
"   ",
"XXX",
"XXX",
"...",
"...",
"...",
"...",
"...",
"...",
"...",
"...",
"...",
"...",
"...",
"...",
"...",
"...",
"...",
"...",
"...",
"...",
"...",
"...",
"...",
"...",
"...",
"...",
"...",
"...",
"...",
"...",
"..."
};
