/* XPM */
static char *shade_pressed[] = {
/* columns rows colors chars-per-pixel */
"24 35 112 2 ",
"   c None",
".  c #000000 s active_text_color",
"X  c #050505",
"o  c #060505",
"O  c #070707",
"+  c #080707",
"@  c #080808",
"#  c #0F0F0E",
"$  c #111111",
"%  c #141313",
"&  c #161515",
"*  c #1A1A19",
"=  c #1D1C1C",
"-  c #1E1D1D",
";  c #21201F",
":  c #252423",
">  c #2F2E2D",
",  c #302F2E",
"<  c #353333",
"1  c #363433",
"2  c #373534",
"3  c #3C3938",
"4  c #3D3B3A",
"5  c #3E3B3A",
"6  c #403D3C",
"7  c #444140",
"8  c #454241",
"9  c #484544",
"0  c #494544",
"q  c #4C4948",
"w  c #565251",
"e  c #696563",
"r  c #6E6A69",
"t  c #736F6E",
"y  c #777270",
"u  c #787473",
"i  c #7A7674",
"p  c #7D7978",
"a  c #807A78",
"s  c #827C79",
"d  c #817D7B",
"f  c #837D7B s active_shadow_1",
"g  c #847E7C",
"h  c #857F7D",
"j  c #847F7E",
"k  c #84807E",
"l  c #85817F",
"z  c #86807E",
"x  c #87807E",
"c  c #868282",
"v  c #8A8584",
"b  c #8F8A89",
"n  c #918B89",
"m  c #938E8D",
"M  c #948D8C",
"N  c #95908E",
"B  c #979290",
"V  c #999492",
"C  c #989493",
"Z  c #9A9593",
"A  c #A7A19F",
"S  c #A7A2A0",
"D  c #A8A3A1",
"F  c #ABA5A4",
"G  c #AEA8A6",
"H  c #AEA9A7",
"J  c #B0AAA8",
"K  c #B1ABA9",
"L  c #B1ACAB",
"P  c #B3ADAB",
"I  c #B4AEAB",
"U  c #B4AEAC s active_mid_1",
"Y  c #B5AFAD",
"T  c #B5B0AE",
"R  c #B6B0AE",
"E  c #B7B1AE",
"W  c #B6B0AF",
"Q  c #B8B2AF",
"!  c #B8B2B0",
"~  c #B9B3B1",
"^  c #BAB3B1",
"/  c #BAB4B2",
"(  c #BCB5B3",
")  c #BCB6B4",
"_  c #BDB6B4",
"`  c #C0B9B7",
"'  c #C1BBB8",
"]  c #C0BBB9",
"[  c #C1BCBA",
"{  c #C3BCBB",
"}  c #C2BDBB",
"|  c #C5BFBE",
" . c #C6C1BF",
".. c #CCC5C4",
"X. c #CDCACA",
"o. c #DDD9D9",
"O. c #DEDCDB",
"+. c #DFDDDC",
"@. c #E2DEDD",
"#. c #E1DFDE",
"$. c #E3DEDE",
"%. c #E3E1E0",
"&. c #E5E2E2",
"*. c #EFEBEB",
"=. c #F2F1F1",
"-. c #F3F2F1",
";. c #F5F4F4",
":. c #FAF9F9",
">. c #FBFAFA",
",. c #FEFDFD",
"<. c #FEFEFE",
"1. c #FFFFFF s active_hilight_1",
/* pixels */
"                                                ",
"                                                ",
"                                                ",
"                                                ",
"                                                ",
"                                                ",
"f h z z z z z z z z z z z z z z z z z z h f A ..",
"f e q 9 9 9 9 9 9 9 9 9 9 9 9 9 9 9 9 7 w n | @.",
"h 7 X $ & & & & & & & & & & & & & & & # < L *.1.",
"h 5 % r v z z z z z c c z z z z z z z f Z @.1.1.",
"h 5 - Z ' / / / / / / / / / / / / / / Q  .;.1.1.",
"h 5 - N / U U U U U U U U U U U U U U K [ =.1.1.",
"h 5 - N / U U U U U U U U U U U U U U K [ =.1.1.",
"h 5 - N / U U U U U R ^ ^ R U U U U U K [ =.1.1.",
"h 5 - N / U U U U U G S S G U U U U U K [ =.1.1.",
"h 5 - N / U U U R ^ u < < u ^ R U U U K [ =.1.1.",
"h 5 - N / U U ^ G h 2 . . 2 h G ^ U U K [ =.1.1.",
"h 5 - N / U U U b : . . . . : b U U U K [ =.1.1.",
"h 5 - N / R / p , X . . . . X , p / R K [ =.1.1.",
"h 5 - N _ F z 1 . . . . . . . . 1 z F L [ =.1.1.",
"h 5 - N ` Z > @ X X + + + + + X @ > Z R [ =.1.1.",
"h 5 - N _ D i r t t t t t t t t r i D I [ =.1.1.",
"h 5 - N / U ^ ^ ^ ^ ^ ^ ^ ^ ^ ^ ^ ^ U K [ =.1.1.",
"h 5 - N / U U U U U U U U U U U U U U K [ =.1.1.",
"h 5 - N / U U U U U U U U U U U U U U K [ =.1.1.",
"h 5 * m ^ L L L L L L L L L L L L L L K ' =.1.1.",
"h 5 ; B ( U U U U R R R R R R R R R R L [ =.1.1.",
"a y c X.%.+.+.+.+.+.+.+.+.@.+.+.+.+.+.O.&.:.1.1.",
"M R @.:.1.1.1.1.1.1.1.1.1.1.1.1.1.1.1.1.1.1.1.1.",
"[ o.:.1.1.1.1.1.1.1.1.1.1.1.1.1.1.1.1.1.1.1.1.1.",
"                                                ",
"                                                ",
"                                                ",
"                                                ",
"                                                "
};
