/* XPM */
static char *stick_toggled_active[] = {
/* columns rows colors chars-per-pixel */
"24 28 5 1 ",
"  c None",
". c black",
"X c #949594 s active_shadow_1",
"o c #B4BAB4 s active_mid_1",
"O c #D5D6D5 s active_color_1",
/* pixels */
"                        ",
"                        ",
"                        ",
"                        ",
"OOOOOOOOOOOOOOOOOOOOOOOO",
"OOOOOOOOOOOOOOOOOOOOOOOO",
"OOOOOOOOOOOOOOOOOOOOOOOO",
"OOOOOOOOOOOOOOOOOOOOOOOO",
"OOOOOOOOOOOOOOOOOOOOOOOO",
"OOOOOOOOOOOOOOOOOOOOOOOO",
"OOOOOOOOOo....oOOOOOOOOO",
"OOOOOOOOo.OOOX.oOOOOOOOO",
"OOOOOOOOo.OOOX.oOOOOOOOO",
"OOOOOOOO.OOOOoX.ooOOOOOO",
"OOOOOOOO.OO..oX.XXOOOOOO",
"OOOOOOOO.XooooX.XXoOOOOO",
"OOOOOOOO.XooooX.XXoOOOOO",
"OOOOOOOOo.XXXX.XXXoOOOOO",
"OOOOOOOOOo....XXoooOOOOO",
"OOOOOOOOOOoXXXXoooOOOOOO",
"OOOOOOOOOOOOOoooOOOOOOOO",
"OOOOOOOOOOOOOoooOOOOOOOO",
"OOOOOOOOOOOOOOOOOOOOOOOO",
"OOOOOOOOOOOOOOOOOOOOOOOO",
"OOOOOOOOOOOOOOOOOOOOOOOO",
"                        ",
"                        ",
"                        "
};
