/* XPM */
static char *bottom_inactive[] = {
/* columns rows colors chars-per-pixel */
"4 14 10 1 ",
"  c None",
". c #B7B7B7",
"X c #B8B8B8",
"o c #BDBDBD",
"O c #C8C8C8",
"+ c #DBDBDB",
"@ c #E7E7E7",
"# c #F4F4F4",
"$ c #FBFBFB",
"% c white",
/* pixels */
"....",
"OOOO",
"@@@@",
"$$$$",
"%%%%",
"####",
"++++",
"OOOO",
"oooo",
"XXXX",
"    ",
"    ",
"    ",
"    "
};
