/* XPM */
static char *title_4_active[] = {
/* columns rows colors chars-per-pixel */
"20 34 65 1 ",
"  c None",
". c #B7B7B7",
"X c #B8B8B8",
"o c #B9B9B9 s active_shadow_2",
"O c #BABABA",
"+ c #BCBCBC",
"@ c #BDBDBD",
"# c #BEBEBE",
"$ c #BFBFBF",
"% c #C0C0C0",
"& c #C1C1C1",
"* c #C2C2C2",
"= c #C3C3C3",
"- c #C4C4C4",
"; c #C5C5C5",
": c #C6C6C6",
"> c #C7C7C7",
", c #C8C8C8",
"< c #C9C9C9",
"1 c #CACACA",
"2 c #CBCBCB",
"3 c #CCCCCC",
"4 c #CDCDCD",
"5 c #CECECE",
"6 c #CFCFCF s active_mid_2",
"7 c #D0D0D0",
"8 c #D1D1D1",
"9 c #D2D2D2",
"0 c #D3D3D3",
"q c #D4D4D4",
"w c #D5D5D5",
"e c #D6D6D6",
"r c #D7D7D7",
"t c #D8D8D8",
"y c #D9D9D9",
"u c #DADADA",
"i c #DBDBDB",
"p c #DCDCDC",
"a c #DDDDDD",
"s c #DEDEDE",
"d c #DFDFDF",
"f c #E0E0E0",
"g c #E1E1E1",
"h c #E3E3E3",
"j c #E4E4E4",
"k c #E5E5E5",
"l c #E6E6E6",
"z c #E7E7E7",
"x c #E8E8E8",
"c c #EAEAEA",
"v c #EBEBEB",
"b c #ECECEC",
"n c #EDEDED",
"m c #EEEEEE",
"M c #EFEFEF",
"N c #F0F0F0",
"B c #F1F1F1",
"V c #F2F2F2",
"C c #F3F3F3",
"Z c #F4F4F4",
"A c #F5F5F5",
"S c #F6F6F6",
"D c #F7F7F7",
"F c #F9F9F9",
"G c #FFFFFF s active_color_2",
/* pixels */
"oooooooooo          ",
"@@@@@@@@oo          ",
";;;;;;;*@o..        ",
"22222222*@o.        ",
"555555552*@o........",
"777777755;@@;2222222",
"777777775;@;fmmmmmmm",
"qq7777775;@2mGGGGGGG",
"qqqqqqqq72@2mGGGGGGG",
"qqqqqqyq72@2mGGGGGGG",
"yyyyyyyyq2@2mGGGGGGG",
"yyyyyyyyq5@2mGGGGGGG",
"aaaaaaayq5@2mGGGGGGG",
"aaaaaaaay5@2mGGGGGGG",
"fffffffay5@2mGGGGGGG",
"ffffffffy7@2mGGGGGGG",
"ffffkfffa7@2mGGGGGGG",
"kkkkkkkfa7@2mGGGGGGG",
"kkkkkkkka7*2mGGGGGGG",
"xxxxxxxkf7*2mGGGGGGG",
"xxxxxxxxfq*2mGGGGGGG",
"mmmmmmmxkq*2mGGGGGGG",
"mmmmmmmxkq*2mGGGGGGG",
"mmmmmmmmky*2mGGGGGGG",
"BBBBBBBmxy*2mGGGGGGG",
"BBBBZZZBxy*2mGGGGGGG",
"ZZZZZZZBxy*2mGGGGGGG",
"ZZZZZFFZmy*2mGGGGGGG",
"FFFFFFFZma*2mGGGGGGG",
"ZZZZZZZZma*;kZZZZZZZ",
"BBBBBBBmxy**7aayyyyy",
"kkkkkkkkfq*@;2222222",
"qqyqqqqqq5*o@@@@@@@@",
"7777777772@ooooooooo"
};
