/* XPM */
static char *bottom_right_active[] = {
/* columns rows colors chars-per-pixel */
"75 75 6 1 ",
"  c None",
". c black",
"X c #949594 s active_shadow_1",
"o c #B4BAB4 s active_mid_1",
"O c #D5D6D5 s active_color_1",
"+ c #FFFFFF s active_hilight_1",
/* pixels */
"                                                         XXX+++OOOoooXXX...",
"                                                         XXX+++OOOoooXXX...",
"                                                         XXX+++OOOoooXXX...",
"                                                         XXX+++OOOoooXXX...",
"                                                         XXX+++OOOoooXXX...",
"                                                         XXX+++OOOoooXXX...",
"                                                         XXX+++OOOoooXXX...",
"                                                         XXX+++OOOoooXXX...",
"                                                         XXX+++OOOoooXXX...",
"                                                         XXX+++OOOoooXXX...",
"                                                         XXX+++OOOoooXXX...",
"                                                         XXX+++OOOoooXXX...",
"                                                         XXX+++OOOoooXXX...",
"                                                         XXX+++OOOoooXXX...",
"                                                         XXX+++OOOoooXXX...",
"                                                         XXX+++OOOoooXXX...",
"                                                         XXX+++OOOoooXXX...",
"                                                         XXX+++OOOoooXXX...",
"                                                         XXX+++OOOoooXXX...",
"                                                         XXX+++OOOoooXXX...",
"                                                         XXX+++OOOoooXXX...",
"                                                         XXX+++OOOoooXXX...",
"                                                         XXX+++OOOoooXXX...",
"                                                         XXX+++OOOoooXXX...",
"                                                         XXX+++OOOoooXXX...",
"                                                         XXX+++OOOoooXXX...",
"                                                         XXX+++OOOoooXXX...",
"                                                         XXX+++OOOoooXXX...",
"                                                         XXX+++OOOoooXXX...",
"                                                         XXX+++OOOoooXXX...",
"                                                         XXX+++OOOoooXXX...",
"                                                         XXX+++OOOoooXXX...",
"                                                         XXX+++OOOoooXXX...",
"                                                         XXX+++OOOoooXXX...",
"                                                         XXX+++OOOoooXXX...",
"                                                         XXX+++OOOoooXXX...",
"                                                         XXX+++OOOoooXXX...",
"                                                         XXX+++OOOoooXXX...",
"                                                         XXX+++OOOoooXXX...",
"                                                         XXX+++OOOoooXXX...",
"                                                         XXX+++OOOoooXXX...",
"                                                         XXX+++OOOoooXXX...",
"                                                         XXX+++OOOoooXXX...",
"                                                         XXX+++OOOoooXXX...",
"                                                         XXX+++OOOoooXXX...",
"                                                         XXX+++OOOoooXXX...",
"                                                         XXX+++OOOoooXXX...",
"                                                         XXX+++OOOoooXXX...",
"                                                         XXX+++OOOoooXXX...",
"                                                         XXX+++OOOoooXXX...",
"                                                         XXX+++OOOoooXXX...",
"                                                         XXX+++OOOoooXXX...",
"                                                         XXX+++OOOoooXXX...",
"                                                         XXX+++OOOoooXXX...",
"                                                         XXX+++OOOoooXXX...",
"                                                         XXX+++OOOoooXXX...",
"                                                         XXX+++OOOoooXXX...",
"XXXXXXXXXXXXXXXXXXXXXXXXXXXXXXXXXXXXXXXXXXXXXXXXXXXXXXXXXXXX+++OOOoooXXX...",
"XXXXXXXXXXXXXXXXXXXXXXXXXXXXXXXXXXXXXXXXXXXXXXXXXXXXXXXXXXXX+++OOOoooXXX...",
"XXXXXXXXXXXXXXXXXXXXXXXXXXXXXXXXXXXXXXXXXXXXXXXXXXXXXXXXXXXX+++OOOoooXXX...",
"++++++++++++++++++++++++++++++++++++++++++++++++++++++++++++OOOoooXXXXXX...",
"++++++++++++++++++++++++++++++++++++++++++++++++++++++++++++OOOoooXXXXXX...",
"++++++++++++++++++++++++++++++++++++++++++++++++++++++++++++OOOoooXXXXXX...",
"OOOOOOOOOOOOOOOOOOOOOOOOOOOOOOOOOOOOOOOOOOOOOOOOOOOOOOOOOOOOooooooXXX...   ",
"OOOOOOOOOOOOOOOOOOOOOOOOOOOOOOOOOOOOOOOOOOOOOOOOOOOOOOOOOOOOooooooXXX...   ",
"OOOOOOOOOOOOOOOOOOOOOOOOOOOOOOOOOOOOOOOOOOOOOOOOOOOOOOOOOOOOooooooXXX...   ",
"ooooooooooooooooooooooooooooooooooooooooooooooooooooooooooooXXXXXXXXX...   ",
"ooooooooooooooooooooooooooooooooooooooooooooooooooooooooooooXXXXXXXXX...   ",
"ooooooooooooooooooooooooooooooooooooooooooooooooooooooooooooXXXXXXXXX...   ",
"XXXXXXXXXXXXXXXXXXXXXXXXXXXXXXXXXXXXXXXXXXXXXXXXXXXXXXXXXXXXXXX......      ",
"XXXXXXXXXXXXXXXXXXXXXXXXXXXXXXXXXXXXXXXXXXXXXXXXXXXXXXXXXXXXXXX......      ",
"XXXXXXXXXXXXXXXXXXXXXXXXXXXXXXXXXXXXXXXXXXXXXXXXXXXXXXXXXXXXXXX......      ",
"...............................................................            ",
"...............................................................            ",
"...............................................................            "
};
