/* XPM */
static char *maximize_inactive[] = {
/* columns rows colors chars-per-pixel */
"26 32 4 1 ",
"  c None",
". c #919189 s inactive_shadow_1",
"X c #CCCCC7 s inactive_color_1",
"o c #FFFFFF s inactive_hilight_1",
/* pixels */
"                          ",
"                          ",
"                          ",
"                          ",
"                          ",
"                          ",
"oooooooooooooooooooooooooo",
"oooooooooooooooooooooooooo",
"oXXXXXXXXXXXXXXXXXXXXXXXX.",
"oXXXXXXXXXXXXXXXXXXXXXXXX.",
"oXXXXXXXXXXXXXXXXXXXXXXXX.",
"oXXXXXXXXXXXXXXXXXXXXXXXX.",
"oXXXXooooooooooooo..XXXXX.",
"oXXXXooXXXXXXXXXXX..XXXXX.",
"oXXXXooXXXXXXXXXXX..XXXXX.",
"oXXXXooXXXXXXXXXXX..XXXXX.",
"oXXXXooXXXXXXXXXXX..XXXXX.",
"oXXXXooXXXXXXXXXXX..XXXXX.",
"oXXXXooXXXXXXXXXXX..XXXXX.",
"oXXXXooXXXXXXXXXXX..XXXXX.",
"oXXXXooXXXXXXXXXXX..XXXXX.",
"oXXXXooXXXXXXXXXXX..XXXXX.",
"oXXXXooXXXXXXXXXXX..XXXXX.",
"oXXXXooXXXXXXXXXXX..XXXXX.",
"oXXXXoo.............XXXXX.",
"oXXXXoo.............XXXXX.",
"oXXXXXXXXXXXXXXXXXXXXXXXX.",
"oXXXXXXXXXXXXXXXXXXXXXXXX.",
"oXXXXXXXXXXXXXXXXXXXXXXXX.",
"oXXXXXXXXXXXXXXXXXXXXXXXX.",
"oXXXXXXXXXXXXXXXXXXXXXXXX.",
"o........................."
};
