/* XPM */
static char *title_2_active[] = {
/* columns rows colors chars-per-pixel */
"28 37 6 1 ",
"  c black",
". c #4B58A2 s active_shadow_1",
"X c #525FAB s active_color_1",
"o c #848FD6 s active_mid_1",
"O c #D5D6D5 s active_color_2",
"+ c white",
/* pixels */
"                            ",
"                            ",
"++++++++++++++++++++++++++++",
"++++++++++++++++++++++++++++",
"OOOOOOOOOOOOOOOOOOOOOOOOOOOO",
"OOOOOOOOOOOOOOOOOOOOOOOOOOOO",
"OOOOOOOOOOOOOOOOOOOOOOOOOOOO",
"OOOOOOOOOOOOOOOOOO..........",
"OOOOOOOOOOOOOOOOOO..........",
"OOOOOOOOOOOOOO....XXXXXXXXXX",
"OOOOOOOOOOOOOO....XXXXXXXXXX",
"OOOOOOOOOOOO..XXXXXXXXXXXXXX",
"OOOOOOOOOOO.XXXXXXXXXXXXXXXX",
"OOOOOOOOOOO.XXXXXXXXXXXXXXXX",
"OOOOOOOOOOO.XXXXXXXXXXXXXXXX",
"OOOOOOOOOOO.XXXXXXXXXXXXXXXX",
"OOOOOOOOO..XXXXXXXXXXXXXXXXX",
"OOOOOOOOO..XXXXXXXXXXXXXXXXX",
"OOOOOOOOO..XXXXXXXXXXXXXXXXX",
"OOOOOOOOO..XXXXXXXXXXXXXXXXX",
"OOOOOOOOO..XXXXXXXXXXXXXXXXX",
"OOOOOOOOO..XXXXXXXXXXXXXXXXX",
"OOOOOOOOO..XXXXXXXXXXXXXXXXX",
"OOOOOOOOO..XXXXXXXXXXXXXXXXX",
"OOOOOOOOO..XXXXXXXXXXXXXXXXX",
"OOOOOOOOO..XXXXXXXXXXXXXXXXX",
"OOOOOOOOO..XXXXXXXXXXXXXXXXX",
"OOOOOOOOO..XXXXXXXXXXXXXXXXX",
"OOOOOOOOOOO.XXXXXXXXXXXXXXXX",
"OOOOOOOOOOO.XXXXXXXXXXXXXXXX",
"OOOOOOOOOOO.ooXXXXXXXXXXXXXX",
"OOOOOOOOOOO.ooXXXXXXXXXXXXXX",
"OOOOOOOOOOOO..ooooXXXXXXXXXX",
"OOOOOOOOOOOOOO....oooooooooo",
"OOOOOOOOOOOOOO....oooooooooo",
"OOOOOOOOOOOOOOOOOO..........",
"OOOOOOOOOOOOOOOOOO.........."
};
