/* XPM */
static char *maximize_inactive[] = {
/* columns rows colors chars-per-pixel */
"38 38 5 1 ",
"  c None",
". c black",
"X c #949594 s inactive_shadow_2",
"o c #D5D6D5 s inactive_color_2",
"O c white",
/* pixels */
"                                      ",
"                                      ",
"OOOOOOOOOOOOOOOOOOOOOOOOOOOOOOOOOOOOoo",
"OOOOOOOOOOOOOOOOOOOOOOOOOOOOOOOOOOOOoo",
"OOooooooooooooooooooooooooooooooooooXX",
"OOooooooooooooooooooooooooooooooooooXX",
"OOooooooooooooooooooooooooooooooooooXX",
"OOooooooooooooooooooooooooooooooooooXX",
"OOoooooo......................ooooooXX",
"OOoooooo......................ooooooXX",
"OOoooooo......................ooooooXX",
"OOoooooo......................ooooooXX",
"OOoooooo......................ooooooXX",
"OOoooooo......................ooooooXX",
"OOoooooo..oooooooooooooooooo..ooooooXX",
"OOoooooo..oooooooooooooooooo..ooooooXX",
"OOoooooo..oooooooooooooooooo..ooooooXX",
"OOoooooo..oooooooooooooooooo..ooooooXX",
"OOoooooo..oooooooooooooooooo..ooooooXX",
"OOoooooo..oooooooooooooooooo..ooooooXX",
"OOoooooo..oooooooooooooooooo..ooooooXX",
"OOoooooo..oooooooooooooooooo..ooooooXX",
"OOoooooo..oooooooooooooooooo..ooooooXX",
"OOoooooo..oooooooooooooooooo..ooooooXX",
"OOoooooo..oooooooooooooooooo..ooooooXX",
"OOoooooo..oooooooooooooooooo..ooooooXX",
"OOoooooo..oooooooooooooooooo..ooooooXX",
"OOoooooo..oooooooooooooooooo..ooooooXX",
"OOoooooo......................ooooooXX",
"OOoooooo......................ooooooXX",
"OOooooooooooooooooooooooooooooooooooXX",
"OOooooooooooooooooooooooooooooooooooXX",
"OOooooooooooooooooooooooooooooooooooXX",
"OOooooooooooooooooooooooooooooooooooXX",
"XXXXXXXXXXXXXXXXXXXXXXXXXXXXXXXXXXXXXX",
"XXXXXXXXXXXXXXXXXXXXXXXXXXXXXXXXXXXXXX",
"                                      ",
"                                      "
};
