/* XPM */
static char *title_5_inactive[] = {
/* columns rows colors chars-per-pixel */
"8 32 4 1 ",
"  c black",
". c #B2B2B2 s inactive_shadow_2",
"X c #DFDFDF s inactive_color_2",
"o c white",
/* pixels */
"        ",
"        ",
"oooooooo",
"XXXXXXXX",
"XXXXXXXX",
"XXXXXXXX",
"XXXXXXXX",
"XXXXXXXX",
"XXXXXXXX",
"XXXXXXXX",
"XXXXXXXX",
"XXXXXXXX",
"XXXXXXXX",
"XXXXXXXX",
"XXXXXXXX",
"XXXXXXXX",
"XXXXXXXX",
"XXXXXXXX",
"XXXXXXXX",
"XXXXXXXX",
"XXXXXXXX",
"XXXXXXXX",
"XXXXXXXX",
"XXXXXXXX",
"XXXXXXXX",
"XXXXXXXX",
"XXXXXXXX",
"XXXXXXXX",
"XXXXXXXX",
"........",
"        ",
"        "
};
