/* XPM */
static char * bottom_inactive_xpm[] = {
"2 6 4 1",
" 	c None",
".	c #E0E0E0",
"+	c #626262",
"@	c #808080",
"..",
"++",
"..",
"..",
"..",
"@@"};
