/* XPM */
static char *right_active[] = {
/* columns rows colors chars-per-pixel */
"8 24 3 1 ",
"  c black",
". c #7B7D7B",
"X c #CDCECD",
/* pixels */
" XXXX.. ",
" XXXX.. ",
" XXXX.. ",
" XXXX.. ",
" XXXX.. ",
" XXXX.. ",
" XXXX.. ",
" XXXX.. ",
" XXXX.. ",
" XXXX.. ",
" XXXX.. ",
" XXXX.. ",
" XXXX.. ",
" XXXX.. ",
" XXXX.. ",
" XXXX.. ",
" XXXX.. ",
" XXXX.. ",
" XXXX.. ",
" XXXX.. ",
" XXXX.. ",
" XXXX.. ",
" XXXX.. ",
" XXXX.. "
};
