/* XPM */
static char *maximize_pressed[] = {
/* columns rows colors chars-per-pixel */
"26 30 4 1 ",
"  c black",
". c #9B9B8A s active_shadow_2",
"X c #D6D6CC s active_mid_2",
"o c white",
/* pixels */
"                          ",
"                          ",
"........................XX",
"........................XX",
"..XXXXXXXXXXXXXXXXXXXXXXoo",
"..XXXXXXXXXXXXXXXXXXXXXXoo",
"..XXXXXXXXXXXXXXXXXXXXXXoo",
"..XXXXXXXXXXXXXXXXXXXXXXoo",
"..XXXXXXXXXXXXXXXXXXXXXXoo",
"..XXXXXXXXXXXXXXXXXXXXXXoo",
"..XXXX              XXXXoo",
"..XXXX              XXXXoo",
"..XXXX              XXXXoo",
"..XXXX              XXXXoo",
"..XXXX    XXXXXX    XXXXoo",
"..XXXX    XXXXXX    XXXXoo",
"..XXXX    XXXXXX    XXXXoo",
"..XXXX    XXXXXX    XXXXoo",
"..XXXX    XXXXXX    XXXXoo",
"..XXXX    XXXXXX    XXXXoo",
"..XXXX              XXXXoo",
"..XXXX              XXXXoo",
"..XXXX              XXXXoo",
"..XXXX              XXXXoo",
"..XXXXXXXXXXXXXXXXXXXXXXoo",
"..XXXXXXXXXXXXXXXXXXXXXXoo",
"..XXXXXXXXXXXXXXXXXXXXXXoo",
"..XXXXXXXXXXXXXXXXXXXXXXoo",
"XXoooooooooooooooooooooooo",
"XXoooooooooooooooooooooooo"
};
