/* XPM */
static char *title_4_inactive[] = {
/* columns rows colors chars-per-pixel */
"20 30 12 1 ",
"  c black",
". c gray34",
"X c #838383",
"o c #888888",
"O c #909090",
"+ c #9A9A9A",
"@ c #A2A2A2",
"# c gray66",
"$ c #B5B5B5",
"% c #C0C0C0",
"& c gray79",
"* c gray80",
/* pixels */
"                    ",
"                    ",
"##################..",
"##################..",
"XXXXXXXXXXXXXXXX$$..",
"XXXXXXXXXXXXXXXX$$..",
"XXXXXXXXXXXXXXXX$$..",
"XXXXXXXXXXXXXXXX$$..",
"oooooooooooooooo$$..",
"oooooooooooooooo$$..",
"OOOOOOOOOOOOOOOO$$..",
"OOOOOOOOOOOOOOOO$$..",
"++++++++++++++++$$..",
"++++++++++++++++$$..",
"@@@@@@@@@@@@@@@@$$..",
"@@@@@@@@@@@@@@@@$$..",
"################$$..",
"################$$..",
"$$$$$$$$$$$$$$$$$$..",
"$$$$$$$$$$$$$$$$$$..",
"%%%%%%%%%%%%%%%%$$..",
"%%%%%%%%%%%%%%%%$$..",
"&&&&&&&&&&&&&&&&$$..",
"&&&&&&&&&&&&&&&&$$..",
"****************$$..",
"****************$$..",
"$$$$$$$$$$$$$$$$$$..",
"$$$$$$$$$$$$$$$$$$..",
"                    ",
"                    "
};
