/* XPM */
static char *hide_active[] = {
/* columns rows colors chars-per-pixel */
"48 60 3 1 ",
"  c None",
". c #00009C s active_color_1",
"X c gray92",
/* pixels */
"                                                ",
"                                                ",
"                                                ",
"................................................",
"................................................",
"................................................",
"................................................",
"................................................",
"................................................",
"................................................",
"................................................",
"................................................",
"................................................",
"................................................",
"................................................",
"................................................",
"................................................",
"................................................",
"................................................",
"................................................",
"................................................",
"................................................",
"................................................",
"................................................",
"................................................",
"................................................",
"................................................",
"................................................",
"................................................",
"................................................",
"............XXXXXXXXXXXXXXXXXXXXXXXX............",
"............XXXXXXXXXXXXXXXXXXXXXXXX............",
"............XXXXXXXXXXXXXXXXXXXXXXXX............",
".........XXXXXXXXXXXXXXXXXXXXXXXXXXXXXX.........",
".........XXXXXXXXXXXXXXXXXXXXXXXXXXXXXX.........",
".........XXXXXXXXXXXXXXXXXXXXXXXXXXXXXX.........",
".........XXXXXXXXXXXXXXXXXXXXXXXXXXXXXX.........",
".........XXXXXXXXXXXXXXXXXXXXXXXXXXXXXX.........",
".........XXXXXXXXXXXXXXXXXXXXXXXXXXXXXX.........",
"............XXXXXXXXXXXXXXXXXXXXXXXX............",
"............XXXXXXXXXXXXXXXXXXXXXXXX............",
"............XXXXXXXXXXXXXXXXXXXXXXXX............",
"................................................",
"................................................",
"................................................",
"................................................",
"................................................",
"................................................",
"................................................",
"................................................",
"................................................",
"                                                ",
"                                                ",
"                                                ",
"                                                ",
"                                                ",
"                                                ",
"                                                ",
"                                                ",
"                                                "
};
