/* XPM */
static char *maximize_active[] = {
/* columns rows colors chars-per-pixel */
"30 33 190 2 ",
"   c #333333",
".  c #3B363A",
"X  c #3C3B39",
"o  c gray24",
"O  c #4E492C",
"+  c #484735",
"@  c #464832",
"#  c #5A403F",
"$  c #66542E",
"%  c #6C573C",
"&  c gray30",
"*  c #534846",
"=  c #57484F",
"-  c #5D5443",
";  c #595748",
":  c #5C534E",
">  c #514B57",
",  c #554F5B",
"<  c gray32",
"1  c #545351",
"2  c #545859",
"3  c #575B5C",
"4  c #5A5F58",
"5  c #604440",
"6  c #604B4A",
"7  c #63554A",
"8  c #675C4A",
"9  c #614C51",
"0  c #665B55",
"q  c #6A525F",
"w  c #615E59",
"e  c #666A5C",
"r  c #515C60",
"t  c #546265",
"y  c gray40",
"u  c #6B6C64",
"i  c #65626B",
"p  c #696969",
"a  c #69686D",
"s  c #6B6C6E",
"d  c #6D746D",
"f  c #727560",
"g  c #7F7F7D",
"h  c #807F7D",
"j  c #B4A32F",
"k  c #B1A93E",
"l  c #C0A520",
"z  c #CAAF22",
"x  c #D3B725",
"c  c #DDB52F",
"v  c #CEB534",
"b  c #D8B533",
"n  c #D7BB34",
"m  c #DAB936",
"M  c #E1BB32",
"N  c #808074",
"B  c #8B817F",
"V  c #94977C",
"C  c #D7B44C",
"Z  c #D8BA48",
"A  c #E4B951",
"S  c #E4BF57",
"D  c #E0C844",
"F  c #E0C957",
"G  c #E7C15E",
"H  c #CEC068",
"J  c #D5CD68",
"K  c #E8C766",
"L  c #E2CB63",
"P  c #757984",
"I  c #7D7E80",
"U  c #707589",
"Y  c #75778C",
"T  c #7C7F88",
"R  c #7A7A92",
"E  c #847E80",
"W  c #7F828B",
"Q  c gray51",
"!  c #858587",
"~  c #87868E",
"^  c #888888",
"/  c gray56",
"(  c #8A8490",
")  c #8B8C90",
"_  c #8F9392",
"`  c #909090",
"'  c #959396",
"]  c #979797",
"[  c #969C90",
"{  c #95969B",
"}  c #9D919B",
"|  c #9B969A",
" . c #989898",
".. c #9D999A",
"X. c #9F9E99",
"o. c #9E9E9E",
"O. c #96A098",
"+. c #A0A098",
"@. c #A3A29D",
"#. c #A6AC9E",
"$. c #9494A0",
"%. c #9D97A1",
"&. c #9B9EA5",
"*. c gray64",
"=. c #A3A5A2",
"-. c #A4A5A0",
";. c #A5A5A5",
":. c #ABACA7",
">. c #A7A6AB",
",. c #A6A9AE",
"<. c gray66",
"1. c #ABADA8",
"2. c #ACACAA",
"3. c #ABABAD",
"4. c #AEAEAE",
"5. c #BABBAB",
"6. c #AEADB3",
"7. c #ACAFB6",
"8. c #ADA5BC",
"9. c #AAA9B9",
"0. c #ACAABF",
"q. c #ABAEBD",
"w. c #B2B2B2",
"e. c #B5B3B4",
"r. c #B1B8B0",
"t. c #BBBCB6",
"y. c #B2B3B8",
"u. c #B4B1B8",
"i. c #BAB4B8",
"p. c #B9B9B9",
"a. c #BDBBBE",
"s. c #CDC682",
"d. c #D1C883",
"f. c #DFCD81",
"g. c #C0C1AF",
"h. c #D2C4BB",
"j. c #B7BAC3",
"k. c #BCBBC3",
"l. c gray76",
"z. c #C5C3C6",
"x. c gray77",
"c. c #C6CBC7",
"v. c #C6C7CC",
"b. c #C3CBCE",
"n. c #C9CBCA",
"m. c #CBCDC8",
"M. c #CCCEC9",
"N. c gray81",
"B. c #C7C7D1",
"V. c #CDC7D5",
"C. c #C3CBD8",
"Z. c #D5CED5",
"A. c #CFD1D0",
"S. c #CDD5D7",
"D. c #D0D0D0",
"F. c #D7D7D7",
"G. c #D6D9D2",
"H. c #D2DBD6",
"J. c #D9DAD2",
"K. c #D9D9D9",
"L. c gray87",
"P. c #E4DAD8",
"I. c #E2DEDB",
"U. c #DCE2D8",
"Y. c #DFE4DE",
"T. c #E2E5DA",
"R. c #DDDBE0",
"E. c #E1E1E1",
"W. c #E6E1E5",
"Q. c #E5E5E5",
"!. c #E2E3E8",
"~. c #E7E7EF",
"^. c #EAEAEA",
"/. c #ECEEEB",
"(. c #EDEBEC",
"). c gray93",
"_. c #F0EDE4",
"`. c #EFF3E4",
"'. c #EFF1EE",
"]. c #F7F4ED",
"[. c #F3F3F3",
"{. c #F4F4F4",
"}. c #F7F9F6",
"|. c #F8F8F6",
" X c #F0F3FA",
".X c #FFF6FB",
"XX c #F9F9F9",
"oX c #FCFBF9",
"OX c #FFFEFA",
"+X c #FFFBFF",
/* pixels */
"& & & & & & & & & & & & & & & & & & & & & & & & & & & & & & ",
"& & & & & & & & & & & & & & & & & & & & & & & & & & & & & & ",
"                                                            ",
"{.{.[.[.[.{.{.XXXXXXXXXX+X+X.X.XOXOX].oXoX|.|.}.}. X{.{.{.{.",
"{.{.[.[.[.{.{.XXXXXXXXXX+X+X.X.XOXOX].oXoX|.|.}.}. X{.{.{.{.",
"^.^.^.^.).[.[.{.{.[.[.).I.I._._.J.J.`.T.T.'.'././.~.^.^.^.^.",
"^.^.^.^.).[.[.{.{.[.[.).I.I._._.J.J.`.T.T.'.'././.~.^.^.^.^.",
"Q.Q.).).[.[.[.[.[.K.K.l.y.y.&.&.r.r.b.S.S.U.U.!.!.(.Q.Q.Q.Q.",
"Q.Q.).).[.[.[.[.[.K.K.l.y.y.&.&.r.r.b.S.S.U.U.!.!.(.Q.Q.Q.Q.",
"E.E.).).).^.^.D.D. . .p > > X X 2 2 Y q.q.c.c.F.F.W.E.E.Q.Q.",
"L.L.^.^.Q.D.D.] ] < < o % % d.d.- - . a a k.k.g.g.V.K.K.E.E.",
"L.L.^.^.Q.D.D.] ] < < o % % d.d.- - . a a k.k.g.g.V.K.K.E.E.",
"F.F.Q.Q.E.p.p.p p o o y K K L L H H 7 X X V V z.z.u.N.N.L.L.",
"F.F.Q.Q.E.p.p.p p o o y K K L L H H 7 X X V V z.z.u.N.N.L.L.",
"M.M.Y.Y.B.8.8.= = $ $ f.F F D D S S C # # s s S.S.| l.l.K.K.",
"M.M.Y.Y.B.8.8.= = $ $ f.F F D D S S C # # s s S.S.| l.l.K.K.",
"l.l.G.G.m.X.X.O O s.s.J G G A A c c x k k ; ; R.R.B w.w.D.D.",
"t.t.n.n.j.9.9., , : : 8 Z Z m m n n 5 + + U U H.H.P <.<.N.N.",
"t.t.n.n.j.9.9., , : : 8 Z Z m m n n 5 + + U U H.H.P <.<.N.N.",
"a.a.v.v.7.,.,.I I 1 1 w b b M M z z 6 @ @ 6.6.5.5.g <.<.x.x.",
"a.a.v.v.7.,.,.I I 1 1 w b b M M z z 6 @ @ 6.6.5.5.g <.<.x.x.",
"e.e.p.p.1.[ [ #.#.e e u v v l l j j * T T A.A.N N ~ ;.;.p.p.",
"e.e.p.p.1.[ [ #.#.e e u v v l l j j * T T A.A.N N ~ ;.;.p.p.",
":.:.2.2.3.{ { $.$.0.0.R q q 9 9 0 0 ) C.C.O.O.d d ) *.*.4.4.",
">.>.4.4.*.] ] ! ! Q Q =.h.h.P.P.Z.Z.i.( ( i i E E } *.*.;.;.",
">.>.4.4.*.] ] ! ! Q Q =.h.h.P.P.Z.Z.i.( ( i i E E } *.*.;.;.",
"-.-.+.+.@.....' ' h h u 3 3 r r t t 4 f f W W _ _ %.*.*.*.*.",
"-.-.+.+.@.....' ' h h u 3 3 r r t t 4 f f W W _ _ %.*.*.*.*.",
"o.o.o.o.o. . .] ] / / ^ Q Q g g g g Q ^ ^ ` ` ] ]  .o.o.o.o.",
"o.o.o.o.o. . .] ] / / ^ Q Q g g g g Q ^ ^ ` ` ] ]  .o.o.o.o.",
"o.o.o.o.o.o.o.o.o. . .] ] ] ] ] ] ] ] ] ]  . .o.o.o.o.o.o.o.",
"                                                            ",
"                                                            "
};
