/* XPM */
static char *maximize_inactive[] = {
/* columns rows colors chars-per-pixel */
"32 40 6 1 ",
"  c None",
". c black",
"X c #6A6D6A s inactive_shadow_2",
"o c #B4B6B4 s inactive_mid_2",
"O c #DEDEDE s inactive_color_2",
"+ c #FFFFFF s inactive_hilight_2",
/* pixels */
"                                ",
"                                ",
"                                ",
"                                ",
"                                ",
"                                ",
"oooooooooooooooooooooooooooooo++",
"oooooooooooooooooooooooooooooo++",
"ooXXXXXXXXXXXXXXXXXXXXXXXXXXXX++",
"ooXXXXXXXXXXXXXXXXXXXXXXXXXXXX++",
"ooXX++++++++++++++++++++++ooXX++",
"ooXX++++++++++++++++++++++ooXX++",
"ooXX++OOOOOOOOOOOOOOOOOOOOooXX++",
"ooXX++OOOOOOOOOOOOOOOOOOOOooXX++",
"ooXX++OO................OOooXX++",
"ooXX++OO................OOooXX++",
"ooXX++OO................OOooXX++",
"ooXX++OO................OOooXX++",
"ooXX++OO....OOOOOOOO....OOooXX++",
"ooXX++OO....OOOOOOOO....OOooXX++",
"ooXX++OO....OOOOOOOO....OOooXX++",
"ooXX++OO....OOOOOOOO....OOooXX++",
"ooXX++OO....OOOOOOOO....OOooXX++",
"ooXX++OO....OOOOOOOO....OOooXX++",
"ooXX++OO....OOOOOOOO....OOooXX++",
"ooXX++OO....OOOOOOOO....OOooXX++",
"ooXX++OO................OOooXX++",
"ooXX++OO................OOooXX++",
"ooXX++OO................OOooXX++",
"ooXX++OO................OOooXX++",
"ooXX++OOOOOOOOOOOOOOOOOOOOooXX++",
"ooXX++OOOOOOOOOOOOOOOOOOOOooXX++",
"ooXXooooooooooooooooooooooooXX++",
"ooXXooooooooooooooooooooooooXX++",
"ooXXXXXXXXXXXXXXXXXXXXXXXXXXXX++",
"ooXXXXXXXXXXXXXXXXXXXXXXXXXXXX++",
"++++++++++++++++++++++++++++++++",
"++++++++++++++++++++++++++++++++",
"                                ",
"                                "
};
