/* XPM */
static char *stick_active[] = {
/* columns rows colors chars-per-pixel */
"24 31 224 2 ",
"   c None",
".  c #3A3743",
"X  c #3B3A43",
"o  c #4D3953",
"O  c #5D3E64",
"+  c #41484F",
"@  c #464650",
"#  c #434951",
"$  c #464B51",
"%  c #494854",
"&  c #4E4B5B",
"*  c #5B5E69",
"=  c #585F6A",
"-  c #614C6C",
";  c #684F73",
":  c #5D616C",
">  c #7B5083",
",  c #716080",
"<  c #814988",
"1  c #834C8A",
"2  c #8A4D90",
"3  c #8F4E95",
"4  c #8F4D96",
"5  c #964E9C",
"6  c #994F9F",
"7  c #905196",
"8  c #905398",
"9  c #9D50A3",
"0  c #9D55A3",
"q  c #9E50A4",
"w  c #9F51A5",
"e  c #9E54A4",
"r  c #9E56A5",
"t  c #9E58A3",
"y  c #A154A7",
"u  c #A059A5",
"i  c #A159A7",
"p  c #A15BA6",
"a  c #A15AA7",
"s  c #A25CA7",
"d  c #A252A8",
"f  c #A255A9",
"g  c #A654AC",
"h  c #A656AC",
"j  c #A159A9",
"k  c #A35CAB",
"l  c #A35FAB",
"z  c #A45CA9",
"x  c #A95FAF",
"c  c #AB5BB2",
"v  c #AC58B3",
"b  c #B65DBD",
"n  c #9C69A8",
"m  c #9376A2",
"M  c #A563AB",
"N  c #A661AF",
"B  c #A662AF",
"V  c #A764AD",
"C  c #A26AAC",
"Z  c #A37EAF",
"A  c #A865B0",
"S  c #A866B1",
"D  c #AB66B3",
"F  c #AC6AB1",
"G  c #AC6BB1",
"H  c #A96DB4",
"J  c #B363BA",
"K  c #AE75B8",
"L  c #B573BA",
"P  c #B777BC",
"I  c #B47EBF",
"U  c #B979BE",
"Y  c #B95EC0",
"T  c #BB5FC2",
"R  c #BF61C6",
"E  c #BB6EC1",
"W  c #B47FC0",
"Q  c #C263C9",
"!  c #C363CA",
"~  c #C464CB",
"^  c #C564CD",
"/  c #C16FC8",
"(  c #C171C8",
")  c #C47DCA",
"_  c #C966D1",
"`  c #CB67D3",
"'  c #CD68D5",
"]  c #D477DB",
"[  c #D975E1",
"{  c #DD7AE6",
"}  c #E474ED",
"|  c #E876F1",
" . c #E977F2",
".. c #EA77F3",
"X. c #EB78F4",
"o. c #EC78F5",
"O. c #ED79F6",
"+. c #F07CF9",
"@. c #F17DFA",
"#. c #F37CFC",
"$. c #F47CFD",
"%. c #F57DFE",
"&. c #7B8593",
"*. c #818996",
"=. c #828D9C",
"-. c #868C9F",
";. c #8D959D",
":. c #9486AA",
">. c #8593A1",
",. c #8F9BA5",
"<. c #9493A4",
"1. c #BD87C1",
"2. c #B18BC5",
"3. c #BB92CD",
"4. c #C288C6",
"5. c #CA8ECE",
"6. c #CA90CE",
"7. c #CA92CE",
"8. c #CB92CF",
"9. c #C79ACA",
"0. c #CB86D1",
"q. c #CF95D3",
"w. c #CE99D2",
"e. c #D49ED9",
"r. c #C2A3CD",
"t. c #C8A1CB",
"y. c #CBA8CE",
"u. c #C0A2D1",
"i. c #C6AFDE",
"p. c #C8AFDA",
"a. c #D6A3DA",
"s. c #D6A4DA",
"d. c #D9A8DD",
"f. c #D9B6DC",
"g. c #DA8EE1",
"h. c #E280EA",
"j. c #E78FEE",
"k. c #E88EEF",
"l. c #F285FB",
"z. c #F580FE",
"x. c #F581FE",
"c. c #F582FE",
"v. c #F583FE",
"b. c #F385FC",
"n. c #F585FE",
"m. c #F587FE",
"M. c #F588FE",
"N. c #F68BFE",
"B. c #F68DFE",
"V. c #F68EFE",
"C. c #F68FFE",
"Z. c #EA90F1",
"A. c #F591FD",
"S. c #F492FC",
"D. c #F695FE",
"F. c #F696FE",
"G. c #CBBFE5",
"H. c #D0B8E2",
"J. c #E3A6E8",
"K. c #EAAAEF",
"L. c #E3B5E7",
"P. c #E8B5ED",
"I. c #E5B8E9",
"U. c #E5BDE8",
"Y. c #EDACF2",
"T. c #F1ACF6",
"R. c #F5A1FB",
"E. c #F5A2FB",
"W. c #F4AEF9",
"Q. c #EFBFF3",
"!. c #F9B2FE",
"~. c #F5BFFA",
"^. c #B4C3D8",
"/. c #B4C3D9",
"(. c #BBC7D9",
"). c #BCC8DB",
"_. c #BED2E5",
"`. c #C0CCDE",
"'. c #DDC5DF",
"]. c #C2CEE0",
"[. c #CACDE8",
"{. c #D9C3E6",
"}. c #C3D3E1",
"|. c #C5D1E3",
" X c #C5D4EC",
".X c #C4D5EC",
"XX c #CCD5EC",
"oX c #C5DAEE",
"OX c #CBD8EC",
"+X c #CDDAED",
"@X c #CEDAEE",
"#X c #CDDEEE",
"$X c #D3DAEC",
"%X c #D3DCEC",
"&X c #D5DDEE",
"*X c #D5DEEE",
"=X c #CBDCF4",
"-X c #CDDEF6",
";X c #E9C4EC",
":X c #EBD3ED",
">X c #ECD4EE",
",X c #F0C1F4",
"<X c #F4C0F8",
"1X c #F5C1F9",
"2X c #F6C0FA",
"3X c #F7C0FC",
"4X c #FAC3FF",
"5X c #F5CEF8",
"6X c #F6CFF9",
"7X c #F2DAF4",
"8X c #F4DBF6",
"9X c #FAD2FD",
"0X c #FBD3FE",
"qX c #FCD4FF",
"wX c #D3E0F4",
"eX c #D3E3F4",
"rX c #D5E2F6",
"tX c #D3E4F4",
"yX c #D5E6F6",
"uX c #DCE8F4",
"iX c #DEEAF7",
"pX c #E4E4F4",
"aX c #E6E6F6",
"sX c #E6F2FF",
/* pixels */
"                                                ",
"                                                ",
"                                                ",
"                                                ",
"                                                ",
"*X*X*X*X*X*Xp.p.W D l B B K u.$X*X*X*X*X*X*X*X*X",
"aXaXaXaX{.D h h U 9.y.t.t.1.x r r.r.aXaXaXaXaXaX",
"aXaXaXaX{.D h h U 9.y.t.t.1.x r r.r.aXaXaXaXaXaX",
"sXsXsXH.f E f.f.:X7X8X7X7X>X'.4.d d Z uXsXsXsXsX",
"rXG.G.y / U.6X6X9XqXqXqXqX9X6X;X5.5.d m +XrXrXrX",
"*XD D Y J.~.4X4X4X4X4X4X4X4X4X3XP.P.( 6 <.%X%X*X",
"*XD D Y J.~.4X4X4X4X4X4X4X4X4X3XP.P.( 6 <.%X%X*X",
"i.h h ] T.!.!.!.!.!.!.!.!.!.!.!.W.W.g.v > (.(.rX",
"I b b h.S.V.N.N.m.c.c.c.c.c.m.N.S.S.k.R 3 ;.;.uX",
"B Q Q | %.%.%.%.%.%.%.%.%.%.%.%.%.%.X.` 9 : : +X",
"B Q Q | %.%.%.%.%.%.%.%.%.%.%.%.%.%.X.` 9 : : +X",
"j ^ ^ | %.%.%.%.%.%.%.%.%.%.%.%.%.%.o.' w % % ).",
"l ~ ~ | %.%.%.%.%.%.%.%.%.%.%.%.%.%.o.` w @ @ `.",
"H Y Y } #.%.%.%.%.%.%.%.%.%.%.%.%.%.| Q 5 $ $ }.",
"3.c c [ +.%.%.%.%.%.%.%.%.%.%.%.+.+.{ J < = = XX",
"3.c c [ +.%.%.%.%.%.%.%.%.%.%.%.+.+.{ J < = = XX",
"[.t t ) j.l.c.c.%.%.%.%.%.%.c.b.Z.Z.0.u o *.*.OX",
"-X2.2.M q.K.E.E.D.V.V.V.V.D.E.Y.e.e.G 1 # /./.-X",
"yXeXeXC V 7.L.L.Q.<X<X<X<X,XI.w.G G 7 X ,.tXtXyX",
"yXeXeXC V 7.L.L.Q.<X<X<X<X,XI.w.G G 7 X ,.tXtXyX",
"-X-X-X Xn u L L 7.a.d.s.s.7.P s 2 2 . &. X-X-X-X",
"oXoXoXoX_.:.8 8 r u z u u 0 3 O + + >._.oXoXoXoX",
"-X-X-X-X-X=X/./.-., ; - - & = =././.=X-X-X-X-X-X",
"rXrXrXrXrXrXrXrXeX+X|.].].|.+XeXrXrXrXrXrXrXrXrX",
"rXrXrXrXrXrXrXrXeX+X|.].].|.+XeXrXrXrXrXrXrXrXrX",
"#X#X#X#X#X#X#X#X#X#X#X#X#X#X#X#X#X#X#X#X#X#X#X#X"
};
