/* XPM */
static char *menu_active[] = {
/* columns rows colors chars-per-pixel */
"29 33 5 1 ",
"  c None",
". c black",
"X c #949594 s active_shadow_1",
"o c #B4BAB4 s active_mid_1",
"O c #D5D6D5 s active_color_1",
/* pixels */
"                             ",
"                             ",
"                             ",
"                             ",
"                             ",
"OOOOOOOOOOOOOOOOOOOOOOOOOOOOO",
"OOOOOOOOOOOOOOOOOOOOOOOOOOOOO",
"OOOOOOOOOOOOOOOOOOOOOOOOOOOOO",
"OOOOOOOOOOOOOOOOOOOOOOOOOOOOO",
"OOOOOOOOOOOOOOOOOOOOOOOOOOOOO",
"OOOOOOOOOOOOOOOOOOOOOOOOOOOOO",
"OOOOOOOO.............OOOOOOOO",
"OOOOOOOO.............OOOOOOOO",
"OOOOOOOO.............OOOOOOOO",
"OOOOOOOOXXXXXXXXXXXXXOOOOOOOO",
"OOOOOOOO.............OOOOOOOO",
"OOOOOOOO.............OOOOOOOO",
"OOOOOOOO...XXXXXXX...OOOOOOOO",
"OOOOOOOOX...ooooo...XOOOOOOOO",
"OOOOOOOOX...ooooo...XOOOOOOOO",
"OOOOOOOOoXX...O...XXoOOOOOOOO",
"OOOOOOOOOooX.....XooOOOOOOOOO",
"OOOOOOOOOooX.....XooOOOOOOOOO",
"OOOOOOOOOOOoXX.XXoOOOOOOOOOOO",
"OOOOOOOOOOOOooXooOOOOOOOOOOOO",
"OOOOOOOOOOOOooXooOOOOOOOOOOOO",
"OOOOOOOOOOOOOOoOOOOOOOOOOOOOO",
"OOOOOOOOOOOOOOOOOOOOOOOOOOOOO",
"OOOOOOOOOOOOOOOOOOOOOOOOOOOOO",
"OOOOOOOOOOOOOOOOOOOOOOOOOOOOO",
"                             ",
"                             ",
"                             "
};
