/* XPM */
static char *shade_toggled_active[] = {
/* columns rows colors chars-per-pixel */
"29 33 96 2 ",
"   c None",
".  c black",
"X  c #010101",
"o  c #030303",
"O  c #050505",
"+  c #060606",
"@  c #080808",
"#  c #0A0B0A",
"$  c #0B0B0B",
"%  c #0D0D0D",
"&  c #151515",
"*  c #171717",
"=  c #171817",
"-  c #181818",
";  c #191919",
":  c #1A1B1A",
">  c #1C1C1C",
",  c #1D1D1D",
"<  c #202120",
"1  c #212121",
"2  c #242424",
"3  c #282828",
"4  c #2C2D2C",
"5  c #3B3B3B",
"6  c #404040",
"7  c #454545",
"8  c #464746",
"9  c #4A4A4A",
"0  c #4C4D4C",
"q  c #535453",
"w  c #5A5B5A",
"e  c #5E5F5E",
"r  c #606160",
"t  c #656665",
"y  c #666666",
"u  c #676A67",
"i  c #696969",
"p  c #6D6E6D",
"a  c #767676",
"s  c #797A79",
"d  c #7B7C7B",
"f  c #7C7D7C",
"g  c #7D7E7D",
"h  c #7F807F",
"j  c #868886",
"k  c #888988",
"l  c #8D8D8D",
"z  c #8C8E8C",
"x  c #8C8F8C",
"c  c #8E908E",
"v  c #8F918F",
"b  c #929492",
"n  c #949794",
"m  c #9E9F9E",
"M  c #9FA39F",
"N  c #A7ABA7",
"B  c #AAAAAA",
"V  c #A8ACA8",
"C  c #A9ADA9",
"Z  c #A9AEA9",
"A  c #ACB0AC",
"S  c #ADB2AD",
"D  c #AFB1AF",
"F  c #B0B1B0",
"G  c #B1B1B1",
"H  c #B2B3B2",
"J  c #B0B4B0",
"K  c #B0B5B0",
"L  c #B2B6B2",
"P  c #B7BCB7",
"I  c #B9BFB9",
"U  c #BABFBA",
"Y  c #BBBFBB",
"T  c #BDBFBD",
"R  c #BAC0BA",
"E  c #C1C2C1",
"W  c #C3C5C3",
"Q  c #C2C6C2",
"!  c #C3C7C3",
"~  c #C6C7C6",
"^  c #C5C8C5",
"/  c #C7CAC7",
"(  c #CACDCA",
")  c #CBCFCB",
"_  c #D0D2D0",
"`  c #D2D4D2",
"'  c #D3D4D3",
"]  c #D5D6D5 s active_color_1",
"[  c #D6D7D6",
"{  c #D7D8D7",
"}  c #D8D9D8",
"|  c #D8DAD8",
" . c #D9DAD9",
".. c #DADBDA",
"X. c #DCDDDC",
"o. c #DEDFDE",
/* pixels */
"                                                          ",
"                                                          ",
"                                                          ",
"                                                          ",
"                                                          ",
"] ] ] ] ] ] ] ] ] ] ] ] ] ] ] ] ] ] ] ] ] ] ] ] ] ] ] ] ] ",
"] ] ] ] ] ] ] ] ] ] ] ] ] ] ] ] ] ] ] ] ] ] ] ] ] ] ] ] ] ",
"] ] ] ] ] ] ] ] ] ] ] ] ] ] ] ] ] ] ] ] ] ] ] ] ] ] ] ] ] ",
"] ] ] ] ] ] ] ] { { { { { { { { { { { { { ] ] ] ] ] ] ] ] ",
"] ] ] ] ] ] ] ] { { ] ] ] ] ] { ] { { { { ] ] ] ] ] ] ] ] ",
"] ] ] ] ] ] { B p i i y y y y y y y i i p B } ] ] ] ] ] ] ",
"] ] ] ] ] ] } g . . @ - - & & & - - @ . . g } ] ] ] ] ] ] ",
"] ] ] ] ] ] } g . . 4 a g s s s g a 4 . . g } ] ] ] ] ] ] ",
"] ] ] ] ] ] } m 7 @ & q n J Z J n q & @ 7 m } ] ] ] ] ] ] ",
"] ] ] ] ] ] ] E v 5 + @ u Z P Z u @ + 5 v E ] ] ] ] ] ] ] ",
"] ] ] ] ] ] ] / A z 9 + % r T r % + 9 z A / ] ] ] ] ] ] ] ",
"] ] ] ] ] ] ] _ Q J j 7 @ , e , @ 7 j J ~ _ ] ] ] ] ] ] ] ",
"] ] ] ] ] ] ] ] ` Q J b 6 @ . @ 6 b J Q ` ] ] ] ] ] ] ] ] ",
"] ] ] ] ] ] ] ] ] ` / A v 0 $ 0 v A / ` ] ] ] ] ] ] ] ] ] ",
"] ] ] ] ] ] ] } o.o.} ) Y z w z Y ) } o.o.} ] ] ] ] ] ] ] ",
"] ] ] ] ] ] ] / F F F F M v h v M F F F F ~ ] ] ] ] ] ] ] ",
"] ] ] ] ] ] } z 3 < 2 2 < , - , < 2 2 < 3 z } ] ] ] ] ] ] ",
"] ] ] ] ] ] } s . . . . . . . . . . . . . s } ] ] ] ] ] ] ",
"] ] ] ] ] ] } k , & - - - - - - - - - & , k } ] ] ] ] ] ] ",
"] ] ] ] ] ] { F g s d d d d d d d d d s g F { ] ] ] ] ] ] ",
"] ] ] ] ] ] ] Q Z N Z Z Z Z B B Z Z Z N Z Q ] ] ] ] ] ] ] ",
"] ] ] ] ] ] ] ( R Y Y Y Y Y Y Y Y Y Y Y R ( ] ] ] ] ] ] ] ",
"] ] ] ] ] ] ] ` _ _ _ _ _ _ _ _ _ _ _ _ _ ` ] ] ] ] ] ] ] ",
"] ] ] ] ] ] ] ] ] ] ] ] ] ] ] ] ] ] ] ] ] ] ] ] ] ] ] ] ] ",
"] ] ] ] ] ] ] ] ] ] ] ] ] ] ] ] ] ] ] ] ] ] ] ] ] ] ] ] ] ",
"                                                          ",
"                                                          ",
"                                                          "
};
