/* XPM */
static char *stick_inactive[] = {
/* columns rows colors chars-per-pixel */
"29 33 4 1 ",
"  c None",
". c #949594 s inactive_shadow_1",
"X c #B4BAB4 s inactive_mid_1",
"o c #D5D6D5 s inactive_color_1",
/* pixels */
"                             ",
"                             ",
"                             ",
"                             ",
"                             ",
"ooooooooooooooooooooooooooooo",
"ooooooooooooooooooooooooooooo",
"ooooooooooooooooooooooooooooo",
"ooooooooooooooooooooooooooooo",
"ooooooooooooooooooooooooooooo",
"ooooooooooooooooooooooooooooo",
"ooooooooooooooooooooooooooooo",
"ooooooooooooooo..oooo..oooooo",
"ooooooooooooooo..oooo..oooooo",
"ooooooooooooooo........oooooo",
"ooooooXX.........ooo...oooooo",
"ooooooXX.........ooo...oooooo",
"oooooo..XXXXXXX..XXX...oooooo",
"ooooooXX.........XXX...oooooo",
"ooooooXX.........XXX...oooooo",
"ooooooooXXXXXXX........oooooo",
"ooooooooooooooo..XXXX..oooooo",
"ooooooooooooooo..XXXX..oooooo",
"oooooooooooooooXXooooXXoooooo",
"ooooooooooooooooooooooooooooo",
"ooooooooooooooooooooooooooooo",
"ooooooooooooooooooooooooooooo",
"ooooooooooooooooooooooooooooo",
"ooooooooooooooooooooooooooooo",
"ooooooooooooooooooooooooooooo",
"                             ",
"                             ",
"                             "
};
