/* XPM */
static char *top_left_active[] = {
/* columns rows colors chars-per-pixel */
"9 33 6 1 ",
"  c None",
". c black",
"X c #949594 s active_shadow_1",
"o c #B4BAB4 s active_mid_1",
"O c #D5D6D5 s active_color_1",
"+ c #FFFFFF s active_hilight_1",
/* pixels */
"        .",
"        .",
"     ...+",
"   ..+++O",
"   ..+++O",
"  .++OOOO",
"  .++OOOO",
"  .++OOOO",
"..+OOOOOO",
"..+OOOOOO",
"..+OOOOOO",
"..+OOOOOO",
"..+OOOOOO",
"..+OOOOOO",
"..+OOOOOO",
"..+OOOOOO",
"..+OOOOOO",
"..+OOOOOO",
"..+OOOOOO",
"..+OOOOOO",
"..+OOOOOO",
"..+OOOOOO",
"..+OOOOOO",
"..+OOOOOO",
"..+OOOOOO",
"..+OOOOOO",
"..+OOOOOO",
"..+OOOOOO",
"..+OOOOOO",
"..+OOOOOO",
"..+OOOooo",
"..+OOOooo",
"..+OOOooX"
};
