/* XPM */
static char *title_5_active[] = {
/* columns rows colors chars-per-pixel */
"32 96 90 1 ",
"  c #83759C",
". c #84769D",
"X c #84789D",
"o c #85799F",
"O c #877A9F",
"+ c #887BA0",
"@ c #897BA0",
"# c #8A7CA2",
"$ c #8A7EA2",
"% c #8B7FA3",
"& c #8D81A4",
"* c #8E82A5",
"= c #8F83A5",
"- c #9084A6",
"; c #9286A7",
": c #9387A8",
"> c #9489A8",
", c #958AAA",
"< c #958BAA",
"1 c #968CAB",
"2 c #968DAB",
"3 c #978EAD",
"4 c #998FAD",
"5 c #9A90AE",
"6 c #9B90AF",
"7 c #9C91B0",
"8 c #9D93B0",
"9 c #9E94B0",
"0 c #9F96B0",
"q c #A097B1",
"w c #A098B2",
"e c #A199B3",
"r c #A19AB3",
"t c #A29BB5",
"y c #A49CB5",
"u c #A59DB6",
"i c #A69EB7",
"p c #A79FB8",
"a c #A8A0B8",
"s c #A9A1B8",
"d c #AAA2B9",
"f c #ACA5BA",
"g c #AEA7BC",
"h c #AFA8BD",
"j c #B0A9BE",
"k c #B0A9BF",
"l c #B1AAC0",
"z c #B3ACC0",
"x c #B4ADC0",
"c c #B5AFC0",
"v c #B6B0C1",
"b c #B6B0C2",
"n c #B7B1C3",
"m c #B9B3C4",
"M c #BAB5C5",
"N c #BBB6C6",
"B c #BCB7C7",
"V c #BEB9C8",
"C c #BFBAC9",
"Z c #C0BBC9",
"A c #C1BCCA",
"S c #C1BDCB",
"D c #C2BDCB",
"F c #C3BECB",
"G c #C4C0CD",
"H c #C5C1CE",
"J c #C6C1CE",
"K c #C8C4D0",
"L c #CAC6D1",
"P c #CAC7D1",
"I c #CCC9D3",
"U c #CFCCD5",
"Y c #D0CDD5",
"T c #D2D0D7",
"R c #D5D3D9",
"E c #D6D5D9",
"W c #D7D7DB",
"Q c #DBD9DD",
"! c #DCDCDF",
"~ c #DDDDDF",
"^ c #E0E0E1",
"/ c #E2E3E3",
"( c #E2E4E3",
") c #E6E7E5",
"_ c #E8EAE7",
"` c #EBEDEA",
"' c #ECEFEA",
"] c #EDEFEC",
"[ c #EFF2ED",
"{ c #F0F3EE",
/* pixels */
"AAAAAAAAAAAAAAAAAAAAAAAAAAAAAAAA",
"AAAAAAAAAAAAAAAAAAAAAAAAAAAAAAAA",
"HHHHHHHHHHHHHHHHHHHHHHHHHHHHHHHH",
"LLLLLLLLLLLLLLLLLLLLLLLLLLLLLLLL",
"YYYYYYYYYYYYYYYYYYYYYYYYYYYYYYYY",
"EEEEEEEEEEEEEEEEEEEEEEEEEEEEEEEE",
"!!!!!!!!!!!!!!!!!!!!!!!!!!!!!!!!",
"////////////////////////////////",
"________________________________",
"''''''''''''''''''''''''''''''''",
"[[[[[[[[[[[[[[[[[[[[[[[[[[[[[[[[",
"{{{{{{{{{{{{{{{{{{{{{{{{{{{{{{{{",
"{{{{{{{{{{{{{{{{{{{{{{{{{{{{{{{{",
"[[[[[[[[[[[[[[[[[[[[[[[[[[[[[[[[",
"]]]]]]]]]]]]]]]]]]]]]]]]]]]]]]]]",
"````````````````````````````````",
"________________________________",
"))))))))))))))))))))))))))))))))",
"((//////((((///////(////((((////",
"////////////////^^^/////////////",
"!!!!!!!!!!!!!!!!!!!!!!!!!!!!!!!!",
"QQQQQQQQQQQQQQQQQQQQQQQQQQQQQQQQ",
"WWWWWWEEWWWWWWEEWWWWWWEEWWWWWWEE",
"RRRRRRRRRREERRRRRRRRRRRRRREERRRR",
"TTTTTTTTTTTTTTTTTTTTTTTTTTTTTTTT",
"YYYYUYUUYYUUUUUUYYYYUYUUYYUUUUUU",
"IIIIIIIIIIIIIIIIIIIIIIIIIIIIIIII",
"LLLLLLLLLLLLLLLLLLLLLLLLLLLLLLLL",
"LLLLLLLLLLLLLLLLLLLLLLLLLLLLLLLL",
"HHHHHHHHHHHHFFFHHHHHHHHHHHHHFFFF",
"AAAAAAAACCCCCCCCAAAAAAAACCCCCCCC",
"CCCCZZZCBNNNNNNNCZZCZZZCBNNNNNNN",
"BBBBBBBBNNNNNNNNBBBBBBBBNNNNNNNN",
"NNNNNNNNNNNNNNNNNNNNNNNNNNNNNNNN",
"mmmmmmmmmmmmmmmmmmmmmmmmmmmmmmmm",
"vvnnnnnnvvnnnnnnvvnnnnnnvvnnnnnn",
"vvvvvvvvvvvvvvvvvvvvvvvvvvvvvvvv",
"xxvvvvvvxxvvvvvvxxxvvvvvxxvvvvvv",
"xxxxxxxxxxxxxxxxxxxxxxxxxxxxxxxx",
"xxxxxxxxxxxxxxxxxxxxxxxxxxxxxxxx",
"zzzzzzzzzzzzzzzzzzzzzzzzzzzzzzzz",
"llllllllllllllllllllllllllllllll",
"jjjjjjjjjjjjjjjjjjjjjjjjjjjjjjjj",
"jjjjjjjjjjjjjjjjjjjjjjjjjjjjjjjj",
"hhhhhhhhhhhhhhhhhhhhhhhhhhhhjjjj",
"hhhhhhhhhhhhhhhhhhhhhhhhhhhhhhhh",
"ggggggggggggggggggggggggfffggggg",
"ffffffffffffffffffffffffffffffff",
"aaaaaaaaaaaaaaaaaaaaaaaaaaaaaaaa",
"aaaaaaaaaaaaaaaaaaaaaaaaaaaaaaaa",
"aaaaaaaaaaaaaaaaaaaaaaaaaaaaaaaa",
"aaaaaaaaaaaaaaaaaaaaaaaaaaaaaaaa",
"aaaaaaaaaaaaaaaaaaaaaaaaaaaaaaaa",
"pppppppppppppppppppppppppppppppp",
"yyyyyyyyyyyyyyyyyyyyyyyyyyyyyyyy",
"yyyyyyyyyyyyyyyyyyyyyyyyyyyyyyyy",
"yyyyyyyyyyyyyyyyyyyyyyyyyyyyyyyy",
"tttttttttttttttttttttttttttttttt",
"ttwwtwttttttttwtttttwwttwtwwtttt",
"wwwwwwwwwwwwwwwwwwwwwwwwwwwwwwww",
"wwwwwwwwwwwwwwwwwwwwwwwwwwwwwwww",
"qqqqqqqqqqqqqqqqqqqqqqqqqqqqqqqq",
"99999999999999999999999999999999",
"99999999999999999999999999999999",
"88888888888888888888888888888888",
"88886666768888667788888866778888",
"66666666666666666666666666666666",
"66666444444664444666664444444446",
"44444444444444444444444444444444",
"44224444444222222244442244442222",
"22111122222211111111222121222222",
"11111111111111111111111111111111",
"11111111111111111111111111111111",
"11111111111111111111111111111111",
">>>>>>>>>>>>>>>>>>>>>>>>>>>>>>>>",
"::::::::;;;;::::::::::::::::;;;:",
";;;;;;;;;;;;;;;;;;;;;;;;;;;;;;;;",
";;;;;;;;;;;;;;;;;;;;;;;;;;;;;;;;",
"================================",
"================================",
"================================",
"================================",
"&&&&&&&&&&&&&&&&&&&&&&&&&&&&&&&&",
"%%%%%%%%%%%%%%%%%%%%%%%%%%%%%%%%",
"%%%%%%%%%%%%%%%%%%%%%%%%%%%%%%%%",
"%%%%%%%%%%%%%%%%%%%%%%%%%%%%%%%%",
"@@@@@@@@@@@@@%@@@@@@@@@@@@@@@@@@",
"O++++++OO++++@++++++++++++OOO+++",
"OOOOOOOOOOOOOOOOOOOOOOOOOOOOOOOO",
"OOOOOOOOOOOOOOOOOOOOOOOOOOOOOOOO",
"................O...............",
"................................",
"................................",
"................................",
"................................",
"................................"
};
