/* XPM */
static char *bottom_left_active[] = {
/* columns rows colors chars-per-pixel */
"14 14 3 1 ",
"  c None",
". c #C0C0C0 s active_shadow_2",
"X c #F0F0F0 s active_color_2",
/* pixels */
".XXXX         ",
".XXXX         ",
".XXXX         ",
".XXXX         ",
".XXXX         ",
".XXXX         ",
".XXXX         ",
".XXXX         ",
".XXXX         ",
".XXXXXXXXXXXXX",
".XXXXXXXXXXXXX",
".XXXXXXXXXXXXX",
".XXXXXXXXXXXXX",
".............."
};
