/* XPM */
static char *menu_active[] = {
/* columns rows colors chars-per-pixel */
"64 92 129 2 ",
"   c None",
".  c #010101",
"X  c #0B0B0B",
"o  c #131313",
"O  c #1C1B1B",
"+  c #201F1F",
"@  c #21201F",
"#  c #232222",
"$  c #282726",
"%  c #2B2929",
"&  c #3D3B3A",
"*  c #403E3E",
"=  c #444141",
"-  c #494746",
";  c #4C4949",
":  c #5A5756",
">  c #5F5B5B",
",  c #625F5E",
"<  c #666362",
"1  c #6A6665",
"2  c #6C6867",
"3  c #6E6A69",
"4  c #777373",
"5  c #7A7574",
"6  c #7E7876",
"7  c #7E7A79",
"8  c #837D7C",
"9  c #86807E",
"0  c #868180",
"q  c #8B8584",
"w  c #8F8A89",
"e  c #938E8C",
"r  c #95908F",
"t  c #979290",
"y  c #9B9694",
"u  c #9D9896",
"i  c #9F9A98",
"p  c #A39D9C",
"a  c #A6A19F",
"s  c #ABA5A4",
"d  c #AFA8A7",
"f  c #AFAAA9",
"g  c #B1ACAB",
"h  c #B6B0AF",
"j  c #B6B1B0",
"k  c #BCB5B4",
"l  c #BFB8B7",
"z  c #BFBAB9",
"x  c #C2BBBA",
"c  c #C6C0BF",
"v  c #C6C1C0",
"b  c #CCC5C4",
"n  c #CFC8C7",
"m  c #CECAC9",
"M  c #D0C8C7",
"N  c #D1CCCB",
"B  c #D4D0CF",
"V  c #D5D2D1",
"C  c #D9D3D2",
"Z  c #D8D2D1",
"A  c #D9D4D3",
"S  c #D8D3D2",
"D  c #DDD9D8",
"F  c #DDD9D9",
"G  c #DEDADA",
"H  c #DFDADA",
"J  c #DCD9D8",
"K  c #E0DBDA",
"L  c #E1DDDC",
"P  c #E2DDDD",
"I  c #E2DEDD",
"U  c #E0DEDE",
"Y  c #E3DEDE",
"T  c #E4DFDF",
"R  c #E2DDDD",
"E  c #E4E0DF",
"W  c #E3E1E0",
"Q  c #E5E2E1",
"!  c #E5E2E2",
"~  c #E5E4E3",
"^  c #E6E5E4",
"/  c #E5E2E2",
"(  c #E9E5E5",
")  c #E8E6E6",
"_  c #E9E6E6",
"`  c #E8E7E6",
"'  c #E8E7E7",
"]  c #E9E7E7",
"[  c #E8E7E6",
"{  c #E9E8E7",
"}  c #EBE8E7",
"|  c #EAE8E7",
" . c #E9E8E8",
".. c #EAE9E9",
"X. c #EBE9E9",
"o. c #EAEAE9",
"O. c #EBEAEA",
"+. c #EDEAEA",
"@. c #EDEBEB",
"#. c #EEEBEB",
"$. c #EAE9E9",
"%. c #F0EDED",
"&. c #F0EEED",
"*. c #F0EEEE",
"=. c #F1EEEE",
"-. c #F1EFEF",
";. c #F0EDED",
":. c #F2F1F1",
">. c #F3F1F1",
",. c #F3F2F2",
"<. c #F3F3F2",
"1. c #F5F3F2",
"2. c #F4F3F3",
"3. c #F5F4F4",
"4. c #F3F1F1",
"5. c #F8F6F6",
"6. c #F8F7F6",
"7. c #F8F6F6",
"8. c #F9F8F7",
"9. c #F9F8F8",
"0. c #F9F9F8",
"q. c #F9F9F9",
"w. c #FAF9F9",
"e. c #FBFAFA",
"r. c #FCFBFB",
"t. c #FDFDFD",
"y. c #FEFDFD",
"u. c #FFFFFF s active_hilight_1",
"i. c #FCFCFC",
/* pixels */
"                                                                                                                                ",
"                                                                                                                                ",
"                                                                                                                                ",
"                                                                                                                                ",
"                                                                                                                                ",
"                                                                                                                                ",
"                                                                                                                                ",
"                                                                                                                                ",
"                                                                                                                                ",
"                                                                                                                                ",
"                                                                                                                                ",
"                                                                                                                                ",
"                                                                                                                                ",
"                                                                                                                                ",
"                                                                                                                                ",
"                                                                                                                                ",
"8 8 8 8 8 6 6 6 6 6 6 6 6 6 6 6 6 6 6 6 6 6 6 6 6 6 6 6 6 6 6 6 6 6 6 6 6 6 6 6 6 6 6 6 6 6 6 6 6 6 6 6 6 6 6 6 6 8 q y g l b n ",
"8 8 8 8 8 9 9 9 9 9 9 9 9 9 9 9 9 9 9 9 9 9 9 9 9 9 9 9 9 9 9 9 9 9 9 9 9 9 9 9 9 9 9 9 9 9 9 9 9 9 9 9 9 9 9 8 8 0 e p g x b N ",
"8 8 9 q w e r t t t t t t t t t t t t t t t t t t t t t t t t t t t t t t t t t t t t t t t t t t t t t t t r e e e y s k b N V ",
"8 8 q e i s f g g g g g g g g g g g g g g g g g g g g g g g g g g g g g g g g g g g g g g g g g g g g g g g f s p p s j b N D L ",
"8 8 w i g c m V B B B B B B B B N N N N B B B B B B N B B B B B B B B B B B B B B B B B B B B B B B B V V N m v k k l b C T ` +.",
"6 9 e s c A ~ O.O.{ ` ` ` ` ` ` ` ` ` ` ` ` ` ` ` ` ` ` ` ` ` ` ` ` ` ` ` ` ` ` ` ` ` ` ` ` ` ` ` ` ` { { ^ L V n b b N L +.1.5.",
"6 9 r f m ~ <.0.3.3.<.<.<.<.<.<.<.<.<.<.<.<.<.<.<.<.<.<.<.<.<.<.<.<.<.<.<.<.<.<.<.<.<.<.<.<.<.<.<.<.<.<.<.%.` H N b b N Q <.0.y.",
"6 9 t g V O.0.y.8.1.%.%.%.%.%.%.%.%.%.%.%.%.%.%.%.%.%.%.%.%.%.%.%.%.%.%.%.%.%.%.%.%.%.%.%.%.%.%.%.%.%.%.%.+.Q A b x x n W <.r.y.",
"6 9 t g V O.3.8.%.` E L L L L L L L L L L L L L L L L L L L L L L L L L L L L L L L L L L L L L L L L T T K V b h d g x H %.0.y.",
"6 9 t g B { 3.1.` H C B N N B B B B V V B N B B B B B B B N B B B B B B B B B B B B B B B B B B B V C C C N b k a i a k V +.0.y.",
"6 9 t g B ` <.%.T C N n n n n n n n n n n n n n n n n n n n n n n n n n n n n n n n n n n n n n n n N N N n x g y r u g V O.0.y.",
"6 9 t g B ` <.#.L B n b b b b b n b b n b b b b n n n n b b b b b b b n n n n b b b b b n n n n b b b n n b k d t e t f N O.0.y.",
"6 9 t g B ` <.%.L B n b b b b b n n b b b b b b n n b b b b b b b b b b n n n n b b b b b b b b b b n n n b l d t e t f N O.0.y.",
"6 9 t g B ` <.%.L B n b b b b n n n b b b b n n n n b b b b n n n n b b n n n n b b b b n b b b n b n n n b l d t e y g N O.0.y.",
"6 9 t g B ` <.%.L B n b b n n n n n n b b b n n n n b b b n n n n n b b b b n b b b n n n n b b b b n n n b x g t e y g N O.0.y.",
"6 9 t g B ` <.%.L B n b n n n n n n b b b b n n n n b b b b n n n n b b b b b b b b b n n n b b b b n n n b x g y e y g N O.0.y.",
"6 9 t g B ` <.%.L B n b b b b b b b b b n n n n b b b b n n n n b b b b b b b b n n n b b b b b b b b n n b x d t e y g B O.0.y.",
"6 9 t g B ` <.%.L B n b b b b b n n n n n n n n n n n n n n n n n n n n n n n n n n n n n n n n n b b n n b x d t e y g N O.0.y.",
"6 9 t g B ` <.%.L B n b b b b n n n n n n n n n n n n n n n n n n n n n n n n n n n n n n n n n n b b n n b x d t e y g N O.0.y.",
"6 9 t g B ` <.%.L B n b b b n n n N N N N N N N N N N N N N N N N N N N N N N N N N N N N N M n n b b n n b x d t e y g N O.0.y.",
"6 9 t g B ` <.%.L B n n n n n n M N N N N N N N N N N N N N N N N N N N N N N N N N N N N N N N n b b n n b x d t e y g N O.0.y.",
"6 9 t g B ` <.%.L B n n n b b b c x x x x x x x x x x x x x x x x x x x x x x x x x x x x x c b b b n n n b x d t e y g N O.0.y.",
"6 9 t g N ` <.%.L B n n n b x l h f s s s s s s s s s s s s s s s s s s s s s s s s s s s s f h l c n n N b x d t e y g N O.0.y.",
"6 9 t g N ` <.%.L B n n n b z f y q 8 6 7 8 8 8 8 8 8 8 8 8 8 8 8 8 8 8 8 8 8 8 8 8 8 7 6 8 q y f z b N N b x d y e y g N O.0.y.",
"6 9 t g B ` <.%.L B n n n b h y 5 > ; = - - ; ; ; ; ; ; ; ; ; ; ; ; ; ; ; ; ; ; ; ; - - = ; > 4 y h b N N b x d t e y g N O.0.y.",
"6 9 t g B ` <.%.L B n n N c g e < = % # + + # # # # # # # # # # # # # # # # # # # # + + @ % = < e g c N N b x d t e y g N O.0.y.",
"6 9 t g B ` <.%.L B n n N c g e < = $ o X X X X X X X X X X X X X X X X X X X X X X X X o $ = < e g c N N b x d t e y g N O.0.y.",
"6 9 t g B ` <.%.L B n n n b j y 5 : & # X . . . . . . . . . . . . . . . . . . . . . . X # & : 5 y h b N N b x d t e y g N O.0.y.",
"6 9 t g B ` <.%.L B n n n b x g i 0 1 - # X . . . . . . . . . . . . . . . . . . . . X # - 1 0 i g x b N N b x d t e y g N O.0.y.",
"6 9 t g B ` <.%.L B n b b b b x k s w 2 * # X . . . . . . . . . . . . . . . . . . X # * 2 w s k x b n n N b x d t e y g N O.0.y.",
"6 9 t g B ` <.%.L B n b b n n n n x s q > & # o X . . . . . . . . . . . . . . X o # & > q s x n n n n n n b x g t e y g N O.0.y.",
"6 9 t g B ` <.%.L B n b b n n N N n k p 8 > = % o X . . . . . . . . . . . . X o % = > 8 p k n N N n n n n b x g y e y g N O.0.y.",
"6 9 t g B ` <.%.L B n n n n n n N n x g p q 3 ; % o . . . . . . . . . . . . o % ; 3 q p h x n N n n b n n b x d t e y g B O.0.y.",
"6 9 t g B ` <.%.L B n b n n n n n n b x k s e 3 = # X . . . . . . . . . . X # = 3 e d k x b n n n b b n n b x d t e y g N O.0.y.",
"6 9 t g N ` <.%.L B n b b b n n n n n n n x d q > & # o X . . . . . . X o # & > q d x n n n n n n b b n n b x d t e y g N O.0.y.",
"6 9 t g N ` <.%.L B n b b b n b b n n N N n k p 7 > = % o X . . . . X o % = > 7 p k n N N n n b b b b n n b x d t e y g N O.0.y.",
"6 9 t g B ` <.%.L B n b b b b b b n n M N n x h p q 3 ; % o . . . . o % ; 3 q p h x n N N n n b b b b n n b x d t e y g N O.0.y.",
"6 9 t g B ` <.%.L B n b b b b b b n n n n n b x k d e 3 = # o . . o # = 3 e d k x b n n n n b b b b n n n b x d t e y g N O.0.y.",
"6 9 t g B ` <.%.L B n b b n b b n b n n n n n n n x d q > & # O O # & > q s x n n n n n n n n n b b b n n b x d t e y g N O.0.y.",
"6 9 t g B ` <.%.L B n b b n n n n n n n b n n N N n k p 7 , ; = = ; , 7 p k n N N n n n b n n n b b b n n b l d y e y g N O.0.y.",
"6 9 t g B ` <.%.L B n n n n n n b b b b b n n N N n x g p w 8 7 7 8 w p g x n N N n n b b b n n n b b n n b x d t e y g N O.0.y.",
"6 9 t g B ` <.%.L B n n n n n n b b b b b n n n n n b x j g d s s d g j x b n n n n n n b b n b b b b n n b x d t e y g N O.0.y.",
"6 9 t g N ` <.%.L B n n b b b b n b n n b n n n n n n n b c x x x x c b b b n n n n b b b b b b b b n n n b x d t e y g N O.0.y.",
"6 9 t g B ` <.%.L B n n b b b b n n n n b n n b b n n n N N N N N N N N n n n n b b b b b b b b b b n n n b x d t e y g N O.0.y.",
"6 9 t g B ` <.%.L B n b b b b b b b b n n n n n n n n n n N N N N N N n n n b b b b b b b b b b b b b n n b x d t e y g N O.0.y.",
"6 9 t g B ` <.%.L N n b b b n b b b b n n n n b n n b n n n n n n n n n n b b b b n b b b b b b b b n n n b x d t e y g N O.0.y.",
"6 9 t g B ` <.%.L B n b b n n n b b b b n n b b b b b b n n n n n n n n n b b b n n n n b b b b n n n n n b x g t e y g N O.0.y.",
"6 9 t g B ` <.%.L B n b b n n n b b b b b n b b b b b b b b b b b b b b b b b b n n n n n b b b n n n n n b x g y e y g N O.0.y.",
"6 9 t g B ` <.%.L B n b b n b b b b b b b b b b b b n n n b b b n b b b b b n n n b b b n b n n n b b n n b l d t e y g N O.0.y.",
"6 9 t g B ` <.%.L V n b b b b b b b b b n n b b b b n n b b b b b b b b b b n n b b b b n n n n n n n n n b x d t e y g N O.0.y.",
"6 9 t g B ` <.%.L C N b n n n n n n b b n b b n b b b n b b b b b b n b b n n n b b b n n n n n n n n n M b x d t e y g N O.0.y.",
"6 9 t g V { <.%.T C N n n n n n n n n n n n n n n n n n n n n n n n n n n n n n n n n n n n n n n n n n N b x d t e y g N O.0.y.",
"6 9 t g V { <.%.T C N n n n n n n n n n n n n n n n n n n n n n n n n n n n n n n n n n n n n n n n N N N n x g y e y g N O.0.y.",
"6 9 t g N ^ %.+.K N n b b b b b b b b b b b b b b b b b b b b b b b b b b b b b b b b b b b b b b b b n n c k d t e y g N O.0.y.",
"6 9 r f m L ` Q V b x k l l x x x x l l x x x x x x x x x x x l x x x x x x x x x l l l x x x x x x x x x k g p e e t g N O.0.y.",
"6 8 e s v V H A b k g d d d g g d d d d d d d d d d d d d d d d d d d d d g g g d d d d g g d d d d g g g d p t q q t g N O.0.y.",
"6 8 e p k n N b h a y t t t t y t t t y y y t t t t t t t t t t y y t y t t t t t t t y y t t t t t t t y t e q 8 0 t g N O.0.y.",
"8 0 e p k b b x d i r e e e e e e e e e e e e e e e e e e e e e e e e e e e e e e e e e e e e e e e e e e e e q 0 w y j V +.0.y.",
"q e y s l b b x g a u t t y y y y y y y y y y y y y y y y y y y y y y y y y y y y y y y y y y y y y y y y y t t t y s x J #.0.y.",
"y p s j b N N n x k g f f g g g g g g g g g g g g g g g g g g g g g g g g g g g g g g g g g g g g g g g g g g f g j x N Q <.y.y.",
"g g k b C L Q W H V V N N N N N N N N N N N N N N N N N N N N N N N N N N N N N N N N N N N N N N N N N N N N N N V J Q -.0.y.y.",
"l x b N T +.<.<.%.+.O.O.O.O.O.O.O.O.O.O.O.O.O.O.O.O.O.O.O.O.O.O.O.O.O.O.O.O.O.O.O.O.O.O.O.O.O.O.O.O.O.O.O.O.O.O.O.O.#.<.0.y.y.y.",
"b b N D ` 1.0.r.0.0.0.0.0.0.0.0.0.0.0.0.0.0.0.0.0.0.0.0.0.0.0.0.0.0.0.0.0.0.0.0.0.0.0.0.0.0.0.0.0.0.0.0.0.0.0.0.0.0.0.r.y.y.y.y.",
"n N V L +.5.y.y.y.y.y.y.y.y.y.y.y.y.y.y.y.y.y.y.y.y.y.y.y.y.y.y.y.y.y.y.y.y.y.y.y.y.y.y.y.y.y.y.y.y.y.y.y.y.y.y.y.y.y.y.y.y.y.y.",
"                                                                                                                                ",
"                                                                                                                                ",
"                                                                                                                                ",
"                                                                                                                                ",
"                                                                                                                                ",
"                                                                                                                                ",
"                                                                                                                                ",
"                                                                                                                                ",
"                                                                                                                                ",
"                                                                                                                                ",
"                                                                                                                                ",
"                                                                                                                                "
};
