/* XPM */
static char *title_2_active[] = {
/* columns rows colors chars-per-pixel */
"64 84 240 2 ",
"   c black",
".  c #0C0C0C",
"X  c #2A2A2A",
"o  c #5C5C5C",
"O  c #536188",
"+  c #56638B",
"@  c #56648B",
"#  c #5B678C",
"$  c #59668E",
"%  c #5B688C",
"&  c #5C698D",
"*  c #5C698E",
"=  c #5D698E",
"-  c #5E6B8F",
";  c #5A6890",
":  c #5B6890",
">  c #5C6991",
",  c #5F6B90",
"<  c #5F6C90",
"1  c #5E6C95",
"2  c #606C91",
"3  c #606D91",
"4  c #616D91",
"5  c #626E90",
"6  c #636E91",
"7  c #616D92",
"8  c #606E98",
"9  c #616F99",
"0  c #6D7897",
"q  c #617099",
"w  c #62709A",
"e  c #65749E",
"r  c #66759F",
"t  c #6D7898",
"y  c #6E7998",
"u  c #6F7999",
"i  c #6F7A99",
"p  c #707A99",
"a  c #707B9A",
"s  c #717B9A",
"d  c #727C9B",
"f  c #747E9C",
"g  c #757F9D",
"h  c #6877A2",
"j  c #6978A3",
"k  c #6A79A3",
"l  c #6B7AA5",
"z  c #9F9F9F",
"x  c #838CA6",
"c  c #848CA6",
"v  c #8A92A9",
"b  c #8A92AA",
"n  c #8A93AA",
"m  c #8B93AA",
"M  c #8B93AB",
"N  c #8C94AB",
"B  c #8D94AB",
"V  c #8D94AC",
"C  c #8D95AC",
"Z  c #8E95AC",
"A  c #8F97AD",
"S  c #9198AF",
"D  c #9BA1B5",
"F  c #9CA2B6",
"G  c #B0AEA9",
"H  c #B0AEAA",
"J  c #B1AFAA",
"K  c #B1AFAB",
"L  c #B2AFAB",
"P  c #B2AFAC",
"I  c #B2B0AB",
"U  c #B2B0AC",
"Y  c #B3B0AC",
"T  c #B3B1AD",
"R  c #B4B1AD",
"E  c #B4B2AE",
"W  c #B5B3AF",
"Q  c #B6B3AF",
"!  c #B6B4AF",
"~  c #B6B3B0",
"^  c #B6B4B0",
"/  c #B8B6B2",
"(  c #B9B7B4",
")  c #BAB7B5",
"_  c #BAB8B4",
"`  c #BAB8B5",
"'  c #BBB8B5",
"]  c #BBB9B6",
"[  c #BCBAB7",
"{  c #BDBBB7",
"}  c #BEBBB8",
"|  c #BEBDBA",
" . c #C0BEBA",
".. c #C2C0BD",
"X. c #C2C0BE",
"o. c #C4C2BF",
"O. c #C4C3BF",
"+. c #C5C3BF",
"@. c #ADB2C1",
"#. c #B0B5C3",
"$. c #B1B5C3",
"%. c #B1B6C3",
"&. c #B2B6C3",
"*. c #B2B7C3",
"=. c #B1B6C4",
"-. c #B2B6C4",
";. c #B2B7C4",
":. c #B3B8C5",
">. c #B5B9C6",
",. c #BABEC9",
"<. c #BABECA",
"1. c #BBBECA",
"2. c #C5C3C0",
"3. c #C6C5C2",
"4. c #C9C8C5",
"5. c #CBC9C7",
"6. c #CCCAC8",
"7. c #CCCAC9",
"8. c #CCCBC9",
"9. c #CDCCCA",
"0. c #D0CFCD",
"q. c #D1D0CE",
"w. c #D1D0CF",
"e. c #D2D1CF",
"r. c #C5C7D0",
"t. c #CED0D6",
"y. c #CED1D6",
"u. c #CED0D7",
"i. c #CED1D7",
"p. c #CFD1D7",
"a. c #CFD1D8",
"s. c #CFD2D8",
"d. c #D3D2D0",
"f. c #D2D2D2",
"g. c #D4D3D1",
"h. c #D4D3D2",
"j. c #D6D5D3",
"k. c #D6D5D4",
"l. c #D7D7D5",
"z. c #DAD9D7",
"x. c #D0D2D8",
"c. c #D1D3D9",
"v. c #D2D4D9",
"b. c #D3D4DA",
"n. c #D4D6DB",
"m. c #D7D8DC",
"M. c #DADAD9",
"N. c #DBDBDA",
"B. c #DCDBD9",
"V. c #DDDCDA",
"C. c #DDDCDB",
"Z. c #DEDDDB",
"A. c #D9DADE",
"S. c #DDDCDC",
"D. c #DEDDDC",
"F. c #DEDDDD",
"G. c #DEDEDD",
"H. c #DCDDDF",
"J. c #DFDFDE",
"K. c #E1E0DE",
"L. c #E0E0DF",
"P. c #DCDDE0",
"I. c #DDDEE0",
"U. c #DFE0E2",
"Y. c #E1E1E0",
"T. c #E2E1E0",
"R. c #E2E1E1",
"E. c #E2E2E1",
"W. c #E0E1E3",
"Q. c #E1E1E3",
"!. c #E3E3E2",
"~. c #E2E2E3",
"^. c #E3E3E3",
"/. c #E4E3E3",
"(. c #E4E4E3",
"). c #E2E2E4",
"_. c #E2E3E4",
"`. c #E3E3E4",
"'. c #E3E4E5",
"]. c #E4E4E4",
"[. c #E5E5E4",
"{. c #E5E5E5",
"}. c #E6E5E5",
"|. c #E6E6E5",
" X c #E6E6E6",
".X c #E7E6E6",
"XX c #E7E7E6",
"oX c #E6E6E7",
"OX c #E7E7E7",
"+X c #E8E7E6",
"@X c #E8E7E7",
"#X c #E8E8E7",
"$X c #E9E8E7",
"%X c #E6E6E8",
"&X c #E6E7E8",
"*X c #E6E7E9",
"=X c #E7E8E9",
"-X c #E8E8E8",
";X c #E9E9E8",
":X c #E9E9E9",
">X c #E9E9EA",
",X c #EAEAEA",
"<X c #EBEBEA",
"1X c #EAEBEB",
"2X c #EBEBEB",
"3X c #ECECEC",
"4X c #EDEDED",
"5X c #EEEDED",
"6X c #EEEEED",
"7X c #EFEEED",
"8X c #EEEEEE",
"9X c #EFEEEE",
"0X c #EFEFEF",
"qX c #F0EFEE",
"wX c #F0F0EF",
"eX c #F0F0F0",
"rX c #F0F0F1",
"tX c #F1F1F1",
"yX c #F1F1F2",
"uX c #F2F2F2",
"iX c #F3F3F2",
"pX c #F2F2F3",
"aX c #F3F3F4",
"sX c #F4F4F5",
"dX c #F5F5F5",
"fX c #F6F6F5",
"gX c #F6F6F7",
"hX c #F7F7F7",
"jX c #F8F7F7",
"kX c #F7F7F8",
"lX c #F8F7F8",
"zX c #F8F8F8",
"xX c #F8F8F9",
"cX c #F9F8F9",
"vX c #F9F9F9",
"bX c #FAFAFA",
"nX c #FAFAFB",
"mX c #FDFDFD",
"MX c #FEFDFD",
"NX c #FEFEFD",
/* pixels */
"                                                                                                                                ",
". . . . . . . . . . . . . . . . . . . . . . . . . . . . . . . . . . . . . . . . . . . . . . . . . . . . . . . . . . . . . . . . ",
"X X X X X X X X X X X X X X X X X X X X X X X X X X X X X X X X X X X X X X X X X X X X X X X X X X X X X X X X X X X X X X X X ",
"o o o o o o o o o o o o o o o o o o o o o o o o o o o o o o o o o o o o o o o o o o o o o o o o o o o o o o o o o o o o o o o o ",
"z z z z z z z z z z z z z z z z z z z z z z z z z z z z z z z z z z z z z z z z z z z z z z z z z z z z z z z z z z z z z z z z ",
"f.f.f.f.f.f.f.f.f.f.f.f.f.f.f.f.f.f.f.f.f.f.f.f.f.f.f.f.f.f.f.f.f.f.f.f.f.f.f.f.f.f.f.f.f.f.f.f.f.f.f.f.f.f.f.f.f.f.f.f.f.f.f.f.",
"uXuXuXuXuXuXuXuXuXuXuXuXuXuXuXuXuXuXuXuXuXuXuXuXuXuXuXuXuXuXuXuXuXuXuXuXuXuXuXuXuXuXuXuXuXuXuXuXuXuXuXuXuXuXuXuXuXuXuXuXuXuXuXuX",
"mXmXmXmXmXmXmXmXmXmXmXmXmXmXmXmXmXmXmXmXmXmXmXmXmXmXmXmXmXmXmXmXmXmXmXmXmXmXmXmXmXmXmXmXmXmXmXmXmXmXmXmXmXmXmXmXmXmXmXmXmXmXmXmX",
"dXdXdXdXdXdXdXdXdXdXdXdXdXdXdXdXdXdXdXdXdXdXdXdXdXdXdXdXdXdXdXdXdXdXdXdXdXdXdXdXdXdXdXdXdXdXdXdXdXdXdXdXdXdXdXdXdXdXdXdXdXdXdXdX",
"4X4X4X4X4X4X4X4X4X4X4X4X4X4X4X4X4X4X4X4X4X4X4X4X4X4X4X4X4X4X4X4X4X4X4X4X4X4X4X4X4X4X4X-X-X=X*X*X*X*X*X*X*X*X*X*X*X*X*X*X*X*X*X*X",
"OXOXOXOXOXOXOXOXOXOXOXOXOXOXOXOXOXOXOXOXOXOXOXOXOXOXOXOXOXOXOXOXOXOXOXOXOXOXOXOXOXOX'.U.A.n.c.a.a.c.a.a.a.a.c.c.c.a.a.a.c.a.a.a.",
"OXOXOXOXOXOXOXOXOXOXOXOXOXOXOXOXOXOXOXOXOXOXOXOXOXOXOXOXOXOXOXOXOXOXOXOXOXOXOXOXOX!.J.v.r.,.:.#.#.#.#.#.#.#.#.#.#.#.#.#.#.#.#.#.",
"OXOXOXOXOXOXOXOXOXOXOXOXOXOXOXOXOXOXOXOXOXOXOXOXOXOXOXOXOXOXOXOXOXOXOXOXOXOXOXOX+X!.m.r.@.D A v v v v v N A A N v v v v v v v v ",
"OXOXOXOXOXOXOXOXOXOXOXOXOXOXOXOXOXOXOXOXOXOXOXOXOXOXOXOXOXOXOXOXOXOXOXOXOXOXOXOX#X!.v.,.D x f 0 i i i i s s s s i i i i i i i i ",
"OXOXOXOXOXOXOXOXOXOXOXOXOXOXOXOXOXOXOXOXOXOXOXOXOXOXOXOXOXOXOXOXOXOXOXOXOXOXOX+X-X!.p.:.A f 5 # - - < 5 5 5 5 5 5 5 5 5 5 5 5 5 ",
"OXOXOXOXOXOXOXOXOXOXOXOXOXOXOXOXOXOXOXOXOXOXOXOXOXOXOXOXOXOXOXOXOXOXOXOXOXOXOX#X-X!.p.#.v 0 # O + # : > > : : : : : > > > > > > ",
"OXOXOXOXOXOXOXOXOXOXOXOXOXOXOXOXOXOXOXOXOXOXOXOXOXOXOXOXOXOXOXOXOXOXOXOXOXOX+X#X-X!.p.#.v i - + : 1 8 w w w w w w w w 8 w w w w ",
"OXOXOXOXOXOXOXOXOXOXOXOXOXOX(./.OXOXOXOXOXOXOXOXOXOXOXOXOXOXOXOXOXOXOXOXOXOX+X#X-X!.p.#.v i - # 1 w e h h h h r r r r r r r r r ",
"OXOXOXOXOXOXOXOXOXOXOXOXOX!.!.!.J.J.J.J.!.!.OXOXOXOXOXOXOXOXOXOXOXOXOXOXOXOX+X#X-X!.p.#.N s 5 : 8 e h j j j j j k k k k k k k k ",
"OXOXOXOXOXOXOXOXOXOXOXOXOX!.!.N.k.f.f.j.N.!.!.OXOXOXOXOXOXOXOXOXOXOXOXOXOXOX+X#X-X!.p.=.A s 5 : w r j j l l l l j j j j j j j j ",
"OXOXOXOXOXOXOXOXOXOXOXOXOXOXJ.k.5.2.2.5.j.J.!.OXOXOXOXOXOXOXOXOXOXOXOXOXOXOX+X#X-X!.p.#.N s 5 : 8 r j j j j l l l l l l j j j j ",
"OXOXOXOXOXOXOXOXOXOXOXOX-XOXJ.q...` ` ..0.N.!.OXOXOXOXOXOXOXOXOXOXOXOXOXOXOX+X-X-X!.p.#.A s 5 : 8 r k j j j j j j l l l j j j j ",
"OXOXOXOXOXOXOXOXOXOXOXOX-XOXM.9.{ T R } 0.J.OX-XOXOXOXOXOXOXOXOXOXOXOXOXOXOX+X-X-X!.p.#.A s 5 : 8 r k j j j j j j j l l j j j j ",
"OXOXOXOXOXOXOXOXOXOXOXOX-X(.M.7.( J J { q.!.-X4X-XOXOXOXOXOXOXOXOXOXOXOXOXOX+X-X-X!.p.#.N s 5 > 8 r k j j j j l j j l l l j j j ",
"OXOXOXOXOXOXOXOXOXOXOXOX-X(.M.7.( J T  .k.OXuXuX4X-XOXOXOXOXOXOXOXOXOXOXOXOXOX+X-X!.p.#.v i 5 > w h j j l l l l j j l l l l j j ",
"OXOXOXOXOXOXOXOXOXOXOXOX-X(.M.7.` J R ..z.-XdXdXuX-XOXOXOXOXOXOXOXOXOXOXOXOXOXOX-X!.p.#.v i 5 > w h j j l l l j j j l l l l j j ",
"OXOXOXOXOXOXOXOXOXOXOXOX-X(.M.7.` T R o.N.4XzXzXuX-XOXOXOXOXOXOXOXOXOXOXOXOXOXOX-X!.p.#.v i 5 > w r j l l l j j j j j l j j j j ",
"OXOXOXOXOXOXOXOXOXOXOXOX-X(.M.7.` T ! o.V.qXzXzXuX-XOXOXOXOXOXOXOXOXOXOXOXOXOX+X-X!.p.#.v i 5 > w r j l l l j j j j l l j j j j ",
"OXOXOXOXOXOXOXOXOXOXOXOXOX!.M.7.` T ! o.V.4XzXzXuX-XOXOXOXOXOXOXOXOXOXOXOXOXOX-X-X!.p.#.v i 5 > w r k j j j j j j j j j j l l l ",
"OXOXOXOXOXOXOXOXOXOXOXOXOX!.M.7.` T ! o.V.4XzXzXuX-XOXOXOXOXOXOXOXOXOXOXOXOXOX-X-X!.p.#.v i 5 > w r k j j j j j l j j j j l l l ",
"OXOXOXOXOXOXOXOXOXOXOXOXOX!.M.7.` T ^ o.V.4XzXzXuX-XOXOXOXOXOXOXOXOXOXOXOXOXOX-X-X!.p.#.v i 5 > w r k j l j l l l l j j j j l l ",
"OXOXOXOXOXOXOXOXOXOXOXOXOX!.M.7.` T ! o.V.4XzXzXuX-XOXOXOXOXOXOXOXOXOXOXOXOXOX-X-X!.p.#.v i 5 > 8 r k j l l l l l l j j j l l l ",
"OXOXOXOXOXOXOXOXOXOXOXOX-X(.M.7.` T ^ 2.V.4XzXzX4X-XOXOXOXOXOXOXOXOXOXOXOXOXOX+X-X!.p.#.N s 5 : 8 r k j l j j j j j l l l l j j ",
"OXOXOXOXOXOXOXOXOXOXOXOXOX/.M.7.` T ^ 2.V.4XzXzX4X-XOXOXOXOXOXOXOXOXOXOXOXOXOX+X-X!.p.#.N s 5 > 8 r j j l l j j j j l l l l j j ",
"OXOXOXOXOXOXOXOXOXOXOXOX-XOXM.7.` T ^ 2.V.4XzXzX4X-XOXOXOXOXOXOXOXOXOXOXOXOXOX+X-X!.p.#.A s 5 : w h j j l l l l j j j l j j j j ",
"OXOXOXOXOXOXOXOXOXOXOXOX-XOXM.7.` T ^ 2.V.4XzXzXeX-XOXOXOXOXOXOXOXOXOXOXOXOXOX+X-X!.p.#.A s 5 : w h j j l l l l j j l l j j j j ",
"OXOXOXOXOXOXOXOXOXOXOXOX-XOXM.7.` T ! o.V.4XzXzXeX-XOXOXOXOXOXOXOXOXOXOXOXOXOX-X-X!.p.#.A s 5 : w r k j j j j l j j j j j l l l ",
"OXOXOXOXOXOXOXOXOXOXOXOX-XOXM.7.` T ! o.V.4XlXzXeX-XOXOXOXOXOXOXOXOXOXOXOXOXOX-X-X!.p.#.A s 5 : w r k j j j j j l j j j j l l l ",
"OXOXOXOXOXOXOXOXOXOXOXOX-XOXM.7.` T ! o.V.4XlXzXuX-XOXOXOXOXOXOXOXOXOXOXOXOXOX-X-X!.p.=.A s 5 : w r k j j j j j l l j j j j l l ",
"OXOXOXOXOXOXOXOXOXOXOXOX-XOXM.7.` T ! o.N.4XkXzXuX-XOXOXOXOXOXOXOXOXOXOXOXOXOX-X-X!.p.=.A s 5 : w r k j j j j j l l j j j l l l ",
"OXOXOXOXOXOXOXOXOXOXOXOXOX!.M.7.` T ~ o.V.4XzXzXuX-XOXOXOXOXOXOXOXOXOXOXOXOXOX-X-X!.p.#.A s 5 : w h j l j j j j l l j j j j l l ",
"OXOXOXOXOXOXOXOXOXOXOXOXOX!.M.6.( P R o.V.4XjXzXuX-XOXOXOXOXOXOXOXOXOXOXOXOXOX-X-X!.p.=.A s 5 : w h j l j j j j l l j j j j l l ",
"OXOXOXOXOXOXOXOXOXOXOXOXOX!.M.6.` P ~ o.V.4XzXzXuX-XOXOXOXOXOXOXOXOXOXOXOXOXOX-X-X!.p.=.A s 5 : w h j l l j j j l j j j l l l l ",
"OXOXOXOXOXOXOXOXOXOXOXOXOX!.M.6.` P R o.V.4XjXzXuX-XOXOXOXOXOXOXOXOXOXOXOXOXOX#X-X!.p.=.A s 5 : w r j l l l j j l j j j j l l l ",
"OXOXOXOXOXOXOXOXOXOXOXOX-X(.M.7.` I R o.V.4XjXzX4X-XOXOXOXOXOXOXOXOXOXOXOXOXOX#X-X!.p.=.A s 5 : w r k j l l l l j j l l j j j j ",
"OXOXOXOXOXOXOXOXOXOXOXOX-XOXM.7.` J R o.V.4XjXzX4X-XOXOXOXOXOXOXOXOXOXOXOXOXOXOX-X!.p.=.A s 5 : w r k j l l l l j j l l j j j j ",
"OXOXOXOXOXOXOXOXOXOXOXOX-XOXM.7.` I ! o.V.4XjXzX4X-XOXOXOXOXOXOXOXOXOXOXOXOXOXOX-X!.p.=.A s 5 : 8 r k j l l j j j j l l l l j j ",
"OXOXOXOXOXOXOXOXOXOXOXOX-X(.M.7.` T ! o.V.4XjXzX4X-XOXOXOXOXOXOXOXOXOXOXOXOXOX+X-X!.p.=.A s 5 : 8 r k j l j j j j j l l l j j j ",
"OXOXOXOXOXOXOXOXOXOXOXOXOX!.M.6.` P R o.V.4XjXzXuX-XOXOXOXOXOXOXOXOXOXOXOXOXOX#X-X!.p.=.A s 5 : w r k j l j j j j j l l l l j j ",
"OXOXOXOXOXOXOXOXOXOXOXOXOX!.M.6.` P R o.V.4XzXzXuX-XOXOXOXOXOXOXOXOXOXOXOXOX+X#X-X!.p.#.A s 5 : w r k j l l j j j j l l l l j j ",
"OXOXOXOXOXOXOXOXOXOXOXOXOX!.M.6.( J R 2.V.4XjXzXuX-XOXOXOXOXOXOXOXOXOXOXOXOX+X#X-X!.p.#.A s 5 : w r k j l l l l j j j l j j j j ",
"OXOXOXOXOXOXOXOXOXOXOXOX*X!.M.6.( J R 2.V.4XjXzXuX-XOXOXOXOXOXOXOXOXOXOXOXOX+X#X-X!.p.=.A s 5 : w r k j l l l l j j l l j j j j ",
"OXOXOXOXOXOXOXOXOXOXOXOX-XOXM.7.` J ! 2.V.4XjXzXuX-XOXOXOXOXOXOXOXOXOXOXOXOX+X#X-X!.p.#.N s 5 : w r k j j j j l j j j j j l l l ",
"OXOXOXOXOXOXOXOXOXOXOXOX-XOXM.7.` I ! 2.V.4XjXzXuX-XOXOXOXOXOXOXOXOXOXOXOXOX+X-X-X!.p.#.A s 5 : w r k j j j j j l j j j j l l l ",
"OXOXOXOXOXOXOXOXOXOXOXOX#X(.M.7.` P R o.V.4XjXzXuX-XOXOXOXOXOXOXOXOXOXOXOXOX+X-X-X!.p.#.A s 5 : w r k j j j j j l l j j j j l l ",
"OXOXOXOXOXOXOXOXOXOXOXOX+X(.M.7.` T ^ o.V.4XjXzXuX-XOXOXOXOXOXOXOXOXOXOXOXOX+X-X-X!.p.#.N s 5 > w h k j j j j j l l j j j l l l ",
"OXOXOXOXOXOXOXOXOXOXOXOXOX!.M.6.` T ! o.V.4XjXzX4X-XOXOXOXOXOXOXOXOXOXOXOXOXOX+X-X!.p.#.v i 5 > w h j l j j j j l l j j j j l l ",
"OXOXOXOXOXOXOXOXOXOXOXOXOX!.M.6.` T ! o.V.4XjXzX4X-XOXOXOXOXOXOXOXOXOXOXOXOXOXOX-X!.p.#.v i 5 > w h j l j j j j l l j j j j l l ",
"OXOXOXOXOXOXOXOXOXOXOXOXOX!.M.6.` T ^ 2.V.4XjXzX4X-XOXOXOXOXOXOXOXOXOXOXOXOXOXOX-X!.p.#.v i 5 > w h j l l j j j l j j j l l l l ",
"OXOXOXOXOXOXOXOXOXOXOXOX*X!.M.7.` T ^ 2.V.4XjXzX4X-XOXOXOXOXOXOXOXOXOXOXOXOXOX+X-X!.p.#.v i 5 > w r j l l l j j l j j j j l l l ",
"OXOXOXOXOXOXOXOXOXOXOXOX-XOXM.7.` T ^ 2.V.4XdXzX4X-XOXOXOXOXOXOXOXOXOXOXOXOXOX-X-X!.p.#.v i 5 > w r k j l l l l j j l l j j j j ",
"OXOXOXOXOXOXOXOXOXOXOXOX-XOXM.7.` T ^ 2.V.4XjXzXeX-XOXOXOXOXOXOXOXOXOXOXOXOXOX-X-X!.p.#.v i 5 > w r k j l l l l j j l l j j j j ",
"OXOXOXOXOXOXOXOXOXOXOX-X-X(.M.7.` I ! o.V.4XlXzXuX-XOXOXOXOXOXOXOXOXOXOXOXOXOX-X-X!.p.#.v i 5 > w r k j l l j j j j l l l l j j ",
"OXOXOXOXOXOXOXOXOXOXOX-X-X(.M.7.( J R o.N.4XlXzXuX-XOXOXOXOXOXOXOXOXOXOXOXOXOX-X-X!.p.#.v i 5 > 8 r k j l j j j j j l l l j j j ",
"OXOXOXOXOXOXOXOXOXOXOXOXOX!.M.6.( J R o.N.4XzXzXuX-XOXOXOXOXOXOXOXOXOXOXOXOXOX#X#X!.p.#.N s 5 : 8 r j j j j j j l l l l l l j j ",
"OXOXOXOXOXOXOXOXOXOXOXOXOX!.M.7.{ R / 3.V.4XjXzXuX-XOXOXOXOXOXOXOXOXOXOXOXOXOX+X#X!.p.=.A s 5 : 8 r j j j j j j l l l l j l j j ",
"OXOXOXOXOXOXOXOXOXOXOXOXOX(.N.0...` | 6.L.wXzXzXuX-XOXOXOXOXOXOXOXOXOXOXOXOXOX+X-X!.p.=.A s 5 : 8 r k j l j j j j j j j j j j j ",
"OXOXOXOXOXOXOXOXOXOXOXOXOXOXJ.j.5.3.5.g.OXuXzXzXuX-XOXOXOXOXOXOXOXOXOXOXOXOXOX+X-X!.p.=.A s 5 : 8 r k j l j j j j j j j j j j j ",
"OXOXOXOXOXOXOXOXOXOXOXOXOX/.!.N.k.g.k.L.4XdXzXzX4X-XOXOXOXOXOXOXOXOXOXOXOXOXOX-X-X!.p.=.A s 5 : w h j j l l l l j j j j j j j j ",
"OXOXOXOXOXOXOXOXOXOXOXOXOX!.!.L.J.J.!.-XuXzXzXdX4X-XOXOXOXOXOXOXOXOXOXOXOXOXOX-X-X!.p.=.A s 5 : w h j j l l l l l l j j j j j j ",
"OXOXOXOXOXOXOXOXOXOXOXOXOXOX!.!.!.OX#X4XaXkXzXdX4XOXOXOXOXOXOXOXOXOXOXOXOXOXOX-X-X!.p.=.A s 5 : w h j j j j l l l l l l j j j j ",
"OXOXOXOXOXOXOXOXOXOXOXOXOXOXOXOXOXOX-X4XuXaXaXuX-XOXOXOXOXOXOXOXOXOXOXOXOXOXOX-X-X!.p.=.A s 5 : w h j l j j l l l l l l l l j j ",
"OXOXOXOXOXOXOXOXOXOXOXOXOXOXOXOXOXOX-X-X-X-X-X-X-XOXOXOXOXOXOXOXOXOXOXOXOXOXOX#X-X!.p.=.A s 5 > w h j j j j j j j j j j j j j j ",
"OXOXOXOXOXOXOXOXOXOXOXOXOXOXOXOXOXOXOXOXOXOXOXOXOXOXOXOXOXOXOXOXOXOXOXOXOXOXOX+X-X!.p.=.N s 5 : 8 r h k k k j j j j j j k k j j ",
"OXOXOXOXOXOXOXOXOXOXOXOXOXOXOXOXOXOXOXOXOXOXOXOXOXOXOXOXOXOXOXOXOXOXOXOXOXOXOXOX-X!.p.=.v i - # 1 w e r r r r r h h h h r r r r ",
"OXOXOXOXOXOXOXOXOXOXOXOXOXOXOXOXOXOXOXOXOXOXOXOXOXOXOXOXOXOXOXOXOXOXOXOXOXOXOXOX-X!.p.#.v i - + : 1 8 8 8 8 8 8 w w w w 8 8 8 8 ",
"OXOXOXOXOXOXOXOXOXOXOXOXOXOXOXOXOXOXOXOXOXOXOXOXOXOXOXOXOXOXOXOXOXOXOXOXOXOXOX-X-X!.p.#.v 0 # O + # : : : : : : > > : : : : : : ",
"OXOXOXOXOXOXOXOXOXOXOXOXOXOXOXOXOXOXOXOXOXOXOXOXOXOXOXOXOXOXOXOXOXOXOXOXOXOXOX-X-X!.p.:.A f 5 # - > 5 5 5 5 5 5 5 5 5 5 5 5 5 5 ",
"OXOXOXOXOXOXOXOXOXOXOXOXOXOXOXOXOXOXOXOXOXOXOXOXOXOXOXOXOXOXOXOXOXOXOXOXOXOX+X-X-X_.v.,.D x f i s s d d d d d d d d d d d d d d ",
"OXOXOXOXOXOXOXOXOXOXOXOXOXOXOXOXOXOXOXOXOXOXOXOXOXOXOXOXOXOXOXOXOXOXOXOXOXOXOX#X-X_.m.r.@.F S A A A A A A A A A A A A A A A A A ",
"OXOXOXOXOXOXOXOXOXOXOXOXOXOXOXOXOXOXOXOXOXOXOXOXOXOXOXOXOXOXOXOXOXOXOXOXOXOXOXOXOX!.H.c.r.,.>.=.=.=.=.=.=.=.=.=.=.=.=.=.#.#.#.#.",
"OXOXOXOXOXOXOXOXOXOXOXOXOXOXOXOXOXOXOXOXOXOXOXOXOXOXOXOXOXOXOXOXOXOXOXOXOXOXOXOXOX!.!.J.m.v.a.p.p.p.p.p.p.p.p.p.p.p.p.p.p.p.p.p.",
"OXOXOXOXOXOXOXOXOXOXOXOXOXOXOXOXOXOXOXOXOXOXOXOXOXOXOXOXOXOXOXOXOXOXOXOXOXOXOXOXOXOXOXOX_.!.!.!.!.!.!.!.!.!.!.!.!.!.!.!.!.!.U.U.",
"OXOXOXOXOXOXOXOXOXOXOXOXOXOXOXOXOXOXOXOXOXOXOXOXOXOXOXOXOXOXOXOXOXOXOXOXOXOXOXOXOXOXOX#X-X-X-X-X-X-X-X-X-X-X-X-X-X-X-X-X-X-X-X-X"
};
