/* XPM */
static char *top_right_active[] = {
/* columns rows colors chars-per-pixel */
"24 44 200 2 ",
"   c None",
".  c #043D59",
"X  c #043E59",
"o  c #05415F",
"O  c #064869",
"+  c #064F72",
"@  c #075175",
"#  c #085073",
"$  c #075379",
"%  c #075479",
"&  c #08557A",
"*  c #075981",
"=  c #075A82",
"-  c #075A83",
";  c #075B84",
":  c #075C86",
">  c #075D86",
",  c #095A82",
"<  c #095B83",
"1  c #095B84",
"2  c #095C85",
"3  c #085E87",
"4  c #095E87",
"5  c #0A5F88",
"6  c #0B5F88",
"7  c #0C6089",
"8  c #0D618A",
"9  c #0F628B",
"0  c #11638B",
"q  c #12648C",
"w  c #14658D",
"e  c #15658D",
"r  c #15658E",
"t  c #16668E",
"y  c #19688F",
"u  c #1D688D",
"i  c #196890",
"p  c #1A6990",
"a  c #1C6B91",
"s  c #1D6B92",
"d  c #1E6C92",
"f  c #21698C",
"g  c #236B8F",
"h  c #206D93",
"j  c #216E94",
"k  c #2A6F92",
"l  c #247095",
"z  c #257195",
"x  c #287296",
"c  c #297397",
"v  c #2C7498",
"b  c #2D7599",
"n  c #30779A",
"m  c #31789B",
"M  c #34799C",
"N  c #347A9C",
"B  c #357A9D",
"V  c #387C9E",
"C  c #387D9F",
"Z  c #397D9F",
"A  c #3A7EA0",
"S  c #3C80A1",
"D  c #3F81A2",
"F  c #48829E",
"G  c #4081A2",
"H  c #4082A3",
"J  c #4283A3",
"K  c #4484A4",
"L  c #4585A5",
"P  c #4887A6",
"I  c #4988A7",
"U  c #4C89A8",
"Y  c #508CAA",
"T  c #528EAB",
"R  c #528EAC",
"E  c #538FAC",
"W  c #5690AD",
"Q  c #5790AD",
"!  c #5691AE",
"~  c #5A90AC",
"^  c #5891AE",
"/  c #5992AF",
"(  c #5A93AF",
")  c #5B94AF",
"_  c #5B94B0",
"`  c #5D95B0",
"'  c #5D95B1",
"]  c #5E95B0",
"[  c #5E96B0",
"{  c #5F96B1",
"}  c #5F96B2",
"|  c #6691A6",
" . c #789AAA",
".. c #7D9BA9",
"X. c #7E9BA9",
"o. c #6097B2",
"O. c #6197B2",
"+. c #6298B2",
"@. c #6298B3",
"#. c #6398B3",
"$. c #6399B3",
"%. c #659AB4",
"&. c #679BB5",
"*. c #689CB6",
"=. c #699CB6",
"-. c #6B9EB7",
";. c #6C9EB7",
":. c #6E9FB9",
">. c #70A1B9",
",. c #70A1BA",
"<. c #71A2BA",
"1. c #73A3BB",
"2. c #74A4BC",
"3. c #77A6BD",
"4. c #79A7BE",
"5. c #7AA7BE",
"6. c #7DA9BF",
"7. c #82A6B8",
"8. c #83A9BC",
"9. c #83ACC0",
"0. c #83ACC1",
"q. c #81ACC2",
"w. c #83ADC2",
"e. c #84AEC3",
"r. c #85AFC3",
"t. c #85AFC4",
"y. c #86B0C4",
"u. c #88B1C5",
"i. c #89B1C5",
"p. c #8AB2C6",
"a. c #8CB3C7",
"s. c #8DB4C8",
"d. c #8FB6C9",
"f. c #91B7CA",
"g. c #93B8CB",
"h. c #95BACB",
"j. c #95B9CC",
"k. c #97BACD",
"l. c #97BBCD",
"z. c #98BBCD",
"x. c #9ABCCD",
"c. c #99BCCE",
"v. c #9ABDCE",
"b. c #9BBDCE",
"n. c #9BBDCF",
"m. c #A3C3D3",
"M. c #A5C4D3",
"N. c #A6C5D4",
"B. c #A7C5D5",
"V. c #ACC9D6",
"C. c #ADC9D7",
"Z. c #AEC9D7",
"A. c #B3CDDA",
"S. c #B4CDDA",
"D. c #B6CFDB",
"F. c #BBD2DE",
"G. c #BED3DE",
"H. c #BFD4E0",
"J. c #C0D6E0",
"K. c #C2D7E1",
"L. c #C3D7E2",
"P. c #C5D8E2",
"I. c #CADCE5",
"U. c #D1E1E9",
"Y. c #D3E1E9",
"T. c #D3E2E9",
"R. c #D5E3EA",
"E. c #D6E4EB",
"W. c #D8E6EC",
"Q. c #DAE7ED",
"!. c #DEE8EE",
"~. c #DEE9EF",
"^. c #E0EAEF",
"/. c #E0EAF0",
"(. c #E3ECF1",
"). c #E4ECF1",
"_. c #E5EDF2",
"`. c #E7EFF3",
"'. c #E9F0F4",
"]. c #ECF2F6",
"[. c #EEF3F7",
"{. c #F0F5F8",
"}. c #F2F6F8",
"|. c #F4F8FA",
" X c #F6F9FA",
".X c #F6F9FB",
"XX c #F7F9FB",
"oX c #F7FAFB",
"OX c #F8FAFB",
"+X c #F9FAFC",
"@X c #FBFCFD",
"#X c #FCFCFD",
"$X c #FCFCFE",
"%X c #FDFDFE",
"&X c #FEFDFE",
"*X c #FDFEFE",
"=X c #FEFEFE",
"-X c #FEFEFF",
";X c #FFFEFF",
":X c #FFFFFF",
/* pixels */
"                                                ",
"                                                ",
"                                                ",
"                                                ",
"                                                ",
"&X&X&X&X&X&X&X&X&X&X&X                          ",
"&X&X&X&X&X&X&X&X&X&X&X&X&X                      ",
"F.F.F.F.H.P.I.R.)..X&X&X&X&X                    ",
"=.=.=.=.>.5.e.z.A.T.'..X&X&X&X&X}.              ",
"$.$.$.$.%.=.=.>.5.e.N.T..X&X&X&XE.N.            ",
"$.$.$.$.$.$.$.O.O.$.3.v.K.(.OX&X).K.i.          ",
"O.O.O.O.O.O.O.O.O.O.O.%.6.V.~..X&X).l.>.        ",
"[ [ [ [ [ [ [ [ [ [ [ [ $.>.v./.&X+X/.q.w       ",
"_ _ _ _ _ _ _ _ _ _ _ ) / / :.V./.&X&Xm.K u     ",
"/ / / / / / / / / / / / / / [ >.D..X&XE.i.g     ",
"! ! ! ! ! ! ! ! ! ! ! ! ! ! ! / l.W..X@XG.k     ",
"E E E E E E E E E E E E E E T T 3.Z.[.&X~./ g   ",
"T T T T T U U U T T T T T U U U / q.(.&X[.M.F @ ",
"U U U U U U U U U U U U U U U U P =.T.&XoXW.| O ",
"P P P P P P P P P P P P P P P P J [ K.}.&X.X .o ",
"K K K K K K K K K K K K K K K K J ! m.~.&X&X..X ",
"J J J J J J D J J J J J J J J J D K [ A.&X&X..X ",
"D D A D D D D A D D A D D D D D D A Z v.&X&X..X ",
"Z Z Z Z Z Z Z Z Z Z Z Z Z Z Z Z Z Z Z v.&X&X..X ",
"N N N N N N N N N N N N N N N N N N N v.&X&X..X ",
"m m m m m m m m m m m m m m m m m n n l.&X&X..X ",
"v v v v v v v v v v v v v v v v v v v l.&X&X..X ",
"x x x x x x x x x x x x x x x x x x x g.&X&X..X ",
"z z z z z z z z z z z z z z z z z z z f.&X&X..X ",
"j j j j j j j j j j j j j j j j j h h d.&X&X..X ",
"d d d d d d d d d d d d d d d s d s s d.&X&X..X ",
"i i i i i i i i i i i i i i i i i y i a.&X&X..X ",
"w w w w w w w w w w w w w w w w w w w i.&X&X..X ",
"q q q q q q q q q q q q q q q q q 0 0 i.&X&X..X ",
"0 9 9 9 9 9 9 9 9 9 9 9 0 0 9 9 9 9 9 y.&X&X..X ",
"9 9 9 9 9 9 9 9 9 9 9 9 9 9 9 9 9 6 6 t.&X&X..X ",
"6 6 6 6 6 6 6 6 6 6 6 6 6 6 6 6 6 4 4 e.&X&X..X ",
"4 4 4 4 4 4 4 4 4 4 4 4 4 4 4 4 4 4 4 q.&X&X..X ",
"4 4 4 4 4 4 4 4 4 4 4 4 4 4 4 4 4 1 1 q.&X&X..X ",
"1 1 1 1 1 1 1 1 1 1 1 1 1 1 1 1 4 * < q.&X&X..X ",
"< < < < < < < < < < < < < < < < < * * q.&X&X..X ",
"< < < < < < < < < < < < < < < < < * * q.&X&X..X ",
"& & & & & & & & & & & & & & & & & $ $ 8.&X&X..X ",
"# # # # # # # # # # # # # # # # # + + 7.&X&X..X "
};
