/* XPM */
static char *maximize_toggled_pressed[] = {
/* columns rows colors chars-per-pixel */
"57 57 5 1 ",
"  c None",
". c black",
"X c #949594 s active_shadow_2",
"o c #B4BAB4 s active_mid_2",
"O c #D5D6D5 s active_color_2",
/* pixels */
"                                                         ",
"                                                         ",
"                                                         ",
"XXXXXXXXXXXXXXXXXXXXXXXXXXXXXXXXXXXXXXXXXXXXXXXXXXXXXXXXX",
"XXXXXXXXXXXXXXXXXXXXXXXXXXXXXXXXXXXXXXXXXXXXXXXXXXXXXXXXX",
"XXXXXXXXXXXXXXXXXXXXXXXXXXXXXXXXXXXXXXXXXXXXXXXXXXXXXXXXX",
"XXXoooooooooooooooooooooooooooooooooooooooooooooooooooOOO",
"XXXoooooooooooooooooooooooooooooooooooooooooooooooooooOOO",
"XXXoooooooooooooooooooooooooooooooooooooooooooooooooooOOO",
"XXXoooooooooooooooooooooooooooooooooooooooooooooooooooOOO",
"XXXoooooooooooooooooooooooooooooooooooooooooooooooooooOOO",
"XXXoooooooooooooooooooooooooooooooooooooooooooooooooooOOO",
"XXXooooooooo........................ooooooooooooooooooOOO",
"XXXooooooooo........................ooooooooooooooooooOOO",
"XXXooooooooo........................ooooooooooooooooooOOO",
"XXXooooooooo........................ooooooooooooooooooOOO",
"XXXooooooooo........................ooooooooooooooooooOOO",
"XXXooooooooo........................ooooooooooooooooooOOO",
"XXXooooooooo........................ooooooooooooooooooOOO",
"XXXooooooooo........................ooooooooooooooooooOOO",
"XXXooooooooo........................ooooooooooooooooooOOO",
"XXXooooooooo...oooooooooooooooooo............oooooooooOOO",
"XXXooooooooo...oooooooooooooooooo............oooooooooOOO",
"XXXooooooooo...oooooooooooooooooo............oooooooooOOO",
"XXXooooooooo...oooooooooooooooooo............oooooooooOOO",
"XXXooooooooo...oooooooooooooooooo............oooooooooOOO",
"XXXooooooooo...oooooooooooooooooo............oooooooooOOO",
"XXXooooooooo...oooooooooooooooooo............oooooooooOOO",
"XXXooooooooo...oooooooooooooooooo............oooooooooOOO",
"XXXooooooooo...oooooooooooooooooo............oooooooooOOO",
"XXXooooooooo...oooooooooooooooooo...oooooo...oooooooooOOO",
"XXXooooooooo...oooooooooooooooooo...oooooo...oooooooooOOO",
"XXXooooooooo...oooooooooooooooooo...oooooo...oooooooooOOO",
"XXXooooooooo........................oooooo...oooooooooOOO",
"XXXooooooooo........................oooooo...oooooooooOOO",
"XXXooooooooo........................oooooo...oooooooooOOO",
"XXXoooooooooooooooooo...oooooooooooooooooo...oooooooooOOO",
"XXXoooooooooooooooooo...oooooooooooooooooo...oooooooooOOO",
"XXXoooooooooooooooooo...oooooooooooooooooo...oooooooooOOO",
"XXXoooooooooooooooooo...oooooooooooooooooo...oooooooooOOO",
"XXXoooooooooooooooooo...oooooooooooooooooo...oooooooooOOO",
"XXXoooooooooooooooooo...oooooooooooooooooo...oooooooooOOO",
"XXXoooooooooooooooooo........................oooooooooOOO",
"XXXoooooooooooooooooo........................oooooooooOOO",
"XXXoooooooooooooooooo........................oooooooooOOO",
"XXXoooooooooooooooooooooooooooooooooooooooooooooooooooOOO",
"XXXoooooooooooooooooooooooooooooooooooooooooooooooooooOOO",
"XXXoooooooooooooooooooooooooooooooooooooooooooooooooooOOO",
"XXXoooooooooooooooooooooooooooooooooooooooooooooooooooOOO",
"XXXoooooooooooooooooooooooooooooooooooooooooooooooooooOOO",
"XXXoooooooooooooooooooooooooooooooooooooooooooooooooooOOO",
"OOOOOOOOOOOOOOOOOOOOOOOOOOOOOOOOOOOOOOOOOOOOOOOOOOOOOOOOO",
"OOOOOOOOOOOOOOOOOOOOOOOOOOOOOOOOOOOOOOOOOOOOOOOOOOOOOOOOO",
"OOOOOOOOOOOOOOOOOOOOOOOOOOOOOOOOOOOOOOOOOOOOOOOOOOOOOOOOO",
"                                                         ",
"                                                         ",
"                                                         "
};
