/* XPM */
static char *stick_active[] = {
/* columns rows colors chars-per-pixel */
"32 58 182 2 ",
"   c None",
".  c #000000",
"X  c #0E0E0E",
"o  c #2B2C2D",
"O  c #2B2D30",
"+  c #333435",
"@  c #363738",
"#  c #373839",
"$  c #3A3B3C",
"%  c #043656",
"&  c #073D59",
"*  c #033765",
"=  c #053963",
"-  c #033B6B",
";  c #07405C",
":  c #084563",
">  c #0A436A",
",  c #084B6B",
"<  c #054166",
"1  c #0D4374",
"2  c #074971",
"3  c #0A4F72",
"4  c #0B4B7A",
"5  c #064374",
"6  c #154674",
"7  c #194C7B",
"8  c #144A78",
"9  c #095275",
"0  c #0A547A",
"q  c #0A587E",
"w  c #13537A",
"e  c #1A537E",
"r  c #14597C",
"t  c #1A5C7E",
"y  c #204F7F",
"u  c #575B60",
"i  c #5B5F63",
"p  c #5C6063",
"a  c #636568",
"s  c #696A6B",
"d  c #616467",
"f  c #0A5C84",
"g  c #0A5F88",
"h  c #1E5C80",
"j  c #265682",
"k  c #2D5B86",
"l  c #2F5D88",
"z  c #235F81",
"x  c #325D87",
"c  c #0B6089",
"v  c #1D6080",
"b  c #246382",
"n  c #2A6586",
"m  c #2C6887",
"M  c #2E6788",
"N  c #2E6A88",
"B  c #35628A",
"V  c #3C658F",
"C  c #336C8A",
"Z  c #3A6F8E",
"A  c #37708B",
"S  c #3B728D",
"D  c #3E6790",
"F  c #3F6991",
"G  c #3E7490",
"H  c #426A93",
"J  c #486F96",
"K  c #437293",
"L  c #4B7197",
"P  c #447995",
"I  c #4C7398",
"U  c #477F9B",
"Y  c #4F7E98",
"T  c #4A7B96",
"R  c #51759B",
"E  c #557A9D",
"W  c #5C7EA0",
"Q  c #59839F",
"!  c #54829B",
"~  c #4C85A2",
"^  c #5D80A2",
"/  c #528CAA",
"(  c #5F8CA5",
")  c #5690AE",
"_  c #5A93AF",
"`  c #6385A5",
"'  c #678BA8",
"]  c #6D8CAB",
"[  c #6F91AC",
"{  c #6693AB",
"}  c #7290AE",
"|  c #6C9AB2",
" . c #7895B1",
".. c #7C99B4",
"X. c #73A2BA",
"o. c #78A6BD",
"O. c #85898C",
"+. c #8A8C8E",
"@. c #969FA8",
"#. c #819CB7",
"$. c #859FB8",
"%. c #9AA2AA",
"&. c #83A0B7",
"*. c #8CA4BC",
"=. c #8DA9BD",
"-. c #A0A7AE",
";. c #A1A8AF",
":. c #A7ADB3",
">. c #A5AEB8",
",. c #AAAFB5",
"<. c #ADB1B6",
"1. c #ACB3BA",
"2. c #B2B6BB",
"3. c #B4B9BD",
"4. c #B9BBBE",
"5. c #93A9C1",
"6. c #99AFC4",
"7. c #97B1C4",
"8. c #9CB7CA",
"9. c #A3B6CA",
"0. c #A4B9CB",
"q. c #AABCCE",
"w. c #B6BBC2",
"e. c #BBBEC0",
"r. c #ADBED0",
"t. c #BCC1C6",
"y. c #ADC0D1",
"u. c #A6C3D3",
"i. c #B4C4D4",
"p. c #B8C7D6",
"a. c #BAC8D7",
"s. c #B3CAD8",
"d. c #BCCBD9",
"f. c #BED2DE",
"g. c #C0C4C8",
"h. c #CACCCD",
"j. c #C0CAD5",
"k. c #C1CDDB",
"l. c #C6D1DD",
"z. c #C8D1DA",
"x. c #C4D7E1",
"c. c #CAD5E1",
"v. c #CED9E4",
"b. c #D3DCE6",
"n. c #D5DEE8",
"m. c #D8DEE3",
"M. c #D7E0E9",
"N. c #DCE3EB",
"B. c #DDE2E6",
"V. c #E0E7EE",
"C. c #E2E8EF",
"Z. c #EBECEE",
"A. c #E5EBF1",
"S. c #E9EEF3",
"D. c #EDF1F6",
"F. c #EDF3F9",
"G. c #F0F3F7",
"H. c #F1F4F8",
"J. c #F3F5F8",
"K. c #F2F5F8",
"L. c #F2F6F9",
"P. c #F4F6F9",
"I. c #F5F6F9",
"U. c #F4F6F9",
"Y. c #F1F6FA",
"T. c #F6F8FA",
"R. c #F5F8FB",
"E. c #F5F9FC",
"W. c #F3F9FF",
"Q. c #F8F9FB",
"!. c #F8FAFB",
"~. c #FAFBFC",
"^. c #F8FBFE",
"/. c #F9FAFC",
"(. c #FAFDFF",
"). c #FAFCFE",
"_. c #FAFEFF",
"`. c #FAFCFD",
"'. c #FDFFFF",
"]. c #FDFFFF",
"[. c #FEFFFF",
"{. c #FCFDFE",
/* pixels */
"                                                                ",
"                                                                ",
"                                                                ",
"                                                                ",
"                                                                ",
"                                                                ",
"                                                                ",
"                                                                ",
"                                                                ",
"                                                                ",
"                                                                ",
"                                                                ",
"                                                                ",
"                                                                ",
"                                                                ",
"                                                                ",
"s.x.A.U.U.J.J.J.J.J.J.J.J.J.J.J.J.J.J.J.U.U.U.U.U.U.U.A.x.8.X._ ",
"f.v.A.U.U.U.U.U.U.J.J.J.G.G.G.G.G.G.G.G.G.G.D.D.D.G.G.A.v.u.X._ ",
"M.N.D.U.U.U.!.!.R.U.J.G.D.D.D.D.D.D.S.S.S.S.A.A.A.A.A.A.N.d.o.) ",
"N.C.S.G.G.J.R.!.!.R.U.G.G.D.D.D.D.D.S.S.A.A.C.C.V.V.V.V.C.f.o./ ",
"n.N.C.S.S.D.G.U.^.^.!.R.U.U.U.J.J.G.D.D.S.A.C.C.V.V.V.N.N.s.X./ ",
"c.b.N.A.A.A.S.G.!.'.^.^.!.^.).).^.E.J.D.S.S.C.C.V.V.N.N.b.y.| ~ ",
"d.l.N.C.C.A.A.D.U.^.'.'.^.).'.'.'.).R.G.D.S.C.V.V.V.N.N.c.0.{ U ",
"i.d.n.C.V.V.C.S.G.R.^.'.'.Z.h.4.4.h.C.U.D.S.C.N.N.N.N.n.k.7.( P ",
"0.p.b.N.N.N.N.A.D.J.R.'.'.h.s + + s h.E.J.S.N.N.N.N.N.b.p.=.Q G ",
"6.q.v.N.N.N.N.V.S.J.U.).'.4.# . . # 4.^.J.A.N.N.n.N.N.b.r.&.! S ",
"*.9.c.N.M.n.n.N.A.D.J.^.).4.# . . # 4.^.J.A.N.n.n.M.N.c.0. .Y S ",
"#.6.l.N.n.b.b.N.A.J.R.).'.e.$ . . $ e.).W.S.N.n.b.n.N.c.6.[ T A ",
" .5.l.N.b.v.b.N.S.J.E.).'.e.$ . . $ e.).W.S.N.n.v.b.N.l.5.' P C ",
"] *.k.N.b.c.v.z.w.2.2.4.e.+.o . . o +.4.3.,.;.1.j.b.N.k.*.` K C ",
"` $.d.N.v.v.b.1.p + # $ $ o X . . X o $ $ + + u >.n.N.k.$.Q G C ",
"W ..a.N.v.v.n.%.O . . . . . . . . . . . . . . O @.n.N.d...E S N ",
"E  .a.N.v.v.n.%.O . . . . . . . . . . . . . . O @.n.N.a. .I C m ",
"I } a.N.b.v.b.1.i + # $ $ o X . . X o $ # + + u >.n.N.a.} K C n ",
"H ] p.N.b.v.v.k.w.<.<.2.3.O.o . . o O.3.<.:.-.1.j.b.N.a.] F M n ",
"V ` p.N.n.v.b.n.A.D.F.Y.W.3.$ . . $ 3.Y.F.A.N.n.b.n.N.p.' B n b ",
"B ` i.N.n.b.b.n.A.S.D.F.Y.3.$ . . $ 2.F.F.A.N.n.n.N.N.i.` B b b ",
"k W i.N.N.n.n.n.N.A.A.D.F.<.# . . # <.F.S.V.N.n.n.N.N.i.W k z b ",
"j E r.N.N.N.M.N.N.C.A.S.D.<.+ . . + 2.F.F.A.N.n.N.N.N.i.E j h v ",
"y R r.N.N.N.N.N.N.C.C.A.S.t.d + + a t.J.F.S.N.N.N.V.V.i.R e t t ",
"7 L q.N.N.N.N.N.N.V.C.A.A.m.t.<.<.t.B.D.G.D.A.C.V.V.C.i.I 7 e t ",
"6 J q.C.V.N.N.V.C.C.A.A.A.S.D.F.F.F.D.D.J.J.D.S.A.S.S.i.L 8 w r ",
"1 H q.A.C.V.V.C.C.A.A.A.A.S.D.D.D.D.D.D.J.J.J.J.D.G.G.a.J 1 w r ",
"1 B #.q.q.q.q.q.q.q.r.r.r.r.r.r.y.y.i.i.p.p.p.p.p.p.p.*.B 1 9 r ",
"4 e l V V V V V V V V V V V V V V F F F F F H H F F H x 6 > 3 w ",
"0 4 5 - * * * * * * * * * * * * * * * * * * * * * * * * = > 3 0 ",
"f f 0 2 < & % % % % % % % % % % % % % % % % % % % % % % & : 9 0 ",
"c g f 0 , : ; & & & & & & & & & & & & & & & & & & & & ; : , 0 q ",
"g g f q 9 3 , , , , , , , , , , , , , , , , , , , , , , 3 9 q f ",
"g g g f q 0 9 9 9 9 9 9 9 9 9 9 9 9 9 9 9 9 9 9 9 9 9 9 0 q f f ",
"                                                                ",
"                                                                ",
"                                                                ",
"                                                                ",
"                                                                ",
"                                                                ",
"                                                                ",
"                                                                "
};
