/* XPM */
static char *bottom_left_inactive[] = {
/* columns rows colors chars-per-pixel */
"50 50 77 1 ",
"  c None",
". c #000000",
"X c #0B0C0B",
"o c #1B1C1B",
"O c #1C1C1C",
"+ c #212221",
"@ c #242424",
"# c #252525",
"$ c #2C2C2C",
"% c #2D2E2D",
"& c #2E2E2E",
"* c #303030",
"= c #303130",
"- c #353535",
"; c #3B3B3B",
": c #3D3D3D",
"> c #575757",
", c #595A59",
"< c #595B59",
"1 c #5A5C5A",
"2 c #6B6C6B",
"3 c #737373",
"4 c #8C8D8C",
"5 c #909190",
"6 c #909290",
"7 c #919391",
"8 c #929391",
"9 c #929491",
"0 c #989998",
"q c #989999",
"w c #999999",
"e c #999A99",
"r c #9A9B99",
"t c #A7A8A7",
"y c #A7A9A7",
"u c #B9B9B9",
"i c #B9BAB9",
"p c #B9BBB9",
"a c #BABBBA",
"s c #BABCBA",
"d c #BBBCBA",
"f c #BBBDBA",
"g c #BCBEBA",
"h c #C0C0C0",
"j c #C0C1C0",
"k c #C1C1C1",
"l c #CBCCCB",
"z c #CBCDCB",
"x c #CCCDCB",
"c c #CCCECB",
"v c #CDCECB",
"b c #CDCFCB",
"n c #CCCDCC",
"m c #CDCECD",
"M c #CECFCD",
"N c #CECFCE",
"B c #CED0CD",
"V c #CFD1CD",
"C c #CED0CE",
"Z c #CFD1CE",
"A c #CFD0CF",
"S c #CFD1CF",
"D c #D0D2CE",
"F c #D0D2CF",
"G c #D1D2CF",
"H c #D0D1D0",
"J c #D1D2D1",
"K c #D1D3D1",
"L c #D2D4D1",
"P c #DCDDDC",
"I c #DDDFDC",
"U c #DDDEDD",
"Y c #DEDFDE",
"T c #EDEEED",
"R c #F9F9F9",
"E c #F9FAF9",
"W c #FAFAFA",
/* pixels */
".:hRPllAJw*.                                      ",
".:hRPllAJw*.                                      ",
".:hRPllAJw*.                                      ",
".:hRPllAJw*.                                      ",
".:hRPllAJw*.                                      ",
".:hRPllAJw*.                                      ",
".:hRPllAJw*.                                      ",
".:hRPllAJw*.                                      ",
".:hRPllAJw*.                                      ",
".:hRPllAJw*.                                      ",
".:hRPllAJw*.                                      ",
".:hRPllAJw*.                                      ",
".:hRPllAJw*.                                      ",
".:hRPllAJw*.                                      ",
".:hRPllAJw*.                                      ",
".:hRPlxAJw*.                                      ",
".:hRPxxFJw*.                                      ",
".:hRPxxFJw*.                                      ",
".:hRPxxFJw*.                                      ",
".:hRPlxFJw*.                                      ",
".:hRPlxAJw*.                                      ",
".:hRPllAJw*.                                      ",
".:hRPllAJw*.                                      ",
".:hRPllAJw*.                                      ",
".:hRPllAJw*.                                      ",
".:hRPllAJw*.                                      ",
".:hRPllAJw*.                                      ",
".:hRPllAJw*.                                      ",
".:hRPllAJw*.                                      ",
".:hRPllAJw*.                                      ",
".:hRPllALw*.                                      ",
".:hRPllALw*.                                      ",
".:hRPllAJw*.                                      ",
".:hRPllAJw*.                                      ",
".:hRPllAJw*.                                      ",
".:hRPllAJw*.                                      ",
".:hRPllAJw*.                                      ",
".:hRPllAJw&.                                      ",
".:hRPllAJw&.......................................",
".:hRPllNJt>&&*************************************",
".:hRPxlNNhtwwwwwwwwwwwwwwwwwwwwwwwwwwwwwwwwwwwwwww",
".:hRPxlNNNAJJJJJLLJJJJJJJJJJJJJJJJJJJJJJJJJJJJJJJJ",
".:hRPllNNNNAAAAAAAAAAAAAAAAAAAAAAAAAAAAAAAAAFFAAAA",
".:hRPNNNNNNNNNNNNNNNNNNNNNNNNNNNNNNNNNNNNNNAAANNNN",
".:hRPNNNNNNNNNNNNNNNNNNNNNNNNNNNNNNNNNNNNNAFFAANNN",
".;aTNaaassssaaaassssssssasaassssasaasssssssggsssss",
".-yJy777777777777777777777777777777777777799997777",
".#342111111111111111111111111111111111111111111111",
".X#&+oOOOOOOOOOOOOOOOOOOOOOOOOOOOOOOOOOOOOOOOOOOOO",
".................................................."
};
