/* XPM */
static char *maximize_pressed[] = {
/* columns rows colors chars-per-pixel */
"32 32 82 1 ",
"  c black",
". c #020202",
"X c #070707",
"o c #1D1D1D",
"O c #212121",
"+ c #222222",
"@ c #2B2B2B",
"# c #2C2C2C",
"$ c #2D2D2D",
"% c #2E2E2E",
"& c #2F2F2F",
"* c #303030",
"= c #313131",
"- c #323232",
"; c #555555",
": c #575757",
"> c #595959",
", c #6F6F6F",
"< c #727272",
"1 c #7A7A7A",
"2 c #7B7B7B",
"3 c #7C7C7C",
"4 c #7D7D7D",
"5 c #7E7E7E",
"6 c #7F7F7F",
"7 c #868686",
"8 c #888888",
"9 c #8E8E8E",
"0 c #909090",
"q c #919191",
"w c #929292",
"e c #939393",
"r c #969696",
"t c #979797",
"y c #989898",
"u c #999999",
"i c #9A9A9A",
"p c #9B9B9B",
"a c #9C9C9C",
"s c #9D9D9D",
"d c #9E9E9E",
"f c #A1A1A1",
"g c #A4A4A4",
"h c #A5A5A5",
"j c #A7A7A7",
"k c #A8A8A8",
"l c #AAAAAA",
"z c #ADADAD",
"x c #B7B7B7",
"c c #B8B8B8",
"v c #BABABA",
"b c #BCBCBC",
"n c #BEBEBE",
"m c #C1C1C1",
"M c #C2C2C2",
"N c #C4C4C4",
"B c #C7C7C7",
"V c #C8C8C8",
"C c #CBCBCB",
"Z c gray80",
"A c #CDCDCD",
"S c #CFCFCF",
"D c #D1D1D1",
"F c #D2D2D2",
"G c #D4D4D4",
"H c #D6D6D6",
"J c #DADADA",
"K c #DDDDDD",
"L c #DFDFDF",
"P c #E0E0E0",
"I c #E1E1E1",
"U c #E4E4E4",
"Y c #E5E5E5",
"T c #E6E6E6",
"R c #E8E8E8",
"E c #EFEFEF",
"W c #F4F4F4",
"Q c #F6F6F6",
"! c #F8F8F8",
"~ c #F9F9F9",
"^ c #FBFBFB",
"/ c #FFFFFF",
/* pixels */
"66622222222222226222222222222ecS",
"67rddddddddddddddddddddddddyrhBJ",
"6rBIIIIIIIIIIIIIIIIIIIIIIIIGMCYQ",
"2dI/~Q~~~~~~~~~~~~~~~~~~~~~YCCE/",
"2dI~YJKKKKKKKKKKKKKKKKKKKKKCfzY/",
"2dIQJnhyyyyyyyyyyyyyyyyyyhMx9dK/",
"2dI~Kh;$$**************$$;kcedK/",
"2dI~Ky$                  $dnedK/",
"2dI~Ky$                  *dnedK/",
"2dI~Ky*                  *dnedK/",
"2dI~Ky*                  *dnedI/",
"2dI~Ky$X+**************+X*dnedI/",
"2dI~Ky$+<ddyyyyyyyyyydd<+$ynedI/",
"2dI~Kr$$yGGDDDDDDDDDDGGy$$ynedI/",
"2dI~Kr$$yGDSSSSSSSSSSDGy$$ynedK/",
"2dI~Kr$$yDSSSSSSSSSSSSDy$$ynedK/",
"2dI~Kr$$yDSSSSCCCCSSSSDr$$ynedK/",
"2dI~Kr$$yDSSSSCCCCSSSSDr$$ynedK/",
"2dI~Kr$$yDSSSSSCCCSSCSDr$$ynedI/",
"2dI~Kr$$yDSSSSSCCCSSCSDr$$ynedI/",
"2dI~Kr@$yDSSSSSSSSSSSSDy$$ynedK/",
"2dI~Kr@$yGDSSSSSSSSSSDGy$$ynedK/",
"2dI~Kr$$yGGDDDDDDDDDDGGy$$ynedK/",
"2dI~Kr@o,yyyyyyyyyyyyyy,o$ynedK/",
"2dI~Kr@ o$$$$$$$$$$$$$$o $ynedI/",
"2dI~Kh;$$$$$$$$$$$$$$$$$$>knedI/",
"2dI~KMkyyyyyyyyyyyyyyyyyykBcedI/",
"2yGYBxcnnnnnnnnnnnnnnnnnnnch8dK/",
"2eMBf9eeeeeeeeeeeeeeeeeeeee86dK/",
"ehBCzddddddddddddddddddddddddxR/",
"cBYEYKKIIIIIKKKKIIIKKIIIIIIIIR~/",
"SJQ/////////////////////////////"
};
