/* XPM */
static char *top_left_inactive[] = {
/* columns rows colors chars-per-pixel */
"14 44 6 1 ",
"  c None",
". c black",
"X c #567B9C s inactive_mid_1",
"o c #4B58A2 s inactive_shadow_1",
"O c #4C7BA6 s inactive_color_1",
"+ c white",
/* pixels */
"        ......",
"        ......",
"    ..........",
"    ..........",
"  ......oo++++",
"  ......oo++++",
"  ....XX++OOOO",
"  ....XX++OOOO",
"....ooOOOOOOOO",
"....ooOOOOOOOO",
"....XXOOOOOOOO",
"....XXOOOOOOOO",
"....OOOOOOOOOO",
"....OOOOOOOOOO",
"....OOOOOOOOOO",
"....OOOOOOOOOO",
"....OOOOOOOOOO",
"....OOOOOOOOOO",
"....OOOOOOOOOO",
"....OOOOOOOOOO",
"....OOOOOOOOOO",
"....OOOOOOOOOO",
"....OOOOOOOOOO",
"....OOOOOOOOOO",
"....OOOOOOOOOO",
"....OOOOOOOOOO",
"....OOOOOOOOOO",
"....OOOOOOOOOO",
"....OOOOOOOOOO",
"....OOOOOOOOOO",
"....OOOOOOOOOO",
"....OOOOOOOOOO",
"....OOOOOOOOOO",
"....OOOOOOOOOO",
"....OOOOOOOOOO",
"....OOOOOOOOOO",
"....OOOOOOOOOO",
"....OOOOOOOOOO",
"....OOOOOOOOOO",
"....OOOOOOOOOO",
"....OOOOOOOOOO",
"....OOOOOOOOOO",
"....XXXXXXXXXX",
"....XXXXXXXXXX"
};
