/* XPM */
static char *close_inactive[] = {
/* columns rows colors chars-per-pixel */
"60 66 3 1 ",
"  c None",
". c #FF9F7F",
"X c white",
/* pixels */
"                                                            ",
"                                                            ",
"                                                            ",
"                                                            ",
"                                                            ",
"                                                            ",
"      XXXXXXXXXXXXXXXXXXXXXXXXXXXXXXXXXXXXXXXXXXXXXXXX      ",
"      XXXXXXXXXXXXXXXXXXXXXXXXXXXXXXXXXXXXXXXXXXXXXXXX      ",
"      XXXXXXXXXXXXXXXXXXXXXXXXXXXXXXXXXXXXXXXXXXXXXXXX      ",
"   XXX................................................XXX   ",
"   XXX................................................XXX   ",
"   XXX................................................XXX   ",
"XXX......................................................XXX",
"XXX......................................................XXX",
"XXX......................................................XXX",
"XXX......................................................XXX",
"XXX......................................................XXX",
"XXX......................................................XXX",
"XXX......................................................XXX",
"XXX......................................................XXX",
"XXX......................................................XXX",
"XXX............XXXXXX..................XXXXXX............XXX",
"XXX............XXXXXX..................XXXXXX............XXX",
"XXX............XXXXXX..................XXXXXX............XXX",
"XXX............XXXXXXXXX............XXXXXXXXX............XXX",
"XXX............XXXXXXXXX............XXXXXXXXX............XXX",
"XXX............XXXXXXXXX............XXXXXXXXX............XXX",
"XXX...............XXXXXXXXX......XXXXXXXXX...............XXX",
"XXX...............XXXXXXXXX......XXXXXXXXX...............XXX",
"XXX...............XXXXXXXXX......XXXXXXXXX...............XXX",
"XXX..................XXXXXXXXXXXXXXXXXX..................XXX",
"XXX..................XXXXXXXXXXXXXXXXXX..................XXX",
"XXX..................XXXXXXXXXXXXXXXXXX..................XXX",
"XXX.....................XXXXXXXXXXXX.....................XXX",
"XXX.....................XXXXXXXXXXXX.....................XXX",
"XXX.....................XXXXXXXXXXXX.....................XXX",
"XXX.....................XXXXXXXXXXXX.....................XXX",
"XXX.....................XXXXXXXXXXXX.....................XXX",
"XXX.....................XXXXXXXXXXXX.....................XXX",
"XXX..................XXXXXXXXXXXXXXXXXX..................XXX",
"XXX..................XXXXXXXXXXXXXXXXXX..................XXX",
"XXX..................XXXXXXXXXXXXXXXXXX..................XXX",
"XXX...............XXXXXXXXX......XXXXXXXXX...............XXX",
"XXX...............XXXXXXXXX......XXXXXXXXX...............XXX",
"XXX...............XXXXXXXXX......XXXXXXXXX...............XXX",
"XXX............XXXXXXXXX............XXXXXXXXX............XXX",
"XXX............XXXXXXXXX............XXXXXXXXX............XXX",
"XXX............XXXXXXXXX............XXXXXXXXX............XXX",
"XXX............XXXXXX..................XXXXXX............XXX",
"XXX............XXXXXX..................XXXXXX............XXX",
"XXX............XXXXXX..................XXXXXX............XXX",
"XXX......................................................XXX",
"XXX......................................................XXX",
"XXX......................................................XXX",
"XXX......................................................XXX",
"XXX......................................................XXX",
"XXX......................................................XXX",
"XXX......................................................XXX",
"XXX......................................................XXX",
"XXX......................................................XXX",
"   XXX................................................XXX   ",
"   XXX................................................XXX   ",
"   XXX................................................XXX   ",
"      XXXXXXXXXXXXXXXXXXXXXXXXXXXXXXXXXXXXXXXXXXXXXXXX      ",
"      XXXXXXXXXXXXXXXXXXXXXXXXXXXXXXXXXXXXXXXXXXXXXXXX      ",
"      XXXXXXXXXXXXXXXXXXXXXXXXXXXXXXXXXXXXXXXXXXXXXXXX      "
};
