/* XPM */
static char *maximize_toggled_inactive[] = {
/* columns rows colors chars-per-pixel */
"24 24 6 1 ",
"  c None",
". c black",
"X c #949594 s inactive_shadow_2",
"o c #B4BAB4 s inactive_mid_2",
"O c #D5D6D5 s inactive_color_2",
"+ c white",
/* pixels */
"                        ",
"+++++++++++++++++++++++O",
"+++++++++++++++++++++++O",
"+OOOOOOOOOOOOOOOOOOOOOOX",
"+OOOOOOOOOOOOOOOOOOOOOOX",
"+OOOO..........OOOOOOOOX",
"+OOOO..........OOOOOOOOX",
"+OOOO..........OOOOOOOOX",
"+OOOO..........OOOOOOOOX",
"+OOOO.OOOOOOOO.....OOOOX",
"+OOOO.OOOOOOOO.....OOOOX",
"+OOOO.OOOOOOOO.....OOOOX",
"+OOOO.OOOOOOOO.....OOOOX",
"+OOOO.OOOOOOOO.OOO.OOOOX",
"+OOOO..........OOO.OOOOX",
"+OOOOOOOO.OOOOOOOO.OOOOX",
"+OOOOOOOO.OOOOOOOO.OOOOX",
"+OOOOOOOO.OOOOOOOO.OOOOX",
"+OOOOOOOO..........OOOOX",
"+OOOOOOOOOOOOOOOOOOOOOOX",
"+ooooooooooooooooooooooX",
"XXXXXXXXXXXXXXXXXXXXXXXX",
"XXXXXXXXXXXXXXXXXXXXXXXX",
"                        "
};
