/* XPM */
static char *bottom_inactive[] = {
/* columns rows colors chars-per-pixel */
"29 11 4 1 ",
"  c black",
". c gray56",
"X c gray75",
"o c #FFFFFF s inactive_hilight_2",
/* pixels */
"                             ",
"                             ",
"ooooooooooooooooooooooooooooo",
"XXXXXXXXXXXXXXXXXXXXXXXXXXXXX",
"XXXXXXXXXXXXXXXXXXXXXXXXXXXXX",
"XXXXXXXXXXXXXXXXXXXXXXXXXXXXX",
"XXXXXXXXXXXXXXXXXXXXXXXXXXXXX",
"XXXXXXXXXXXXXXXXXXXXXXXXXXXXX",
".............................",
"                             ",
"                             "
};
