/* XPM */
static char *stick_pressed[] = {
/* columns rows colors chars-per-pixel */
"32 40 3 1 ",
"  c None",
". c #10105A s active_shadow_1",
"X c #00009C s active_color_1",
/* pixels */
"                                ",
"                                ",
"XXXXXXXXXXXXXXXXXXXXXXXXXXXXXXXX",
"XXXXXXXXXXXXXXXXXXXXXXXXXXXXXXXX",
"XXXXXXXXXXXXXXXXXXXXXXXXXXXXXXXX",
"XXXXXXXXXXXXXXXXXXXXXXXXXXXXXXXX",
"XXXXXXXXXXXXXXXXXXXXXXXXXXXXXXXX",
"XXXXXXXXXXXXXXXXXXXXXXXXXXXXXXXX",
"XXXXXXXXXXXXXXXXXXXXXXXXXXXXXXXX",
"XXXXXXXXXXXXXXXXXXXXXXXXXXXXXXXX",
"XXXXXXXXXXXXXXXXXXXXXXXXXXXXXXXX",
"XXXXXXXXXXXXXXXXXXXXXXXXXXXXXXXX",
"XXXXXXXXXXXXXXXXXX..XXXXXX..XXXX",
"XXXXXXXXXXXXXXXXXX..XXXXXX..XXXX",
"XXXXXXXXXXXXXXXXXX..........XXXX",
"XXXXXXXXXXXXXXXXXX..........XXXX",
"XXXXXX......................XXXX",
"XXXXXX......................XXXX",
"XXXX........................XXXX",
"XXXX........................XXXX",
"XXXXXX......................XXXX",
"XXXXXX......................XXXX",
"XXXXXXXXXXXXXXXXXX..........XXXX",
"XXXXXXXXXXXXXXXXXX..........XXXX",
"XXXXXXXXXXXXXXXXXX..XXXXXX..XXXX",
"XXXXXXXXXXXXXXXXXX..XXXXXX..XXXX",
"XXXXXXXXXXXXXXXXXXXXXXXXXXXXXXXX",
"XXXXXXXXXXXXXXXXXXXXXXXXXXXXXXXX",
"XXXXXXXXXXXXXXXXXXXXXXXXXXXXXXXX",
"XXXXXXXXXXXXXXXXXXXXXXXXXXXXXXXX",
"XXXXXXXXXXXXXXXXXXXXXXXXXXXXXXXX",
"XXXXXXXXXXXXXXXXXXXXXXXXXXXXXXXX",
"XXXXXXXXXXXXXXXXXXXXXXXXXXXXXXXX",
"XXXXXXXXXXXXXXXXXXXXXXXXXXXXXXXX",
"                                ",
"                                ",
"                                ",
"                                ",
"                                ",
"                                "
};
