/* XPM */
static char *top_right_active[] = {
/* columns rows colors chars-per-pixel */
"9 29 14 1 ",
"  c black",
". c #6C6C6C",
"X c #B4B4B4",
"o c #C6C6C6",
"O c #C8C8C8",
"+ c gray81",
"@ c gray82",
"# c gray83",
"$ c #D8D8D8",
"% c gainsboro",
"& c #E1E1E1",
"* c gray90",
"= c gray91",
"- c #FFFFFF",
/* pixels */
"         ",
"         ",
"         ",
"-----.   ",
"ooooX.   ",
"OOOOX.   ",
"OOOOX.   ",
"OOOOX.   ",
"++++X.   ",
"++++X.   ",
"@@@@X.   ",
"####X.   ",
"####X.   ",
"####X.   ",
"$$$$X.   ",
"$$$$X.   ",
"%%%%X.   ",
"%%%%X.   ",
"%%%%X.   ",
"&&&&X.   ",
"&&&&X.   ",
"****X.   ",
"****X.   ",
"====X.   ",
"====X.   ",
"----X.   ",
"XXXXX.   ",
"XXXXX.   ",
"         "
};
