/* XPM */
static char *top_right_inactive[] = {
/* columns rows colors chars-per-pixel */
"16 48 67 1 ",
"  c None",
". c #3C5367",
"X c #3C5468",
"o c #3D5468",
"O c #3D5569",
"+ c #3D556A",
"@ c #425C73",
"# c #435D74",
"$ c #435D75",
"% c #456078",
"& c #456179",
"* c #48657F",
"= c #486680",
"- c #4A6883",
"; c #4B6A86",
": c #4B6B86",
"> c #4E6F8C",
", c #547898",
"< c #547899",
"1 c #577B9B",
"2 c #53799C",
"3 c #537A9D",
"4 c #567B9C s inactive_mid_1",
"5 c #547B9E",
"6 c #4E7AA3",
"7 c #4F7BA3",
"8 c #4A79A4",
"9 c #4B79A4",
"0 c #4B7AA4",
"q c #4B7AA5",
"w c #4E7BA4",
"e c #4C7BA6 s inactive_color_1",
"r c #4E7DA8",
"t c #527BA0",
"y c #507DA6",
"u c #587EA0",
"i c #5881A7",
"p c #5281AD",
"a c #5382AD",
"s c #5282AE",
"d c #5C85A8",
"f c #5D85A9",
"g c #5E87AC",
"h c #5485B0",
"j c #5585B0",
"k c #5585B1",
"l c #5A8AB5",
"z c #5A8BB6",
"x c #608AAF",
"c c #608BB1",
"v c #628EB5",
"b c #638EB5",
"n c #638FB6",
"m c #6291BB",
"M c #6592BA",
"N c #6091BD",
"B c #6694BD",
"V c #6594BF",
"C c #6795BE",
"Z c #6595C0",
"A c #6897C0",
"S c #6897C1",
"D c #6799C6",
"F c #6799C7",
"G c #679AC7",
"H c #6999C3",
"J c #6A99C4",
/* pixels */
"oooooooo        ",
"-----*&#        ",
"bbbbbg<;@.oo    ",
"DDDDDZcu>*&#    ",
"hhhhhlVAMg<;#o  ",
"00000pNDJZc<&o  ",
"eee00rphhlZg*.  ",
"eeeeee000hDM>@  ",
"eeeeeee00hDAu;#o",
"eeeeeeee0pmVc<&o",
"eeeeeeeeeyixVg=o",
"eeeeeeeee62dJb-o",
"eeeeeeeee62dJb-o",
"eeeeeeeee62dHb-o",
"eeeeeeeee62dHb-o",
"eeeeeeeee62dHb-o",
"eeeeeeeee62dHb-o",
"eeeeeeeee62dHb-o",
"eeeeeeeee62dHb-o",
"eeeeeeeee62dHb-o",
"eeeeeeeee62dHb-o",
"eeeeeeeee62dHb-o",
"eeeeeeeee62dHb-o",
"eeeeeeeee62dHb-o",
"eeeeeeeee62dJb-o",
"eeeeeeeee62dHb-o",
"eeeeeeeee62dHb-o",
"eeeeeeeee62dHb-o",
"eeeeeeeee62dHb-o",
"eeeeeeeee62dHb-o",
"eeeeeeeee62dHb-o",
"eeeeeeeee62dHb-o",
"eeeeeeeee62dHb-o",
"eeeeeeeee62dHb-o",
"eeeeeeeee62dHb-o",
"eeeeeeeee62dHb-o",
"eeeeeeeee62dHb-o",
"eeeeeeeee62dHb-o",
"eeeeeeeee62dHb-o",
"eeeeeeeee62dHb-o",
"eeeeeeeee62dHb-o",
"eeeeeeeee62dHb-o",
"eeeeeeeee62dHb-o",
"eeeeeeeee62dHb-o",
"eeeeeeeee62dHb-o",
"6666666ee62dHb-o",
"5555555te62dHb-o",
"55555555e62dHb-o"
};
