/* XPM */
static char *top_right_inactive[] = {
/* columns rows colors chars-per-pixel */
"48 104 175 2 ",
"   c None",
".  c #325577",
"X  c #30557B",
"o  c #3F5F7F",
"O  c #2B5783",
"+  c #275A8F",
"@  c #28588A",
"#  c #3F5F80",
"$  c #275C93",
"%  c #285F96",
"&  c #3C6084",
"*  c #38618B",
"=  c #2C639A",
"-  c #346393",
";  c #346699",
":  c #33689D",
">  c #396DA1",
",  c #3D70A4",
"<  c #567696",
"1  c #597591",
"2  c #53779B",
"3  c #51789F",
"4  c #4374A7",
"5  c #4F79A4",
"6  c #4D7BAA",
"7  c #517EAC",
"8  c #5581AF",
"9  c #5E84AB",
"0  c #5985B1",
"q  c #6085AB",
"w  c #658AAF",
"e  c #7F93A8",
"r  c #658BB2",
"t  c #6A8EB4",
"y  c #7192B5",
"u  c #7D97B2",
"i  c #7A98B7",
"p  c #7797B8",
"a  c #779ABD",
"s  c #7999BA",
"d  c #7C9EC1",
"f  c #8197AC",
"g  c #8498AC",
"h  c #889BAD",
"j  c #8D9FB2",
"k  c #8EA2B4",
"l  c #83A0BE",
"z  c #96A8B9",
"x  c #9CABBB",
"c  c #80A0C2",
"v  c #8DA7C3",
"b  c #8EA8C3",
"n  c #92ACC6",
"m  c #9AADC0",
"M  c #95AEC8",
"N  c #9DB5CD",
"B  c #A5B4C4",
"V  c #A1B6CB",
"C  c #A6BCD3",
"Z  c #A9BED3",
"A  c #B4C1CE",
"S  c #ACC0D5",
"D  c #B2C3D3",
"F  c #BCC6D2",
"G  c #B7C8DB",
"H  c #BACADA",
"J  c #A6CEF9",
"K  c #ABD2FA",
"L  c #B1D5FC",
"P  c #B6D9FC",
"I  c #B9DBFD",
"U  c #C6CDD6",
"Y  c #C8CFD8",
"T  c #C4D1DD",
"R  c #CCD4DC",
"E  c #D2D7DE",
"W  c #D0D8DF",
"Q  c #C4D2E1",
"!  c #CBD7E4",
"~  c #CDD9E5",
"^  c #CEDBE8",
"/  c #D5DDE4",
"(  c #D8DFE6",
")  c #D5DFEA",
"_  c #C1DFFD",
"`  c #DCE2E7",
"'  c #D7E0E9",
"]  c #DDE4EB",
"[  c #C5E0FC",
"{  c #C9E3FC",
"}  c #D5E4F3",
"|  c #DBE6F2",
" . c #DCE8F4",
".. c #D2E5FA",
"X. c #D5EAFD",
"o. c #DCECFB",
"O. c #E1E7ED",
"+. c #E2E8EF",
"@. c #ECEDEF",
"#. c #E5EBF2",
"$. c #E9EEF3",
"%. c #E1EFFC",
"&. c #EDF1F5",
"*. c #E4F0FC",
"=. c #EBF3FB",
"-. c #F0F3F7",
";. c #F1F2F4",
":. c #F0F4F7",
">. c #F1F4F7",
",. c #F1F5F7",
"<. c #F3F4F6",
"1. c #F2F5F7",
"2. c #F5F6F7",
"3. c #F1F4F7",
"4. c #F1F4F8",
"5. c #F2F5F8",
"6. c #F3F5F8",
"7. c #F2F4F8",
"8. c #F3F6F8",
"9. c #F3F6F9",
"0. c #F1F5FA",
"q. c #F1F6FA",
"w. c #F2F7FA",
"e. c #F3F7FA",
"r. c #F4F6F9",
"t. c #F4F7F9",
"y. c #F5F7F9",
"u. c #F6F7F9",
"i. c #F4F7FA",
"p. c #F5F7FA",
"a. c #F5F7FB",
"s. c #F6F7FA",
"d. c #F3F7FC",
"f. c #F3F6F9",
"g. c #F5F8FB",
"h. c #F6F8FA",
"j. c #F7F8FA",
"k. c #F7F9FA",
"l. c #F6F8FB",
"z. c #F7F8FB",
"x. c #F7F9FB",
"c. c #F6F9FB",
"v. c #F3F8FC",
"b. c #F4F8FC",
"n. c #F5F9FC",
"m. c #F7F9FC",
"M. c #F6F9FC",
"N. c #F6F8FB",
"B. c #F8F9FB",
"V. c #F9F9FB",
"C. c #F8F9FA",
"Z. c #F9FAFB",
"A. c #FAFAFA",
"S. c #F8F9FC",
"D. c #F8FAFC",
"F. c #F9FAFC",
"G. c #F9FBFC",
"H. c #FAFBFC",
"J. c #FBFBFC",
"K. c #FAFBFD",
"L. c #FBFBFD",
"P. c #FAFAFC",
"I. c #FBFCFD",
"U. c #FCFCFD",
"Y. c #FCFDFD",
"T. c #FCFDFE",
"R. c #FDFDFE",
"E. c #FCFCFE",
"W. c #FDFEFE",
"Q. c #FEFEFE",
"!. c #FEFEFF",
"~. c #FEFFFF",
"^. c #FFFFFF",
"/. c #FEFDFE",
"(. c #FCFDFD",
/* pixels */
"^.^.^.^.^.^.^.^.^.^.^.^.                                                                        ",
"^.^.^.^.^.^.^.^.^.^.^.^.                                                                        ",
"^.^.^.^.^.^.^.^.^.^.^.^.                                                                        ",
"^.^.^.^.^.^.^.^.^.^.^.^.                                                                        ",
"^.^.^.^.^.^.^.^.^.^.^.^.^.^.^.^.^.^.^.^.                                                        ",
"^.^.^.^.^.^.^.^.^.^.^.^.^.^.^.^.^.^.^.^.                                                        ",
"^.^.^.^.^.^.^.^.^.^.^.^.^.^.^.^.^.^.^.^.                                                        ",
"^.^.^.^.^.^.^.^.^.^.^.^.^.^.^.^.^.^.^.^.                                                        ",
"^.^.^.^.^.^.^.^.^.^.^.^.^.^.^.^.^.^.^.^.^.^.^.^.^.^.^.^.                                        ",
"^.^.^.^.^.^.^.^.^.^.^.^.^.^.^.^.^.^.^.^.^.^.^.^.^.^.^.^.                                        ",
"^.^.^.^.^.^.^.^.^.^.^.^.^.^.^.^.^.^.^.^.^.^.^.^.^.^.^.^.                                        ",
"^.^.^.^.^.^.^.^.^.^.^.^.^.^.^.^.^.^.^.^.^.^.^.^.^.^.^.^.                                        ",
"^.^.^.^.^.^.^.I.K.K.K.K.K.K.K.I.^.^.^.^.^.^.^.^.^.^.I.V.>.&.@.@.                                ",
"^.^.^.^.^.^.^.K.V.V.k.V.K.K.K.K.^.^.^.^.^.^.^.^.^.^.I.k.>.&.$.@.                                ",
"^.^.^.^.^.^.^.K.K.V.V.V.V.K.K.I.^.^.^.^.^.^.^.^.^.^.^.K.2.-.$.$.                                ",
"^.^.^.^.^.^.^.I.K.K.K.K.K.K.I.^.^.^.^.^.^.^.^.^.^.^.^.^.V.2.&.$.                                ",
"^.^.^.^.^.^.^.^.^.^.^.^.^.^.^.^.^.^.^.^.^.^.^.^.^.^.^.^.^.V.9.$.` E R U                         ",
"^.^.^.^.^.^.^.^.^.^.^.^.^.^.^.^.^.^.^.^.^.^.^.^.^.^.^.^.^.^.u.$.] / R Y                         ",
"^.^.^.^.^.^.^.^.^.^.^.^.^.^.^.^.^.I.K.K.K.K.K.I.^.^.^.^.^.^.k.&.+.( R R                         ",
"^.^.^.^.^.^.^.^.^.^.^.^.^.^.K.K.K.V.k.k.k.k.k.V.I.^.^.^.^.^.K.9.$.O./ R                         ",
"K.K.K.K.I.^.^.^.^.^.^.^.^.K.V.k.k.u.9.9.-.-.9.u.k.K.^.^.^.^.^.K.u.$.] R A x h e                 ",
"K.K.K.K.K.I.^.^.^.^.^.^.K.V.k.u.9.>.-.&.&.&.&.-.9.k.I.^.^.^.^.^.^.>.+.E A x j g                 ",
"V.V.K.K.K.K.^.^.^.^.^.I.V.k.u.9.-.&.&.&.$.$.$.&.-.u.k.K.^.^.^.^.^.V.$./ F B z k                 ",
"V.V.K.K.K.I.^.^.^.^.^.K.V.k.u.9.&.&.&.&.$.$.$.$.&.-.9.k.I.^.^.^.^.K.&.` T A B m                 ",
"V.K.K.I.^.^.^.^.^.^.^.K.V.k.u.9.>.&.&.&.$.$.#.#.$.&.&.9.k.I.^.^.^.^.u.#./ T D V b s r q         ",
"K.K.I.^.^.^.^.^.^.^.^.K.K.k.u.u.9.>.&.&.$.$.#.#.#.$.$.&.u.K.^.^.^.^.V.>.#./ T Z b s w q         ",
"^.^.^.^.^.^.^.^.^.^.^.K.K.V.u.u.9.>.&.&.$.$.#.#.#.#.$.&.>.k.K.^.^.^.^.V.>.#.~ D n p w 9         ",
"^.^.^.^.^.^.^.^.^.^.^.K.K.V.k.u.u.9.&.&.$.$.#.#.+.#.#.$.&.9.k.K.^.^.^.^.K.&.) G n p w 9         ",
"^.^.^.^.^.^.^.^.^.^.^.K.K.V.k.u.u.9.-.&.$.$.#.#.+.+.#.#.$.&.9.k.K.^.^.^.^.9.] H M s w 9         ",
"^.^.^.^.^.^.^.^.^.^.^.K.K.V.k.k.k.u.9.&.&.$.#.#.#.#.#.#.$.&.>.k.K.^.^.^.^.k.#.T N s t w         ",
"^.^.^.^.I.I.^.^.I.I.I.K.K.K.m.k.k.u.9.>.&.&.&.$.$.$.$.$.$.&.>.k.K.^.^.^.^.V.#.! Z v s y         ",
"I.I.I.I.I.I.I.I.I.I.I.K.K.K.m.m.k.k.u.9.>.&.&.&.&.&.&.&.&.>.9.k.K.^.^.^.^.K.&.' H V b l         ",
"I.I.I.I.K.K.K.K.I.I.I.K.K.K.m.m.m.m.k.k.u.u.9.9.9.9.9.9.9.9.k.k.K.^.^.^.^.I.>.+.~ H C M d t 0 7 ",
"K.K.K.K.K.K.K.K.K.K.K.K.K.K.m.m.m.m.m.m.m.m.m.m.v.v.d.d.v.k.m.K.K.I.^.^.^.^.k.&.] ~ H N c t 8 6 ",
"K.K.K.K.m.K.m.K.K.K.K.K.m.m.m.m.m.m.m.m.m.m.m.m.m.v.d.d.9.u.k.K.K.K.^.^.^.^.K.9.&.] Q C c r 8 6 ",
"K.K.K.m.m.m.m.m.K.K.K.K.m.m.m.m.m.m.m.m.k.k.u.u.9.9.9.9.>.>.9.u.k.V.I.^.^.^.^.V.9.#.! Z c r 6 4 ",
"K.K.K.K.K.K.K.K.K.K.K.K.K.K.K.K.m.m.k.k.u.9.>.&.&.&.&.$.$.$.&.&.9.k.V.K.^.^.^.^.k.#.~ Z d 0 4 > ",
"K.K.K.K.K.K.K.K.K.K.K.K.K.K.K.K.m.k.k.u.9.>.&.&.&.$.$.#.#.#.#.$.&.>.u.V.^.^.^.^.K.$.^ Z d 8 , : ",
"K.K.K.K.K.K.K.K.K.K.K.K.K.K.V.V.k.k.u.u.9.-.&.&.$.#.#.#.+.+.#.#.$.&.>.k.K.^.^.^.I.&.) S a 7 > = ",
"K.K.K.K.K.K.K.K.K.K.K.K.K.K.V.k.k.k.u.9.9.&.&.&.#.#.#.+.O.+.#.#.#.$.&.9.V.I.^.^.^.&.) S a 6 : % ",
"K.K.K.K.K.K.K.K.K.K.K.K.K.V.k.k.k.u.u.9.>.-.&.$.#.#.+.+.O.O.+.#.#.$.&.>.k.I.^.^.^.9.) S s 5 ; $ ",
"K.K.K.K.K.K.K.K.K.K.K.K.K.V.k.k.k.u.u.9.>.-.&.$.#.#.#.+.O.O.+.+.#.#.$.&.u.K.^.^.^.9.) Z s 5 - + ",
"K.K.K.K.K.K.K.K.K.K.K.K.V.k.k.k.k.u.u.9.>.-.&.$.#.#.#.+.+.O.O.+.+.#.$.&.u.K.^.^.^.9.) Z i 3 - @ ",
"V.V.V.K.K.K.K.K.K.V.V.V.k.k.k.k.k.u.u.9.>.-.&.$.#.#.#.+.+.O.] O.O.+.#.&.u.K.^.^.^.9.' S u 2 * O ",
"V.V.V.V.k.m.m.k.k.k.k.k.k.k.k.k.k.u.u.9.>.>.&.&.#.#.#.+.O.] ] ] ] O.#.$.9.K.^.^.^.u.` D u < & X ",
"V.V.V.V.m.m.m.k.k.k.k.k.k.k.k.k.k.u.u.9.9.&.&.&.#.#.#.+.+.O.] ] ] O.#.$.9.K.^.^.^.u.` A f 1 o . ",
"K.m.m.m.m.m.m.m.m.k.m.m.k.m.k.k.u.u.u.9.=.=.&.&.#.#.#.#.#.#.#.#.#.#.#.&.u.K.^.^.^.u.` A f 1 o . ",
"d.d.d.d.d.d.d.d.d.d.d.d.d.d.d.9.9.9.9.9.=.=.=.&.$.$.$.$.$.$.$.$.$.$.$.&.k.I.^.^.^.u.` A f 1 o . ",
"=.=.=.=.=.=.=.=.=.=.=.=.=.=.=.=.=.=.=.=.=.=.=.=.=.=.=.=.=.=.=.=.=.=.=.=.m.^.^.^.^.u.` A f 1 o . ",
"=.=.=.=.=.=.=.=.=.=.=.=.=.=.=.=.=.=.=.=.=.=.=.=.=.=.=.=.=.=.=.=.=.=.=.=.m.^.^.^.^.u.` A f 1 o . ",
"=.=.=.=.=.=.=.=.=.=.=.=.=.=.=.=.=.=.=.=.=.=.=.=.=.=.=.=.=.=.=.=.=.=.=.=.m.^.^.^.^.u.` A f 1 o . ",
"=.=.=.=.=.=.=.=.=.=.=.=.=.=.=.=.=.=.=.=.=.=.=.=.=.=.=.=.=.=.=.=.=.=.=.=.m.^.^.^.^.u.` A f 1 o . ",
"d.d.d.d.d.d.d.d.d.d.d.d.d.d.d.9.9.9.9.=.=.=.&.&.$.$.$.$.$.$.$.$.$.$.$.&.k.I.^.^.^.u.` A f 1 o . ",
"m.d.d.d.d.d.u.u.m.m.m.m.m.m.m.u.u.u.9.9.=.=.&.$.#.#.#.#.#.#.#.#.#.#.#.&.u.K.^.^.^.u.` A f 1 o . ",
"k.k.k.k.k.k.k.k.k.k.k.k.k.k.k.k.u.u.u.9.&.&.$.$.#.#.+.O.+.O.] ] ] O.#.$.9.K.^.^.^.u.` A f 1 o . ",
"k.k.k.k.u.u.u.k.k.k.k.k.k.k.k.k.u.u.9.>.&.&.$.$.#.#.+.] O.] ] ] ` ] #.$.9.V.^.^.^.u.` A f 1 o . ",
"u.u.u.u.u.u.u.u.k.k.k.k.k.k.u.u.u.9.>.>.&.&.$.$.#.#.+.O.O.] ] ] ` ] #.$.9.V.^.^.^.u.` A f 1 o . ",
"u.u.u.u.u.u.u.u.u.k.k.k.k.u.u.u.9.9.>.-.&.&.$.$.#.#.+.O.O.] ] ] ] ] #.$.9.K.^.^.^.u.` A f 1 o . ",
"u.u.u.u.u.u.u.u.u.k.k.k.u.u.u.u.9.9.>.-.&.&.$.$.#.+.+.O.O.O.] ] ] ] #.$.9.V.^.^.^.u.` A f 1 o . ",
"u.u.u.u.u.u.u.u.u.u.u.u.u.u.u.u.9.9.>.-.&.&.$.$.#.+.+.O.O.O.] ] ] ] #.$.9.V.^.^.^.u.` A f 1 o . ",
"u.u.u.u.u.9.9.9.9.u.u.u.u.u.u.u.u.9.>.-.&.&.$.#.#.+.O.O.O.] ] ] ] ] #.$.9.V.^.^.^.u.` A f 1 # . ",
"9.9.9.9.9.9.9.9.9.9.9.9.9.9.9.9.9.9.9.=.&.&.$.#.#.+.+.+.+.] ] ] ] ] #.$.9.V.^.^.^.u.` A f 1 # . ",
"=.=.=.=.=.=.=.=.=.=.=.=.=.=.=.=.=.=.=.=.=.=.$.#.#.#.#.#.#.| | ] ] | #.$.9.V.^.^.^.u.` A f 1 # . ",
"=.=.=.=.=.=.=.=.=.=.=.=.=.=.=.=.=.=.=.=.=.*.$.$.#.#.#.#. . . .| |  .#.$.9.K.^.^.^.u.` A f 1 # . ",
"*.*.*.*.*.*.*.*.*.*.*.*.*.*.*.*.*.*.*.*.*.*.%.%.%.o.o.o.o.o.o.o.o.o.%.=.9.K.^.^.^.u.` A f 1 o . ",
"*.*.*.*.*.*.*.%.%.%.%.%.%.%.%.%.%.%.%.%.%.%.%.o.o.o.o.o.o.o.o.o.o.o.%.=.d.K.^.^.^.u.` A f 1 o . ",
"*.*.*.*.%.%.%.%.%.%.%.%.%.%.%.%.%.%.%.%.%.%.o.o.o.o.o.o.o.o.o.o.o.o.%.=.d.K.^.^.^.u.` A f 1 o . ",
"*.*.*.*.*.*.*.*.*.*.*.*.*.*.*.*.*.*.*.*.*.%.%.o.o.o.o.o.o.o.o.o.o.o.%.=.9.K.^.^.^.u.` A f 1 o . ",
"=.=.=.=.=.=.=.=.=.=.=.=.=.=.=.=.=.=.=.=.=.*.$.#.#.#. . .| | | | |  .#.$.9.K.^.^.^.u.` A f 1 o . ",
"=.=.=.=.=.=.=.=.=.=.=.=.=.=.=.=.=.=.=.=.=.=.$.#.#.#.#.| ] ] ] ] ] ] #.$.9.V.^.^.^.u.` A f 1 o . ",
"9.9.9.9.9.9.9.9.9.9.9.9.9.9.9.9.9.=.&.&.&.&.$.#.#.#.+.] ] ] ] ] ] ] +.$.>.V.^.^.^.u.` A f 1 o . ",
"9.9.9.9.9.9.9.9.9.9.9.9.9.9.9.>.9.>.&.&.&.&.$.#.#.+.+.] ] ] ] ] ] ] +.$.>.V.^.^.^.u.` A f 1 o . ",
"9.9.9.9.9.9.9.9.9.9.9.9.9.9.9.9.9.>.&.&.&.&.$.$.#.+.O.] ] ] ] ] ] ] +.$.9.V.^.^.^.u.` A f 1 o . ",
"9.9.9.9.9.9.9.9.9.9.9.9.9.9.9.9.9.>.&.&.&.&.$.$.#.+.O.] ] ] ] ] ] ] #.$.9.V.^.^.^.u.` A f 1 o . ",
"9.9.9.9.9.9.9.9.9.9.9.9.9.9.9.9.9.9.-.&.&.&.$.$.#.+.O.] ] ] ] ] ] ] #.$.9.K.^.^.^.u.` A f 1 o . ",
"9.9.9.9.u.u.9.9.9.9.9.9.u.u.9.9.9.>.>.-.&.&.$.#.#.+.O.] ] ] ] ] ] ] #.$.9.K.^.^.^.u.` A f 1 o . ",
"9.9.9.9.9.9.9.9.>.9.9.9.9.9.9.>.>.>.>.-.&.&.$.$.#.+.+.] ] ] ] ] ] ] +.$.>.V.^.^.^.u.` A f 1 o . ",
"9.9.9.9.9.9.9.9.9.9.9.9.9.9.9.9.9.=.=.=.&.&.$.#.#.#.] ] ] ] ] ] ] ] +.$.>.V.^.^.^.u.` A f 1 o . ",
"=.=.=.=.=.=.=.=.=.=.=.=.=.=.=.=.=.=.=.*.*.%.$.#.#.| | ] ] ] ] ] ] ] #.$.>.V.^.^.^.u.` A f 1 o . ",
"*.*.*.*.*.*.*.*.*.*.*.*.*.*.*.*.*.*.%.o.o.o.%.#. .| } } } } } } } |  .$.9.K.^.^.^.u.` A f 1 o . ",
"o.o.o.o.o.o.o.o.o.o.o.o.o.o.o.o.o.o.o.o.o.o.X.X.X...................o.%.9.K.^.^.^.u.` A f 1 o . ",
"X.X.X.X.X.X.X.X.X.X.X.X.X.X.X.X.X.X.X.X.X.X.X.X...................X.X.%.9.K.^.^.^.u.` A f 1 o . ",
"X.X.X.X.X.X.X.X.X.X.X.X.X.X.X.X.X.X.X.X.X.X.X.X...................X.o.%.d.K.^.^.^.u.` A f 1 o . ",
"o.o.o.o.o.o.o.o.o.o.o.o.o.o.o.o.o.o.o.o.X.X.X.X.X...................o.%.9.K.^.^.^.u.` A f 1 o . ",
"*.*.*.*.*.*.*.*.*.*.*.*.*.*.*.*.%.o.o.o.%.#.#.#. .| } } } } } } | | #.$.9.K.^.^.^.u.` A f 1 o . ",
"=.=.=.=.=.=.=.=.=.=.=.=.=.=.=.=.*.*.*.%.$.#.#.#.#.| | ] ] ] ] ] ` ] +.$.9.V.^.^.^.u.` A f 1 o . ",
"9.9.9.9.9.=.9.9.9.9.9.9.9.9.:.=.&.&.&.&.$.#.#.#.#.+.] ] ] ] ] ] ` ] +.$.>.V.^.^.^.u.` A f 1 o . ",
">.>.>.>.>.>.>.>.>.>.>.>.>.-.-.&.&.&.&.&.$.#.#.#.+.O.] ] ] ] ] ] ] ] O.$.>.V.^.^.^.u.` A f 1 o . ",
"-.-.-.-.-.-.-.-.>.>.>.-.-.-.&.&.&.&.$.$.#.#.#.+.+.O.] ] ] ] ] ] ] ] O.$.>.V.^.^.^.u.` A f 1 o . ",
"&.&.&.&.-.-.&.&.&.&.&.&.&.&.&.&.&.&.$.#.#.#.#.+.O.] ] ] ] ] ] ] ] ] O.$.>.K.^.^.^.u.` A f 1 o . ",
"&.&.&.&.&.&.&.&.&.&.&.&.&.&.&.$.$.$.#.#.#.#.#.+.+.] ] ] ] ] ] ] ] ] O.$.>.K.^.^.^.u.` A f 1 o . ",
"&.&.&.&.&.&.&.&.&.&.&.&.&.&.$.$.$.$.#.#.#.#.+.+.O.] ] ] ] ] ] ] ] ] O.$.>.K.^.^.^.u.` A f 1 o . ",
"$.$.$.$.$.$.$.$.$.$.$.$.$.$.#.#.#.#.#.#.#.#.+.O.] ] ] ] ] ] ] ] ] ] O.$.>.V.^.^.^.u.` A f 1 o . ",
"#.#.#.#.#.#.#.#.#.#.#.#.#.#.#.#.#.#.#.+.#.O.] ] ] ] ] ] ] ] ] ] ] ] +.$.>.V.^.^.^.u.` A f 1 o . ",
"#.#.#.#.#.#.#.#.#.#.#.#.#.#.#.| | | | | | | | ] ] ] ] ] ] ] ] ] ] ] #.$.>.V.^.^.^.u.` A f 1 o . ",
" . . . . . . . . . . . . . . .| | | | } } } } } } } } } } } } } } }  .$.9.K.^.^.^.u.` A f 1 o . ",
"............................................{ { { ............{ { ..X.%.=.m.^.^.^.u.` A f 1 o . ",
"{ { { { { { { { { { { { { { { { { { { { { { { { { { { { { { { { { { ..o.=.m.^.^.^.u.` A f 1 o . ",
"_ _ _ _ _ _ _ _ _ _ _ _ _ _ _ _ _ _ _ _ _ _ _ _ _ _ _ _ _ _ _ _ _ [ { X.*.d.I.^.^.u.` A f 1 o . ",
"I I I I I I I I I I I I I I I I I I I I I I I I I I I I I I I I I I [ ..%.d.I.^.^.u.` A f 1 o . ",
"L L L L L L L L L L L L L L L L L L L L L L L L L L L L L L L L L P I { %.d.I.^.^.u.` A f 1 o . ",
"K K K K K K K K K K K K K K K K K K K K K K K K K K K K K K K K K K I { %.d.I.^.^.u.` A f 1 o . ",
"J J J J J J J J J J J J J J J J J J J J J J J J J J J J J J J J J K P { %.d.I.^.^.u.` A f 1 o . ",
"J J J J J J J J J J J J J J J J J J J J J J J J J J J J J J J J J K P { %.d.I.^.^.u.` A f 1 o . "
};
