/* XPM */
static char *shade_pressed[] = {
/* columns rows colors chars-per-pixel */
"30 30 54 1 ",
"  c #000000",
". c #0D0C0D",
"X c #151515",
"o c #171817",
"O c #181718",
"+ c #1C1D1C",
"@ c #1F201F",
"# c #232323",
"$ c #282628",
"% c #2B2B2B",
"& c #2E312E",
"* c #353435",
"= c #373A37",
"- c #3B3C3B",
"; c #434443",
": c #4B4C4B",
"> c #4F514F",
", c #504F50",
"< c #535453",
"1 c #565856",
"2 c #595759",
"3 c #5D5E5D",
"4 c #5E605E",
"5 c #605E60",
"6 c #636463",
"7 c #646864",
"8 c #686768",
"9 c #6B6C6B",
"0 c #6E716E",
"q c #717771",
"w c #727472",
"e c #747374",
"r c #747674",
"t c #717871",
"y c #777877",
"u c #797779",
"i c #7B7A7B",
"p c #7B7D7B",
"a c #7D7B7D",
"s c #7C7E7C",
"d c #7E807E",
"f c #7F857F",
"g c #808480",
"h c #858385",
"j c #868586",
"k c #868A86",
"l c #878C87",
"z c #888888",
"x c #8A888A",
"c c #8A8D8A",
"v c #8C8B8C",
"b c #8C8E8C",
"n c #8F908F",
"m c #908F90",
/* pixels */
"psdddddddddddddddddddddddddddd",
"sr7333333333333333333333333333",
"d7=+++++++++++++++++++++++++++",
"d3+  .......................  ",
"d3+ O$%**==*====*==========$. ",
"d3+.$-;:,<<<<11<<<<<<<<<111-X ",
"d3+.$;:25677777777777777788:o ",
"d3+.%;1690qqqqqqqqqqtqtqtty1+ ",
"d3+.&:39qpdddddddffffffdffg4+ ",
"d3+.&:6qpgjjkkkkclkkkkkkklz7# ",
"d3+.&:6qsjzzccbbnbccccccccb8# ",
"d3+.&:6qsjzvbjq99qjbbccccbn9# ",
"d3+.&:6qsjzbmr-++-embzzzzbb8# ",
"d3+.&:39ijzje:O  O:ehzzzzzv7# ",
"d3+.%:39ygzq-O    O-qzkjjkz7+ ",
"d3+.%:39ry9:O      O:9sjjjj6+ ",
"d3+.%:39r7=O        O-9jjjj6+ ",
"d3+.%:39u3O          O6jggj6+ ",
"d3+.%;29u3O          O4gddg4+ ",
"d3+.$;19r6=++++++++++=8dddd4+ ",
"d3+.$;17qq733333333337rppdd3+ ",
"d3+.$;<69rpssssssssssssppss3+ ",
"d3+.%;<69rypsassaassssiiiss3+ ",
"d3+.$;<69qqyiiiiiiiiiiiiiia2+ ",
"d3+.$;<390qrrrrrrrrrrrrrryi2+ ",
"d3+.$;<380qqqqqqqqqqqqqqqrr1+ ",
"d3+.$->389000000000000000qq<O ",
"d3+ O%=;::>>>>>>>>>>>>>>><<-X ",
"d4@ ..XOOOOOOOOOOOOOOOOOOOOX  ",
"d4@                           "
};
