/* XPM */
static char *stick_pressed[] = {
/* columns rows colors chars-per-pixel */
"30 30 59 1 ",
"  c #000000",
". c #070807",
"X c #0C0C0C",
"o c #141414",
"O c #171817",
"+ c #181718",
"@ c #1C1D1C",
"# c #1F201F",
"$ c #201F20",
"% c #222222",
"& c #282628",
"* c #2B2B2B",
"= c #2E312E",
"- c #353435",
"; c #373937",
": c #3A3B3A",
"> c #434443",
", c #474A47",
"< c #4B4D4B",
"1 c #4F514F",
"2 c #504F50",
"3 c #535453",
"4 c #565856",
"5 c #595759",
"6 c #5D5E5D",
"7 c #5E615E",
"8 c #605E60",
"9 c #636463",
"0 c #646864",
"q c #686768",
"w c #6B6C6B",
"e c #6E716E",
"r c #707170",
"t c #717771",
"y c #747274",
"u c #747674",
"i c #727972",
"p c #777977",
"a c #787778",
"s c #7A7B7A",
"d c #7B7D7B",
"f c #7C7A7C",
"g c #7C7E7C",
"h c #7E807E",
"j c #7E847E",
"k c #808380",
"l c #808480",
"z c #868686",
"x c #868886",
"c c #878C87",
"v c #888888",
"b c #8B8A8B",
"n c #8B8E8B",
"m c #8C8A8C",
"M c #8C8E8C",
"N c #8F908F",
"B c #908E90",
"V c #919191",
"C c #919491",
/* pixels */
"dghhhhhhhhhhhhhhhhhhhhhhhhhhhh",
"gu0666666666666666666666666666",
"h0;@@@@@@@@@@@@@@@@@@@@@@@@@@@",
"h6@ .XXXXXXXXXXXXXXXXXXXXXXX  ",
"h6@.+&*--;--;;;;-;;;;;;;;;;&X ",
"h6@X&:><2333344433333333444:o ",
"h6@X&><589000000000000000qq<O ",
"h6@X*>49wetttiiitttiiiiiiip4@ ",
"h6@X=<6wtdhhhjlljjjjlljjjjl7@ ",
"h6@X=<9rdkzxxhwwhnnjeehcxcv0% ",
"h6@X=<9rgzvvMe;:rCCr:;eMnnMq% ",
"h6@X=<9rgzvBVw@o<ww<o@qNMMNw% ",
"h6@X=<9rgzmBVw% o%%o @qMMMMq% ",
"h6@X=<6wffwww2+      %qmvvm0% ",
"h6@X*<6wsw:$%+X      %0vxxv0@ ",
"h6@X*<6ws6+          %0zzzz9@ ",
"h6@X*<6ws6+          $9zzzz9@ ",
"h6@X*<6wa0;@@O.      @9zkkz9@ ",
"h6@X*>5wuuq77,o      @7lhhl7@ ",
"h6@X&>40yshll7@ o##o @7hhhh7@ ",
"h6@X&>40epdhk6+o>99>o+6hhhh6@ ",
"h6@X&>39wusdg9--0kk0--0gggg6@ ",
"h6@X*>39wuppsy99yggu99yffgg6@ ",
"h6@X&>39wrtpssffsassssssssf5@ ",
"h6@X&>37wetuuuppuuuuppuuups5@ ",
"h6@X&>36qerttttttttttttttuu4@ ",
"h6@X&:16qweeeeeeeeeeeeeeert3+ ",
"h6@.+*;><211111113331111133:o ",
"h7@ .Xoo+++++++++++++++++++o. ",
"h7#                           "
};
