/* XPM */
static char *bottom_left_active[] = {
/* columns rows colors chars-per-pixel */
"30 30 51 1 ",
"  c None",
". c #000000 s active_border_color",
"X c #040404",
"o c #000A0F",
"O c #141413",
"+ c #151515",
"@ c #181816",
"# c #181817",
"$ c #191917",
"% c #1B1B1A",
"& c #001520",
"* c #001521",
"= c #0A1B24",
"- c #0A1C26",
"; c #001F2E",
": c #082230",
"> c #282828",
", c #00334D",
"< c #023854",
"1 c #003F5F",
"2 c #003F60",
"3 c #134158",
"4 c #13435B",
"5 c #0F4E6E",
"6 c #0C577E",
"7 c #64645E",
"8 c #6A6A6A",
"9 c #777771",
"0 c #797972",
"q c #7C7C75",
"w c #7D7D7D",
"e c #0C5980",
"r c #0A608C",
"t c #00689E",
"y c #00699F",
"u c #006AA0",
"i c #0573AC",
"p c #0574AD",
"a c #0376B1",
"s c #0477B2",
"d c #0279B7",
"f c #0181C3",
"g c #828283",
"h c #898984",
"j c #A7A79F",
"k c #B2B2AB",
"l c #C4C4BE",
"z c #C6C6C5",
"x c #D7D7D3",
"c c #F9F9F8",
"v c #FCFCFB",
/* pixels */
".wcxk9@                       ",
".wcxk9@                       ",
".wcxk9@                       ",
".wcxk9@                       ",
".wcxk9@                       ",
".wcxk9@                       ",
".wcxk9@                       ",
".wcxk9@                       ",
".wcxk9@                       ",
".wcxk9@                       ",
".wcxk9@                       ",
".wcxk9@                       ",
".wcxk9@                       ",
".wcxk9@                       ",
".wcxk9@                       ",
".wcxk9@                       ",
".wcxk9@                       ",
".wcxk9@                       ",
".wcxk9@                       ",
".gvljq@                       ",
".8zh07O                       ",
".+>%@OX                       ",
"........                      ",
".o&&&&&&&&&&&&&&&&&&&&&&&&&&&&",
".,uuyyyyyyyyyyyyyyyyyyyyyyyyyy",
".5fsiiiiiippppppppipppppiiiipp",
".1dr6eeeeeeeeeeeeeeeeeeeeeeeee",
".2a544444444444444444444444444",
".;<:=-------------------------",
".............................."
};
