/* XPM */
static char *bottom_left_inactive[] = {
/* columns rows colors chars-per-pixel */
"30 30 8 1 ",
"  c None",
". c black",
"X c #81817B s inactive_shadow_1",
"o c #919189 s inactive_shadow_2",
"O c #B6B6B1 s inactive_color_1",
"+ c #CCCCC7 s inactive_color_2",
"@ c #EBEBE9 s inactive_hilight_1",
"# c #FFFFFF s inactive_hilight_2",
/* pixels */
"..#++o..                      ",
"..#++o..                      ",
"..#++o..                      ",
"..#++o..                      ",
"..#++o..                      ",
"..#++o..                      ",
"..#++o..                      ",
"..#++o..                      ",
"..#++o..                      ",
"..#++o..                      ",
"..#++o..                      ",
"..#++o..                      ",
"..#++o..                      ",
"..#++o..                      ",
"..#++o..                      ",
"..#++o..                      ",
"..#++o..                      ",
"..#++o..                      ",
"..#++o..                      ",
"..#++o..                      ",
"..#ooo..                      ",
"........                      ",
"........                      ",
"..............................",
"..@@@@@@@@@@@@@@@@@@@@@@@@@@@@",
"..@@@@@@@@@@@@@@@@@@@@@@@@@@@@",
"..@OOOOOOOOOOOOOOOOOOOOOOOOOOO",
"..@XXXXXXXXXXXXXXXXXXXXXXXXXXX",
"..@XXXXXXXXXXXXXXXXXXXXXXXXXXX",
".............................."
};
