/* XPM */
static char *top_right_active[] = {
/* columns rows colors chars-per-pixel */
"8 41 38 1 ",
"  c #000000 s active_border_color",
". c #040C10",
"X c #09171F",
"o c #1E1E1C",
"O c #001A27",
"+ c #091821",
"@ c #0A1B24",
"# c #0A1C25",
"$ c #071E2A",
"% c #3A3A36",
"& c #383838",
"* c #013049",
"= c #003C5B",
"- c #003C5C",
"; c #133B50",
": c #133C51",
"> c #133E55",
", c #134159",
"< c #0F4B6A",
"1 c #0F5173",
"2 c #0D557A",
"3 c #0C587E",
"4 c #50504C",
"5 c #6B6B6B",
"6 c #777776",
"7 c #0A5D87",
"8 c #0B5F8A",
"9 c #09608D",
"0 c #086595",
"q c #0372AB",
"w c #0279B7",
"e c #027AB8",
"r c #838383",
"t c #8C8C8C",
"y c #989891",
"u c #E3E3E0",
"i c #FAFAFA",
"p c white",
/* pixels */
"        ",
"-----=O ",
"wwwweq* ",
"00008<$ ",
"77782:X ",
"88882>+ ",
"88882>+ ",
"88882>+ ",
"88882>+ ",
"88882>+ ",
"88882>+ ",
"88882>+ ",
"88882>+ ",
"88882>+ ",
"88882>+ ",
"88882>+ ",
"88882>+ ",
"88882>+ ",
"88882>+ ",
"88882>+ ",
"88882>+ ",
"88882>+ ",
"88882>+ ",
"88882>+ ",
"88882>+ ",
"88882>+ ",
"88882>+ ",
"88882>+ ",
"88882>+ ",
"88882>+ ",
"88882>+ ",
"88882>+ ",
"88882>+ ",
"88892>+ ",
"33331>+ ",
",,,,,;+ ",
"@@@@#@. ",
"        ",
"        ",
" &rt64o ",
" 5ipuy% "
};
