/* XPM */
static char *right_inactive[] = {
/* columns rows colors chars-per-pixel */
"8 48 6 1 ",
"  c #929393",
". c #949595 s inactive_shadow_2",
"X c #9A9B9B",
"o c #C1C2C2",
"O c #D5D6D5 s inactive_color_2",
"+ c #D7D8D7",
/* pixels */
"OOO+oX .",
"OOO+oX .",
"OOO+oX .",
"OOO+oX .",
"OOO+oX .",
"OOO+oX .",
"OOO+oX .",
"OOO+oX .",
"OOO+oX .",
"OOO+oX .",
"OOO+oX .",
"OOO+oX .",
"OOO+oX .",
"OOO+oX .",
"OOO+oX .",
"OOO+oX .",
"OOO+oX .",
"OOO+oX .",
"OOO+oX .",
"OOO+oX .",
"OOO+oX .",
"OOO+oX .",
"OOO+oX .",
"OOO+oX .",
"OOO+oX .",
"OOO+oX .",
"OOO+oX .",
"OOO+oX .",
"OOO+oX .",
"OOO+oX .",
"OOO+oX .",
"OOO+oX .",
"OOO+oX .",
"OOO+oX .",
"OOO+oX .",
"OOO+oX .",
"OOO+oX .",
"OOO+oX .",
"OOO+oX .",
"OOO+oX .",
"OOO+oX .",
"OOO+oX .",
"OOO+oX .",
"OOO+oX .",
"OOO+oX .",
"OOO+oX .",
"OOO+oX .",
"OOO+oX ."
};
