/* XPM */
static char *stick_pressed[] = {
/* columns rows colors chars-per-pixel */
"26 30 146 2 ",
"   c None",
".  c black",
"X  c #020202",
"o  c #020302",
"O  c #050505",
"+  c #070807",
"@  c #080808",
"#  c #090909",
"$  c #0A0A0A",
"%  c #0B0B0B",
"&  c #0D0D0D",
"*  c #0E0E0E",
"=  c #0F0F0F",
"-  c #0F100F",
";  c #101010",
":  c #101110",
">  c #111111",
",  c #151615",
"<  c #181818",
"1  c #191919",
"2  c #191A19",
"3  c #1A1A1A",
"4  c #1C1D1C",
"5  c #1D1E1D",
"6  c #1E1F1E",
"7  c #1F201F",
"8  c #252625",
"9  c #2B2B2B",
"0  c #2D2D2D",
"q  c #2E2E2E",
"w  c #2F302F",
"e  c #2F312F",
"r  c #323332",
"t  c #3B3B3B",
"y  c #3A3C3A",
"u  c #3B3C3B",
"i  c #404040",
"p  c #404240",
"a  c #434343",
"s  c #444444",
"d  c #444544",
"f  c #464646",
"g  c #484948",
"h  c #494949",
"j  c #4A4A4A",
"k  c #4B4C4B",
"l  c #515151",
"z  c #545554",
"x  c #545754",
"c  c #555655",
"v  c #565956",
"b  c #5A5B5A",
"n  c #5B5E5B",
"m  c #5C5D5C",
"M  c #5D5D5D",
"N  c #5F605F",
"B  c #5F625F",
"V  c #5F635F",
"C  c #616161",
"Z  c #616461",
"A  c #646764",
"S  c #656865",
"D  c #656965",
"F  c #696A69",
"G  c #6C6E6C",
"H  c #6C706C",
"J  c #6E716E",
"K  c #707170",
"L  c #757975",
"P  c #7A7B7A",
"I  c #7B7C7B",
"U  c #7B7F7B",
"Y  c #7D7E7D",
"T  c #7F7F7F",
"R  c #7C807C",
"E  c #7F807F",
"W  c #818681",
"Q  c #828682",
"!  c #838683",
"~  c #848684",
"^  c #8C8E8C",
"/  c #8F938F",
"(  c #909190",
")  c #909390",
"_  c #919291",
"`  c #929292",
"'  c #909590",
"]  c #919591",
"[  c #949594 s active_shadow_2",
"{  c #949994",
"}  c #959A95",
"|  c #989A98",
" . c #999B99",
".. c #999E99",
"X. c #9A9C9A",
"o. c #9A9F9A",
"O. c #9C9D9C",
"+. c #9BA09B",
"@. c #9CA19C",
"#. c #9DA09D",
"$. c #9EA09E",
"%. c #9EA19E",
"&. c #9FA19F",
"*. c #A1A3A1",
"=. c #A1A5A1",
"-. c #A3A6A3",
";. c #A3A7A3",
":. c #A4A7A4",
">. c #A5A9A5",
",. c #A6ABA6",
"<. c #A8ACA8",
"1. c #A9ADA9",
"2. c #A9AFA9",
"3. c #AAAFAA",
"4. c #ABB0AB",
"5. c #ACB0AC",
"6. c #ADB0AD",
"7. c #ADB1AD",
"8. c #ADB2AD",
"9. c #ADB3AD",
"0. c #AEB3AE",
"q. c #AEB4AE",
"w. c #AFB4AF",
"e. c #B0B5B0",
"r. c #B0B6B0",
"t. c #B1B6B1",
"y. c #B1B7B1",
"u. c #B2B6B2",
"i. c #B2B7B2",
"p. c #B2B8B2",
"a. c #B3B8B3",
"s. c #B3B9B3",
"d. c #B4BAB4 s active_mid_2",
"f. c #B4BBB4",
"g. c #B5BBB5",
"h. c #B5BCB5",
"j. c #B6BCB6",
"k. c #B6BDB6",
"l. c #B7BDB7",
"z. c #B7BEB7",
"x. c #B9BFB9",
"c. c #B9C0B9",
"v. c #BAC0BA",
"b. c #BAC1BA",
"n. c #BBC1BB",
"m. c #C0C7C0",
/* pixels */
"                                                    ",
"                                                    ",
"                                                    ",
"                                                    ",
"      `                                     `       ",
"  | | | | | | | | | | | | | | | | | | | | | | | |   ",
"[ -.q.q.q.q.q.q.q.q.q.q.q.q.q.q.q.q.q.q.7.7.q.7.-.[ ",
"[ -.g.h.g.g.g.g.g.g.g.g.g.g.g.g.g.g.h.g.g.g.h.g.-.[ ",
"[ -.s.g.g.g.g.g.g.g.g.g.g.g.g.g.g.g.g.g.g.g.g.g.-.[ ",
"[ -.s.g.g.g.g.g.g.g.g.g.g.g.g.g.g.g.g.g.g.g.g.g.-.[ ",
"[ -.g.g.g.g.g.g.g.g.g.g.s.h.x.h.g.g.g.h.x.h.g.g.-.[ ",
"[ -.g.g.g.g.g.g.g.g.g.g.g.2...2.h.h.h.7...>.g.g.-.[ ",
"[ -.g.g.g.g.g.g.g.g.g.g.x.W e U v.g.v./ r H h.g.-.[ ",
"[ -.g.g.g.h.x.v.v.v.v.v.m.U $ e v z n i $ B h.g.-.[ ",
"[ -.g.g.s.7.+.} } } } } ..S $ - 7 6 $ . . S h.g.-.[ ",
"[ -.g.g.7.^ u 2 6 6 6 6 6 > $ B %.[ u . . S h.g.-.[ ",
"[ -.g.h.W f f h h h h h h q * G y.>.d . . S h.g.-.[ ",
"[ -.g.h.H 8 C T P P P P T l * m O.` t . . S h.g.-.[ ",
"[ -.g.g.%.K e , 2 2 2 2 2 * $ B O.` t . . S h.g.-.[ ",
"[ -.g.g.s.%.m i f f f f f q $ 9 h i 2 . . S h.g.-.[ ",
"[ -.g.g.g.y.*.| ........%.F $ $ 2 2 2 > O S x.g.-.[ ",
"[ -.g.g.g.g.y.y.y.y.q.y.g.L > h T P E b > Z x.g.-.[ ",
"[ -.g.g.g.g.g.g.g.g.g.g.x.[ z ~ 3.2.7.` z W h.g.-.[ ",
"[ -.g.g.g.g.g.g.g.g.g.g.g.4.O.2.g.g.g.7.%.2.g.g.-.[ ",
"[ -.g.g.g.g.g.g.g.g.g.g.g.s.y.s.g.g.g.s.y.s.g.g.-.[ ",
"[ -.g.g.g.g.g.g.g.g.g.g.g.g.g.g.g.g.g.g.g.g.g.g.-.[ ",
"[ -.g.g.g.g.g.g.g.g.g.g.g.g.g.g.g.g.g.g.g.g.g.g.-.[ ",
"[ -.g.g.g.g.g.g.g.g.g.g.g.g.g.g.g.g.g.g.g.g.g.g.-.[ ",
"  %.-.-.-.-.-.-.-.-.-.-.-.-.-.-.-.-.-.-.-.-.-.-.%.  ",
"    [ [ [ [ [ [ [ [ [ [ [ [ [ [ [ [ [ [ [ [ [ [     "
};
