/* XPM */
static char *maximize_active[] = {
/* columns rows colors chars-per-pixel */
"40 50 91 1 ",
"  c black",
". c #00070F",
"X c #0E0A08",
"o c #050E13",
"O c #000B16",
"+ c #000D18",
"@ c #00111B",
"# c #00111C",
"$ c #01141D",
"% c #001E2E",
"& c #002235",
"* c #04283A",
"= c #0F2D3C",
"- c #2E2B29",
"; c #393736",
": c #3A3837",
"> c #3C3937",
", c #3B3938",
"< c #3D3B3A",
"1 c #413D3B",
"2 c #403D3C",
"3 c #002F47",
"4 c #003F61",
"5 c #3F4E56",
"6 c #004162",
"7 c #044363",
"8 c #044364",
"9 c #044567",
"0 c #02486C",
"q c #04496D",
"w c #124661",
"e c #084D70",
"r c #06567F",
"t c #0D577D",
"y c #404E55",
"u c #435158",
"i c #706E6E",
"p c #73706F",
"a c #005683",
"s c #015884",
"d c #065B87",
"f c #065C87",
"g c #095981",
"h c #045C88",
"j c #075C88",
"k c #0A5D88",
"l c #005F90",
"z c #0A608B",
"x c #0A628E",
"c c #0A628F",
"v c #086899",
"b c #186891",
"n c #377B9F",
"m c #377C9F",
"M c #0279B6",
"N c #377DA1",
"B c #45748C",
"V c #4686A6",
"C c #4687A8",
"Z c #498AAB",
"A c #498AAC",
"S c #7AAAC3",
"D c #92908F",
"F c #C0BFBF",
"G c #C1C0BF",
"H c #97BBCE",
"J c #C3C1C0",
"K c #C6C2C1",
"L c #C7C4C2",
"P c #C7C5C4",
"I c #C9C6C4",
"U c #C5C8C9",
"Y c #C7CBCE",
"T c #C9CCCE",
"R c #C8D5DC",
"E c #D4D3D3",
"W c #D6D4D3",
"Q c #D6D6D6",
"! c #DAD6D4",
"~ c #DAD8D7",
"^ c #C4D8E3",
"/ c #C7DAE4",
"( c #C8D8E0",
") c #C8DBE5",
"_ c #C8DDE7",
"` c #CADFE9",
"' c #DCEBF3",
"] c #F6F4F3",
"[ c #F6F6F6",
"{ c #FCF8F6",
"} c #FFFFFF s active_text_color",
/* pixels */
"                                        ",
"%%%%%%%%%%%%%%%%%%%%%%%%%%%%%%%%%%%%%%%%",
"llllllllllllllllllllllllllllllllllllllll",
"MMMMMMMMMMMMMMMMMMMMMMMMMMMMMMMMMMMMMMMM",
"vvvvvvvvvvvvvvvvvvvvvvvvvvvvvvvvvvvvvvvv",
"kkkkkkkkkkkkkkkkkkkkkkkkkkkkkkkkkkkkkkkk",
"kkkkkkkkkkkkkkkkkkkkkkkkkkkkkkkkkkkkkkkk",
"kkkkkkkkkkkkkkkkkkkkkkkkkkkkkkkkkkkkkkkk",
"kkkkkkkkkkkkkkkkkkkkkkkkkkkkkkkkkkkkkkkk",
"kkkkkkkkkkkkkkkkkkkkkkkkkkkkkkkkkkkkkkkk",
"kkkkkkkkkkkkkkkkkkkkkkkkkkkkkkkkkkkkkkkk",
"kkkkkkkkkkkkkkkkkkkkkkkkkkkkkkkkkkkkkkkk",
"kkkkkkkkkkkkkkkkkkkkkkkkkkkkkkkkkkkkkkkk",
"kkkkkkkkkkkkjjjjjjjjffddjjjjkkkkkkkkkkkk",
"kkkkkkkkkkkkdddddddddddddddjkkkkkkkkkkkk",
"kkkkkkkkkkkbmVVVVVVVVVVVVVVNbkkkkkkkkkkk",
"kkkkkkkkkjdnH)/^^^^^^^^^^/)HNjjkkkkkkkkk",
"kkkkkkkkkfdV)}}}}}}}}}}}}}}RB0rkkkkkkkkk",
"kkkkkkkkkfdV/}}}}}}}}}}}}}}Uy&qzkkkkkkkk",
"kkkkkkkkkfdV/]EGFGGGGGGFFE[J<+7ckkkkkkkk",
"kkkkkkkkkfdZ_Wi,,<<<<<<:;iQL2@8cckkkkkkk",
"kkkkkkkkkfdZ`K< .##@@@@+O5YP2@9cckkkkkkk",
"kkkkkkkkkfdZ`K<.399988864BRL2@9cckkkkkkk",
"kkkkkkkkkfdZ`L2#9ccccccjjA`L2@9cckkkkkkk",
"kkkkkkkkkddZ`L2@9ccckkkjjZ`L2@8cckkkkkkk",
"kkkkkkkkkfdZ`L2@9cckkkkddZ`L2@8czkkkkkkk",
"kkkkkkkkkfdZ`L2@9czkkkkddZ`L2@8ckkkkkkkk",
"kkkkkkkkkfdZ`K<+6jjjjfdssC`L2@8ckkkkkkkk",
"kkkkkkkkkfdZ`K>O4fhddddsaV_L2@8czkkkkkkk",
"kkkkkkkkkfdZ`!p5BAZZZZZCVS'I2@8cckkkkkkk",
"kkkkkkkkkfdV_{~Y(````````'}P2@8cckkkkkkk",
"kkkkkkkkkjdmHRTPLLLLLLLLLIPD-@9cckkkkkkk",
"kkkkkkkkkkkbNBu212222222222-X$9czkkkkkkk",
"kkkkkkkkkkkkj0&++@@@@@@@@@@@$*eckkkkkkkk",
"kkkkkkkkkkkkjrq88999899998899egkkkkkkkkk",
"kkkkkkkkkkkkkkcccccccccccccccckkkkkkkkkk",
"kkkkkkkkkkkkkkkzzcczcccckkkzckkkkkkkkkkk",
"kkkkkkkkkkkkkkkkkkkkkkkkkkkkkkkkkkkkkkkk",
"kkkkkkkkkkkkkkkkkkkkkkkkkkkkkkkkkkkkkkkk",
"kkkkkkkkkkkkkkkkkkkkkkkkkkkkkkkkkkkkkkkk",
"kkkkkkkkkkkkkkkkkkkkkkkkkkkkkkkkkkkkkkkk",
"kkkkkkkkkkkkkkkkkkkkkkkkkkkkkkkkkkkkkkkk",
"kkkkkkkkkkkkkkkkkkkkkkkkkkkkkkkkkkkkkkkk",
"kkkkkkkkkkkkkkkkkkkkkkkkkkkkkkkkkkkkkkkk",
"kkkkkkkkkkkkkkkkkkkkkkkkkkkkkkkkkkkkkkkk",
"tttttttttttttttttttttttttttttttttttttttt",
"wwwwwwwwwwwwwwwwwwwwwwwwwwwwwwwwwwwwwwww",
"========================================",
"oooooooooooooooooooooooooooooooooooooooo",
"                                        "
};
