/* XPM */
static char *top_left_active[] = {
/* columns rows colors chars-per-pixel */
"28 88 123 2 ",
"   c None",
".  c #000000",
"X  c #040609",
"o  c #06080B",
"O  c #080B0D",
"+  c #070811",
"@  c #090B14",
"#  c #0C0F1B",
"$  c #0D151C",
"%  c #121A1F",
"&  c #0F1022",
"*  c #101423",
"=  c #131B23",
"-  c #171F2F",
";  c #171A31",
":  c #181D35",
">  c #1B1F3D",
",  c #1A2331",
"<  c #1C2834",
"1  c #1C223C",
"2  c #1C2D3D",
"3  c #202C3A",
"4  c #212A43",
"5  c #232E4B",
"6  c #243247",
"7  c #26344B",
"8  c #293B4C",
"9  c #272D54",
"0  c #282F57",
"q  c #283057",
"w  c #2F3862",
"e  c #303B66",
"r  c #2E4154",
"t  c #2F4D69",
"y  c #334564",
"u  c #354D64",
"i  c #33416B",
"p  c #324D68",
"a  c #375069",
"s  c #3C556F",
"d  c #364272",
"f  c #384973",
"g  c #3D5870",
"h  c #3E557A",
"j  c #415D7E",
"k  c #3E4D83",
"l  c #3D5280",
"z  c #3F5188",
"x  c #3F668B",
"c  c #455E87",
"v  c #44558B",
"b  c #465B8A",
"n  c #465F96",
"m  c #485D99",
"M  c #466683",
"N  c #486681",
"B  c #456885",
"V  c #416789",
"C  c #496589",
"Z  c #4A6B8A",
"A  c #466490",
"S  c #4D659C",
"D  c #4A6B9D",
"F  c #506E9D",
"G  c #4C7094",
"H  c #4D769D",
"J  c #4E789D",
"K  c #537696",
"L  c #51759A",
"P  c #547A9D",
"I  c #587E9F",
"U  c #4E6AA4",
"Y  c #5067A4",
"T  c #526BA3",
"R  c #4A77A1",
"E  c #4C7BA6 s active_color_1",
"W  c #4F76A9",
"Q  c #4E7EAA",
"!  c #5373A1",
"~  c #537DA4",
"^  c #587EA0",
"/  c #5274A9",
"(  c #507EA9",
")  c #5976B2",
"_  c #5C7CB4",
"`  c #5282AD",
"'  c #5B84AA",
"]  c #5585B1",
"[  c #5B87B1",
"{  c #5788B2",
"}  c #5C8AB2",
"|  c #5888B4",
" . c #5A8BB7",
".. c #5888B3",
"X. c #5E83B9",
"o. c #5C8AB9",
"O. c #5B8CB8",
"+. c #5C8CB9",
"@. c #5F8FB9",
"#. c #5D8CBB",
"$. c #5E8FBC",
"%. c #5F8CBE",
"&. c #5E90BB",
"*. c #6187BD",
"=. c #628FB9",
"-. c #638DBC",
";. c #628DBD",
":. c #618FBF",
">. c #6091BC",
",. c #6493BF",
"<. c #6495BF",
"1. c #6084C0",
"2. c #628BC1",
"3. c #628CC2",
"4. c #6293C0",
"5. c #6490C1",
"6. c #6595C0",
"7. c #6596C0",
"8. c #6492C4",
"9. c #6596C4",
"0. c #6497C4",
"q. c #6597C4",
"w. c #6598C5",
/* pixels */
"                                . . . . . . . . . . . . ",
"                                . . . . . . . . . . . . ",
"                                . . . . . . . . . . . . ",
"                                . . . . . . . . . . . . ",
"                . . . . . . . . . . . . . . . . . . . . ",
"                . . . . . . . . . X X X X X o o o o o o ",
"                . . . . . . . X + @ $ $ * = = = = = = = ",
"                . . . . . . X + * ; 1 4 6 7 8 8 8 8 8 8 ",
"        . . . . . . . . . . o & > 9 e f h j M M M M M M ",
"        . . . . . . . . . o $ : q d v S ! ~ ' ' ' ' ' ' ",
"        . . . . . . . X O $ , 7 d v Y ) X.-.,.6.6.<.<.<.",
"        . . . . . . X @ = < 8 p b T _ 1.3.8.0.0.0.0.0.0.",
"        . . . . . . O = 3 r s C ! _ *.2.%.+.+.O.O.O.O.O.",
"        . . . . . o $ < r g Z ^ [ -.4.-.o.{ ` ` ` ` ` ` ",
"        . . . X o $ - 7 u B P ' =.,.4.%.| ` Q E Q Q Q Q ",
"        . . X @ & : 5 y j G ~ } +.>.&. .{ ` E E E E E E ",
". . . . . . + * 1 0 i l A H ( ` { ..{ { ` Q E E E E E E ",
". . . . . X @ ; 9 e z n D R E ( ` ` ` ` Q Q E E E E E E ",
". . . . . X # 1 w k m U W W E E E E Q Q E E E E E E E E ",
". . . . . X $ 1 i v S / W E E E E E E E E E E E E E E E ",
". . . . . X $ 2 y c F / E E E E E E E E E E E E E E E E ",
". . . . . X $ 3 u M L ~ E E E E E E E E E E E E E E E E ",
". . . . . X $ 3 u B L ~ ( E E E E E E E E E E E E E E E ",
". . . . . X $ 2 u B J ( ( E E E E E E E E E E E E E E E ",
". . . . . X $ 2 p V J ( Q Q E E E E E E E E E E E E E E ",
". . . . . X $ 2 p V H ( Q Q E E E E E E E E E E E E E E ",
". . . . . X $ 2 p V R Q Q Q E E E E E E E E E E E E E E ",
". . . . . X $ 2 t x R Q Q Q E E E E E E E E E E E E E E ",
". . . . . X $ 2 t x R Q Q Q E E E E E E E E E E E E E E ",
". . . . . X $ 2 t x R Q Q Q E E E E E E E E E E E E E E ",
". . . . . X $ 2 t x R Q Q Q E E E E E E E E E E E E E E ",
". . . . . X $ 2 t x R Q Q Q E E E E E E E E E E E E E E ",
". . . . . X $ 2 t x R Q Q Q E E E E E E E E E E E E E E ",
". . . . . X $ 2 t x R Q Q Q E E E E E E E E E E E E E E ",
". . . . . X $ 2 t x R Q Q Q E E E E E E E E E E E E E E ",
". . . . . X $ 2 t x R Q Q Q E E E E E E E E E E E E E E ",
". . . . . X $ 2 t x R Q Q Q E E E E E E E E E E E E E E ",
". . . . . X $ 2 t x R Q Q Q E E E E E E E E E E E E E E ",
". . . . . X $ 2 t x R Q Q Q E E E E E E E E E E E E E E ",
". . . . . X $ 2 t x R Q Q Q E E E E E E E E E E E E E E ",
". . . . . X $ 2 t x R Q Q Q E E E E E E E E E E E E E E ",
". . . . . X $ 2 t x R Q Q Q E E E E E E E E E E E E E E ",
". . . . . X $ 2 t x R Q Q Q E E E E E E E E E E E E E E ",
". . . . . X $ 2 t x R Q Q Q E E E E E E E E E E E E E E ",
". . . . . X $ 2 t x R Q Q Q E E E E E E E E E E E E E E ",
". . . . . X $ 2 t x R Q Q Q E E E E E E E E E E E E E E ",
". . . . . X $ 2 t x R Q Q Q E E E E E E E E E E E E E E ",
". . . . . X $ 2 t x R Q Q Q E E E E E E E E E E E E E E ",
". . . . . X $ 2 t x R Q Q Q E E E E E E E E E E E E E E ",
". . . . . X $ 2 t x R Q Q Q E E E E E E E E E E E E E E ",
". . . . . X $ 2 t x R Q Q Q E E E E E E E E E E E E E E ",
". . . . . X $ 2 t x R Q Q Q E E E E E E E E E E E E E E ",
". . . . . X $ 2 t x R Q Q Q E E E E E E E E E E E E E E ",
". . . . . X $ 2 t x R Q Q Q E E E E E E E E E E E E E E ",
". . . . . X $ 2 t x R Q Q Q E E E E E E E E E E E E E E ",
". . . . . X $ 2 t x R Q Q Q E E E E E E E E E E E E E E ",
". . . . . X $ 2 t x R Q Q Q E E E E E E E E E E E E E E ",
". . . . . X $ 2 t x R Q Q Q E E E E E E E E E E E E E E ",
". . . . . X $ 2 t x R Q Q Q E E E E E E E E E E E E E E ",
". . . . . X $ 2 t x R Q Q Q E E E E E E E E E E E E E E ",
". . . . . X $ 2 t x R Q Q Q E E E E E E E E E E E E E E ",
". . . . . X $ 2 t x R Q Q Q E E E E E E E E E E E E E E ",
". . . . . X $ 2 t x R Q Q Q E E E E E E E E E E E E E E ",
". . . . . X $ 2 t x R Q Q Q E E E E E E E E E E E E E E ",
". . . . . X $ 2 t x R Q Q Q E E E E E E E E E E E E E E ",
". . . . . X $ 2 t x R Q Q Q E E E E E E E E E E E E E E ",
". . . . . X $ 2 t x R Q Q Q E E E E E E E E E E E E E E ",
". . . . . X $ 2 t x R Q Q Q E E E E E E E E E E E E E E ",
". . . . . X $ 2 t x R Q Q Q E E E E E E E E E E E E E E ",
". . . . . X $ 2 t x R Q Q Q E E E E E E E E E E E E E E ",
". . . . . X $ 2 t x R Q Q Q E E E E E E E E E E E E E E ",
". . . . . X $ 2 t x R Q Q Q E E E E E E E E E E E E E E ",
". . . . . X $ 2 t x R Q Q Q E E E E E E E E E E E E E E ",
". . . . . X $ 2 t x R Q Q Q E E E E E E E E E E E E E E ",
". . . . . X $ 2 t x R Q Q Q E E E E E E E E E E E E E E ",
". . . . . X $ 2 t x R Q Q Q E E E E E E E E E E E E E E ",
". . . . . X $ 2 t x R Q Q Q E E E E E E E E E E E E E E ",
". . . . . X $ 2 t x R Q Q Q E E E E E E E E E E E E E E ",
". . . . . X $ 2 t x R Q Q Q E E E E E E E E E E E E E E ",
". . . . . X $ 2 t x R Q Q Q E E E E E E E E E E E E E E ",
". . . . . X $ 2 t x R Q Q Q E E E E E E E E E E E E E E ",
". . . . . X $ 2 p V R Q Q Q E E E E E E E E E E E E E E ",
". . . . . X $ 2 p V H ( ( E E E E E E E E E E E E E E E ",
". . . . . X $ 2 p B H ( ( ( ~ ~ ~ ~ ~ ~ E E E E E E E E ",
". . . . . X $ 2 u B J ^ ^ ^ P P P P P P P P P P P P P P ",
". . . . . X $ 3 u M K ^ ^ I P P P P P P P P P P P P P P ",
". . . . . X $ 3 u M K I I I P P P P P P P P P P P P P P ",
". . . . . X $ 3 u N K I I I P P P P P P P P P P P P P P "
};
