/* XPM */
static char *maximize_pressed[] = {
/* columns rows colors chars-per-pixel */
"56 84 171 2 ",
"   c black",
".  c #0C0B0C",
"X  c #00001D",
"o  c #0A0A1A",
"O  c #141414",
"+  c #171817",
"@  c #1A1A1A",
"#  c #020222",
"$  c #0B0B24",
"%  c #0A0A29",
"&  c #141424",
"*  c #1E1E28",
"=  c #1D1D21",
"-  c #000033",
";  c #06063A",
":  c #09093D",
">  c #1C1C37",
",  c #1F2020",
"<  c #232323",
"1  c #24242B",
"2  c #282728",
"3  c #2A2A2A",
"4  c #272827",
"5  c #2B2B31",
"6  c #2A293C",
"7  c #302F30",
"8  c #353535",
"9  c #383738",
"0  c #373838",
"q  c #3D3C3D",
"w  c #333438",
"e  c #000044",
"r  c #00004F",
"t  c #0A094D",
"y  c #191945",
"u  c #000054",
"i  c #0C0B5D",
"p  c #1D1D5B",
"a  c #201F50",
"s  c #3D3D41",
"d  c #3B3B48",
"f  c #21205F",
"g  c #2C2C53",
"h  c #39375F",
"j  c #23236C",
"k  c #242362",
"l  c #2C2B76",
"z  c #3F3F70",
"x  c #403E44",
"c  c #444345",
"v  c #46454A",
"b  c #484749",
"n  c #4D4D4D",
"m  c #4D4C52",
"M  c #504F59",
"N  c #575557",
"B  c #5A595A",
"V  c #555559",
"C  c #484662",
"Z  c #48466F",
"A  c #4E4E66",
"S  c #504E61",
"D  c #5D5E64",
"F  c #4B497B",
"G  c #605E60",
"H  c #656465",
"J  c #61606A",
"K  c #686668",
"L  c #6D6C6D",
"P  c #676775",
"I  c #706F71",
"U  c #747274",
"Y  c #767579",
"T  c #797779",
"R  c #7C7A7D",
"E  c #4B4A84",
"W  c #5C5A94",
"Q  c #5F5D98",
"!  c #565690",
"~  c #605E9A",
"^  c #6D6D8A",
"/  c #7D7C80",
"(  c #7F7D8F",
")  c #807E80",
"_  c #807D96",
"`  c #817E9D",
"'  c #827FA2",
"]  c #828182",
"[  c #8A8887",
"{  c #85838B",
"}  c #89878A",
"|  c #8B898B",
" . c #8E8D91",
".. c #8C8C9A",
"X. c #908E90",
"o. c #949394",
"O. c #96969A",
"+. c #999799",
"@. c #9C9A9C",
"#. c #9FA09F",
"$. c #A2A09F",
"%. c #8483A3",
"&. c #9E9CA0",
"*. c #9B98BC",
"=. c #9392B5",
"-. c #A19FA1",
";. c #A3A2A3",
":. c #A7A9A7",
">. c #A6A5A8",
",. c #A8A7A9",
"<. c #ABABAB",
"1. c #A7A8A8",
"2. c #AEB0AE",
"3. c #ABA9B3",
"4. c #ABA9BA",
"5. c #B1AFB2",
"6. c #B4B3B4",
"7. c #B7B8B7",
"8. c #B7B6B9",
"9. c #B8B7B8",
"0. c #BCBBBC",
"q. c #BFC0BF",
"w. c #9F9CC0",
"e. c #A39FC3",
"r. c #A4A1C6",
"t. c #BEBDC0",
"y. c #BDBCCC",
"u. c #C0BEC1",
"i. c #C3C2C3",
"p. c #C6C4C9",
"a. c #C9C7C9",
"s. c #CECCCE",
"d. c #CECFCE",
"f. c #CDCCCD",
"g. c #CDCECD",
"h. c #C8C6C7",
"j. c #CFD0CE",
"k. c #CFD0CF",
"l. c #CFD0CF",
"z. c #D1D0CF",
"x. c #CCC9DB",
"c. c #CACAD3",
"v. c #D1CFD0",
"b. c #D1D0D0",
"n. c #D0D1D0",
"m. c #D0D0D0",
"M. c #D2D1D1",
"N. c #D5D5D5",
"B. c #D2D2D2",
"V. c #D7D8D7",
"C. c #D8D8D7",
"Z. c #DEDDDE",
"A. c #DEDDDE",
"S. c #D9DAD9",
"D. c #D3CFE2",
"F. c #D5D1E3",
"G. c #DBD8E5",
"H. c #E1DEE1",
"J. c #E0DEE0",
"K. c #E0DEE0",
"L. c #E4E4E3",
"P. c #E7E5EB",
"I. c #E9E6E9",
"U. c #E8E6E8",
"Y. c #EEEDEE",
"T. c #EFF0EF",
"R. c #EFEAF1",
"E. c #F0EDF2",
"W. c #F4F2F2",
"Q. c #FCFCFB",
"!. c #F5F4F8",
/* pixels */
"                                                                                                                ",
". . . . . . . . . . . . . . . . . . . . . . . . . . . . . . . . . . . . . . . . . . . . . . . . . . . . . . . . ",
"2 2 2 2 2 2 2 2 2 2 2 2 2 2 2 2 2 2 2 2 2 2 2 2 2 2 2 2 2 2 2 2 2 2 2 2 2 2 2 2 2 2 2 2 2 2 2 2 2 2 2 2 2 2 2 2 ",
"N N N N N N N N N N N N N N N N N N N N N N N N N N N N N N N N N N N N N N N N N N N N N N N N N N N N N N N N ",
"o.o.o.o.o.o.o.o.o.o.o.o.o.o.o.o.o.o.o.o.o.o.o.o.o.o.o.o.o.o.o.o.o.o.o.o.o.o.o.o.o.o.o.o.o.o.o.o.o.o.o.o.o.o.o.o.",
"i.i.i.i.i.i.i.i.i.i.i.i.i.i.i.i.i.i.i.i.i.i.i.i.i.i.i.i.i.i.i.i.i.i.i.i.i.i.i.i.i.i.i.i.i.i.i.i.i.i.i.i.i.i.i.i.",
"H.H.H.H.H.H.H.H.H.H.H.H.H.H.H.H.H.H.H.H.H.H.H.H.H.H.H.H.H.H.H.H.H.H.H.H.Z.Z.H.H.H.H.H.H.H.H.H.H.H.H.H.H.H.H.H.H.",
"I.I.I.I.I.I.I.I.I.I.I.I.I.I.I.I.I.I.I.I.I.I.I.I.I.I.I.I.I.I.I.I.I.I.I.I.U.U.I.I.I.I.I.I.I.I.I.I.I.I.I.I.I.I.I.I.",
"Z.Z.Z.Z.Z.Z.Z.Z.Z.Z.Z.Z.Z.Z.Z.Z.Z.Z.Z.Z.Z.Z.Z.Z.Z.Z.Z.Z.Z.Z.Z.Z.Z.Z.Z.Z.Z.Z.Z.Z.Z.Z.Z.Z.Z.Z.Z.Z.Z.Z.Z.Z.Z.Z.Z.Z.",
"N.N.N.N.N.N.N.N.N.N.N.N.N.N.N.N.N.N.N.N.N.N.N.N.N.N.N.N.N.N.N.N.N.N.N.N.N.N.N.N.N.N.N.N.N.N.N.N.N.N.N.N.N.N.N.N.",
"n.n.n.n.n.n.n.n.n.n.n.n.n.n.n.n.n.n.n.n.n.n.n.n.n.n.n.n.n.n.n.n.n.n.n.n.n.n.n.n.n.n.n.n.n.n.n.n.n.n.n.n.n.n.n.n.",
"d.d.d.d.d.d.d.d.d.d.k.k.k.k.k.k.k.k.k.k.k.k.k.k.k.k.k.k.k.k.k.k.k.k.k.k.k.k.k.k.k.k.k.k.d.d.k.k.k.k.d.d.d.d.d.d.",
"d.d.d.d.d.d.d.d.z.n.n.n.n.n.n.z.z.z.z.z.z.z.z.z.z.z.z.z.z.z.z.z.z.z.z.z.z.z.z.z.z.z.z.z.z.n.n.n.n.n.n.v.d.d.d.s.",
"s.s.s.s.s.s.s.a.a.p.p.i.p.p.p.p.p.p.p.p.p.p.p.p.p.p.p.p.p.p.p.p.p.p.p.p.p.p.p.p.p.p.p.p.p.p.p.p.i.p.p.a.a.s.s.s.",
"s.s.s.s.s.s.h.u.8.5.3.3.4.4.4.4.4.4.4.4.4.4.4.4.4.4.4.4.4.4.4.4.4.4.4.4.4.4.4.4.4.4.4.4.4.4.4.4.3.3.5.8.u.h.s.s.",
"s.s.s.d.d.a.u.5.&. .{ ( _ ` ' ' ' ' ' ' ' ' ' ' ' ' ' ' ' ' ' ' ' ' ' ' ' ' ' ' ' ' ' ' ' ' ` _ ( {  .&.5.u.a.d.",
"s.s.d.d.v.a.8.&./ J S C Z F E E E E E E E E E E E E E E E E E E E E E E E E E E E E E E E E F Z C M J R @.8.a.v.",
"s.s.d.k.n.p.5. .J d 6 y a f j j j j j j j j j j j j j j j j j j j j j j j j j j j j j j j j f a > 6 x J  .5.h.n.",
"a.s.d.k.n.i.<.] m 5 & % : t i i i i i i i i i i i i i i i i i i i i i i i i i i i i i i i i t : % & 5 m { <.p.n.",
"a.a.d.d.d.i.>.R v * o X - e r u u u u u u u u u u u u u u u u u u u u u u u u u u u u u u r e - X o * b ) <.p.n.",
"a.a.a.s.d.u.>.R v * o X - e r u u u u u u u u u u u u u u u u u u u u u u u u u u u u u u r e - X o 1 b / <.i.n.",
"a.a.a.a.a.0.>./ v 1 o # ; t i i i i i i i i i i i i i i i i i i i i i i i i i i i i i i i i t ; # o 1 b / ,.i.d.",
"a.a.a.a.a.t.>./ v 1 $ % y k l l l l l l l l l l l l l l l l l l l l l l l l l l l l l l l j p y % o 1 b / >.u.d.",
"p.a.a.a.a.0.>.R v 1 & > h F W ~ ~ Q Q Q Q Q Q Q Q Q Q Q Q Q Q Q Q Q Q Q Q Q Q Q Q Q Q W ! E z g > & 1 b R >.t.s.",
"i.p.a.a.a.0.;.R v 3 1 d P %.*.r.r.r.r.e.e.e.e.e.e.e.e.e.e.e.e.e.e.e.e.e.e.e.e.e.e.e.w.*.=.%.^ A 6 * 1 v R ;.0.s.",
"i.i.p.a.a.0.;.T v 3 5 m { 4.x.G.G.F.F.F.D.D.D.D.D.D.D.D.D.D.D.D.F.F.D.D.D.D.F.F.F.D.x.c.y.4...P s 1 1 v R ;.0.s.",
"i.i.p.a.a.0.-.T c 3 7 N O.a.P.!.!.W.E.R.R.R.R.R.R.R.R.R.R.R.R.R.R.R.R.R.R.R.R.E.R.R.P.G.B.0.@.I s 1 3 v R ;.u.s.",
"i.i.p.a.a.0.-.Y c 3 8 B ;.N.W.Q.Q.Q.W.W.W.W.W.W.W.W.W.W.W.W.W.W.W.W.W.W.W.W.W.W.W.W.I.Z.n.9.O.L q 1 3 v R ;.u.s.",
"i.i.p.a.a.0.-.Y c 3 7 B ;.N.W.Q.W.Y.U.L.L.L.L.L.L.L.L.L.L.L.L.L.L.L.L.L.L.L.L.U.U.L.S.l.t.>.{ D w < 1 v R ;.0.s.",
"i.i.p.a.a.0.-.Y c 3 7 B @.n.W.Q.Y.L.S.N.N.V.C.S.C.C.C.C.C.C.C.C.C.C.C.C.C.C.S.S.S.N.d.i.3.O.Y V 5 = 1 v R ;.0.s.",
"i.i.p.a.a.0.-.Y c 3 7 B &.n.Y.!.U.S.n.d.d.k.n.n.n.n.n.n.n.n.n.n.n.n.n.n.n.n.n.n.n.d.p.8.>. .I m 3 @ < c T ;.0.a.",
"i.i.p.a.a.0.-.Y c 3 7 B @.n.Y.W.U.V.d.a.a.f.d.d.d.d.d.d.d.d.d.d.d.d.d.d.d.d.d.d.d.a.i.6.&.} L b 3 @ < c T ;.0.a.",
"0.0.i.p.p.8.@.U c 3 8 B -.n.Y.!.U.V.d.a.f.f.d.d.d.d.d.d.d.d.d.d.d.d.d.d.d.d.d.d.d.a.i.6.;.[ L n 3 @ < c T ;.0.a.",
"0.0.i.i.i.6.@.U c 3 8 B -.n.Y.!.U.V.k.f.f.d.d.d.d.d.d.d.d.d.d.d.d.d.d.d.d.d.d.d.k.a.i.6.;.[ L n 3 @ < c T ;.0.a.",
"0.0.i.i.i.6.@.U x 2 8 B -.n.Y.!.U.V.k.f.d.d.d.d.d.d.d.d.d.d.d.d.d.d.d.d.d.d.d.k.k.a.i.6.;.[ L n 3 @ < c Y @.9.p.",
"0.0.i.i.i.6.@.U q 4 7 B -.n.Y.W.U.V.k.f.d.d.d.d.d.d.d.d.d.d.d.d.d.d.d.d.d.d.d.k.k.f.i.6.;.[ L n 3 @ < c U @.6.p.",
"0.0.u.i.i.6.@.U q 4 7 B @.n.Y.W.U.V.k.f.d.d.d.d.d.d.d.d.d.d.d.d.d.d.d.d.d.d.d.k.k.f.i.6.;.[ L n 3 @ < c U @.6.p.",
"9.0.0.u.u.6.@.U q 4 7 B @.n.Y.!.U.V.d.f.d.d.d.d.d.d.d.d.d.d.d.d.d.s.s.d.d.d.d.k.k.f.i.6.;.[ L n 3 @ < c U @.6.i.",
"9.9.0.0.0.6.+.I q 2 7 B @.n.Y.!.L.V.d.f.d.d.d.d.d.d.d.d.d.d.d.d.d.s.s.d.d.d.d.k.k.f.i.6.;.[ L n 3 @ < c U @.6.i.",
"9.9.9.0.0.5.o.L q 2 7 B @.n.Y.!.L.V.d.f.d.d.d.d.d.d.d.d.d.d.d.d.d.s.d.d.d.d.d.k.k.a.i.6.;.[ L n 3 @ < c U @.6.u.",
"7.9.9.9.9.<.o.I q 2 7 B -.n.Y.W.L.V.k.f.d.d.d.d.d.d.d.d.d.d.d.d.d.d.d.d.d.d.d.d.k.a.i.6.$.[ L n 3 @ < c U @.6.0.",
"7.7.9.9.9.<.o.I q 2 7 B ;.n.Y.W.U.V.k.f.d.d.d.d.d.d.d.d.d.d.d.d.d.d.d.d.d.d.d.d.k.a.i.6.$.[ L n 3 @ < c U o.6.0.",
"7.9.9.9.9.<.o.I q 2 7 B ;.n.Y.W.U.V.k.f.d.d.d.d.d.d.d.d.d.d.d.d.d.d.d.d.d.d.d.k.k.f.i.6.$.[ L n 3 @ < c U o.<.9.",
"6.6.7.9.9.<.o.I q 2 7 B ;.n.Y.!.U.V.k.f.d.d.d.d.d.d.d.d.d.d.d.d.d.d.d.d.d.d.d.k.k.f.i.6.$.[ L n 3 @ < c U o.<.9.",
"6.6.6.9.9.<.o.I q 2 7 B #.n.Y.W.U.S.n.d.d.d.d.d.d.d.d.d.d.d.d.d.d.d.d.d.d.d.d.k.k.f.i.6.$.[ L n 3 @ < c U o.<.9.",
"6.6.6.9.9.<.o.L q 2 7 B #.n.Y.W.U.S.n.d.d.d.d.d.d.d.d.d.d.k.d.d.d.d.d.d.d.d.d.k.k.f.i.6.$.[ L n 3 @ < c U o.<.9.",
"6.6.6.9.9.<.o.L q 2 8 B #.n.Y.W.U.S.n.d.d.d.d.d.d.d.d.d.d.d.d.d.d.d.d.d.d.d.k.k.n.d.i.6.$.[ L n 3 @ < c U o.<.9.",
"6.6.6.7.9.<.o.L q 2 8 B ;.n.Y.!.U.S.n.d.d.d.k.k.k.k.k.k.k.k.k.k.d.k.k.k.k.k.k.n.n.d.i.6.$.[ L n 3 @ < c I o.<.8.",
"<.<.6.6.6.<.o.L q 2 8 B ;.n.Y.!.U.S.n.k.k.k.k.k.k.k.k.k.k.k.k.k.k.k.k.k.k.n.n.n.n.d.i.6.;.[ L n 3 @ < s L o.<.6.",
"<.<.<.6.6.,.o.K q 4 7 B @.n.Y.W.L.N.d.a.a.a.f.f.f.f.f.f.a.a.f.f.f.f.a.f.f.f.d.d.d.a.u.6.-.[ L n 3 @ < s L o.<.6.",
"<.<.<.<.6.>.| H 9 4 7 B @.a.U.Y.S.d.i.0.i.i.i.i.i.i.i.i.i.i.i.i.i.i.i.i.i.i.i.i.i.u.9.<.@.} L n 3 @ < s L o.>.6.",
"<.<.<.<.<.;.[ H 8 < 3 N o.p.Z.L.k.q.6.5.6.6.6.6.6.6.6.6.6.6.6.6.6.6.6.6.6.6.6.6.6.6.<.>.@.{ L n 3 @ < q L | >.2.",
"<.<.:.<.<.#.[ H 8 < 3 N | 0.n.n.0.<.;.@.&.;.;.;.;.;.;.;.;.;.;.;.;.;.;.;.;.;.;.;.;.-.@.@.o.] L n 3 @ < q K | ;.<.",
":.:.:.:.<.@.[ H 9 < 2 b ] <.9.9.;.o.[ { } | | | [ [ [ [ [ [ [ | [ [ [ [ [ [ [ [ | [ } { ] Y H b 4 @ < q K [ ;.<.",
":.:.:.1.<.&.} H 9 < < q L | @.o.{ Y L K L L L L L L L L L L L L L L L L L L L L L L L L L H N q , O < q K [ #.<.",
":.:.:.1.,.&.} H 9 @ @ 3 n H I L B N b b n n n n n n n n n n n n n n n n n n n n b b n n n b q 3 O O @ q K [ @.<.",
">.>.:.<.,.&.} H 9 @ . O 3 9 q q 8 3 3 3 3 3 3 3 3 3 3 3 3 3 3 3 3 3 3 3 3 3 3 3 3 3 3 3 3 4 < O . . @ q K [ &.,.",
";.>.>.<.,.&.[ K q @ . . + < < < @ @ @ @ @ @ @ @ @ @ @ @ @ @ @ @ @ @ @ @ @ @ @ @ @ @ @ @ @ @ O . . . < c K [ &.,.",
";.;.>.>.>.@.| U n 8 @ @ @ < < < @ @ @ @ @ @ @ @ @ @ @ @ @ @ @ @ @ @ @ @ @ @ @ @ @ @ @ @ @ @ @ @ @ < 8 n U | @.>.",
"-.-.;.;.;.@.X.T G b q 8 8 8 8 8 8 8 8 8 8 8 8 8 8 8 8 8 8 8 8 8 8 8 8 8 8 8 8 8 8 8 8 8 8 8 8 8 8 q b G T o.@.;.",
"@.@.@.@.@.@.o.} T L H G B G G B G G G G G G G G G G G G G G G G G G G G G G G G G G G G G G G G B H L T } o.@.@.",
"@.@.@.@.@.@.+.o.| { ] ) R R ) ) ) ) ) ) ) ) ) ) ) ) ) ) ) ) ) ) ) ) ) ) ) ) ) ) ) ) ) ) ) ) ) ) R ) { | o.+.@.@.",
"+.+.+.+.+.@.@.@.+.o.o.o.o.o.o.o.o.o.o.o.o.o.o.o.o.o.o.o.o.o.o.o.o.o.o.o.o.o.o.o.o.o.o.o.o.o.o.o.o.o.o.o.@.@.@.+.",
"+.+.+.+.+.+.@.@.@.@.@.@.@.@.@.@.@.@.@.@.@.@.@.@.@.@.@.@.@.@.@.@.@.@.@.@.@.@.@.@.@.@.@.@.@.@.@.@.@.@.@.@.@.@.+.+.",
"o.o.o.o.o.o.O.+.+.@.@.@.@.@.@.@.@.@.@.@.@.@.@.@.@.@.@.@.@.@.@.@.@.@.@.@.@.@.@.@.@.@.@.@.@.@.@.@.@.@.@.+.+.O.o.o.",
"o.o.o.o.o.o.o.o.o.o.o.o.o.o.o.o.o.o.o.o.o.o.o.o.o.o.o.o.o.o.o.o.o.o.o.o.o.o.o.o.o.o.o.o.o.o.o.o.o.o.o.o.o.o.o.o.",
"X.| | |  . .X.X.X.X.X.X.X.X.X.X.X.X.X.X.X.X.X.X.X.X.X.X.X.X.X.X.X.X.X.X.X.X.X.X.X.X.X.X.X.X.X.X.X.X.X.X. . . .| ",
"[ } } } [ [ [ [ } [ [ [ } } } } } } } } [ [ [ } } } } } } } } } } [ [ [ } } } } } } } } [ [ [ } } } } } [ [ } } ",
"] ] ] ] ] ] ] ] ] ] ] ] ] ] ] ] ) ) ] ] ] ] ] ] ] ] ] ] ) ) ) ] ] ] ] ] ] ] ] ] ) ) ] ] ] ] ] ] ] ] ] ] ] ] ] ] ",
"U U U U U U U U U U U U U U U U U U U U U U U U U U U U U U U U U U U U U U U U U U U U U U U U U U U U U U U U ",
"G G G G G G G G G G G G G G G G G G G G G G G G G G G G G G G G G G G G G G G G G G G G G G G G G G G G G G G G ",
"c c c c c c c c c c c c c c c c c c c c c c c c c c c c c c c c c c c c c c c c c c c c c c c c c c c c c c c c ",
"2 2 2 2 2 2 2 2 2 4 4 4 2 2 2 2 4 4 4 4 2 2 2 2 2 2 2 2 4 4 4 4 2 2 2 2 2 2 2 2 2 2 4 4 2 2 2 2 2 2 2 2 2 2 2 2 ",
"@ @ @ @ @ @ @ @ + O O O + @ @ @ O O O @ @ @ @ O @ @ @ @ O O O O @ @ @ @ O @ + + @ O O O @ @ @ @ @ @ @ @ @ @ @ @ ",
"+ + + O @ @ + + @ O O O O + O @ O + @ @ @ + O O + @ + @ @ @ O O @ @ O O O O O O @ @ O O @ + + O + + + O @ @ + + ",
"3 3 3 3 3 3 3 3 3 3 3 3 3 3 3 3 3 3 3 3 3 3 3 3 3 3 3 3 3 3 3 3 3 3 3 3 3 3 3 3 3 3 3 3 3 3 3 3 3 3 3 3 3 3 3 3 ",
"n n n n n n n n n n n n n n n n n n n n n n n n n n n n n n n n n n n n n n n n n n n n n n n n n n n n n n n n ",
"L L L L L L L L L L L L L L L L L L L L L L L L L L L L L L L L L L L L L L L L L L L L L L L L L L L L L L L L ",
"] ] ] ] ] ] ] ] ] ] ] ] ] ] ] ] ] ] ] ] ] ] ] ] ] ] ] ] ] ] ] ] ] ] ] ] ] ] ] ] ] ] ] ] ] ] ] ] ] ] ] ] ] ] ] ] ",
"o.o.o.o.X.X.X.X.X.X.X.X.o.o.o.o.o.o.o.o.o.o.o.o.X.o.o.o.o.o.o.o.o.o.o.o.o.o.o.o.o.o.X.X.X.X.o.o.o.o.o.o.X.X.X.X.",
"@.@.@.+.o.+.+.+.o.o.o.o.+.@.@.@.@.@.@.@.@.@.@.@.@.@.@.@.@.@.@.@.@.@.@.@.@.@.@.@.@.+.o.o.o.o.+.@.@.@.@.@.@.+.o.o.",
"@.@.@.@.@.@.@.@.@.+.@.@.@.@.@.@.@.@.@.@.@.@.@.@.@.@.@.@.@.@.@.@.@.@.@.@.@.@.@.@.@.@.@.@.@.@.@.@.@.@.@.@.@.@.@.+.",
"@.@.@.@.@.@.@.@.@.@.@.@.@.@.@.@.@.@.@.@.@.@.@.@.@.@.@.@.@.@.@.@.@.@.@.@.@.@.@.@.@.@.@.@.@.@.@.@.@.@.@.@.@.@.@.@.",
"@.@.@.@.@.@.@.@.@.@.@.@.@.@.@.@.@.@.@.@.@.@.@.@.@.@.@.@.@.@.@.@.@.@.@.@.@.@.@.@.@.@.@.@.@.@.@.@.@.@.@.@.@.@.@.@."
};
