/* XPM */
static char *maximize_pressed[] = {
/* columns rows colors chars-per-pixel */
"40 38 3 1 ",
"  c black",
". c #A7A7A7 s inactive_shadow_2",
"X c #CBCBCB s inactive_mid_2",
/* pixels */
"                                        ",
"                                        ",
"..XXXXXXXXXXXXXXXXXXXXXXXXXXXXXXXXXXXX..",
"..XXXXXXXXXXXXXXXXXXXXXXXXXXXXXXXXXXXX..",
"..XXXXXXXXXXXXXXXXXXXXXXXXXXXXXXXXXXXX..",
"..XXXXXXXXXXXXXXXXXXXXXXXXXXXXXXXXXXXX..",
"..XXXXXXXXXXXXXXXXXXXXXXXXXXXXXXXXXXXX..",
"..XXXXXXXXXXXXXXXXXXXXXXXXXXXXXXXXXXXX..",
"..XXXXXXXXXXXXXXXXXXXXXXXXXXXXXXXXXXXX..",
"..XXXXXXXXXXXXXXXXXXXXXXXXXXXXXXXXXXXX..",
"..XXXXXXXX..                ..XXXXXXXX..",
"..XXXXXXXX..                ..XXXXXXXX..",
"..XXXXXXXX                    XXXXXXXX..",
"..XXXXXXXX                    XXXXXXXX..",
"..XXXXXXXX                    XXXXXXXX..",
"..XXXXXXXX                    XXXXXXXX..",
"..XXXXXXXX                    XXXXXXXX..",
"..XXXXXXXX                    XXXXXXXX..",
"..XXXXXXXX  XXXXXXXXXXXXXXXX  XXXXXXXX..",
"..XXXXXXXX  XXXXXXXXXXXXXXXX  XXXXXXXX..",
"..XXXXXXXX  XXXXXXXXXXXXXXXX  XXXXXXXX..",
"..XXXXXXXX  XXXXXXXXXXXXXXXX  XXXXXXXX..",
"..XXXXXXXX  XXXXXXXXXXXXXXXX  XXXXXXXX..",
"..XXXXXXXX  XXXXXXXXXXXXXXXX  XXXXXXXX..",
"..XXXXXXXX  XXXXXXXXXXXXXXXX  XXXXXXXX..",
"..XXXXXXXX  XXXXXXXXXXXXXXXX  XXXXXXXX..",
"..XXXXXXXX  XXXXXXXXXXXXXXXX  XXXXXXXX..",
"..XXXXXXXX  XXXXXXXXXXXXXXXX  XXXXXXXX..",
"..XXXXXXXX..                ..XXXXXXXX..",
"..XXXXXXXX..                ..XXXXXXXX..",
"..XXXXXXXXXXXXXXXXXXXXXXXXXXXXXXXXXXXX..",
"..XXXXXXXXXXXXXXXXXXXXXXXXXXXXXXXXXXXX..",
"..XXXXXXXXXXXXXXXXXXXXXXXXXXXXXXXXXXXX..",
"..XXXXXXXXXXXXXXXXXXXXXXXXXXXXXXXXXXXX..",
"..XXXXXXXXXXXXXXXXXXXXXXXXXXXXXXXXXXXX..",
"..XXXXXXXXXXXXXXXXXXXXXXXXXXXXXXXXXXXX..",
"........................................",
"........................................"
};
