/* XPM */
static char *bottom_active[] = {
/* columns rows colors chars-per-pixel */
"56 11 4 1 ",
"  c black",
". c gray63",
"X c #E6E6E6 s active_color_2",
"o c white",
/* pixels */
"........................................................",
"........................................................",
"oooooooooooooooooooooooooooooooooooooooooooooooooooooooo",
"oooooooooooooooooooooooooooooooooooooooooooooooooooooooo",
"XXXXXXXXXXXXXXXXXXXXXXXXXXXXXXXXXXXXXXXXXXXXXXXXXXXXXXXX",
"XXXXXXXXXXXXXXXXXXXXXXXXXXXXXXXXXXXXXXXXXXXXXXXXXXXXXXXX",
"XXXXXXXXXXXXXXXXXXXXXXXXXXXXXXXXXXXXXXXXXXXXXXXXXXXXXXXX",
"........................................................",
"........................................................",
"                                                        ",
"                                                        "
};
