/* XPM */
static char *menu_active[] = {
/* columns rows colors chars-per-pixel */
"36 54 5 1 ",
"  c black",
". c #373534 s active_shadow_1",
"X c #7C7976 s active_color_1",
"o c #B3B3B3 s active_text_color",
"O c white",
/* pixels */
"                                    ",
"                                    ",
"                                    ",
"OOOOOOOOOOOOOOOOOOOOOOOOOOOOOOOOOOOO",
"OOOOOOOOOOOOOOOOOOOOOOOOOOOOOOOOOOOO",
"OOOOOOOOOOOOOOOOOOOOOOOOOOOOOOOOOOOO",
"XXXXXXXXXXXXXXXXXXXXXXXXXXXXXXXXXXXX",
"XXXXXXXXXXXXXXXXXXXXXXXXXXXXXXXXXXXX",
"XXXXXXXXXXXXXXXXXXXXXXXXXXXXXXXXXXXX",
"XXXXXXXXXXXXXXXXXXXXXXXXXXXXXXXXXXXX",
"XXXXXXXXXXXXXXXXXXXXXXXXXXXXXXXXXXXX",
"XXXXXXXXXXXXXXXXXXXXXXXXXXXXXXXXXXXX",
"XXXXXXXXXXXXXXXXXXXXXXXXXXXXXXXXXXXX",
"XXXXXXXXXXXXXXXXXXXXXXXXXXXXXXXXXXXX",
"XXXXXXXXXXXXXXXXXXXXXXXXXXXXXXXXXXXX",
"XXXXXXXXXXXXXXXXXXXXXXXXXXXXXXXXXXXX",
"XXXXXXXXXXXXXXXXXXXXXXXXXXXXXXXXXXXX",
"XXXXXXXXXXXXXXXXXXXXXXXXXXXXXXXXXXXX",
"XXXXXXooooooooooooooooooooooooXXXXXX",
"XXXXXXooooooooooooooooooooooooXXXXXX",
"XXXXXXooooooooooooooooooooooooXXXXXX",
"XXXXXXXXXXXXXXXXXXXXXXXXXXXXXXXXXXXX",
"XXXXXXXXXXXXXXXXXXXXXXXXXXXXXXXXXXXX",
"XXXXXXXXXXXXXXXXXXXXXXXXXXXXXXXXXXXX",
"XXXXXXoooooooooXXXXXXoooooooooXXXXXX",
"XXXXXXoooooooooXXXXXXoooooooooXXXXXX",
"XXXXXXoooooooooXXXXXXoooooooooXXXXXX",
"XXXXXXXXXooooooooooooooooooXXXXXXXXX",
"XXXXXXXXXooooooooooooooooooXXXXXXXXX",
"XXXXXXXXXooooooooooooooooooXXXXXXXXX",
"XXXXXXXXXXXXooooooooooooXXXXXXXXXXXX",
"XXXXXXXXXXXXooooooooooooXXXXXXXXXXXX",
"XXXXXXXXXXXXooooooooooooXXXXXXXXXXXX",
"XXXXXXXXXXXXXXXooooooXXXXXXXXXXXXXXX",
"XXXXXXXXXXXXXXXooooooXXXXXXXXXXXXXXX",
"XXXXXXXXXXXXXXXooooooXXXXXXXXXXXXXXX",
"XXXXXXXXXXXXXXXXXXXXXXXXXXXXXXXXXXXX",
"XXXXXXXXXXXXXXXXXXXXXXXXXXXXXXXXXXXX",
"XXXXXXXXXXXXXXXXXXXXXXXXXXXXXXXXXXXX",
"XXXXXXXXXXXXXXXXXXXXXXXXXXXXXXXXXXXX",
"XXXXXXXXXXXXXXXXXXXXXXXXXXXXXXXXXXXX",
"XXXXXXXXXXXXXXXXXXXXXXXXXXXXXXXXXXXX",
"XXXXXXXXXXXXXXXXXXXXXXXXXXXXXXXXXXXX",
"XXXXXXXXXXXXXXXXXXXXXXXXXXXXXXXXXXXX",
"XXXXXXXXXXXXXXXXXXXXXXXXXXXXXXXXXXXX",
"XXXXXXXXXXXXXXXXXXXXXXXXXXXXXXXXXXXX",
"XXXXXXXXXXXXXXXXXXXXXXXXXXXXXXXXXXXX",
"XXXXXXXXXXXXXXXXXXXXXXXXXXXXXXXXXXXX",
"....................................",
"....................................",
"....................................",
"                                    ",
"                                    ",
"                                    "
};
