/* XPM */
static char *hide_pressed[] = {
/* columns rows colors chars-per-pixel */
"27 27 20 1 ",
"  c None",
". c #B1B7B2",
"X c #B1B8B2",
"o c #B2B8B3",
"O c #B3B9B4",
"+ c #B4BAB5 s active_mid_1",
"@ c #B5BBB6",
"# c #B6BCB7",
"$ c #BEC4BF",
"% c #C1C6C1",
"& c #C1C6C2",
"* c #DADDDB",
"= c #DBDEDB",
"- c #DFE1DF",
"; c #E8EAE8",
": c #F2F3F3",
"> c #F5F5F5",
", c #F7F7F7",
"< c #F8F9F8",
"1 c #FFFFFF s active_hilight_1",
/* pixels */
"   111111111111111111111   ",
"  <-*******************-<  ",
" <;$.OOO@O@@@@O@OOOO@@X$;< ",
"1-$@XOOOOOOOO@OOOOOOO@O@$-1",
"1*XO@@@@@@@@@@@@OOO@@@@OX*1",
"1*@O@@@@@@@O@@@@OO@@@@@O@*1",
"1*@O@@@@@@OO@@@@OO@@@@OO@*1",
"1*@O@@@@@@OO@O@@O@@@@@@OO*1",
"1*OO@@@@@@@@@@@@@OOOOO@O@*1",
"1*OO@@@@@@@@@@@@@@OO@@@O@*1",
"1*OO@@@@OOOOOO@@@@@@@@@O@*1",
"1*OOOO@@OOOOOO@@@@@@@@@O@*1",
"1*OOOOO@@@OOO@@@OO@@@@@O@*1",
"1*@OO@OO@OOOO@@@OO@@@@@O@*1",
"1*@O@@@@@@OO@@@@OO@@@@@OO*1",
"1*@O@@@@@@O@@@@@@@@@@@@OO*1",
"1*@O@@@@@XXXXXXXXX@@@@@OO*1",
"1*@@@@@O#$%%%%%%%$#@@@@@O*1",
"1*OO@@@X$;>:::::>;$X@@@OO*1",
"1*@O@@@.%>1111111>%.@@@OO*1",
"1*OO@@@X$;>:::::>;$X@@@O@*1",
"1*OO@@@O#$%%%%%%%$#O@@@O@*1",
"1*.O@O@@@XXX.XXX.XO@OO@OX*1",
"1-$@XOOOOOOOOOOOOOOOOOX@$-1",
" <;$X@@@@OOO@@@@OO@@OO.$;< ",
"  <-*******************-<  ",
"   111111111111111111111   "
};
