/* XPM */
static char *close_pressed[] = {
/* columns rows colors chars-per-pixel */
"36 40 4 1 ",
"  c None",
". c black",
"X c #4B58A2 s active_shadow_1",
"o c #B4BAB5 s active_mid_1",
/* pixels */
"                                    ",
"                                    ",
"                                    ",
"                                    ",
"    XXXXXXXXXXXXXXXXXXXXXXXXXXXX    ",
"    XXXXXXXXXXXXXXXXXXXXXXXXXXXX    ",
"  XXooooooooooooooooooooooooooooXX  ",
"  XXooooooooooooooooooooooooooooXX  ",
"XXooooooooooooooooooooooooooooooooXX",
"XXooooooooooooooooooooooooooooooooXX",
"XXooooooooooooooooooooooooooooooooXX",
"XXooooooooooooooooooooooooooooooooXX",
"XXooooooooooooooooooooooooooooooooXX",
"XXooooooooooooooooooooooooooooooooXX",
"XXoooooooo....oooooooo....ooooooooXX",
"XXoooooooo....oooooooo....ooooooooXX",
"XXoooooooo......oooo......ooooooooXX",
"XXoooooooo......oooo......ooooooooXX",
"XXoooooooooo............ooooooooooXX",
"XXoooooooooo............ooooooooooXX",
"XXoooooooooooo........ooooooooooooXX",
"XXoooooooooooo........ooooooooooooXX",
"XXoooooooooooo........ooooooooooooXX",
"XXoooooooooooo........ooooooooooooXX",
"XXoooooooooo............ooooooooooXX",
"XXoooooooooo............ooooooooooXX",
"XXoooooooo......oooo......ooooooooXX",
"XXoooooooo......oooo......ooooooooXX",
"XXoooooooo....oooooooo....ooooooooXX",
"XXoooooooo....oooooooo....ooooooooXX",
"XXooooooooooooooooooooooooooooooooXX",
"XXooooooooooooooooooooooooooooooooXX",
"XXooooooooooooooooooooooooooooooooXX",
"XXooooooooooooooooooooooooooooooooXX",
"XXooooooooooooooooooooooooooooooooXX",
"XXooooooooooooooooooooooooooooooooXX",
"  XXooooooooooooooooooooooooooooXX  ",
"  XXooooooooooooooooooooooooooooXX  ",
"    XXXXXXXXXXXXXXXXXXXXXXXXXXXX    ",
"    XXXXXXXXXXXXXXXXXXXXXXXXXXXX    "
};
