/* XPM */
static char *stick_inactive[] = {
/* columns rows colors chars-per-pixel */
"60 72 40 1 ",
"  c #9F9F9F",
". c #A3A2A3",
"X c #A7A7A7",
"o c #AAAAAA",
"O c #AEAEAE",
"+ c gray69",
"@ c #B3B3B3",
"# c #B6B6B6",
"$ c gray72",
"% c #BFBFBF",
"& c #C0C0C0",
"* c gray77",
"= c gray78",
"- c #CAC9CA",
"; c gray80",
": c #CECECE",
"> c #D0CFD0",
", c #D0D0D0",
"< c #D4D4D4",
"1 c #D6D5D6",
"2 c #D8D7D8",
"3 c #D8D8D8",
"4 c #DBDBDB",
"5 c #DCDBDC",
"6 c #DEDEDE",
"7 c gray88",
"8 c #E1E1E1",
"9 c #E5E4E5",
"0 c #E7E7E7",
"q c #E8E7E8",
"w c #EAE9EA",
"e c #ECEBEC",
"r c #ECECEC",
"t c #EEEDEE",
"y c #F0EFF0",
"u c #F2F1F2",
"i c #F4F3F4",
"p c #F6F5F6",
"a c gray97",
"s c #F8F7F8",
/* pixels */
"oooooooooooooooooooooooooooooooooooooooooooooooooooooooooooo",
"oooooooooooooooooooooooooooooooooooooooooooooooooooooooooooo",
"oooooooooooooooooooooooooooooooooooooooooooooooooooooooooooo",
"ssssssssssssssssssssssssssssssssssssssssssssssssssssssssssss",
"ssssssssssssssssssssssssssssssssssssssssssssssssssssssssssss",
"ssssssssssssssssssssssssssssssssssssssssssssssssssssssssssss",
"pppppppppppppppppppppppppppppppppppppppppppppppppppppppppppp",
"pppppppppppppppppppppppppppppppppppppppppppppppppppppppppppp",
"pppppppppppppppppppppppppppppppppppppppppppppppppppppppppppp",
"iiiiiiiiiiiiiiiiiiiiiiiiiiiiiiiiiiiiiiiiiiiiiiiiiiiiiiiiiiii",
"iiiiiiiiiiiiiiiiiiiiiiiiiiiiiiiiiiiiiiiiiiiiiiiiiiiiiiiiiiii",
"iiiiiiiiiiiiiiiiiiiiiiiiiiiiiiiiiiiiiiiiiiiiiiiiiiiiiiiiiiii",
"uuuuuuuuuuuuuuuuuuuuuuuuuuuuuuuuuuuuuuuuuuuuuuuuuuuuuuuuuuuu",
"uuuuuuuuuuuuuuuuuuuuuuuuuuuuuuuuuuuuuuuuuuuuuuuuuuuuuuuuuuuu",
"uuuuuuuuuuuuuuuuuuuuuuuuuuuuuuuuuuuuuuuuuuuuuuuuuuuuuuuuuuuu",
"yyyyyyyyyyyyyyyyyyyyyyyy888111111888yyyyyyyyyyyyyyyyyyyyyyyy",
"yyyyyyyyyyyyyyyyyyyyyyyy888111111888yyttyyyyyyyyyyyyyyyyyyyy",
"yyyyyyyyyyyyyyyyyyyyyyyy888111111888yyttyyyyyyyyyyyyyyyyyyyy",
"tttttttttttttttttt---......@@@@@@.XX.. ***eeettttttttttttttt",
"tttttttttttttttttt---......@@@@@@.XX.. ***eeettttttttttttttt",
"tttttttttttttttttt---......@@@@@@XXX...***eeettttttttttttttt",
"eeeeeeeeeeee000oooOOO888pppppppppppp000@@@XXX000eeeeeeeeeeee",
"eeeeeeeeeeee000oooOOO888pppppppppppp000@@@XXX000eeeeeeeeeeee",
"eeeeeeeeeeee000oooOOO888pppppppppppp000@@@XXX000eeeeeeeeeeee",
"wwwwwwwwwqqqooo$$$tttttttttttttttttttttttt%%%XXX000wwwwwwwww",
"wwwwwwwwwqqqooo$$$tttttttttttttttttttttttt%%%XXX000wwwwwwwww",
"wwwwwwwwwqqqooo$$$tttttttttttttttttttttttt%%%XXX000wwwwwwwww",
"000000000***XXX666000000000000000000000000888ooo%%%000000000",
"000000000***XXX666000000000000000000000000888ooo%%%000000000",
"000000000***XXX666000000000000000000000000888ooo%%%000000000",
"000000000   &&&666666666666666666666666666666***   888000000",
"000000000   &&&666666666666666666666666666666***   888000000",
"000000000   &&&666666666666666666666666666666***   888000000",
"088888111...***,,,111111111111111111111111111***XXX,,,800088",
"008888111...***,,,111111111111111111111111111***XXX,,,880888",
"888888111...***,,,111111111111111111111111111***XXX,,,880888",
"888888---OOO******::::::,,,,,,,,,,,,::::::---***OOO***888888",
"888888---OOO******::::::,,,,,,,,,,,,::::::---***OOO***888888",
"888888---OOO****--::::::,,,,,,,,,,,,::::::---***OOO***888888",
"666666::>@@@******---111444666666444111---******@@@:::666666",
"666666>>>@@@******---111444666666444111---******@@@:::666666",
"666666>>>@@@***&**---111444666666444111---******@@@:::666666",
"666666555###**&---444666888888888888666444**-***@@@666556666",
"666666555###***---444666888888888888666444**-***@@@666556666",
"666666555###***---444666888888888888666444*--***@@@555656655",
"444444222&&&&&&,,,666888868888888888888666:::&&&%%%222444444",
"444444222&&&&&&,,,666888888888888888888666:::&&&%%%442444444",
"444444222&&&&&&,,,666888888888888888888666:::&&&%%%444444444",
"222244111666ooo,::666888888888888888888666:::ooo666111444411",
"224244111666ooo,::666888888888888888888666:::ooo666111444411",
"444244111666ooo,,:666888888866888888888666:::ooo666111444441",
"111111111144,,,@@@444666888866888888666111@@@:::444111111111",
"111111111444,,,@@@444666886666888888666111@@@:::444111111111",
"111111111444,,,@@@444666886666888888666111@@@:::444111111111",
"111111111111666,,,ooo:::444466664444:::OOO:::888,,,111111111",
"111111111111666,,,ooo-::444466664444:::OOO:::888,,,11111111,",
"11111111,,11666,,,ooo:::444666664444:::OOO:::8881,,111111111",
",,,,,,,,,,,,,,,666www%%%OOOOOOOOOoOO%%%000666,,,,,,,,,,,,,,,",
",,,,,,,,,,,,,,,666www%%%OOOOOOOOOooO$$%000666,,,,,,,,,,,,,,,",
",,,,,,,,,,,,,,,666www%%%OOOOOOOOOooO$$$000666,,,,,,,,,,,,,,,",
",,,,,,,,,,,,,,,,,,,,,888wtwttttttttt888,,,,,,,,,,,,,,,,,,,,,",
",,,,,,,,,,,,,,,,,,,,,888wwwttttttttt888,,,,,,,,,,,,,,,,,,,,,",
",,,,,,,,,,,,,,,,,,,,,888ttwttttttttt888,,,,,,,,,,,,,,,,,,,,,",
"::::::::::::::::::::::::::::::::::::::::::::::::::::::::::::",
"::::::::::::::::::::::::::::::::::::::::::::::::::::::::::::",
"::::::::::::::::::::::::::::::::::::::::::::::::::::::::::::",
"::::::::::::-:::::::::::::::::-:::::-:::::::::::::::::-:::::",
"::::::::::::::::::::::::::::::::::::::::::::::::::::::::::::",
"::::::::::::::::::-:::::::::::::::::::::::-:::::::::::::::::",
"oooooooooooooooooooooooooooooooooooooooooooooooooooooooooooo",
"oooooooooooooooooooooooooooooooooooooooooooooooooooooooooooo",
"oooooooooooooooooooooooooooooooooooooooooooooooooooooooooooo"
};
