/* XPM */
static char *stick_toggled_active[] = {
/* columns rows colors chars-per-pixel */
"36 26 4 1 ",
"  c None",
". c #A0A0FF s active_shadow_1",
"X c #C0C0FF s active_color_1",
"o c #FFFFFF s active_text_color",
/* pixels */
"                                    ",
"                                    ",
"XXXXXXXXXXXXXXXXXXXXXXXXXXXXXXXXXXXX",
"XXXXXXXXXXXXXXXXXXXXXXXXXXXXXXXXXXXX",
"XXXXXXXXXXXXXXXXXXXXXXXXXXXXXXXXXXXX",
"XXXXXXXXXXXXXXXXXXXXXXXXXXXXXXXXXXXX",
"XXXXXXXXXXXXXXX......XXXXXXXXXXXXXXX",
"XXXXXXXXXXXXXXX......XXXXXXXXXXXXXXX",
"XXXXXXXXXXXXXX.oooooo..XXXXXXXXXXXXX",
"XXXXXXXXXXXX..ooooooooo.XXXXXXXXXXXX",
"XXXXXXXXXXXX..ooooooooo.XXXXXXXXXXXX",
"XXXXXXXXXXX.ooo......ooo..XXXXXXXXXX",
"XXXXXXXXXXX.ooo..ooo.ooo..XXXXXXXXXX",
"XXXXXXXXXXX.ooo..ooo.ooo..XXXXXXXXXX",
"XXXXXXXXXXX.ooo..ooo.ooo..XXXXXXXXXX",
"XXXXXXXXXXX.ooo......ooo..XXXXXXXXXX",
"XXXXXXXXXXX.ooo......ooo..XXXXXXXXXX",
"XXXXXXXXXXXX..ooooooooo.XXXXXXXXXXXX",
"XXXXXXXXXXXXXX.oooooo..XXXXXXXXXXXXX",
"XXXXXXXXXXXXXX.oooooo..XXXXXXXXXXXXX",
"XXXXXXXXXXXXXXX......XXXXXXXXXXXXXXX",
"XXXXXXXXXXXXXXXXXXXXXXXXXXXXXXXXXXXX",
"XXXXXXXXXXXXXXXXXXXXXXXXXXXXXXXXXXXX",
"XXXXXXXXXXXXXXXXXXXXXXXXXXXXXXXXXXXX",
"XXXXXXXXXXXXXXXXXXXXXXXXXXXXXXXXXXXX",
"XXXXXXXXXXXXXXXXXXXXXXXXXXXXXXXXXXXX"
};
