/* XPM */
static char *bottom_right_active[] = {
/* columns rows colors chars-per-pixel */
"21 21 4 1 ",
"  c None",
". c #414C62",
"X c #8B9DAC",
"o c #BDC6CD",
/* pixels */
"                ooX..",
"                ooX..",
"                ooX..",
"                ooX..",
"                ooX..",
"                ooX..",
"                ooX..",
"                ooX..",
"                ooX..",
"                ooX..",
"                ooX..",
"                ooX..",
"                ooX..",
"                ooX..",
"                ooX..",
"                ooX..",
"ooooooooooooooooooX..",
"ooooooooooooooooooX..",
"XXXXXXXXXXXXXXXXXXX..",
".....................",
"....................."
};
