/* XPM */
static char *top_left_inactive[] = {
/* columns rows colors chars-per-pixel */
"14 39 31 1 ",
"  c None",
". c gray71",
"X c #B7B7B7",
"o c #B8B8B8",
"O c #BABABA",
"+ c #BCBCBC",
"@ c gray75",
"# c #C3C3C3",
"$ c #C5C5C5",
"% c #C6C6C6",
"& c gray79",
"* c #CACACA",
"= c gray80",
"- c #CFCFCF",
"; c #D2D2D2",
": c #D6D6D6",
"> c #D8D8D8",
", c #DBDBDB",
"< c #DFDFDF",
"1 c #E1E1E1",
"2 c #E3E3E3",
"3 c #E6E6E6",
"4 c #E8E8E8",
"5 c gray92",
"6 c #ECECEC",
"7 c gray93",
"8 c gray94",
"9 c #F3F3F3",
"0 c gray96",
"q c #F8F8F8",
"w c #FAFAFA",
/* pixels */
"     OOOOOOXXX",
"     OOOOOOOXX",
"    O++--22222",
"    O++--22222",
"  OO+--<<44444",
"  OO+::2244444",
"  OO+::2244444",
"OOXX+;;<<22222",
"OOXX+;;<<22222",
"OOXX#--::>>>>>",
"OOXX#--::>>>>>",
"OOOO$&&;;:::::",
"OO++&--:::::::",
"OO++&--:::::::",
"XX##&;;::>>>>>",
"XX##&;;::>>>>>",
"XX$$-;;>><>>>>",
"XX$$-;;>><>>>>",
"OO&&;>><<<<<<<",
"OO&&;>><<<<<<<",
"OO&&:>><<22222",
"OO--:>>2222222",
"XX--:>>2222222",
"XX--><<2244444",
"XO--><<2244444",
"OO--<224444444",
"OX--<224444444",
"OO;;<224477777",
"XX::<447788888",
"XX::<447788878",
"OO::2447788888",
"OO::2447788888",
"++>>2778888888",
"++>>2778888808",
"OO>>3880000000",
"XX>>788qqqqqqq",
"XX>>788qqqqqqq",
"OO>>48800qqqqq",
"OO>>48800qqqqq"
};
