/* XPM */
static char *shade_toggled_active[] = {
/* columns rows colors chars-per-pixel */
"27 33 2 1 ",
"  c None",
". c #C0C0FF s active_color_1",
/* pixels */
"                           ",
"                           ",
"                           ",
"                           ",
"                           ",
"                           ",
"  .......................  ",
" ......................... ",
"...........................",
"...........................",
"...........................",
"...........................",
"...........................",
"...........................",
"...........................",
"...........................",
"...........................",
"...........................",
"...........................",
"...........................",
"...........................",
"...........................",
"...........................",
"...........................",
"...........................",
"...........................",
"...........................",
"...........................",
" ......................... ",
"  .......................  ",
"                           ",
"                           ",
"                           "
};
