/* XPM */
static char *stick_active[] = {
/* columns rows colors chars-per-pixel */
"60 72 111 2 ",
"   c #431D52",
".  c #481E5A",
"X  c #413347",
"o  c #483D4C",
"O  c #452153",
"+  c #462255",
"@  c #4F2163",
"#  c #58266E",
"$  c #562C68",
"%  c #592A6D",
"&  c #563365",
"*  c #573B64",
"=  c #583E64",
"-  c #583268",
";  c #5C336E",
":  c #5D396C",
">  c #612879",
",  c #672F7F",
"<  c #653A77",
"1  c #65327B",
"2  c #69377E",
"3  c #673C79",
"4  c #4D4351",
"5  c #524D54",
"6  c #565157",
"7  c #5D595E",
"8  c #684576",
"9  c #6E4A7D",
"0  c #736C76",
"q  c #77717A",
"w  c #6D3784",
"e  c #77488C",
"r  c #7B6E80",
"t  c #8939AB",
"y  c #8A3AAC",
"u  c #8C3BAF",
"i  c #8D3CB0",
"p  c #855898",
"a  c #837A87",
"s  c #9144B2",
"d  c #9449B5",
"f  c #974EB7",
"g  c #984FB7",
"h  c #9E59BB",
"j  c #A05CBC",
"k  c #A165BB",
"l  c #A261BE",
"z  c #A463BF",
"x  c #A464BF",
"c  c #A464C0",
"v  c #A769C2",
"b  c #AA6DC4",
"n  c #AC72C5",
"m  c #AE75C7",
"M  c #B27BC9",
"N  c #B37DCA",
"B  c #B47ECA",
"V  c #8F8D90",
"C  c #908D91",
"Z  c #939393",
"A  c #9A989A",
"S  c #9B999C",
"D  c #9F9E9F",
"F  c #A0A0A0",
"G  c #A7A6A7",
"H  c #AAAAAA",
"J  c #B7B6B7",
"K  c #BFBEBF",
"L  c #B580CB",
"P  c #B988CE",
"I  c #BE91D2",
"U  c #C093D3",
"Y  c #C094D3",
"T  c #C195D4",
"R  c #C398D5",
"E  c #C9A7D7",
"W  c #C8A2D9",
"Q  c #CFACDD",
"!  c #CFB0DC",
"~  c #C3C2C3",
"^  c #C4C3C4",
"/  c #C6C6C6",
"(  c #CACACA",
")  c #CDCDCD",
"_  c #D0D0D0",
"`  c #D3D3D3",
"'  c #D4D4D4",
"]  c #D7D7D7",
"[  c #D8D7D8",
"{  c #D8D8D8",
"}  c #DBDADB",
"|  c #DCDBDC",
" . c #DFDEDF",
".. c #DAC1E5",
"X. c #DDC5E7",
"o. c #DFC8E8",
"O. c #EBDDF1",
"+. c #E0E0E0",
"@. c #E4E3E4",
"#. c #E7E7E7",
"$. c #E8E7E8",
"%. c #EAE9EA",
"&. c #ECEBEC",
"*. c #EEEDEE",
"=. c #ECE0F2",
"-. c #EFE4F4",
";. c #F0EFF0",
":. c #F2F1F2",
">. c #F4F3F4",
",. c #F6F5F6",
"<. c #F8F7F8",
/* pixels */
"H H H H H H H H H H H H H H H H H H H H H H H H H H H H H H H H H H H H H H H H H H H H H H H H H H H H H H H H H H H H ",
"H H H H H H H H H H H H H H H H H H H H H H H H H H H H H H H H H H H H H H H H H H H H H H H H H H H H H H H H H H H H ",
"H H H H H H H H H H H H H H H H H H H H H H H H H H H H H H H H H H H H H H H H H H H H H H H H H H H H H H H H H H H H ",
"<.<.<.<.<.<.<.<.<.<.<.<.<.<.<.<.<.<.<.<.<.<.<.<.<.<.<.<.<.<.<.<.<.<.<.<.<.<.<.<.<.<.<.<.<.<.<.<.<.<.<.<.<.<.<.<.<.<.<.<.",
"<.<.<.<.<.<.<.<.<.<.<.<.<.<.<.<.<.<.<.<.<.<.<.<.<.<.<.<.<.<.<.<.<.<.<.<.<.<.<.<.<.<.<.<.<.<.<.<.<.<.<.<.<.<.<.<.<.<.<.<.",
"<.<.<.<.<.<.<.<.<.<.<.<.<.<.<.<.<.<.<.<.<.<.<.<.<.<.<.<.<.<.<.<.<.<.<.<.<.<.<.<.<.<.<.<.<.<.<.<.<.<.<.<.<.<.<.<.<.<.<.<.",
",.,.,.,.,.,.,.,.,.,.,.,.,.,.,.,.,.,.,.,.,.,.,.,.,.,.,.,.,.,.,.,.,.,.,.,.,.,.,.,.,.,.,.,.,.,.,.,.,.,.,.,.,.,.,.,.,.,.,.,.",
",.,.,.,.,.,.,.,.,.,.,.,.,.,.,.,.,.,.,.,.,.,.,.,.,.,.,.,.,.,.,.,.,.,.,.,.,.,.,.,.,.,.,.,.,.,.,.,.,.,.,.,.,.,.,.,.,.,.,.,.",
",.,.,.,.,.,.,.,.,.,.,.,.,.,.,.,.,.,.,.,.,.,.,.,.,.,.,.,.,.,.,.,.,.,.,.,.,.,.,.,.,.,.,.,.,.,.,.,.,.,.,.,.,.,.,.,.,.,.,.,.",
">.>.>.>.>.>.>.>.>.>.>.>.>.>.>.>.>.>.>.>.>.>.>.>.>.>.>.>.>.>.>.>.>.>.>.>.>.>.>.>.>.>.>.>.>.>.>.>.>.>.>.>.>.>.>.>.>.>.>.>.",
">.>.>.>.>.>.>.>.>.>.>.>.>.>.>.>.>.>.>.>.>.>.>.>.>.>.>.>.>.>.>.>.>.>.>.>.>.>.>.>.>.>.>.>.>.>.>.>.>.>.>.>.>.>.>.>.>.>.>.>.",
">.>.>.>.>.>.>.>.>.>.>.>.>.>.>.>.>.>.>.>.>.>.>.>.>.>.>.>.>.>.>.>.>.>.>.>.>.>.>.>.>.>.>.>.>.>.>.>.>.>.>.>.>.>.>.>.>.>.>.>.",
":.:.:.:.:.:.:.:.:.:.:.:.:.:.:.:.:.:.:.:.:.:.:.:.:.:.:.:.:.:.:.:.:.:.:.:.:.:.:.:.:.:.:.:.:.:.:.:.:.:.:.:.:.:.:.:.:.:.:.:.",
":.:.:.:.:.:.:.:.:.:.:.:.:.:.:.:.:.:.:.:.:.:.:.:.:.:.:.:.:.:.:.:.:.:.:.:.:.:.:.:.:.:.:.:.:.:.:.:.:.:.:.:.:.:.:.:.:.:.:.:.",
":.:.:.:.:.:.:.:.:.:.:.:.:.:.:.:.:.:.:.:.:.:.:.:.:.:.:.:.:.:.:.:.:.:.:.:.:.:.:.:.:.:.:.:.:.:.:.:.:.:.:.:.:.:.:.:.:.:.:.:.",
";.;.;.;.;.;.;.;.;.;.;.;.;.;.;.;.;.;.;.;.;.;.;.;.+.+.+.^ ^ ^ ~ ~ ~  . . .;.;.;.;.;.;.;.;.;.;.;.;.;.;.;.;.;.;.;.;.;.;.;.;.",
";.;.;.;.;.;.;.;.;.;.;.;.;.;.;.;.;.;.;.;.;.;.;.;.+.+.+.^ ^ ^ ~ ~ ~  . . .;.;.;.;.;.;.;.;.;.;.;.;.;.;.;.;.;.;.;.;.;.;.;.;.",
";.;.;.;.;.;.;.;.;.;.;.;.;.;.;.;.;.;.;.;.;.;.;.;.+.+.+.^ ^ ^ ~ ~ ~  . . .;.;.;.;.;.;.;.;.;.;.;.;.;.;.;.;.;.;.;.;.;.;.;.;.",
"*.*.*.*.*.*.*.*.*.*.*.*.*.*.*.*.*.*.G G G 4 4 4 O O O < < < 3 3 3 + + + o o o D D D *.*.*.*.*.*.*.*.*.*.*.*.*.*.*.*.*.*.",
"*.*.*.*.*.*.*.*.*.*.*.*.*.*.*.*.*.*.G G G 4 4 4 O O O < < < 3 3 3 + + + o o o D D D *.*.*.*.*.*.*.*.*.*.*.*.*.*.*.*.*.*.",
"*.*.*.*.*.*.*.*.*.*.*.*.*.*.*.*.*.*.G G G 4 4 4 O O O < < < 3 3 3 + + + o o o D D D *.*.*.*.*.*.*.*.*.*.*.*.*.*.*.*.*.*.",
"&.&.&.&.&.&.&.&.&.&.&.&.#.#.#.7 7 7 : : : E E E O.O.O.-.-.-.-.-.-.=.=.=.! ! ! 8 8 8 6 6 6 @.@.@.&.&.&.&.&.&.&.&.&.&.&.&.",
"&.&.&.&.&.&.&.&.&.&.&.&.#.#.#.7 7 7 : : : E E E O.O.O.-.-.-.-.-.-.=.=.=.! ! ! 8 8 8 6 6 6 @.@.@.&.&.&.&.&.&.&.&.&.&.&.&.",
"&.&.&.&.&.&.&.&.&.&.&.&.#.#.#.7 7 7 : : : E E E O.O.O.-.-.-.-.-.-.=.=.=.! ! ! 8 8 8 6 6 6 @.@.@.&.&.&.&.&.&.&.&.&.&.&.&.",
"%.%.%.%.%.%.%.%.%.%.%.%.7 7 7 e e e ......o.o.o.o.o.o.o.o.o.o.o.o.o.o.o.o.o.o.X.X.X.p p p 5 5 5 $.$.$.%.%.%.%.%.%.%.%.%.",
"%.%.%.%.%.%.%.%.%.%.%.%.7 7 7 e e e ......o.o.o.o.o.o.o.o.o.o.o.o.o.o.o.o.o.o.X.X.X.p p p 5 5 5 $.$.$.%.%.%.%.%.%.%.%.%.",
"%.%.%.%.%.%.%.%.%.%.%.%.7 7 7 e e e ......o.o.o.o.o.o.o.o.o.o.o.o.o.o.o.o.o.o.X.X.X.p p p 5 5 5 $.$.$.%.%.%.%.%.%.%.%.%.",
"#.#.#.#.#.#.#.#.#.F F F @ @ @ T T T Q Q Q Q Q Q Q Q Q Q Q Q Q Q Q Q Q Q Q Q Q Q Q Q W W W # # # Z Z Z #.#.#.#.#.#.#.#.#.",
"#.#.#.#.#.#.#.#.#.F F F @ @ @ T T T Q Q Q Q Q Q Q Q Q Q Q Q Q Q Q Q Q Q Q Q Q Q Q Q W W W # # # Z Z Z #.#.#.#.#.#.#.#.#.",
"#.#.#.#.#.#.#.#.#.F F F @ @ @ T T T Q Q Q Q Q Q Q Q Q Q Q Q Q Q Q Q Q Q Q Q Q Q Q Q W W W # # # Z Z Z #.#.#.#.#.#.#.#.#.",
"#.#.#.#.#.#.#.#.#.o o o t t t I I I I I I I I I I I I I I I I I I I I I I I I I I I I I I s s s X X X #.#.#.#.#.#.#.#.#.",
"#.#.#.#.#.#.#.#.#.o o o t t t I I I I I I I I I I I I I I I I I I I I I I I I I I I I I I s s s X X X #.#.#.#.#.#.#.#.#.",
"#.#.#.#.#.#.#.#.#.o o o t t t I I I I I I I I I I I I I I I I I I I I I I I I I I I I I I s s s X X X #.#.#.#.#.#.#.#.#.",
"#.#.+.+.+.+.` ` `       u u u b b b m m m m m m m m m m m m m m m m m m m m m m m m n n n i i i . . . ( ( ( @.@.+.+.+.+.",
"#.#.+.+.+.+.` ` `       u u u b b b m m m m m m m m m m m m m m m m m m m m m m m m n n n i i i . . . ( ( ( +.+.+.+.+.+.",
"#.#.+.+.+.+.` ` `       u u u b b b m m m m m m m m m m m m m m m m m m m m m m m m n n n i i i . . . ( ( ( +.+.+.+.+.+.",
"+.+.+. .+.+.J J J # # # u u u s s s h h h j j j x x x v v v v v v z z z j j j h h h d d d u u u > > > H H H +.+.+.+.+.+.",
"+.+.+.+.+.+.J J J # # # u u u s s s h h h j j j x x x v v v v v v z z z j j j h h h d d d u u u > > > H H H +.+.+.+.+.+.",
"+.+. . .+.+.J J J # # # u u u s s s h h h j j j x x x v v v v v v z z z j j j h h h d d d u u u > > > H H H +.+.+.+.+.+.",
" . . . . . ./ / / 1 1 1 u u u u u u g g g n n n P P P I I I I I I P P P n n n f f f u u u u u u , , , K K K  . . . . . .",
" . . . . . ./ / / 1 1 1 u u u u u u g g g n m n P P P I I I I I I P P P n n n f f f u u u u u u , , , K K K  . . . . . .",
" . . . . . ./ / / 1 1 1 u u u u u u g g g n n n P P P I I I I I I P P P n n n f f f u u u u u u , , , K K K  . . . . . .",
" . . . . . .| | | 9 9 9 u u u d d d L L L T T T R R R R R R R R R R R R T T T B B B d d d u u u 3 3 3 | | |  .|  . . . .",
" . . . . . .| | | 9 9 9 u u u d d d L L L T T T R R R R R R R R R R R R T T T B B B d d d u u u 3 3 3 | } |  . . . . . .",
" . . . . . .| | | 9 9 9 u u u d d d L L L T T T R R R R R R R R R R R R T T T B B B d d d u u u 3 3 3 | | |  . . . . .| ",
"} } } } } } [ [ [ a a a t t t c c c Y Y Y R R R R R R R R R R R R R R R R R R Y Y Y l l l y y y r r r } } } } } } } } } ",
"} } } } } } [ [ [ a a a t t t c c c Y Y Y R R R R R R R R R R R R R R R R R R Y Y Y l l l y y y r r r } } } } } } } } } ",
"} } } } } } [ [ [ a a a t t t c c c Y Y Y R R R R R R R R R R R R R R R R R R Y Y Y l l l y y y r r r } } } } } } } } } ",
"} } } } } } ] ] ] ) ) ) $ $ $ c c c Y Y Y R R R R R R R R R R R R R R R R R R U U U l l l % % % / / / ] ] ] } } } } ] ] ",
"} } } } } } ] ] ] ) ) ) $ $ $ c c c Y Y Y R R R R R R R R R R R R R R R R R R U U U l l l % % % / / / ] ] ] } } } } ] ] ",
"] } } } } } ] ] ] ) ) ) $ $ $ c c c Y Y Y R R R R R R R R R R R R R R R R R R U U U l l l % % % / / / ] ] ] ] ] } } } ] ",
"] ] ] ] ] ] ] ] ] ] } } S S S 2 2 2 N N N T T T R R R R R R R R R R R R Y Y Y M M M w w w C C C } } } ] ] ] ] ] ] ] ] ] ",
"] ] ] ] ] ] ] ] ] } } } S S S 2 2 2 N N N T T T R R R R R R R R R R R R Y Y Y M M M w w w V C C } } } ] ] ] ] ] ] ] ] ] ",
"] ] ] ] ] ] ] ] ] } } } S S S 2 2 2 N N N T T T R R R R R R R R R R R R Y Y Y M M M w w w V C C } } } ] ] ] ] ] ] ] ] ] ",
"` ] ] ] ] ` ` ` ] ] ] ]  . . .A A A & & & k k k L L L P P P P P P L L L k k k - - - V V V  . . .` ` ` ] ] ] ] ] ] ] ] ] ",
"` ` ] ] ] ] ` ` ` ` ] ]  . . .A A A & & & k k k L L L P P P P P P L L L k k k - - - V V V  . . .` ` ` ] ] ] ] ` ] ] ` ` ",
"] ] ] ` ` ` ] ] ` ` ] ]  . . .A A A & & & k k k L L L P P P P P P L L L k k k - & & V V V  . . .` ` ` ` ] ] ] ] ] ] ` ` ",
"` ` ` ` ` ` ` ` ` ` ` ` ` ` ` } } } ] ] ] q q q = = = ; ; ; ; ; ; * * * 0 0 0 ` ` `  . . .` ` ` ` ` ` ` ` ` ` ` ` ` ` ` ",
"` ` ` ` ` ` ` ` ` ` ` ` ` ` ` } } } ] ] ] q q q = = = ; ; ; ; ; ; * * * 0 0 0 ` ` `  . . .` ` ` ` ` ` ` ` ` ` ` ` ` ` ` ",
"` ` ` ` ` ` ` ` ` ` ` ` ` ` ` } } } ] ] ] q q q = = = ; ; ; ; ; ; * * * 0 0 0 ` ` `  . . .` ` ` ` ` ` ` ` ` ` ` ` ` ` ` ",
") ) ) ` ` ` ` ` ` ` ` ` ` ` ` ` ) ` ` ` ` +.+.+.*.*.*.%.%.%.%.%.%.*.*.*.+.+.+.` ` ` ` ` ` ` ` ` ` ` ` ` ) ) ` ` ` ` ` ` ",
") ) ` ) ) ) ` ` ` ` ` ` ` ` ) ` ` ` ` ` ` +.+.+.*.*.*.%.%.%.%.%.%.*.*.*.+.+.+.` ) ) ` ` ` ` ` ` ` ` ) ) ) ) ` ` ` ` ` ` ",
"` ` ) ` ) ) ) ` ` ` ` ) ) ) ` ` ` ` ` ` ` +.+.+.*.*.*.%.%.%.%.%.%.*.*.*.+.+.+.` ) ) ) ) ` ` ` ` ) ) ) ) ) ) ` ` ` ` ) ) ",
") ) ) ) ) ) ) ) ) ) ) ) ) ) ) ) ) ) ) ) ) ) ) ) ) ) ) ) ) ) ) ) ) ) ) ) ) ) ) ) ) ) ) ) ) ) ) ) ) ) ) ) ) ) ) ) ) ) ) ) ",
") ) ) ) ) ) ) ) ) ) ) ) ) ) ) ) ) ) ) ) ) ) ) ) ) ) ) ) ) ) ) ) ) ) ) ) ) ) ) ) ) ) ) ) ) ) ) ) ) ) ) ) ) ) ) ) ) ) ) ) ",
") ) ) ) ) ) ) ) ) ) ) ) ) ) ) ) ) ) ) ) ) ) ) ) ) ) ) ) ) ) ) ) ) ) ) ) ) ) ) ) ) ) ) ) ) ) ) ) ) ) ) ) ) ) ) ) ) ) ) ) ",
") ) ) ) ) ) ) ) ) ) ) ) ) ) ) ) ) ) ) ) ) ) ) ) ) ) ) ) ) ) ) ) ) ) ) ) ) ) ) ) ) ) ) ) ) ) ) ) ) ) ) ) ) ) ) ) ) ) ) ) ",
") ) ) ) ) ) ) ) ) ) ) ) ) ) ) ) ) ) ) ) ) ) ) ) ) ) ) ) ) ) ) ) ) ) ) ) ) ) ) ) ) ) ) ) ) ) ) ) ) ) ) ) ) ) ) ) ) ) ) ) ",
") ) ) ) ) ) ) ) ) ) ) ) ) ) ) ) ) ) ) ) ) ) ) ) ) ) ) ) ) ) ) ) ) ) ) ) ) ) ) ) ) ) ) ) ) ) ) ) ) ) ) ) ) ) ) ) ) ) ) ) ",
"H H H H H H H H H H H H H H H H H H H H H H H H H H H H H H H H H H H H H H H H H H H H H H H H H H H H H H H H H H H H ",
"H H H H H H H H H H H H H H H H H H H H H H H H H H H H H H H H H H H H H H H H H H H H H H H H H H H H H H H H H H H H ",
"H H H H H H H H H H H H H H H H H H H H H H H H H H H H H H H H H H H H H H H H H H H H H H H H H H H H H H H H H H H H "
};
