/* XPM */
static char *maximize_active[] = {
/* columns rows colors chars-per-pixel */
"24 30 89 1 ",
"  c None",
". c black",
"X c #131313",
"o c #242424",
"O c #252525",
"+ c #262626",
"@ c #5C5C5C",
"# c #6A6A6A",
"$ c #6A6D6A s active_shadow_2",
"% c #6D6D6D",
"& c #6C6F6C",
"* c #6E6E6E",
"= c #6F6F6F",
"- c #707070",
"; c #737373",
": c #737673",
"> c #757875",
", c #767876",
"< c #767976",
"1 c #787B78",
"2 c #808080",
"3 c #818181",
"4 c #818381",
"5 c #838383",
"6 c #818481",
"7 c #828582",
"8 c #838583",
"9 c #838683",
"0 c #858785",
"q c #888B88",
"w c #898C89",
"e c #8A8D8A",
"r c #8B8E8B",
"t c #8C8E8C",
"y c #8D8F8D",
"u c #8D908D",
"i c #969996",
"p c #A1A3A1",
"a c #A4A6A4",
"s c #A5A7A5",
"d c #A6A8A6",
"f c #A6A9A6",
"g c #A7A9A7",
"h c #A7AAA7",
"j c #AEB0AE",
"k c #B2B4B2",
"l c #B3B5B3",
"z c #B4B6B4 s active_mid_2",
"x c #B5B6B5",
"c c #B5B7B5",
"v c #B8B8B8",
"b c #B9B9B9",
"n c #BABABA",
"m c #BBBCBB",
"M c #BCBDBC",
"N c #BDBFBD",
"B c #C1C3C1",
"V c #C2C3C2",
"C c #C4C5C4",
"Z c #C9CAC9",
"A c #CACACA",
"S c #CBCACB",
"D c #CDCDCD",
"F c #CFD0CF",
"G c #D0D1D0",
"H c #D3D4D3",
"J c #D5D6D5",
"K c #D8D8D8",
"L c #D8D9D8",
"P c #D9D9D9",
"I c #DADBDA",
"U c #DCDCDC",
"Y c gray87",
"T c #DFDFDF",
"R c #E0E0E0",
"E c #E5E5E5",
"W c #E6E6E6",
"Q c #E6E7E6",
"! c #E7E7E7",
"~ c #E8E8E8",
"^ c #EAEAEA",
"/ c #EDEDED",
"( c #F3F3F3",
") c #F7F7F7",
"_ c #F8F7F8",
"` c #FAF9FA",
"' c #FBFBFB",
"] c #FCFCFC",
"[ c white",
/* pixels */
"                        ",
"                        ",
"                        ",
"                        ",
"                        ",
"zjggggggggggggggggggghH]",
"zi<<<<<<<<<<<<<<<<<<<<M]",
"zy:szllllllllllllzza0&z]",
"zr7W]'']]]]]]]]]]]'Pg<z]",
"zr7W)WWWWWWWWWWWWWWFg<z]",
"zr7W)A2#********#2AFg<z]",
"zr7W'n+..........+nHg<z]",
"zr7W'n+..........+nHg<z]",
"zr7W'n+.X@;**;@X.+nHg<z]",
"zr7W'n+.+nWTTWn+.+nHg<z]",
"zr7W'n+.+n~RRWn+.+nHg<z]",
"zr7W'n+.+nWTTWn+.+nHg<z]",
"zr7W'n+.+nWRRWn+.+nHg<z]",
"zr7W'n+.+nWTTWn+.+nHg<z]",
"zr7W'n+.X@;**;@X.+nHg<z]",
"zr7W'no..........+nHg<z]",
"zr7W'n+..........+nHg<z]",
"zr7~'D2*;;;;;;;;*2DGg<z]",
"zy2U~KPPPPPPPPPPPPPAg<z]",
"zu1lVMMMMMMMMMMMMMMmg<z]",
"lr$7rqqqqqqqqqqqqqqr7$l]",
"Va77777700777777007777C]",
"(/WWWWWWWWWWWWWWWWWWWW(]",
"                        ",
"                        "
};
