/* XPM */
static char *bottom_right_inactive[] = {
/* columns rows colors chars-per-pixel */
"48 48 4 1 ",
"  c None",
". c #A39C97 s inactive_shadow_2",
"X c #D2CFCC s inactive_mid_2",
"o c #E6E3E1 s inactive_color_2",
/* pixels */
"                                 ooooooXXXXXX...",
"                                 ooooooXXXXXX...",
"                                 ooooooXXXXXX...",
"                                 ooooooXXXXXX...",
"                                 ooooooXXXXXX...",
"                                 ooooooXXXXXX...",
"                                 ooooooXXXXXX...",
"                                 ooooooXXXXXX...",
"                                 ooooooXXXXXX...",
"                                 ooooooXXXXXX...",
"                                 ooooooXXXXXX...",
"                                 ooooooXXXXXX...",
"                                 ooooooXXXXXX...",
"                                 ooooooXXXXXX...",
"                                 ooooooXXXXXX...",
"                                 ooooooXXXXXX...",
"                                 ooooooXXXXXX...",
"                                 ooooooXXXXXX...",
"                                 ooooooXXXXXX...",
"                                 ooooooXXXXXX...",
"                                 ooooooXXXXXX...",
"                                 ooooooXXXXXX...",
"                                 ooooooXXXXXX...",
"                                 ooooooXXXXXX...",
"                                 ooooooXXXXXX...",
"                                 ooooooXXXXXX...",
"                                 ooooooXXXXXX...",
"                                 ooooooXXXXXX...",
"                                 ooooooXXXXXX...",
"                                 ooooooXXXXXX...",
"                                 ooooooXXXXXX...",
"                                 ooooooXXXXXX...",
"                                 ooooooXXXXXX...",
"oooooooooooooooooooooooooooooooooooooooXXXXXX...",
"oooooooooooooooooooooooooooooooooooooooXXXXXX...",
"oooooooooooooooooooooooooooooooooooooooXXXXXX...",
"oooooooooooooooooooooooooooooooooooooooXXXXXX...",
"oooooooooooooooooooooooooooooooooooooooXXXXXX...",
"oooooooooooooooooooooooooooooooooooooooXXXXXX...",
"XXXXXXXXXXXXXXXXXXXXXXXXXXXXXXXXXXXXXXXXXXXXX...",
"XXXXXXXXXXXXXXXXXXXXXXXXXXXXXXXXXXXXXXXXXXXXX...",
"XXXXXXXXXXXXXXXXXXXXXXXXXXXXXXXXXXXXXXXXXXXXX...",
"................................................",
"................................................",
"................................................",
"................................................",
"................................................",
"................................................"
};
