/* XPM */
static char *menu_pressed[] = {
/* columns rows colors chars-per-pixel */
"20 26 3 1 ",
"  c None",
". c black",
"X c #4B58A2 s active_shadow_2",
/* pixels */
"                    ",
"                    ",
"                    ",
"                    ",
"                    ",
"....................",
"....................",
".XXXXXXXXXXXXXXXXXX.",
".XXXXXXXXXXXXXXXXXX.",
".XXXXXXXXXXXXXXXXXX.",
".XXXXXXXXXXXXXXXXXX.",
".XXXXXXXXXXXXXXXXXX.",
".XXXXXXXXXXXXXXXXXX.",
".XXXXX..XXXXX.XXXXX.",
".XXXX....XX....XXXX.",
".XXXX....XX....XXXX.",
".XXXX..........XXXX.",
".XXXXX........XXXXX.",
".XXXXXXX.....XXXXXX.",
".XXXXXXX.....XXXXXX.",
".XXXXXXXX..XXXXXXXX.",
".XXXXXXXXXXXXXXXXXX.",
".XXXXXXXXXXXXXXXXXX.",
".XXXXXXXXXXXXXXXXXX.",
".XXXXXXXXXXXXXXXXXX.",
"...................."
};
