/* XPM */
static char *close_active[] = {
/* columns rows colors chars-per-pixel */
"35 42 110 2 ",
"   c #601B1B",
".  c #601E1E",
"X  c #681B1B",
"o  c #741D1D",
"O  c #4D3232",
"+  c #523D3D",
"@  c #7E2626",
"#  c #772929",
"$  c #762F2F",
"%  c #6E3B3B",
"&  c #713030",
"*  c #7B3030",
"=  c #7C3030",
"-  c #793636",
";  c #554242",
":  c #564D4D",
">  c #585152",
",  c #5F5959",
"<  c #605B5B",
"1  c #786B6B",
"2  c #7C7171",
"3  c #802222",
"4  c #8D2323",
"5  c #8D2D2D",
"6  c #932A2A",
"7  c #863636",
"8  c #8F3333",
"9  c #873C3C",
"0  c #883838",
"q  c #973333",
"w  c #C53232",
"e  c #C93333",
"r  c #CC3333",
"t  c #CD3535",
"y  c #CD3E3E",
"u  c #834242",
"i  c #894747",
"p  c #9C4444",
"a  c #A85454",
"s  c #856D6D",
"d  c #8A7A7A",
"f  c #CF4242",
"g  c #D04242",
"h  c #D14747",
"j  c #D14949",
"k  c #D45353",
"l  c #D45656",
"z  c #D65B5B",
"x  c #D65E5E",
"c  c #CE6161",
"v  c #D06060",
"b  c #D76464",
"n  c #D86464",
"m  c #D96868",
"M  c #DA6D6D",
"N  c #DB7070",
"B  c #DC7676",
"V  c #DD7979",
"C  c #DE7C7C",
"Z  c #928C8C",
"A  c #939393",
"S  c #9B9898",
"D  c #9D9999",
"F  c #9F9E9F",
"G  c #A0A0A0",
"H  c #A7A6A7",
"J  c #AAAAAA",
"K  c #B7B6B7",
"L  c #BFBEBF",
"P  c #DF8484",
"I  c #E08484",
"U  c #E28D8D",
"Y  c #E39090",
"T  c #E49494",
"R  c #E79E9E",
"E  c #E3A4A4",
"W  c #E7ADAD",
"Q  c #E9A9A9",
"!  c #EEBEBE",
"~  c #C3C2C3",
"^  c #C4C3C4",
"/  c #C6C6C6",
"(  c #CACACA",
")  c gray80",
"_  c #CDCDCD",
"`  c #D0D0D0",
"'  c #D3D3D3",
"]  c #D7D7D7",
"[  c #D8D7D8",
"{  c #D9D8D9",
"}  c #DCDBDC",
"|  c #DFDEDF",
" . c #DFDFDF",
".. c #F0C3C3",
"X. c #F0C6C6",
"o. c #F6DBDB",
"O. c #F6DEDE",
"+. c #E0E0E0",
"@. c #E4E3E4",
"#. c #E7E6E7",
"$. c #E8E7E8",
"%. c #EAE9EA",
"&. c #ECEBEC",
"*. c #EEEDEE",
"=. c #F8E3E3",
"-. c #F0EFF0",
";. c #F2F1F2",
":. c #F4F3F4",
">. c #F6F5F6",
",. c #F8F7F8",
/* pixels */
"J J J J J J J J J J J J J J J J J J J J J J J J J J J J J J J J J J J ",
"J J J J J J J J J J J J J J J J J J J J J J J J J J J J J J J J J J J ",
",.,.,.,.,.,.,.,.,.,.,.,.,.,.,.,.,.,.,.,.,.,.,.,.,.,.,.,.,.,.,.,.,.,.,.",
",.,.,.,.,.,.,.,.,.,.,.,.,.,.,.,.,.,.,.,.,.,.,.,.,.,.,.,.,.,.,.,.,.,.,.",
">.>.>.>.>.>.>.>.>.>.>.>.>.>.>.>.>.>.>.>.>.>.>.>.>.>.>.>.>.>.>.>.>.>.>.",
":.:.:.:.:.:.:.:.:.:.:.:.:.:.:.:.:.:.:.:.:.:.:.:.:.:.:.:.:.:.:.:.:.:.:.",
":.:.:.:.:.:.:.:.:.:.:.:.:.:.:.:.:.:.:.:.:.:.:.:.:.:.:.:.:.:.:.:.:.:.:.",
";.;.;.;.;.;.;.;.;.;.;.;.;.;.;.;.;.;.;.;.;.;.;.;.;.;.;.;.;.;.;.;.;.;.;.",
";.;.;.;.;.;.;.;.;.;.;.;.;.;.;.;.;.;.;.;.;.;.;.;.;.;.;.;.;.;.;.;.;.;.;.",
"-.-.-.-.-.-.-.-.-.-.-.-.-.-.+.+.^ ^ ~ | | -.-.-.-.-.-.-.-.-.-.-.-.-.-.",
"-.-.-.-.-.-.-.-.-.-.-.-.-.-.+.+.^ ^ ~ | | -.-.-.-.-.-.-.-.-.-.-.-.-.-.",
"*.*.*.*.*.*.*.*.*.*.*.H ; ; . . 7 7 0 . . + + F F *.*.*.*.*.*.*.*.*.*.",
"&.&.&.&.&.&.&.#.#.< < - E E o.o.=.=.=.O.O.W W u u > @.@.&.&.&.&.&.&.&.",
"&.&.&.&.&.&.&.#.#.< < - E E o.o.=.=.=.O.O.W W u u > @.@.&.&.&.&.&.&.&.",
"%.%.%.%.%.%.%., , p p ! X.X.X.X.X.X.X.X.X.X.X.....a : : $.$.%.%.%.%.%.",
"%.%.%.%.%.%.%., , p p ! X.X.X.X.X.X.X.X.X.X.X.....a : : $.$.%.%.%.%.%.",
"#.#.#.#.#.G G o o Y Y Q Q Q Q Q Q Q Q Q Q Q Q Q Q R 3 3 A A #.#.$.$.$.",
"#.#.#.#.#.G G o o Y Y Q Q Q Q Q Q Q Q Q Q Q Q Q Q R 3 3 A A #.#.#.#.%.",
"#.#.#.#.#.+ + w w U U U U U U U U U U U U U U U U U y y O O #.#.#.#.#.",
"+.+.+.+.'     r r m m N N N N N N N N N N N N N N M t t X X ( ( +.+.+.",
"+.+.+.+.'     r r m m N N N N N N N N N N N N N N M t t X X ( ( +.+.+.",
"+.+.+.+.K 3 3 r r y y k l l x x n n b x x l l k k g r r 4 4 J J +.+.+.",
"+.+.+.+.K 3 3 r r y y k l l x x n n b x x l l k k g r r 4 4 J J +.+.+.",
"| | | | / 5 5 r r t t j M M I I U U U P P M M h h t r r 6 6 L L | | | ",
"| | | | / 5 5 t r t t j M M I I U U U P P M M h h t r r 6 6 L L | | | ",
"| | | | } i i r r h h C Y Y T T T T T T T Y Y V V f r r 9 9 } } | | | ",
"} { { { [ d d w w x x Y T T T T T T T T T T T Y Y z e e s s { { { { { ",
"{ { { { [ d d w w x x Y T T T T T T T T T T T Y Y z e e s s { { { { { ",
"{ { { { ] _ _ # # x x Y T T T T T T T T T T T U U z @ @ / / ] ] { { { ",
"{ { { { ] _ _ # # x x Y T T T T T T T T T T T U U z @ @ / / ] ] { { { ",
"] ] ] ] ] { { D D 8 8 V Y Y T T T T T T T Y Y B B q Z Z { { ] ] ] ] ] ",
"] ] ] ] ] { { D D 8 8 V Y Y T T T T T T T Y Y B B q Z Z { { ] ] ] ] ] ",
"] ] ] ] ] ] ' | | S S & c c C C I I I C C v v $ $ Z | | ' ' ] ' ' ' ' ",
"' ' ' ' ' ' ' ' ' { | ] 2 2 % % * * = % % 1 1 ' ' | ' ' ' ' ' ' ' ' ' ",
"' ' ' ' ' ' ' ' ' { { ] 2 2 % % * * = % % 1 1 ' ' | ' ' ' ' ' ' ' ' ' ",
"_ _ ' ' ' ' ' ' _ _ _ _ +.+.*.*.%.%.%.*.*.+.+.' ' ' ' _ ' ' ' ' ' ' ' ",
"_ _ ' ' ' ' ' ' ' ' ' ' +.+.*.*.%.%.%.*.*.+.+.' ' ' ' ' ' ' _ ' ' ' _ ",
"_ _ _ _ _ _ _ _ _ _ _ _ _ _ _ _ _ _ _ _ _ _ _ _ _ _ _ _ _ _ _ _ _ _ _ ",
"_ _ _ _ _ _ _ _ _ _ _ _ _ _ _ _ _ _ _ _ _ _ _ _ _ _ _ _ _ _ _ _ _ _ _ ",
"_ _ _ _ _ _ _ _ _ _ _ _ _ _ _ _ _ _ _ _ _ _ _ _ _ ( _ _ _ _ _ _ _ _ ( ",
"J J J J J J J J J J J J J J J J J J J J J J J J J J J J J J J J J J J ",
"J J J J J J J J J J J J J J J J J J J J J J J J J J J J J J J J J J J "
};
