/* XPM */
static char *close_inactive[] = {
/* columns rows colors chars-per-pixel */
"40 52 217 2 ",
"   c #000000",
".  c #080601",
"X  c #0B0A04",
"o  c #060709",
"O  c #0C0C0C",
"+  c #11110C",
"@  c #0F1011",
"#  c #121315",
"$  c #191B17",
"%  c #151719",
"&  c #1B1B1B",
"*  c #241B03",
"=  c #271B04",
"-  c #201F13",
";  c #242105",
":  c #2D2405",
">  c #2A2919",
",  c #302F1D",
"<  c #39331D",
"1  c #1D1E20",
"2  c #1E2124",
"3  c #202020",
"4  c #2B2B23",
"5  c #252828",
"6  c #2B2C2C",
"7  c #373324",
"8  c #3B3827",
"9  c #33332C",
"0  c #2B2E33",
"q  c #2E3235",
"w  c #2F3238",
"e  c #333333",
"r  c #33363B",
"t  c #3A3B39",
"y  c #483D1D",
"u  c #403B29",
"i  c #4C461C",
"p  c #57481E",
"a  c #59541E",
"s  c #69470A",
"d  c #69580B",
"f  c #72560B",
"g  c #624D1F",
"h  c #66571E",
"j  c #6D641F",
"k  c #564824",
"l  c #54512E",
"z  c #434339",
"x  c #4A4A3B",
"c  c #614E24",
"v  c #6A5724",
"b  c #765921",
"n  c #796922",
"m  c #6B6833",
"M  c #75723C",
"N  c #373A43",
"B  c #393D44",
"V  c #3C3F48",
"C  c #3D4145",
"Z  c #3E434B",
"A  c #434444",
"S  c #474846",
"D  c #4C4C43",
"F  c #41474D",
"G  c #4B4C4C",
"H  c #575746",
"J  c #53534B",
"K  c #454A53",
"L  c #4A4E5A",
"P  c #4D535D",
"I  c #535453",
"U  c #565959",
"Y  c #5C5C5B",
"T  c #68674B",
"R  c #767546",
"E  c #65655A",
"W  c #787856",
"Q  c #515760",
"!  c #545A63",
"~  c #595D64",
"^  c #595F68",
"/  c #5E6164",
"(  c #5D626B",
")  c #636465",
"_  c #60656E",
"`  c #686968",
"'  c #6E6E6E",
"]  c #7C7C65",
"[  c #656A72",
"{  c #696C74",
"}  c #6C7077",
"|  c #6C7179",
" . c #747473",
".. c #71757C",
"X. c #797A78",
"o. c #7C7D7C",
"O. c #8B5C0E",
"+. c #8C680E",
"@. c #96740F",
"#. c #8B7A11",
"$. c #AA7B1F",
"%. c #886521",
"&. c #9A6F20",
"*. c #877521",
"=. c #9B7421",
"-. c #A97A21",
";. c #B28C1E",
":. c #998723",
">. c #958E37",
",. c #B78520",
"<. c #B89E21",
"1. c #C58C1D",
"2. c #D18A14",
"3. c #C4911C",
"4. c #D59719",
"5. c #E39D1D",
"6. c #C8A91E",
"7. c #D6A917",
"8. c #D2B517",
"9. c #E8A21B",
"0. c #F3A41A",
"q. c #F5AB1A",
"w. c #FEAC19",
"e. c #E8B51D",
"r. c #FEB219",
"t. c #F4B91A",
"y. c #FFBC19",
"u. c #D0B321",
"i. c #DEC11D",
"p. c #EAC81B",
"a. c #F4C619",
"s. c #FEC419",
"d. c #FFCA19",
"f. c #F4D61B",
"g. c #FFD219",
"h. c #FFDB18",
"j. c #FFE31A",
"k. c #D2C227",
"l. c #D5C936",
"z. c #EBDD35",
"x. c #FCE822",
"c. c #FFF32C",
"v. c #FAE934",
"b. c #FFF43C",
"n. c #939150",
"m. c #B3AF50",
"M. c #8D8D68",
"N. c #A8A86E",
"B. c #D5CD55",
"V. c #FEF249",
"C. c #EDE550",
"Z. c #FFF957",
"A. c #D5D16F",
"S. c #EBE86F",
"D. c #FFF86A",
"F. c #FDFB78",
"G. c #757A81",
"H. c #7A7D83",
"J. c #7D8187",
"K. c #848483",
"L. c #8B8B84",
"P. c #848689",
"I. c #8C8C8C",
"U. c #97978B",
"Y. c #858990",
"T. c #8A8D93",
"R. c #8D9096",
"E. c #939393",
"W. c #949699",
"Q. c #9C9C9C",
"!. c #B0B093",
"~. c #989BA1",
"^. c #9DA0A4",
"/. c #A2A2A2",
"(. c #A6A8AA",
"). c #AAAAAA",
"_. c #B7B7A5",
"`. c #ACAEB1",
"'. c #AFB1B5",
"]. c #B3B3B4",
"[. c #B6B7B7",
"{. c #BDBDBD",
"}. c #CCCC8F",
"|. c #D7D794",
" X c #FFFD86",
".X c #FBF989",
"XX c #E1E190",
"oX c #F8F891",
"OX c #FFFF9C",
"+X c #CACAAD",
"@X c #D3D3B3",
"#X c #EDEDAF",
"$X c #F5F5A7",
"%X c #FFFFA3",
"&X c #FFFFAD",
"*X c #FEFEB3",
"=X c #F5F5B8",
"-X c #FFFFBB",
";X c #BEBFC3",
":X c #C1C1C1",
">X c #CCCCC1",
",X c #CACACA",
"<X c #D1D1C4",
"1X c #D9D9D2",
"2X c #D9D9D9",
"3X c #DCDCDC",
"4X c #F5F5C2",
"5X c #FFFFC5",
"6X c #FEFECB",
"7X c #E8E8D3",
"8X c #F8F8D5",
"9X c #FFFFDC",
"0X c #EBEBE8",
"qX c #FEFEE4",
"wX c #FAFAEB",
"eX c #FFFFF4",
"rX c #FEFEFC",
/* pixels */
"2X2X2X2X2X2X2X2X2X2X2X2X2X2X2X2X2X2X2X2X2X2X2X2X2X2X2X2X2X2X2X2X2X2X2X2X2X2X2X2X",
",X,X,X,X,X,X,X,X,X,X,X,X,X,X,X,X,X,X,X,X,X,X,X,X,X,X,X,X,X,X,X,X,X,X,X,X,X,X,X,X",
").).).).).).).).).).).).).).).).).).).).).).).).).).).).).).).).).).).).).).).).",
"' ' ' ' ' ' ' ' ' ' ' ' ' ' ' ' ' ' ' ' ' ' ' ' ' ' ' ' ' ' ' ' ' ' ' ' ' ' ' ' ",
"3 3 3 3 3 3 3 3 3 3 3 3 3 3 3 3 3 3 3 3 3 3 3 3 3 3 3 3 3 3 3 3 3 3 3 3 3 3 3 3 ",
"3 3 3 3 3 3 3 3 3 3 3 3 3 3 3 3 3 3 3 3 3 3 3 3 3 3 3 3 3 3 3 3 3 3 3 3 3 3 3 3 ",
"' ' ' ' ' ' ' ' ' ' ' ' ' ' ' ' ' ' ' ' ' ' ' ' ' ' ' ' ' ' ' ' ' ' ' ' ' ' ' ' ",
").).).).).).).).).).).).).).).).).).).).).).).).).).).).).).).).).).).).).).).).",
",X,X,X,X,X,X,X,X,X,X,X,X,X,X,X,X,X,X,X,X,X,X,X,X,X,X,X,X,X,X,X,X,X,X,X,X,X,X,X,X",
"2X2X2X2X2X2X2X2X2X2X2X2X2X2X2X2X2X2X2X2X2X2X2X2X2X2X2X2X2X2X2X2X2X2X2X2X2X2X2X2X",
"3X3X3X3X3X3X3X3X3X3X3X3X3X3X3X3X3X3X3X3X3X3X3X3X3X3X3X3X3X3X3X3X3X3X3X3X3X3X3X3X",
"/./././././././././././././././././././././././././././././././././././././././.",
"e e e e e e e e e e e e e e e e e e e e e e e e e e e e e e e e e e e e e e e e ",
"                          O O # $ & & & & & $ % # O O .                         ",
"                      O $ 6 t G Y ) ` ` ` ) Y I A e 5 $ # o                     ",
"# # # # # # # # % 1 6 t G )  .K.I.E.E.E.E.I.K.X.' ) I A r 6 3 & % # # # # # # # ",
"N N N N N N N V K ~ } P.Q.(.).`.)./.Q.E.I.I.I.I.I.P.H...[ ~ P K Z B B N N N N N ",
"P P P P P P ! ( G.T./.].{.[.`./.E.L.o.X. . . .X.X.o.H.J.H.G.| [ ( ! Q P P P P P ",
"Q Q Q Q ! ^ { J.~.'.;X;X).E.X.E I J D D D S S A A G I ) ..o...| [ ( ~ ! ! Q Q Q ",
"P P P ! ~ { J.~.'.{.[./.K.' Y J J H E E E T H x x x x G Y ) [ [ [ ( ~ ! Q P P P ",
"P L L Q _ H.~.'.{.).L.` J J E X.U./._.+X+X}.!.N.M.R m z e t G U ~ ~ ! P P P P P ",
"P P P ^ ..R.`.[.).I.) J J ` I.).>X1X7X8X8X4X#X|.A.N.n.m i 7 t C K P P P P P P P ",
"P ! ^ | T.(.[.).o.Y D E U.[.1X0X0XwXwXqX9X6X*X$XoXS.A.m.>.v 7 5 e C P ! Q P P P ",
"P ~ [ J.^.`.).I.Y D E L.+X0XrXrXrXrXeXqX9X5X*X%X.XF.D.C.B.>.a , 4 q F P P P P P ",
"L ! | T.(.(.I.` D Y U.<X0XrXeXrXrXeXqX9X6X-X&XOX XD.Z.V.v.k.:.h , 2 r Z K P P P ",
"P ^ G.W.(.Q.` J H ] +XwXeXrXeX0X<X<X8X9X6X*X%X.XA.B.C.b.c.x.u.:.i 3 6 r F L L P ",
"~ { Y.~.^.K.G x ] !.7XqXeXeXeX<X` E @X9X5X*XOXA.m j k.c.x.j.f.6.n 8 4 0 Z P P P ",
"( | R.~.E. .z H N.@X8XqXqX8X<XL.3 > M.@X=X$XA.n.> ; #.8.f.j.j.i.:.a 4 5 B K P P ",
"( ..R.W.o.E x T }.=X6X9X9X@XE 3 . o 4 W |.|.R > . . ; d 8.j.j.p.<.n < 2 r Z K L ",
"[ ..R.T.` J x W |.-X5X6X6X+XT > .     , M.M.,     . * d 8.h.h.a.7.=.y 2 0 B K L ",
"} G.R.P.U D T M.|.&X*X*X*X#X|.M.>     O , , O     ; #.7.a.g.g.a.e.;.p 3 0 N K P ",
"| G.T.H.G z T N.XXOXOXOX%X%X&X|.R > X         X : f 7.g.d.d.d.s.t.;.a 4 6 r K P ",
"{ ..J.} A z R m.S. X X X X X XF.A.>.>         : @.7.a.d.d.s.y.y.t.3.g 4 5 q Z K ",
"[ | H.[ N 8 M m.S.D.D.D.D.D.D.D.B.n.>         : @.7.t.s.y.y.y.r.r.3.h 4 5 0 Z K ",
"[ } G._ r 8 M m.C.Z.Z.V.V.V.V.l.n > X         X : f 4.y.y.r.r.r.q.1.g 4 5 q Z L ",
"( [ | / r 8 m >.z.V.b.v.v.z.k.:.:     X : : X     = +.4.0.r.r.w.0.,.p 4 5 w Z L ",
"~ ( _ Q r 9 l :.l.c.x.x.x.8.d ; .     : @.@.:     . * s 2.w.r.q.5.$.p 3 5 r Z K ",
"! ~ ( P N 9 i *.k.j.j.j.j.8.d * . . = f 4.4.f = . . * s 2.w.r.0.4.&.y 3 6 r Z K ",
"~ ~ ^ P C e 7 h 6.f.h.h.h.a.7.+.* * +.4.q.q.4.O.* * O.2.0.w.r.9.,.b < 2 q C K P ",
"F F F B q 5 > i ;.i.f.h.g.g.g.7.d s 4.y.r.w.w.2.s s 2.w.w.w.w.4.=.k > % 5 q N B ",
"% % % # @ O # < n <.p.h.g.d.d.t.4.4.q.r.w.w.w.0.2.2.0.w.w.w.0.1.b < $ O O @ # # ",
"            o - i *.6.a.d.d.s.y.y.r.r.w.w.w.w.w.w.w.w.w.w.0.4.&.y $ O           ",
"            . + > p :.7.a.d.s.y.r.r.w.w.w.w.w.w.w.w.w.w.q.4.=.c > O .           ",
"6 6 6 6 6 6 9 6 6 8 v :.6.e.t.r.r.w.w.w.w.w.w.w.w.w.q.9.4.-.v 8 4 5 5 4 6 6 6 6 ",
"E.E.E.E.I.I.P. .I t 8 p *.,.7.q.r.r.r.r.r.r.w.w.w.q.5.,.%.c 7 9 S Y ' X.K.I.I.E.",
":X:X:X:X:X{.[.Q.X.I t 9 k n $.1.4.5.5.9.9.9.5.5.4.1.$.%.k 8 e A ) K.W.).[.{.:X:X",
":X:X:X:X:X{.[.).Q.o.Y z 9 < p h %.=.-.$.,.$.-.=.%.b p < 7 t J ` K.E.(.].[.{.:X:X",
"{.{.{.{.{.{.[.[.).Q.o.) A e 9 u k c v b b b v c k u 9 q t I ' K.E./.).[.{.{.{.{.",
"{.{.{.{.{.{.[.[.[.).Q.I. .Y G z t 9 7 7 7 7 7 9 t t S I ) X.I.Q.(.`.[.{.{.{.{.{.",
"{.{.{.{.{.{.{.[.[.[.`.(.E.K.' Y G A t r r r r C G U ) X.K.E.Q.).].[.{.{.{.{.{.{.",
"{.{.{.{.{.{.{.{.[.[.[.].).Q.E.I.o. .` ) ) ) ` ' X.K.I.I.E.Q.).[.[.{.{.{.{.{.{.{.",
"{.{.{.{.{.{.{.{.{.[.[.[.].).(.Q.E.I.K.o.o.o.K.K.I.E.Q.Q.E.Q.].[.{.{.{.{.{.{.{.{."
};
