/* XPM */
static char *top_left_active[] = {
/* columns rows colors chars-per-pixel */
"11 46 23 1 ",
"  c black",
". c #3E404A",
"X c #3D4051",
"o c #3F4156",
"O c #414350",
"+ c #404358",
"@ c #43455D",
"# c #454761",
"$ c #484A66",
"% c #4B4F6D",
"& c #515673",
"* c #5A5E7A",
"= c #626680",
"- c #6D7289",
"; c #777B92",
": c #7A7E93",
"> c #87899E",
", c #9295A7",
"< c #9A9EAE",
"1 c #9DA0B1",
"2 c #A1A4B3",
"3 c #A4A7B6",
"4 c #A5A8B6",
/* pixels */
"           ",
"           ",
"  444444444",
"  444444444",
"  ---------",
"  +++++++++",
"  +++++++++",
"  XXXXXXXXX",
"  XXXXXXXXX",
"  XXXXXXXXX",
"  XXXXXXXXo",
"  ooooooooo",
"  +++++++++",
"  +++++++++",
"  @@@@@@@@@",
"  @@@@@@@@@",
"  #########",
"  #########",
"  $$$$$$$$$",
"  %%%%%%%%%",
"  %%%%%%%%%",
"  &&&&&&&&&",
"  &&&&&&&&&",
"  *********",
"  *********",
"  =========",
"  =========",
"  ---------",
"  :::::::::",
"  :::::::::",
"  >>>>>>>>>",
"  >>>>>>>>>",
"  ,,,,,,,,,",
"  ,,,,,,,,,",
"  <<<<<<<<<",
"  222222222",
"  222222222",
"  333333333",
"  333333333",
"  111111111",
"  111111111",
"  ;;;;;;;;;",
"  %%%%%%%%%",
"  %%%%%%%%%",
"  ..OOO..  ",
"  ..OOO..  "
};
