/* XPM */
static char *bottom_right_active[] = {
/* columns rows colors chars-per-pixel */
"26 26 11 1 ",
"  c None",
". c #333333",
"X c #323431",
"o c #333335",
"O c #4D4D4B",
"+ c #4A5453",
"@ c #AEAEAE",
"# c #D9D9D9",
"$ c #DADADA",
"% c #F3F3F1",
"& c gray96",
/* pixels */
"                  ..&$@..O",
"                  ..&$@..O",
"                  ..&$@..O",
"                  ..&$@..O",
"                  ..&$@..O",
"                  ..&$@..O",
"                  ..&$@..O",
"                  ..&$@..O",
"                  ..&$@..O",
"                  ..&$@..O",
"                  ..&$@..O",
"                  ..&$@..O",
"                  ..&$@..O",
"                  ..&$@..O",
"                  ..&$@..O",
"                  ..&$@..O",
"                  ..&$@..O",
"                  ..&$@..O",
"XXXXXXXXXXXXXXXXXXXX&$@oo+",
"XXXXXXXXXXXXXXXXXXXX&$@oo+",
"%%%%%%%%%%%%%%%%%%&&&$@oo+",
"$$$$$$$$$$$$$$$$$$$$$$@oo+",
"@@@@@@@@@@@@@@@@@@@@@@@oo+",
"ooooooooooooooooooooooooo+",
"ooooooooooooooooooooooooo+",
"++++++++++++++++++++++++++"
};
