/* XPM */
static char *maximize_inactive[] = {
/* columns rows colors chars-per-pixel */
"24 24 4 1 ",
"  c None",
". c #949594 s inactive_shadow_2",
"X c #B4BAB4 s inactive_mid_2",
"o c #D5D6D5 s inactive_color_2",
/* pixels */
"                        ",
"                        ",
"                        ",
"oooooooooooooooooooooooo",
"oooooooooooooooooooooooo",
"oooooooooooooooooooooooo",
"ooooo..............ooooo",
"ooooo..............ooooo",
"ooooo..............Xoooo",
"ooooo...XXXXXXXX...Xoooo",
"ooooo...Xooooooo...Xoooo",
"ooooo...Xooooooo...Xoooo",
"ooooo...Xooooooo...Xoooo",
"ooooo...Xooooooo...Xoooo",
"ooooo...Xooooooo...Xoooo",
"ooooo...Xooooooo...Xoooo",
"ooooo...Xooooooo...Xoooo",
"ooooo...Xooooooo...Xoooo",
"ooooo..............Xoooo",
"ooooo..............Xoooo",
"ooooooXXXXXXXXXXXXXXoooo",
"oooooooooooooooooooooooo",
"oooooooooooooooooooooooo",
"oooooooooooooooooooooooo"
};
