/* XPM */
static char *top_left_inactive[] = {
/* columns rows colors chars-per-pixel */
"8 27 3 1 ",
"  c black",
". c #D5D6D5 s inactive_color_2",
"X c white",
/* pixels */
"        ",
" XXXXXXX",
" XXXXXXX",
" XX.....",
" XX.....",
" XX.....",
" XX.....",
" XX.....",
" XX.....",
" XX.....",
" XX.....",
" XX.....",
" XX.....",
" XX.....",
" XX.....",
" XX.....",
" XX.....",
" XX.....",
" XX.....",
" XX.....",
" XX.....",
" XX.....",
" XX.....",
" XX.....",
" XX.....",
" XX.....",
" XX....."
};
