/* XPM */
static char *hide_inactive[] = {
/* columns rows colors chars-per-pixel */
"28 28 23 1 ",
"  c #626562",
". c #7B7D7B",
"X c #838183",
"o c #838583",
"O c #8B898B",
"+ c #8B8D8B",
"@ c #949194",
"# c #949594",
"$ c #9C999C",
"% c #9C9D9C",
"& c #A4A1A4",
"* c #A4A5A4",
"= c #ACAAAC",
"- c #B4B2B4",
"; c #D5D2D5",
": c #D5D6D5",
"> c #DEDADE",
", c gray87",
"< c #E6E2E6",
"1 c #E6E6E6",
"2 c #EEEAEE",
"3 c #EEEEEE",
"4 c #FFFFFF",
/* pixels */
"==**&&&&%%%%%%%%%%%%%%%%&&&&",
"==**&&&&%%%%%%%%%%%%%%%%&&&&",
"&&4444444444444444444444<<##",
"&&4444444444444444444444<<##",
"%%4433333333333333333333--++",
"%%4433333333333333333333--++",
"$$4422222222222222222222--OO",
"$$4422222222222222222222--OO",
"$$4411221122112211221122--oo",
"$$4411221122112211221122--oo",
"$$4411111111111111111111--XX",
"$$4411111111111111111111--XX",
"##44<<<<<<<<<<<<<<<<<<<<--XX",
"##44<<<<<<<<<<<<<<<<<<<<--XX",
"##44,,,,,,,,,,,,,,,,,,,,--XX",
"##44,,,,,,,,,,,,,,,,,,,,--XX",
"##44,,>>            ,,>>--XX",
"##44,,>>            ,,>>--XX",
"##44>>>>            >>>>--XX",
"##44>>>>            >>>>--XX",
"@@44::::::::::::::::::::--XX",
"@@44::::::::::::::::::::--XX",
"@@44;;;;;;;;;;;;;;;;;;;;--XX",
"@@44;;;;;;;;;;;;;;;;;;;;--XX",
"@@<<----------------------XX",
"@@<<----------------------XX",
"++OOooXX................XXoo",
"++OOooXX................XXoo"
};
