/* XPM */
static char *title_5_active[] = {
/* columns rows colors chars-per-pixel */
"20 44 34 1 ",
"  c black",
". c #1D1D1D",
"X c #343334",
"o c #5B5D5B",
"O c #848684",
"+ c #909190",
"@ c #969796",
"# c #9A9B9A",
"$ c #9E9F9E",
"% c #A2A3A2",
"& c #A6A3A6",
"* c #A6A7A6",
"= c #AAACAA",
"- c #AEB0AE",
"; c #B2B4B2",
": c #B6B8B6",
"> c #BBBCBB",
", c #BFBFBF",
"< c #C3C1C3",
"1 c #C7C4C7",
"2 c #CBC8CB",
"3 c #CDCBCD",
"4 c #CFCFCF",
"5 c #D3D1D3",
"6 c #D5D3D5",
"7 c #D7D7D7",
"8 c #DCD9DC",
"9 c #E0DCE0",
"0 c #E3E0E3",
"q c #E4E0E4",
"w c #E8E5E8",
"e c #EAEAEA",
"r c #ECEBEC",
"t c #EEEFEE",
/* pixels */
"                    ",
"XXXXXXXXXXXXXXXXXXXX",
"&&&&&&&&&&&&&&&&&&&&",
"00000000000000000000",
"00000000000000000000",
"00000000000000000000",
"eeeeeeeeeeeeeeeeeeee",
"tttttttttttttttttttt",
"tttttttttttttttttttt",
"rtttrrrrrrrrrrrrrrrr",
"wwwwwwwwwwwwwwwwwwww",
"qqqqqqqqqqqqqqqqqqqq",
"99999999999999999999",
"88888888888888888888",
"77777777777777777777",
"77777777777777777777",
"77777777777777777777",
"77777777777777777777",
"66666666666666666666",
"55555555555555555555",
"44444444444444444444",
"44444444444444444444",
"44444444444444444444",
"44444444444444444444",
"33333333333333333333",
"22222222222222222222",
"11111111111111111111",
"<<<<<<<<<<<<<<<<<<<<",
",,,,,,,,,,,,,,,,,,,,",
">>>>>>>>>>>>>>>>>>>>",
"::::::::::::::::::::",
";;;;;;;;;;;;;;;;;;;;",
"--------------------",
"====================",
"********************",
"%%%%%%%%%%%%%%%%%%%%",
"$$$$$$$$$$$$$$$$$$$$",
"####################",
"@@@@@@@@@@@@@@@@@@@@",
"++++++++++++++++++++",
"OOOOOOOOOOOOOOOOOOOO",
"oooooooooooooooooooo",
"....................",
"                    "
};
