/* XPM */
static char *top_left_active[] = {
/* columns rows colors chars-per-pixel */
"16 42 12 1 ",
"  c #000000",
". c #0E0E0E",
"X c #2D2D2D",
"o c #3E3E3E",
"O c #8F8F8F",
"+ c #BFBFBF",
"@ c #C3C3C3",
"# c #E5E5E5",
"$ c #EFEFEF",
"% c #F0F0F0",
"& c #F8F8F8",
"* c #FFFFFF s active_hilight_2",
/* pixels */
"                ",
" .Xooooooooooooo",
" XO@@+++++++++++",
" o@*************",
" o@*&$$%%%%%%%%%",
" o+*$###########",
" o+*$###########",
" o+*%###########",
" o+*%###########",
" o+*%###########",
" o+*%###########",
" o+*%###########",
" o+*%###########",
" o+*%###########",
" o+*%###########",
" o+*%###########",
" o+*%###########",
" o+*%###########",
" o+*%###########",
" o+*%###########",
" o+*%###########",
" o+*%###########",
" o+*%###########",
" o+*%###########",
" o+*%###########",
" o+*%###########",
" o+*%###########",
" o+*%###########",
" o+*%###########",
" o+*%###########",
" o+*%###########",
" o+*%###########",
" o+*%###########",
" o+*%###########",
" o+*%###########",
" o+*%###########",
" o+*%###########",
" o+*%###########",
" o+*%###########",
" o+*%###########",
" o@*%###########",
" o@*%###########"
};
