/* XPM */
static char *title_2_inactive[] = {
/* columns rows colors chars-per-pixel */
"18 29 57 1 ",
"  c #2A2A2A",
". c #2C2B2C",
"X c #2E2D2E",
"o c #302F30",
"O c #313131",
"+ c #373737",
"@ c #3C3C35",
"# c #3A3A3A",
"$ c #3E3E38",
"% c #3C3C3C",
"& c #43433F",
"* c gray26",
"= c #444444",
"- c #4A4A4A",
"; c #4A4D4A",
": c #4C4C4C",
"> c #545346",
", c #505050",
"< c #565551",
"1 c #555555",
"2 c #585756",
"3 c #5B5B5B",
"4 c #5C5C5C",
"5 c #605F5D",
"6 c #64634E",
"7 c #65645C",
"8 c #6F6D5C",
"9 c #626262",
"0 c #7A786A",
"q c #777572",
"w c #878666",
"e c #898767",
"r c #8D8B6E",
"t c #8E8C6F",
"y c #828077",
"u c #8F8D76",
"i c #949276",
"p c #94927C",
"a c #9A977E",
"s c #8E8B86",
"d c #908D89",
"f c #9F9C85",
"g c #92908D",
"h c #A5A28D",
"j c #A8A692",
"k c #AAA894",
"l c #B0AD9C",
"z c #AAA8A3",
"x c #B6B3A3",
"c c #BBB8AA",
"v c #C1BEB2",
"b c #C2BFBA",
"n c #C6C3BA",
"m c #C6C2BF",
"M c #CCC8C1",
"N c #D2CEC8",
"B c #D7D3CF",
/* pixels */
";;;;;;;;;;;;;;;;;;",
";;;;;;;;;;;;;;;;;;",
"XXXXXXXXXXXXXX.   ",
"BBBBBBBBBBBm22+***",
"BBBBBBBBBBBm22+***",
"NNNNNbzzbNNNgg+===",
"MMMqqXOOX55d**%===",
"MMMqqXOOX55d**%===",
"nnsoo=--=##+%%----",
"vv2%%-------------",
"vv2%%-------------",
"cc<**:::::::::::::",
"xxyOO-::::::::::::",
"xxyOO:::::::::::::",
"lll77O,,,,,,,,,,,,",
"kkkjj***,,111,,,,,",
"kkkjj&**,,,,11,,,,",
"hhhhh0++1111111111",
"fffffpXX1111311113",
"fffffpXX1111311313",
"aaaaauXX3333333333",
"iiiii8++3333333333",
"iiiii8++3333333333",
"tttrr$--4444444444",
"eew>>+449999999999",
"eew>>+449999999999",
"66@++4999999999999",
"XXOXX             ",
"XXOXX             "
};
