/* XPM */
static char *maximize_inactive[] = {
/* columns rows colors chars-per-pixel */
"26 35 125 2 ",
"   c #728198",
".  c #77869D",
"X  c #78879E",
"o  c #7582A2",
"O  c #7986A6",
"+  c #768FA5",
"@  c #7888A1",
"#  c #7D8FA3",
"$  c #7A8BA5",
"%  c #7E8BAB",
"&  c #7E8FA9",
"*  c #7E93A4",
"=  c #7A93A9",
"-  c #8190A5",
";  c #8191AA",
":  c #8394A8",
">  c #8393AC",
",  c #8394AE",
"<  c #8495AF",
"1  c #8897AC",
"2  c #8099AF",
"3  c #8A99AE",
"4  c #8593B0",
"5  c #8594B3",
"6  c #8292B4",
"7  c #8895B5",
"8  c #8899B3",
"9  c #8C9BB2",
"0  c #889FB1",
"q  c #8D9CB3",
"w  c #899AB4",
"e  c #8B9BB4",
"r  c #8B9CB6",
"t  c #8C9CB5",
"y  c #8696B8",
"u  c #8A99B8",
"i  c #8D9BB8",
"p  c #8F9DBA",
"a  c #8D9DBF",
"s  c #919EBE",
"d  c #87A0B6",
"f  c #8DA3B1",
"g  c #88A2BB",
"h  c #8FA0BA",
"j  c #8AA4BD",
"k  c #8DA5BD",
"l  c #90A1B5",
"z  c #90A1BB",
"x  c #94A3BA",
"c  c #92A4B8",
"v  c #97A6BB",
"b  c #91A2BC",
"n  c #93A4BE",
"m  c #94A5BF",
"M  c #9BA7BD",
"N  c #99A8BF",
"B  c #9CA8BE",
"V  c #93A0C2",
"C  c #95A4C1",
"Z  c #93A3C5",
"A  c #94A3C4",
"S  c #93ABC3",
"D  c #97A8C2",
"F  c #98A9C3",
"G  c #9CABC0",
"H  c #9BADC3",
"J  c #9DACC1",
"K  c #9AA8C5",
"L  c #98AEC5",
"P  c #9EADC4",
"I  c #93A5C9",
"U  c #95A7CB",
"Y  c #90A8CA",
"T  c #96A9C9",
"R  c #9BA8CA",
"E  c #9BAFCA",
"W  c #9DACCB",
"Q  c #9EABCD",
"!  c #9DADCF",
"~  c #9DB1C9",
"^  c #9AACD2",
"/  c #9EAED0",
"(  c #9CAED4",
")  c #9DB1D2",
"_  c #9FBCDC",
"`  c #A1ADC3",
"'  c #A0AFC6",
"]  c #A0AFCE",
"[  c #A1B0C5",
"{  c #A4B1C4",
"}  c #A2B1C8",
"|  c #A4B3C8",
" . c #A3B4C8",
".. c #A5B4C9",
"X. c #A7B6CB",
"o. c #A1B2CC",
"O. c #A8B7CC",
"+. c #ABB7CD",
"@. c #A6BCC9",
"#. c #A6B8CE",
"$. c #ABB8CB",
"%. c #A9B8CD",
"&. c #ACB9CC",
"*. c #A1AED0",
"=. c #A4B1D3",
"-. c #A1B1D5",
";. c #A1B5D6",
":. c #A2BAD2",
">. c #A9BBD1",
",. c #ACBBD0",
"<. c #AABCD2",
"1. c #ADBCD1",
"2. c #ACBED4",
"3. c #A6B9D9",
"4. c #B1BDD3",
"5. c #B0BFD4",
"6. c #B2C3D7",
"7. c #B4C1D4",
"8. c #B4C3D8",
"9. c #B4C5D9",
"0. c #BAC7DA",
"q. c #B8C7DC",
"w. c #B9CADE",
"e. c #BCCBE0",
"r. c #BDCCE1",
/* pixels */
"_ _ _ _ _ _ _ _ _ _ _ _ _ _ _ _ _ _ _ _ _ _ _ _ _ _ ",
"_ _ _ _ _ _ _ _ _ _ _ _ _ _ _ _ _ _ _ _ _ _ _ _ _ _ ",
":.:.:.:.:.:.:.:.:.:.:.:.:.:.:.:.:.:.:.:.:.:.:.:.:.:.",
":.:.:.:.:.:.:.:.:.:.:.:.:.:.:.:.:.:.:.:.:.:.:.:.:.:.",
"~ ~ ~ ~ ~ ~ ~ ~ ~ ~ ~ ~ ~ ~ ~ ~ ~ ~ ~ ~ ~ ~ ~ ~ ~ ~ ",
"! ! ] W W C C p p .         X X ; q q N N } } / ! ! ",
"! ! ] W W C C p p .         X X ; q q N N } } / ! ! ",
"-.-.! A A u u 5 5 ..%.%.1.1.O.O.v 1 1 3 3 v v ^ ( ( ",
"-.-.! A A u u 5 5 ..%.%.1.1.O.O.v 1 1 3 3 v v ^ ( ( ",
"3.3.E z z z z H H 9.9.9.w.w.w.w.6. . .l l : : ) ;.;.",
"3.3.E z z z z H H 9.9.9.w.w.w.w.6. . .l l : : ) ;.;.",
"L L 0 * * f f @.@.#.<.<.2.2.2.2.>.} } z z * * k S S ",
"F F @ 9 9 B B ` ` [ | | ....[ [ J G G v v q q $ m m ",
"F F @ 9 9 B B ` ` [ | | ....[ [ J G G v v q q $ m m ",
"W W ; x x ` ` { { [ ....%.%.......[ [ J J v v & D D ",
"W W ; x x ` ` { { [ ....%.%.......[ [ J J v v & D D ",
"o.o.w ' ' O.O.$...%.1.1.6.6.5.5.1.,.,.....[ [ w W W ",
"o.o.w ' ' O.O.$.$.%.1.1.6.6.5.5.1.,.,.....[ [ w ~ W ",
"D D 8 | | 4.5.&.&.5.6.6.8.8.6.6.1.1.1.%.%....., n n ",
"r r > [ [ 5.5.&.&.6.6.6.6.6.5.5.1.1.1.%.%.[ [ < b b ",
"r r > [ [ 5.5.&.&.6.7.7.6.6.5.5.1.1.1.%.%.[ [ < b b ",
"h h 5 P P 7.7.7.7.0.q.q.q.q.9.9.q.9.9.1.1.| | 5 z z ",
"h h 5 P P 7.7.7.7.9.q.q.q.q.9.0.q.9.9.1.1.| | 5 z z ",
"D D t x x O.O.0.0.w.w.w.w.w.e.e.r.9.9.....v v p F F ",
"D D t x x O.O.0.0.w.w.w.w.w.e.e.r.9.9.....v v p F F ",
"F F 8 ; ; M M 7.7.9.9.9.9.9.0.0.9.,.,.v v - - 8 b b ",
"k k d 2 2 = = + + N  . .<.<.....c : : # # * * g j j ",
"k k d 2 2 = = + + N  . .<.<.....c : : # # * * g j j ",
"R R Z a a y y 6 6 o O O O O O O O % % 7 7 s s I U U ",
"R R Z a a y y 6 6 o O O O O O O O % % 7 7 s s I U U ",
"=.=.*.R R A A V V i 7 7 4 4 5 5 w b b K K W W Q Q Q ",
"=.=.*.R R A A V V i 7 7 4 4 5 5 w b b K K W W Q Q Q ",
"Y Y T Y Y Y Y T T Y Y Y T T Y Y Y T T Y Y Y Y T T T ",
"Y Y Y Y Y Y Y Y Y Y Y Y Y Y Y Y Y Y Y Y Y Y Y Y Y Y ",
"Y Y Y Y Y Y Y Y Y Y Y Y Y Y Y Y Y Y Y Y Y Y Y Y Y Y "
};
