/* XPM */
static char *menu_inactive[] = {
/* columns rows colors chars-per-pixel */
"18 32 74 1 ",
"  c None",
". c #070D3C",
"X c #0A103D",
"o c #0A103E",
"O c #1E234B",
"+ c #20264D",
"@ c #282C4E",
"# c #333754",
"$ c #343754",
"% c #40435A",
"& c #43465D",
"* c #44475E",
"= c #575757",
"- c #585858",
"; c #595959",
": c #5A5A5A",
"> c #5C5C5C",
", c #5F5F5F",
"< c #464960",
"1 c #484B63",
"2 c #4A4E65",
"3 c #4D5067",
"4 c #4F5269",
"5 c #51546B",
"6 c #53566E",
"7 c #535670",
"8 c #565970",
"9 c #585B72",
"0 c #5A5D74",
"q c #5E6178",
"w c #626262",
"e c #686868",
"r c #737373",
"t c #767676",
"y c #767677",
"u c #767778",
"i c #777778",
"p c #787878",
"a c #797979",
"s c #7C7C7C",
"d c #7F7F7E",
"f c #80807F",
"g c #828282",
"h c #848484",
"j c #868686",
"k c #8A8A8A",
"l c #8B8B8A",
"z c #8F8F8F",
"x c #90908F",
"c c #8E8F9A",
"v c #8E909A",
"b c #949494",
"n c #969696",
"m c #999898",
"M c #999998",
"N c #999999",
"B c #9D9D9D",
"V c #9F9F9F",
"C c #A0A0A0",
"Z c #A1A1A1",
"A c #A2A2A1",
"S c #A5A5A5",
"D c #A6A6A6",
"F c #A7A7A7",
"G c #AAAAAA",
"H c #ABABAB",
"J c #ACACAC",
"K c #AEAEAE",
"L c #AFAFAF",
"P c #B0AFAF",
"I c #B0B0AF",
"U c #BAB9B8",
"Y c #BBBAB8",
"T c #BBBBB9",
/* pixels */
"                  ",
"                  ",
"                  ",
"                  ",
"                  ",
"                  ",
"                  ",
"                  ",
"                  ",
"  ..............  ",
" @$$##########$$@ ",
"o%uuyyyyyyyyyyuu%o",
"o&ffddddddddddff&o",
"o*gggggggggggggg*o",
"o<jjjggggggggjjj<o",
"o1llaeeeeeeeeall1o",
"o2xxr=------=rxx2o",
"o3bba>------>abb3o",
"o4mmzd>=--=>dzmm4o",
"o5BBBbyw--wybBBB6o",
"o6ZZZZBd>>dBZZZZ6o",
"o8SSSSSmllmSSSSS8o",
"o9GGGGGGLLGGGGGG9o",
"o0PILLLLLLLLLLIL0o",
"oqTTTTTTTTTTTTTTqo",
"o7vvccccccccccvv7o",
" O++++++++++++++O ",
"                  ",
"                  ",
"                  ",
"                  ",
"                  "
};
