/* XPM */
static char *bottom_left_inactive[] = {
/* columns rows colors chars-per-pixel */
"16 16 8 1 ",
"  c None",
". c #B2ACBE",
"X c #B2ACBF",
"o c #B4AEC2",
"O c #B6AFC3",
"+ c #BAB3C7",
"@ c #BAB3C8",
"# c #BCB5CA",
/* pixels */
"######          ",
"######          ",
"######          ",
"######          ",
"######          ",
"######          ",
"######          ",
"######          ",
"######          ",
"+++++@          ",
"oooooO@#########",
".....o+#########",
".....o+#########",
".....o+#########",
".....o@#########",
".....o@#########"
};
