/* XPM */
static char *bottom_right_active[] = {
/* columns rows colors chars-per-pixel */
"20 20 5 1 ",
"  c None",
". c #4B58A2 s active_shadow_1",
"X c #A39C97 s active_shadow_2",
"o c #D2CFCC s active_mid_2",
"O c #E6E3E1 s active_color_2",
/* pixels */
"              OOooo.",
"              OOooo.",
"              OOooo.",
"              OOooo.",
"              OOooo.",
"              OOooo.",
"              OOooo.",
"              OOooo.",
"              OOooo.",
"              OOooo.",
"              OOooo.",
"              OOooo.",
"              OOooo.",
"              OOooo.",
"OOOOOOOOOOOOOOOOooo.",
"OOOOOOOOOOOOOOOOooo.",
"ooooooooooooooooooo.",
"ooooooooooooooooooo.",
"XXXXXXXXXXXXXXXXXXX.",
"...................."
};
