/* XPM */
static char *shade_pressed[] = {
/* columns rows colors chars-per-pixel */
"17 17 27 1 ",
"  c #010101",
". c #040404",
"X c #090909",
"o c #0E0E0E",
"O c #141413",
"+ c #262624",
"@ c #363633",
"# c #42423F",
"$ c #474743",
"% c #4E4E4B",
"& c #545450",
"* c #A2A29A",
"= c #A7A79F",
"- c #AAAAA2",
"; c #AEAEA6",
": c #BABAB1",
"> c #BDBDB4",
", c #C1C1B8",
"< c #C5C5BC",
"1 c #CFCFC5",
"2 c #D2D2C9",
"3 c #D4D4CA",
"4 c #D6D6CC s active_color_2",
"5 c #D8D8CE",
"6 c #DADAD0",
"7 c #DCDCD1",
"8 c #DFDFD5",
/* pixels */
"44444444444444444",
"44444444444444444",
"44444444444444444",
"44444444444444444",
"44444445754444444",
"44444441<14444444",
"4444448*%*8444444",
"444463=&X&-364444",
"44444:#   #:44444",
"4448=$o   o$=8434",
"451-&  O@O  &-154",
"47>#.  %;%  .#>74",
"47:+ .&=2=&. +:74",
"46,&+#-848-#+&,64",
"442,:>15451>:,244",
"44467754445776444",
"44444444444444444"
};
