/* XPM */
static char *stick_active[] = {
/* columns rows colors chars-per-pixel */
"17 17 67 1 ",
"  c black",
". c #070707",
"X c #080807",
"o c #090908",
"O c #0C0C0B",
"+ c #0E0E0E",
"@ c #151512",
"# c #151514",
"$ c #181815",
"% c #1C1C1B",
"& c #21211F",
"* c #2B2B26",
"= c #2C2C2A",
"- c #2D2D2C",
"; c #32322F",
": c #34342E",
"> c #3B3B38",
", c #404038",
"< c #40403D",
"1 c #4B4B48",
"2 c #5B5B51",
"3 c #5C5C51",
"4 c #5A5A56",
"5 c #616156",
"6 c #65655B",
"7 c #727265",
"8 c #77776D",
"9 c #7B7B71",
"0 c #7D7D77",
"q c #858576",
"w c #89897A",
"e c #868680",
"r c #898983",
"t c #8A8A84",
"y c #8D8D86",
"u c #949484",
"i c #91918A",
"p c #9B9B8A s active_mid_2",
"a c #9C9C8A",
"s c #9B9B8F",
"d c #9F9F8D",
"f c #9A9A93",
"g c #A0A08F",
"h c #A3A393",
"j c #A2A29A",
"k c #AAAA9A",
"l c #AEAEA0",
"z c #B6B6AD",
"x c #BCBCAF",
"c c #BABAB2",
"v c #BEBEB2",
"b c #BEBEB5",
"n c #C1C1B4",
"m c #C4C4B7",
"M c #C6C6BA",
"N c #C6C6BC",
"B c #CACAC1",
"V c #CCCCC3",
"C c #CFCFC4",
"Z c #D1D1C6",
"A c #D2D2C8",
"S c #D6D6CC s active_color_2",
"D c #D9D9CE",
"F c #DBDBD1",
"G c #DDDDD2",
"H c #E1E1D6",
"J c #E3E3D8",
/* pixels */
"SSSSSSSSSSSSSSSSS",
"SSSSSSSSSSSSSSSSS",
"SSSSSSSSSSSSSSSSS",
"SSSSSSSDFDSSDDSSS",
"SSSSSSDzrcHFjiBDS",
"SSSSSSGt%0Vb1;cGS",
"SSSFGGJyO&<>+=cGS",
"SDVfery4.    ;cGS",
"SGb<+@#+     ;cGS",
"SFN9356,.    ;cGS",
"SDCkadh6o$=*X-cGS",
"SDVkpdh6@2uw:;cGS",
"SSAmvvns6qga78NFS",
"SSSSSSDnhhkkgkCDS",
"SSSSSSDnhxZVlkVDS",
"SSSSSSSVvVFSMnASS",
"SSSSSSSSSSSSSSSSS"
};
