/* XPM */
static char *menu_active[] = {
/* columns rows colors chars-per-pixel */
"37 44 19 1 ",
"  c None",
". c #264C73",
"X c #3A6E9E",
"o c #3A6EA2",
"O c #3E6EA2",
"+ c #3E72A6",
"@ c #4272A6",
"# c #4276A6",
"$ c #4676AA",
"% c #467AAE",
"& c #4A7AAE",
"* c #4A7EAE",
"= c #4E7EB2",
"- c #4E82B2",
"; c #5282B6",
": c #5286BA",
"> c #5686BA",
", c #7FABD7",
"< c white",
/* pixels */
"                                     ",
"                                     ",
"                                     ",
"                                     ",
"                                     ",
"                                     ",
"                                     ",
"                                     ",
"                                     ",
"XXXXX,,,,,,,,,,,,,,,,,,,,,,,,,,,XXXXX",
"XXXXX,,,,,,,,,,,,,,,,,,,,,,,,,,,XXXXX",
"oooo,...........................,oooo",
"OOOO,...........................,OOOO",
"OOOO,...........................,OOOO",
"++++,...........................,++++",
"++++,...........................,++++",
"@@@@,....<<<<<<<<<<<<<<<<<<<....,@@@@",
"@@@@,....<<<<<<<<<<<<<<<<<<<....,@@@@",
"####,....<<<<<<<<<<<<<<<<<<<....,####",
"$$$$,...........................,$$$$",
"$$$$,...........................,$$$$",
"$$$$,......<<<<<<<<<<<<<<<......,$$$$",
"$$$$,......<<<<<<<<<<<<<<<......,$$$$",
"%%%%,......<<<.........<<<......,%%%%",
"%%%%,......<<<.........<<<......,%%%%",
"&&&&,.......<<<<.....<<<<.......,&&&&",
"****,.........<<<<.<<<<.........,****",
"****,.........<<<<.<<<<.........,****",
"====,...........<<<<<...........,====",
"====,...........<<<<<...........,====",
"----,.............<.............,----",
"----,.............<.............,----",
";;;;,...........................,;;;;",
";;;;,...........................,;;;;",
";;;;,...........................,;;;;",
"::::,...........................,::::",
"::::,...........................,::::",
">>>>>,,,,,,,,,,,,,,,,,,,,,,,,,,,>>>>>",
">>>>>,,,,,,,,,,,,,,,,,,,,,,,,,,,>>>>>",
"                                     ",
"                                     ",
"                                     ",
"                                     ",
"                                     "
};
