/* XPM */
static char *top_left_active[] = {
/* columns rows colors chars-per-pixel */
"14 40 5 1 ",
"  c None",
". c #A0A0FF s active_shadow_1",
"X c #B0B0FF s active_mid_1",
"o c #C0C0FF s active_color_1",
"O c #D0D0FF s active_hilight_1",
/* pixels */
"         .....",
"         .....",
"     ....XXOOO",
"    .XXOOOOooo",
"    .XXOOOOooo",
"  ..XOOooooooo",
"  ..XOOooooooo",
"  ..oooooooooo",
"  ..oooooooooo",
"..XXoooooooooo",
"..oooooooooooo",
"..oooooooooooo",
"..oooooooooooo",
"..oooooooooooo",
"..oooooooooooo",
"..oooooooooooo",
"..oooooooooooo",
"..oooooooooooo",
"..oooooooooooo",
"..oooooooooooo",
"..oooooooooooo",
"..oooooooooooo",
"..oooooooooooo",
"..oooooooooooo",
"..oooooooooooo",
"..oooooooooooo",
"..oooooooooooo",
"..oooooooooooo",
"..oooooooooooo",
"..oooooooooooo",
"..oooooooooooo",
"..oooooooooooo",
"..oooooooooooo",
"..oooooooooooo",
"..oooooooooooo",
"..oooooooooooo",
"..oooooooooooo",
"..oooooooooooo",
"..oo..........",
"..oo.........."
};
