/* XPM */
static char *stick_inactive[] = {
/* columns rows colors chars-per-pixel */
"39 39 4 1 ",
"  c black",
". c #9B9B8A s inactive_shadow_2",
"X c #B5B5A1 s inactive_mid_2",
"o c #D6D6CC s inactive_color_2",
/* pixels */
"ooooooooooooooooooooooooooooooooooooooo",
"ooooooooooooooooooooooooooooooooooooooo",
"ooooooooooooooooooooooooooooooooooooooo",
"ooooooooooooooooooooooooooooooooooooooo",
"ooooooooooooooooooooooooooooooooooooooo",
"ooooooooooooooooooooooooooooooooooooooo",
"ooooooooooooooooooooooooooooooooooooooo",
"ooooooooooooooooooooooooooooooooooooooo",
"ooooooooooooooooooooooooooooooooooooooo",
"ooooooooooooooooooooooooooooooooooooooo",
"ooooooooooooooooooooooooooooooooooooooo",
"ooooooooooooooooooooooooooooooooooooooo",
"oooooooooooooooooo   oooooo   ooooooooo",
"oooooooooooooooooo   oooooo   ooooooooo",
"oooooooooooooooooo   oooooo   ooooooooo",
"oooooooooooooooooo            ooooooooo",
"oooooooooooooooooo            ooooooooo",
"oooooooooooooooooo            ooooooooo",
"ooooooooo                     ooooooooo",
"ooooooooo                     ooooooooo",
"ooooooooo                     ooooooooo",
"ooooooooo.........            ooooooooo",
"ooooooooo.........            ooooooooo",
"ooooooooo.........            ooooooooo",
"oooooooooXXXXXXXXX   ......   ooooooooo",
"oooooooooXXXXXXXXX   ......   ooooooooo",
"oooooooooXXXXXXXXX   ......   ooooooooo",
"oooooooooooooooooo...XXXXXX...ooooooooo",
"oooooooooooooooooo...XXXXXX...ooooooooo",
"oooooooooooooooooo...XXXXXX...ooooooooo",
"ooooooooooooooooooXXXooooooXXXooooooooo",
"ooooooooooooooooooXXXooooooXXXooooooooo",
"ooooooooooooooooooXXXooooooXXXooooooooo",
"ooooooooooooooooooooooooooooooooooooooo",
"ooooooooooooooooooooooooooooooooooooooo",
"ooooooooooooooooooooooooooooooooooooooo",
"ooooooooooooooooooooooooooooooooooooooo",
"ooooooooooooooooooooooooooooooooooooooo",
"ooooooooooooooooooooooooooooooooooooooo"
};
