/* XPM */
static char *maximize_active[] = {
/* columns rows colors chars-per-pixel */
"26 40 12 1 ",
"  c None",
". c black",
"X c #6C6C6C",
"o c #B4B4B4",
"O c gray79",
"+ c #CDCDCD",
"@ c #D0D0D0",
"# c LightGray",
"$ c gray84",
"% c #DADADA",
"& c gray89",
"* c white",
/* pixels */
"                          ",
"                          ",
"                          ",
"                          ",
"                          ",
"                          ",
"                          ",
"                          ",
"                          ",
"oooooooooooooooooooooooo**",
"oo......................**",
"oo......................**",
"oo.******************oo.**",
"oo.******************oo.**",
"oo.**&&&&&&&&&&&&&&&&XX.**",
"oo.**&&&&&&&&&&&&&&&&XX.**",
"oo.ooXXXXXXXXXXXXXXXXXX.**",
"oo.******************oo.**",
"oo.******************oo.**",
"oo.**%%%%%%%%%%%%%%%%XX.**",
"oo.**%%%%%%%%%%%%%%%%XX.**",
"oo.**$$$$$$$$$$$$$$$$XX.**",
"oo.**$$$$$$$$$$$$$$$$XX.**",
"oo.**################XX.**",
"oo.**#########++#####XX.**",
"oo.**#########++#####XX.**",
"oo.**++++++++++++++++XX.**",
"oo.**++++++++++++++++XX.**",
"oo.**OOOOOOOOOOOOOOOOXX.**",
"oo.**OOOOOOOOOOOOOOOOXX.**",
"oo.ooXXXXXXXXXXXXXXXXXX.**",
"oo......................**",
"oo......................**",
"**************************",
"**************************",
"                          ",
"                          ",
"                          ",
"                          ",
"                          "
};
