/* XPM */
static char *menu_pressed[] = {
/* columns rows colors chars-per-pixel */
"34 38 6 1 ",
"  c None",
". c black",
"X c #949594 s active_shadow_2",
"o c #B4BAB4 s active_mid_2",
"O c #D5D6D5 s active_color_2",
"+ c white",
/* pixels */
"                                  ",
"                                  ",
"XXXXXXXXXXXXXXXXXXXXXXXXXXXXXXXXOO",
"XXXXXXXXXXXXXXXXXXXXXXXXXXXXXXXXOO",
"XXoooooooooooooooooooooooooooooo++",
"XXoooooooooooooooooooooooooooooo++",
"XXoooooooooooooooooooooooooooooo++",
"XXoooooooooooooooooooooooooooooo++",
"XXoooooooooooooooooooooooooooooo++",
"XXoooooooooooooooooooooooooooooo++",
"XXoooo......................oooo++",
"XXoooo......................oooo++",
"XXoooo......................oooo++",
"XXoooo......................oooo++",
"XXooooXXXXXXXXXXXXXXXXXXXXXXoooo++",
"XXooooXXXXXXXXXXXXXXXXXXXXXXoooo++",
"XXoooooo..................oooooo++",
"XXoooooo..................oooooo++",
"XXoooooo....XXXXXXXXXX....oooooo++",
"XXoooooo....XXXXXXXXXX....oooooo++",
"XXooooooXX....XXooXX....XXoooooo++",
"XXooooooXX....XXooXX....XXoooooo++",
"XXooooooooXX....XX....XXoooooooo++",
"XXooooooooXX....XX....XXoooooooo++",
"XXooooooooooXX......XXoooooooooo++",
"XXooooooooooXX......XXoooooooooo++",
"XXooooooooooooXX..XXoooooooooooo++",
"XXooooooooooooXX..XXoooooooooooo++",
"XXooooooooooooooXXoooooooooooooo++",
"XXooooooooooooooXXoooooooooooooo++",
"XXoooooooooooooooooooooooooooooo++",
"XXoooooooooooooooooooooooooooooo++",
"XXoooooooooooooooooooooooooooooo++",
"XXoooooooooooooooooooooooooooooo++",
"OO++++++++++++++++++++++++++++++++",
"OO++++++++++++++++++++++++++++++++",
"                                  ",
"                                  "
};
