/* XPM */
static char *menu_inactive[] = {
/* columns rows colors chars-per-pixel */
"20 23 4 1 ",
"  c None",
". c #4B58A2 s inactive_shadow_1",
"X c #949595 s inactive_shadow_1",
"o c white",
/* pixels */
"                    ",
"                    ",
"                    ",
"   ...............  ",
" ..ooooooooooooooo. ",
".oooooooooooooooooo.",
".oooooooooooooooooo.",
".oooooooooooooooooo.",
".oooooooooooooooooo.",
".oooooXXoooooXooooo.",
".ooooXXXXooXXXXoooo.",
".ooooXXXXooXXXXoooo.",
".ooooXXXXXXXXXXoooo.",
".oooooXXXXXXXXooooo.",
".oooooooXXXXXoooooo.",
".ooooooooXXoooooooo.",
".ooooooooXXoooooooo.",
".oooooooooooooooooo.",
".oooooooooooooooooo.",
".oooooooooooooooooo.",
" ..ooooooooooooooo. ",
" ..ooooooooooooooo. ",
"   ...............  "
};
