/* XPM */
static char *title_2_inactive[] = {
/* columns rows colors chars-per-pixel */
"4 38 2 1 ",
"  c black",
". c white",
/* pixels */
"    ",
"    ",
"  ..",
"  ..",
"  ..",
"  ..",
"  ..",
"  ..",
"  ..",
"  ..",
"  ..",
"  ..",
"  ..",
"  ..",
"  ..",
"  ..",
"  ..",
"  ..",
"  ..",
"  ..",
"  ..",
"  ..",
"  ..",
"  ..",
"  ..",
"  ..",
"  ..",
"  ..",
"  ..",
"  ..",
"  ..",
"  ..",
"  ..",
"  ..",
"  ..",
"  ..",
"    ",
"    "
};
