/* XPM */
static char *top_right_inactive[] = {
/* columns rows colors chars-per-pixel */
"26 49 66 1 ",
"  c black",
". c #2D2824",
"X c #433A30",
"o c #635D52",
"O c #645D53",
"+ c #675E54",
"@ c #676055",
"# c #6D6353",
"$ c #68625D",
"% c #6F675C",
"& c #6F685D",
"* c #6D6864",
"= c #716B60",
"- c #706B67",
"; c #766F64",
": c #7E786C",
"> c #827969",
", c #847A6B",
"< c #817A70",
"1 c #888176",
"2 c #8B8479",
"3 c #88827D",
"4 c #90897E",
"5 c #8B8580",
"6 c #928B80",
"7 c #9A9385",
"8 c #9A9489",
"9 c #9C948B",
"0 c #A0998F",
"q c #A19A90",
"w c #A39C92",
"e c #A49E93",
"r c #A7A196",
"t c #A9A196",
"y c #ACA499",
"u c #ACA69C",
"i c #B0A99D",
"p c #B2AAA1",
"a c #B2ACA0",
"s c #B5ADA3",
"d c #B5AFA6",
"f c #B6B0A6",
"g c #B9B3A9",
"h c #BBB5AA",
"j c #BCB6AD",
"k c #BEB8AD",
"l c #BFB9B0",
"z c #C1BBB2",
"x c #C2BCB3",
"c c #C5BFB6",
"v c #C5BFBE",
"b c #C6C1B7",
"n c #D0CBC2",
"m c #D0CBC4",
"M c #D5D2C8",
"N c #D8D3CB",
"B c #D8D5CD",
"V c #D9D5D5",
"C c #E0DDD6",
"Z c #E1DED8",
"A c #E9E4E0",
"S c #EEEBE6",
"D c #ECEBE9",
"F c #F4F2EE",
"G c #FCFAF7",
"H c #FFFFFD",
/* pixels */
"                          ",
"                          ",
"GGGGGGGGGGGGGGGGGGGFFCCz  ",
"GGGGGGGGGGGGGGGGGGGFFCCz  ",
"SSSSSSSSSSSSSSSSSSSZZxxe  ",
"nnnnnnnnnnnnnnnnnnnxxrr6  ",
"nnnnnnnnnnnnnnnnnnnxxrr6  ",
"hhhhhhhhhhhhhhhhhhhpp881  ",
"hhhhhhhhhhhhhhhhhhhpp881  ",
"hhhhhhhhhhhhhhhhhhhpp881  ",
"hhhhhhhhhhhhhhhhhhhpp881  ",
"hhhhhhhhhhhhhhhhhhhpp881  ",
"hhhhhhhxxHHHBBpphkkdd881  ",
"hhhhhhhxxHHHBBpphkkdd881  ",
"ZZmllggAAV--$$tthccgg881  ",
"ZZmllggAAV--$$tthccgg881  ",
"hhkaauujj5..XX11hbbhh881  ",
"hhkaauujj5..XX11hbbhh881  ",
"hhhggwwaai,,##77hbbhh881  ",
"hhhhhaaiisyyeesshbbhh881  ",
"hhhhhaaiisyyeesshbbhh881  ",
"hhhhhhhggerrddgghbbhh881  ",
"hhhhhhhggerrddgghbbhh881  ",
"hhhhhhhhhu22uuhhhbbhh881  ",
"hhhhhhhhhu22uuhhhbbhh881  ",
"hhhhhhhhhh==wwhhhbbhh881  ",
"hhhhhhhhhh@@99hhhbbhh881  ",
"hhhhhhhhhh@@99hhhbbhh881  ",
"hhhhhhhhhhOO88hhhbbhh881  ",
"hhhhhhhhhhOO88hhhbbhh881  ",
"hhhhhhhhhhoo99hhhbbhh881  ",
"hhhhhhhhhhoo99hhhbbhh881  ",
"hhhhhhhhhq@@00hhhbbhh881  ",
"hhhhhhhhh;;;rrhhhbbhh881  ",
"hhhhhhhhh;;;rrhhhbbhh881  ",
"hhhhhaa<<%44aahhhbbhh881  ",
"hhhhhaa<<%44aahhhbbhh881  ",
"hhhhh::++lDDMMgghbbhh881  ",
"hhhhh::++lDDMMgghbbhh881  ",
"hhq;;&&uuv**$$tthbbhh881  ",
"oo@;;44uu3..XX11hbbhh881  ",
"oo@;;44uu3..XX11hbbhh881  ",
"990rraaffu>>##11jbbhh881  ",
"990rraaffu>>##11jbbhh881  ",
"hhhhhhhhhhhhhhhhhbbhh881  ",
"hhhhhhhhhhhhhhhhhbbhh881  ",
"88888888888888888NNhh881  ",
"                 NNhh881  ",
"                 NNhh881  "
};
