/* XPM */
static char *maximize_active[] = {
/* columns rows colors chars-per-pixel */
"24 27 29 1 ",
"  c None",
". c #3E4C9B",
"X c #45529F",
"o c #516F9D",
"O c #4854A0",
"+ c #4956A1",
"@ c #4A57A1",
"# c #4B57A2",
"$ c #4B58A2 s active_shadow_1",
"% c #4B59A2",
"& c #4B5CA0",
"* c #4E5BA4",
"= c #5A69A9",
"- c #646FAF",
"; c #6974B2",
": c #828BBF",
"> c #9AADC6",
", c #A6ADD1",
"< c #A8AED2",
"1 c #B1B7D7",
"2 c #C8CCE3",
"3 c #DBE5E9",
"4 c #E0E2EF",
"5 c #E1E3EF",
"6 c #E2E4F0",
"7 c #E6E8F2",
"8 c #EEF0F6",
"9 c #FAFAFC",
"0 c #FFFFFF s active_hilight_1",
/* pixels */
"                        ",
"                        ",
"                        ",
"   000000000000000000   ",
"  81,<<<<<<<<<<<<<<,18  ",
" 82-X++++++++++++++X-28 ",
"01-*++++++++++++++++*-10",
"0,X+$$++XXXXXXXX++$$+X,0",
"0<++$$&=;;;;;;;;=&$$++<0",
"0<+++&o>66464466>o&+++<0",
"0<+++=>3000000003>=+++<0",
"0<++X;609746447906;X++<0",
"0<++X;607:-;;-:706;X++<0",
"0<++X;404-.XX.-406;X++<0",
"0<++X;404;X$$X;406;X++<0",
"0<++X;404;X$$X;404;X++<0",
"0<++X;604-.XX.-404;X++<0",
"0<++X;607:-;;-:706;X++<0",
"0<++X;609744447906;X++<0",
"0<+++=>3000000003>=+++<0",
"0<+++&o>66666666>o&+++<0",
"0<++$$&=;;;;;;;;=&$$++<0",
"0,X+$$++XXXXXXXX++$$+X,0",
"01-*++++++++++++++++*-10",
" 82-X++++++++++++++X-28 ",
"  81,<<<<<<<<<<<<<<,18  ",
"   000000000000000000   "
};
