/* XPM */
static char *menu_pressed[] = {
/* columns rows colors chars-per-pixel */
"24 27 3 1 ",
"  c None",
". c #B4BAB5 s active_mid_1",
"X c #FFFFFF s active_hilight_1",
/* pixels */
"                        ",
"                        ",
"                        ",
"   XXXXXXXXXXXXXXXXXX   ",
"   XXXXXXXXXXXXXXXXXX   ",
"  X..................XX ",
"XX.....................X",
"XX.....................X",
"XX.....................X",
"XX.....................X",
"XX.....................X",
"XX......X......XX......X",
"XX....XXXXX...XXXX.....X",
"XX....XXXXX...XXXX.....X",
"XX....XXXXXXXXXXXX.....X",
"XX......XXXXXXXXX......X",
"XX......XXXXXXXXX......X",
"XX.......XXXXXX........X",
"XX.........XXX.........X",
"XX.........XXX.........X",
"XX.....................X",
"XX.....................X",
"XX.....................X",
"XX.....................X",
"  X..................XX ",
"  X..................XX ",
"   XXXXXXXXXXXXXXXXXX   "
};
