/* XPM */
static char *shade_active[] = {
/* columns rows colors chars-per-pixel */
"52 60 120 2 ",
"   c #020202",
".  c #080807",
"X  c #0C0C0B",
"o  c #10100F",
"O  c #131312",
"+  c #191916",
"@  c #1E1E1B",
"#  c #23231F",
"$  c #242422",
"%  c #292926",
"&  c #2B2B2A",
"*  c #31312C",
"=  c #373731",
"-  c #3B3B34",
";  c #3E3E3C",
":  c #41413E",
">  c #454542",
",  c #4B4B44",
"<  c #4E4E4A",
"1  c #52524C",
"2  c #58584F",
"3  c #5D5D52",
"4  c #5D5D5D",
"5  c #606055",
"6  c #63635D",
"7  c #6A6A5F",
"8  c #676762",
"9  c #6C6C62",
"0  c #6F6F6A",
"q  c #717165",
"w  c #73736C",
"e  c #7F7F71",
"r  c #7F7F79",
"t  c #818173",
"y  c #85857C",
"u  c #8B8B7E",
"i  c #8B8B83",
"p  c #8E8E88",
"a  c #909083",
"s  c #94948A",
"d  c #99998A",
"f  c #979790",
"g  c #9C9C92",
"h  c #A2A295",
"j  c #A5A599",
"k  c #A9A99A",
"l  c #A3A3A0",
"z  c #ABABA2",
"x  c #ABABA8",
"c  c #B3B3A6",
"v  c #B3B3AD",
"b  c #B9B9AC",
"n  c #B2B2B0",
"m  c #B9B9B0",
"M  c #BABAB1",
"N  c #BABAB2",
"B  c #BCBCB2",
"V  c #BCBCB3",
"C  c #BFBFB6",
"Z  c #BFBFB7",
"A  c #BCBCB8",
"S  c #BCBCB9",
"D  c #C0C0B5",
"F  c #C3C3B4",
"G  c #C2C2B5",
"H  c #C0C0B6",
"J  c #C1C1B7",
"K  c #C4C4B6",
"L  c #C1C1B8",
"P  c #C3C3B8",
"I  c #C2C2B9",
"U  c #C3C3BA",
"Y  c #C5C5B8",
"T  c #C6C6B9",
"R  c #C6C6BB",
"E  c #C7C7BB",
"W  c #C6C6BC",
"Q  c #C8C8BE",
"!  c #C9C9C0",
"~  c #C8C8C1",
"^  c #CACAC0",
"/  c #CBCBC0",
"(  c #CACAC1",
")  c #CBCBC1",
"_  c #CCCCC1",
"`  c #CDCDC1",
"'  c #CCCCC2",
"]  c #CCCCC3",
"[  c #CDCDC3",
"{  c #CECEC3",
"}  c #CECEC4",
"|  c #CECEC5",
" . c #CFCFC5",
".. c #CFCFC6",
"X. c #D0D0C6",
"o. c #D0D0C7",
"O. c #D1D1C7",
"+. c #D1D1C8",
"@. c #D2D2C8",
"#. c #D2D2C9",
"$. c #D3D3C9",
"%. c #D4D4CA",
"&. c #D4D4CB",
"*. c #D5D5CB",
"=. c #D6D6CC s active_color_2",
"-. c #D7D7CC",
";. c #D7D7CD",
":. c #D7D7CE",
">. c #D8D8CE",
",. c #D8D8CF",
"<. c #D9D9CF",
"1. c #D2D2D1",
"2. c #DADAD0",
"3. c #DBDBD1",
"4. c #DCDCD1",
"5. c #DEDED3",
"6. c #E0E0D7",
"7. c #EBEBE4",
"8. c #EFEFEE",
"9. c #F7F7F4",
/* pixels */
"                                                                                                        ",
"X X X X X X X X X X X X X X X X X X X X X X X X X X X X X X X X X X X X X X X X X X X X X X X X X X X X ",
"& & & & & & & & & & & & & & & & & & & & & & & & & & & & & & & & & & & & & & & & & & & & & & & & & & & & ",
"4 4 4 4 4 4 4 4 4 4 4 4 4 4 4 4 4 4 4 4 4 4 4 4 4 4 4 4 4 4 4 4 4 4 4 4 4 4 4 4 4 4 4 4 4 4 4 4 4 4 4 4 ",
"l l l l l l l l l l l l l l l l l l l l l l l l l l l l l l l l l l l l l l l l l l l l l l l l l l l l ",
"1.1.1.1.1.1.1.1.1.1.1.1.1.1.1.1.1.1.1.1.1.1.1.1.1.1.1.1.1.1.1.1.1.1.1.1.1.1.1.1.1.1.1.1.1.1.1.1.1.1.1.1.",
"8.8.8.8.8.8.8.8.8.8.8.8.8.8.8.8.8.8.8.8.8.8.8.8.8.8.8.8.8.8.8.8.8.8.8.8.8.8.8.8.8.8.8.8.8.8.8.8.8.8.8.8.",
"9.9.9.9.9.9.9.9.9.9.9.9.9.9.9.9.9.9.9.9.9.9.9.9.9.9.9.9.9.9.9.9.9.9.9.9.9.9.9.9.9.9.9.9.9.9.9.9.9.9.9.9.",
"7.7.7.7.7.7.7.7.7.7.7.7.7.7.7.7.7.7.7.7.7.7.7.7.7.7.7.7.7.7.7.7.7.7.7.7.7.7.7.7.7.7.7.7.7.7.7.7.7.7.7.7.",
"5.5.6.5.6.6.6.6.6.6.6.6.6.6.6.6.6.6.6.6.6.6.6.6.5.5.6.6.6.6.6.6.6.6.6.6.6.6.6.6.6.6.6.6.6.6.6.6.6.5.5.5.",
",.,.,.,.,.,.,.,.,.,.,.,.,.,.,.,.,.,.,.,.,.,.,.,.,.,.,.,.,.,.,.,.,.,.,.,.,.,.,.,.,.,.,.,.,.,.,.,.,.,.,.,.",
"&.&.&.&.&.&.&.&.&.&.&.&.&.&.&.&.&.&.&.&.&.&.&.&.&.&.&.&.&.&.&.&.&.&.&.&.&.&.&.&.&.&.&.&.&.&.&.&.&.&.&.&.",
"&.&.&.&.&.&.&.&.&.&.&.&.&.&.&.&.&.&.&.&.&.&.&.&.&.&.&.&.&.&.&.&.&.&.&.&.&.&.&.&.&.&.&.&.&.&.&.&.&.&.&.&.",
"&.*.&.&.*.*.*.*.&.&.&.&.*.*.&.*.&.&.&.&.*.*.&.*.*.*.*.*.&.&.&.&.*.*.*.*.*.*.*.*.&.&.&.&.*.*.*.*.*.*.&.&.",
"*.*.*.*.*.*.*.*.*.*.*.*.*.*.*.*.*.*.*.*.*.*.*.*.*.,.,.*.*.*.*.*.*.*.*.*.*.*.*.*.*.*.*.*.*.*.*.*.*.*.*.*.",
"*.*.*.*.*.*.*.*.*.*.*.*.*.*.*.*.*.*.*.*.*.*.*.*.,.2.2.,.*.*.*.*.*.*.*.*.*.*.*.*.*.*.*.*.*.*.*.*.*.*.*.*.",
"*.*.*.*.*.*.*.*.*.*.*.*.*.*.*.*.*.*.*.*.*.*.*.*.2.2.2.2.*.*.*.*.*.*.*.*.*.*.*.*.*.*.*.*.*.*.*.*.*.*.*.*.",
"*.*.*.*.*.*.*.*.*.*.*.*.*.*.*.*.*.*.*.*.*.*.&.+.+.O.O.+.+.&.*.*.*.*.*.*.*.*.*.*.*.*.*.*.*.*.*.*.*.*.*.*.",
"*.*.*.*.*.*.*.*.*.*.*.*.*.*.*.*.*.*.,.,.,.*.+.( H N N H ( +.*.,.,.*.*.*.*.*.*.*.*.*.*.*.*.*.*.*.*.*.*.*.",
"*.*.*.*.*.*.*.*.*.*.*.*.*.*.*.*.*.*.,.2.2.*.] N j f f j N ] *.4.2.,.*.*.*.*.*.*.*.*.*.*.*.*.*.*.*.*.*.*.",
"*.*.*.*.*.*.*.*.*.*.*.*.*.*.*.*.*.*.,.4.5.*.U j r 9 9 r j U *.5.4.,.*.*.*.*.*.*.*.*.*.*.*.*.*.*.*.*.*.*.",
"*.*.*.*.*.*.*.*.*.*.*.*.*.*.*.*.*.,.,.,.*.( v i 4 > > 4 i v ( *.,.,.*.*.*.*.*.*.*.*.*.*.*.*.*.*.*.*.*.*.",
"*.*.*.*.*.*.*.*.*.*.*.*.*.*.*.,.,.,.&.| W v s 0 : % % : 0 s v W | &.,.,.,.,.*.*.*.*.*.*.*.*.*.*.*.*.*.*.",
"*.*.*.*.*.*.*.*.*.*.*.*.*.*.,.2.4.,.| Z z a w < % O O % < w a z Z | ,.4.2.,.*.*.*.*.*.*.*.*.*.*.*.*.*.*.",
"*.*.*.*.*.*.*.*.*.*.*.*.*.*.,.4.5.*.W z y 6 > & O . . O & > 6 y z W *.5.2.,.*.*.*.*.*.*.*.*.*.*.*.*.*.*.",
"*.*.*.*.*.*.*.*.*.*.*.*.*.*.,.,.*.( v a 6 ; $ O .     . O $ ; 6 a v ( *.,.,.*.*.*.*.*.*.*.*.*.*.*.*.*.*.",
"*.*.*.*.*.*.*.*.*.*.,.,.,.,.&.| W v f w > $ o             o $ > w f v W | &.,.,.,.,.*.*.*.*.*.*.*.*.*.*.",
"*.*.*.*.*.*.*.*.*.*.,.2.4.,.| Z z a w 1 & O                 O & 1 w a z Z | ,.4.2.,.*.*.*.*.*.*.*.*.*.*.",
"*.*.*.*.*.*.*.*.*.*.,.4.4.*.W z y 6 > & O .                 . O & > 6 y z W *.5.4.,.*.*.*.*.*.*.*.*.*.*.",
"*.*.*.*.*.*.*.*.*.*.*.*.*.( v a 6 ; $ O .                     . O $ ; 6 a v ( *.,.*.*.*.*.*.*.*.*.*.*.*.",
"*.*.*.*.*.*.*.*.*.&.+.] U v f w > $ o         . o O O o .         o $ > w f v U ] +.&.*.*.*.*.*.*.*.*.*.",
"*.*.*.*.*.*.*.*.*.+.( N j p w 1 & O         . O # & & $ O .         O & 1 w p j V ( &.,.*.*.*.*.*.*.*.*.",
"*.*.*.*.*.*.*.,.2.+.H j y 6 > & O .         X # ; , , ; # X         . O & > 6 y j H +.2.,.*.*.*.*.*.*.*.",
"*.*.*.*.*.*.,.,.2.O.N s 8 : $ O .         X + = 2 7 7 2 = + X         . O $ : 8 s N O.2.,.*.*.*.*.*.*.*.",
"*.*.*.*.*.*.,.2.2.| v i 1 & O           X + * , q y y q , * + X           O & 1 i v | 2.2.,.*.*.*.*.*.*.",
"*.*.*.*.*.*.,.2.2.| v y , @ .         o + * , 9 u d d u 9 , * + o         . @ , y v | 2.2.,.*.*.*.*.*.*.",
"*.*.*.*.*.*.,.2.2.| v y , @ .       X + = 1 9 u h c c h u 9 1 = + X       . @ , y v | 2.2.,.*.*.*.*.*.*.",
"*.*.*.*.*.*.,.2.2.| v i 1 % o     X + * 1 q u h b H H b h u q 1 * + X     o % 1 i v | 2.2.,.*.*.*.*.*.*.",
"*.*.*.*.*.*.,.2.2.| b a 6 - @ O o + & , 9 u h b R ] ] R b h u 9 , & + O o # - 6 a b O.2.,.,.*.*.*.*.*.*.",
"*.*.*.*.*.*.,.2.2.O.N g w 1 - & & = , 6 y h v R ] +.+.] R v h y 6 , = & & ; 1 w g V O.2.,.,.*.*.*.*.*.*.",
"*.*.*.*.*.*.,.,.,.+.U z i w 6 3 3 5 q y g v U ] +.&.&.+.] U v g y q 5 2 3 6 w i z U +.,.,.*.*.*.*.*.*.*.",
"*.*.*.*.*.*.*.,.,.+.Q b h a y t t y a g c H ] +.&.*.*.&.+.] U v g i y t t y a h b Q +.,.,.*.*.*.*.*.*.*.",
"*.*.*.*.*.*.*.*.,.&.] U v k h d d h k c H ( +.*.*.*.*.*.*.+.( Z c k h d d h j v U ] &.,.*.*.*.*.*.*.*.*.",
"*.*.*.*.*.*.*.*.*.*.O.( H b v c c v b H Q O.*.,.*.*.*.,.,.*.+.( H b v c c v b Z ( O.*.*.*.*.*.*.*.*.*.*.",
"*.*.*.*.*.*.*.*.*.*.&.O.( R K K K R R ( O.&.*.,.*.*.*.,.,.*.&.O.( R R K K R R ( O.&.*.*.*.*.*.*.*.*.*.*.",
"&.&.&.&.&.&.&.&.&.&.&.+.| ] ] ] ] ] ] | +.&.*.*.&.&.&.&.*.*.&.+.| ] ] ] ] ] ] | +.&.&.&.&.&.&.&.&.&.&.&.",
"+.+.+.+.O.O.O.O.O.O.O.O.| | | | | | | | O.O.+.+.+.+.O.+.+.+.+.O.| | | | | | | | O.O.O.O.+.+.+.+.O.O.O.O.",
"( ( ( ( ( ( ( ( ( ( ( ( ( ( ( ( ( ( ( ( ( ( ( ( ( ( ( ( ( ( ( ( ( ( ( ( ( ( ( ( ( ( ( ( ( ( ( ( ( ( ( ( ",
"A A A A A A A A A A Z A A A A A A A A A A A A A A A Z A A A A A A A A A A A A A A A Z A A A A A A A A A ",
"n n v v v v v v v v v v n n n n n n n n n v v v v v v v v v n n v v n n n n n n v v v v v v n n v n v v ",
"x x x x x x x x x x x x x x x x x x x x x x x x x x x x x x x x x x x x x x x x x x x x x x x x x x x x ",
"l l l l l l l l l l l l l l l l l l l l l l l l l l l l l l l l z k z z z l l l l l l l l l l l l l l l ",
"k k k k k k k k k k k k k k k k k k k k k k k k k k k k k k k k k k k k k k k k k k k k k k k k k k k k ",
"d d d d d d d d d d d d d d d d d d d d d d d d d d d d d d d d d d d d d d d d d d d d d d d d d d d d ",
"e e e e e e e e t t t t t t t t t t t t t t t t t t t t t t t t e e e e t t t t t t t t t t t t t t t t ",
"3 3 3 3 3 3 3 3 3 3 3 5 5 5 5 5 5 5 5 3 5 5 5 5 3 3 3 5 5 5 5 5 3 3 3 3 3 5 5 5 3 3 3 5 5 5 5 5 5 5 5 5 ",
"= = = = = = = = = = = = = = = = = = = = = = = = = = = = = = = = = = = = = = = = = = = = = = = = = = = = ",
"+ + + + + + + + + + + + + + + + + + + + + + + + + + + + + + + + + + + + + + + + + + + + + + + + + + + + ",
"        . .             . .             . .             . .             . .             . .             ",
"                                                                                                        "
};
