/* XPM */
static char *maximize_pressed[] = {
/* columns rows colors chars-per-pixel */
"42 30 4 1 ",
"  c None",
". c #A0A0FF s active_shadow_1",
"X c #C0C0FF s active_color_1",
"o c white",
/* pixels */
"                                          ",
"                                          ",
"XXXXXXXXXXXXXXXXXXXXXXXXXXXXXXXXXXXXXXXXXX",
"XXXXXXXXXXXXXXXXXXXXXXXXXXXXXXXXXXXXXXXXXX",
"XXXXXXXXXXXXXXXXXXXXXXXXXXXXXXXXXXXXXXXXXX",
"XXXXXXXXXXXXXXXXXXXXXXXXXXXXXXXXXXXXXXXXXX",
"XXXXXXXXXXXXXXXXXXXXXXXXXXXXXXXXXXXXXXXXXX",
"XXXXXXXXXXXXXXXXXXXXXXXXXXXXXXXXXXXXXXXXXX",
"XXXXXXXXXXXXXXXXXXXXXXXXXXXXXXXXXXXXXXXXXX",
"XXXXXXXXXXXXXX..............XXXXXXXXXXXXXX",
"XXXXXXXXXXXXXX..............XXXXXXXXXXXXXX",
"XXXXXXXXXXXX..oooooooooooooo..XXXXXXXXXXXX",
"XXXXXXXXXXXX..oooooooooooooo..XXXXXXXXXXXX",
"XXXXXXXXXXXX..oooooooooooooo..XXXXXXXXXXXX",
"XXXXXXXXXXXX..oo..........oo..XXXXXXXXXXXX",
"XXXXXXXXXXXX..oo..........oo..XXXXXXXXXXXX",
"XXXXXXXXXXXX..oo..XXXXXXX.oo..XXXXXXXXXXXX",
"XXXXXXXXXXXX..oo..XXXXXXX.oo..XXXXXXXXXXXX",
"XXXXXXXXXXXX..oo..XXXXXXX.oo..XXXXXXXXXXXX",
"XXXXXXXXXXXX..oo..XXXXXXX.oo..XXXXXXXXXXXX",
"XXXXXXXXXXXX..oo..XXXXXXX.oo..XXXXXXXXXXXX",
"XXXXXXXXXXXX..oo..........oo..XXXXXXXXXXXX",
"XXXXXXXXXXXX..oo..........oo..XXXXXXXXXXXX",
"XXXXXXXXXXXX..oooooooooooooo..XXXXXXXXXXXX",
"XXXXXXXXXXXX..oooooooooooooo..XXXXXXXXXXXX",
"XXXXXXXXXXXXXX..............XXXXXXXXXXXXXX",
"XXXXXXXXXXXXXXXXXXXXXXXXXXXXXXXXXXXXXXXXXX",
"XXXXXXXXXXXXXXXXXXXXXXXXXXXXXXXXXXXXXXXXXX",
"XXXXXXXXXXXXXXXXXXXXXXXXXXXXXXXXXXXXXXXXXX",
"XXXXXXXXXXXXXXXXXXXXXXXXXXXXXXXXXXXXXXXXXX"
};
