/* XPM */
static char *bottom_inactive[] = {
/* columns rows colors chars-per-pixel */
"44 20 66 1 ",
"  c #90A8CA",
". c #91A8CA",
"X c #91A9CA",
"o c #92A9CA",
"O c #93A9CA",
"+ c #93AACA",
"@ c #94AACA",
"# c #95AACA",
"$ c #95ABCA",
"% c #96ACC9",
"& c #97ACC9",
"* c #98AEC9",
"= c #99AEC9",
"- c #9AAFCA",
"; c #9AB0CA",
": c #9BB0CA",
"> c #9CB1CA",
", c #9CB1CC",
"< c #9CB2CC",
"1 c #9DB3CC",
"2 c #9EB3CC",
"3 c #9EB4CC",
"4 c #9EB4CE",
"5 c #9EB5CE",
"6 c #9FB5CE",
"7 c #9FB6CE",
"8 c #9FB6CF",
"9 c #9FB7CF",
"0 c #9FB7D0",
"q c #9FBAD8",
"w c #9FBBD9",
"e c #9FBBDA",
"r c #9FBBDB",
"t c #A0B6CE",
"y c #A0B6CF",
"u c #A0B7CF",
"i c #A1B7CF",
"p c #A0B7D0",
"a c #A1B7D0",
"s c #A0B8D0",
"d c #A0B8D1",
"f c #A1B8D1",
"g c #A0B9D1",
"h c #A1B9D1",
"j c #A1B8D2",
"k c #A0B9D2",
"l c #A0B9D3",
"z c #A1B9D3",
"x c #A1BAD3",
"c c #A1BAD4",
"v c #A0BBD5",
"b c #A1BBD5",
"n c #A1BBD6",
"m c #A1BBD7",
"M c #A5B8D6",
"N c #A4B9D7",
"B c #A3B9D9",
"V c #A0BAD8",
"C c #A0BBD9",
"Z c #A3BAD9",
"A c #A0BBDA",
"S c #A1BBDA",
"D c #A0BBDB",
"F c #A0BCD9",
"G c #A0BCDA",
"H c #A0BCDB",
/* pixels */
"MMMMMMMMMMMMMMMMMMMMMMMMMMMMMMMMMMMMMMMMMMMM",
"MMMMMMMMMMMMMMMMMMMMMMMMMMMMMMMMMMMMMMMMMMMM",
"MMMMMMNNNNMMNNNNMMMMMMNNNNMMMMNNNNMMNNNNMMMM",
"BBBBBBBBBBBBBBBBBBBBBBBBBBBBBBBBBBBBBBBBBBBB",
"BBBBBBBBBBBBBBBBBBBBBBBBBBBBBBBBBBBBBBBBBBBB",
"GBGeBBBBBeBBGBBBBBGBBrrrBBBeBBBBGeBBBBBBBBrr",
"GGeeeeGGeeeGGGGGGGGGBrrrreeeeeGGeeeeGGGGrrrr",
"GGeGGGGGGGGGGGGGGGGGBBrrreeGGGGGGeGGGGGGBrrr",
"nnnnccccccccccccccccccggcnccccccccccccncgggg",
"cccccccccccccccccccccggggcggcccccccccccgaaaa",
"gggggggggggggggggggg009900gggggggggggggg0999",
"yy9999999999999yyy99999999999yyyy99999999999",
"22299922992222922222222222222222292292222222",
">>>>>>>>>>>>>>>>>>>::==::>>>>>>>>>>>>>>>>>>>",
"============================================",
"%%%%%%%%%%%%%%%%%%%%%%%%%%%%%%%%%%%%%%%%%%%%",
"++++++++++++++++++++++++++++++++++++++++@@@@",
"++++++++++++++++++++++++++++++++++++++++++++",
"++++++++++++++++++++++++++++++++++++++++++++",
" ++++++++++++++++++++++++++++++++  +++++++++"
};
