/* XPM */
static char *top_left_active[] = {
/* columns rows colors chars-per-pixel */
"9 35 22 1 ",
"  c #000000 s active_border_color",
". c #1C1C1C",
"X c #3A3A3A",
"o c #4F4F4F",
"O c #525252",
"+ c #626262",
"@ c #7B7B7B",
"# c #7E7E7E",
"$ c #949494",
"% c #A1A1A1",
"& c #B7B7B7",
"* c #B8B8B8",
"= c #C6C6C6",
"- c #CACACA",
"; c #D2D2D2",
": c #D5D5D5",
"> c #D8D8D8 s active_color_2",
", c #DFDFDF",
"< c #E2E2E2",
"1 c #E9E9E9",
"2 c #F9F9F9",
"3 c white",
/* pixels */
"         ",
" X@@@@@@@",
" @3322222",
" #31<<<<<",
" #2,:::::",
" #2<:>>>>",
" #2<:>>>>",
" #2<:>>>>",
" #2<:>>>>",
" #2<:>>>>",
" #2<:>>>>",
" #2<:>>>>",
" #2<:>>>>",
" #2<:>>>>",
" #2<:>>>>",
" #2<:>>>>",
" #2<:>>>>",
" #2<:>>>>",
" #2<:>>>>",
" #2<:>>>>",
" #2<:>>>>",
" #2<:>>>>",
" #2<:>>>>",
" #2<:>>>>",
" #2<:>>>>",
" #2<:>>>>",
" #2<:>>>>",
" #2<:>>>>",
" #2<:>>>>",
" #2<:>>>>",
" #2<>>>>>",
" #2<;;;;;",
" #2<=&&**",
" #2<=%+oO",
" #2<-$.  "
};
