/* XPM */
static char *maximize_inactive[] = {
/* columns rows colors chars-per-pixel */
"30 30 3 1 ",
"  c #949594 s inactive_shadow_2",
". c #B4BAB4 s inactive_mid_2",
"X c #D5D6D5 s inactive_color_2",
/* pixels */
"XXXXXXXXXXXXXXXXXXXXXXXXXXXXXX",
"XXXXXXXXXXXXXXXXXXXXXXXXXXXXXX",
"XXXXXXXXXXXXXXXXXXXXXXXXXXXXXX",
"XXXXXXXXXXXXXXXXXXXXXXXXXXXXXX",
"XXXXXXXXXXXXXXXXXXXXXXXXXXXXXX",
"XXXXX                    XXXXX",
"XXXXX                    XXXXX",
"XXXXX                    XXXXX",
"XXXXX                    XXXXX",
"XXXXX  ................  XXXXX",
"XXXXX  ................  XXXXX",
"XXXXX  XXXXXXXXXXXXXXXX  XXXXX",
"XXXXX  XXXXXXXXXXXXXXXX  XXXXX",
"XXXXX  XXXXXXXXXXXXXXXX  XXXXX",
"XXXXX  XXXXXXXXXXXXXXXX  XXXXX",
"XXXXX  XXXXXXXXXXXXXXXX  XXXXX",
"XXXXX  XXXXXXXXXXXXXXXX  XXXXX",
"XXXXX  XXXXXXXXXXXXXXXX  XXXXX",
"XXXXX  XXXXXXXXXXXXXXXX  XXXXX",
"XXXXX  XXXXXXXXXXXXXXXX  XXXXX",
"XXXXX  XXXXXXXXXXXXXXXX  XXXXX",
"XXXXX  XXXXXXXXXXXXXXXX  XXXXX",
"XXXXX  XXXXXXXXXXXXXXXX  XXXXX",
"XXXXX                    XXXXX",
"XXXXX                    XXXXX",
"XXXXX....................XXXXX",
"XXXXXXXXXXXXXXXXXXXXXXXXXXXXXX",
"XXXXXXXXXXXXXXXXXXXXXXXXXXXXXX",
"XXXXXXXXXXXXXXXXXXXXXXXXXXXXXX",
"XXXXXXXXXXXXXXXXXXXXXXXXXXXXXX"
};
