/* XPM */
static char *maximize_active[] = {
/* columns rows colors chars-per-pixel */
"36 36 4 1 ",
"  c None",
". c #567B9C s active_color_1",
"X c #4B58A2 s active_shadow_1",
"o c #FFFFFF s active_hilight_1",
/* pixels */
"    oooooooooooooooooooooooooooo    ",
"    oooooooooooooooooooooooooooo    ",
"  ooXXXXXXXXXXXXXXXXXXXXXXXXXXXXoo  ",
"  ooXXXXXXXXXXXXXXXXXXXXXXXXXXXXoo  ",
"ooXXXXXXXXXXXXXXXXXXXXXXXXXXXXXXXXoo",
"ooXXXXXXXXXXXXXXXXXXXXXXXXXXXXXXXXoo",
"ooXXXXXXXXXXXXXXXXXXXXXXXXXXXXXXXXoo",
"ooXXXXXXXXXXXXXXXXXXXXXXXXXXXXXXXXoo",
"ooXXXXXXXXXXXXXXXXXXXXXXXXXXXXXXXXoo",
"ooXXXXXXXXXXXXXXXXXXXXXXXXXXXXXXXXoo",
"ooXXXXXXXX..oooooooooooo..XXXXXXXXoo",
"ooXXXXXXXX..oooooooooooo..XXXXXXXXoo",
"ooXXXXXXXXooooooooooooooooXXXXXXXXoo",
"ooXXXXXXXXooooooooooooooooXXXXXXXXoo",
"ooXXXXXXXXooooXXXXXXXXooooXXXXXXXXoo",
"ooXXXXXXXXooooXXXXXXXXooooXXXXXXXXoo",
"ooXXXXXXXXooooXXXXXXXXooooXXXXXXXXoo",
"ooXXXXXXXXooooXXXXXXXXooooXXXXXXXXoo",
"ooXXXXXXXXooooXXXXXXXXooooXXXXXXXXoo",
"ooXXXXXXXXooooXXXXXXXXooooXXXXXXXXoo",
"ooXXXXXXXXooooXXXXXXXXooooXXXXXXXXoo",
"ooXXXXXXXXooooXXXXXXXXooooXXXXXXXXoo",
"ooXXXXXXXXooooooooooooooooXXXXXXXXoo",
"ooXXXXXXXXooooooooooooooooXXXXXXXXoo",
"ooXXXXXXXX..oooooooooooo..XXXXXXXXoo",
"ooXXXXXXXX..oooooooooooo..XXXXXXXXoo",
"ooXXXXXXXXXXXXXXXXXXXXXXXXXXXXXXXXoo",
"ooXXXXXXXXXXXXXXXXXXXXXXXXXXXXXXXXoo",
"ooXXXXXXXXXXXXXXXXXXXXXXXXXXXXXXXXoo",
"ooXXXXXXXXXXXXXXXXXXXXXXXXXXXXXXXXoo",
"ooXXXXXXXXXXXXXXXXXXXXXXXXXXXXXXXXoo",
"ooXXXXXXXXXXXXXXXXXXXXXXXXXXXXXXXXoo",
"  ooXXXXXXXXXXXXXXXXXXXXXXXXXXXXoo  ",
"  ooXXXXXXXXXXXXXXXXXXXXXXXXXXXXoo  ",
"    oooooooooooooooooooooooooooo    ",
"    oooooooooooooooooooooooooooo    "
};
