/* XPM */
static char *stick_inactive[] = {
/* columns rows colors chars-per-pixel */
"34 42 95 2 ",
"   c None",
".  c #919291",
"X  c #929392",
"o  c #949594 s inactive_shadow_2",
"O  c #949694",
"+  c #959695",
"@  c #969796",
"#  c #989998",
"$  c #989A98",
"%  c #999A99",
"&  c #999B99",
"*  c #9A9B9A",
"=  c #9A9C9A",
"-  c #9A9D9A",
";  c #9B9D9B",
":  c #9B9E9B",
">  c #9C9E9C",
",  c #9D9E9D",
"<  c #9D9F9D",
"1  c #9E9F9E",
"2  c #9DA09D",
"3  c #9EA09E",
"4  c #9EA19E",
"5  c #9FA09F",
"6  c #9FA19F",
"7  c #A0A0A0",
"8  c #A1A2A1",
"9  c #A2A3A2",
"0  c #A3A3A3",
"q  c #A2A5A2",
"w  c #A3A4A3",
"e  c #A4A5A4",
"r  c #A4A8A4",
"t  c #A5A9A5",
"y  c #A6AAA6",
"u  c #A6ABA6",
"i  c #A7ABA7",
"p  c #A7ACA7",
"a  c #A8AAA8",
"s  c #A9AAA9",
"d  c #A9ABA9",
"f  c #AAAFAA",
"g  c #ABAFAB",
"h  c #AEAFAE",
"j  c #ABB0AB",
"k  c #ACB0AC",
"l  c #ACB1AC",
"z  c #ADB1AD",
"x  c #ADB2AD",
"c  c #AFB0AF",
"v  c #B3B7B3",
"b  c #B4B8B4",
"n  c #B5B9B5",
"m  c #B5BBB5",
"M  c #B6B9B6",
"N  c #B7B8B7",
"B  c #B6BAB6",
"V  c #B5BCB5",
"C  c #B8B9B8",
"Z  c #B9BAB9",
"A  c #BCC1BC",
"S  c #BDC2BD",
"D  c #BFC1BF",
"F  c #BEC3BE",
"G  c #C0C2C0",
"H  c #C2C6C2",
"J  c #C3C7C3",
"K  c #C4C5C4",
"L  c #C5C6C5",
"P  c #C6C6C6",
"I  c #C6C7C6",
"U  c #C5C8C5",
"Y  c #C7C8C7",
"T  c #C8C9C8",
"R  c #C9CAC9",
"E  c #CACBCA",
"W  c #CACCCA",
"Q  c #CBCDCB",
"!  c #CDD0CD",
"~  c #CED0CE",
"^  c #CED1CE",
"/  c #CFD1CF",
"(  c #D0D2D0",
")  c #D1D2D1",
"_  c #D1D3D1",
"`  c #D2D3D2",
"'  c #D3D4D3",
"]  c #D3D5D3",
"[  c #D4D5D4",
"{  c #D5D6D5 s inactive_color_2",
"}  c #D6D6D6",
"|  c #D6D7D6",
" . c #D7D7D7",
".. c #D7D8D7",
"X. c #D8D9D8",
/* pixels */
"                                                                    ",
"                                                                    ",
"                                                                    ",
"                                                                    ",
"                                                                    ",
"                                                                    ",
"{ { { { { { { { { { { { { { { { { { { { { { { { { { { { { { { { { { ",
"{ { { { { { { { { { { { { { { { { { { { { { { { { { { { { { { { { { ",
"{ { { { { { { { { { { { { { { { { { { { { { { { { { { { { { { { { { ",
"{ { { { { { { { { { { { { { { { { { { { { { { { { { { { { { { { { { ",
"{ { { { { { { { { { { { { { { { { { { { { { { { { { { { { { { { { { ",
"{ { { { { { { { { { { { { { { { { { { { { { { { { { { { { { { { { { ",
"{ { { { { { { { { { { { { { { { { { { { { { { { { { { { { { { { { { ",
"{ { { { { { { { { { { { { { { { { { { { { { { { { { { { { { { { { { ",
"{ { { { { { { { { { { { { { { { { { { { { { { { { { { { { { { { { { ",
"{ { { { { { { { { { { { { { { { { ) R R ) { { { { ) R R ) { { { { { ",
"{ { { { { { { { { { { { { { { { { R c c R X.....X.R c c R { { { { { ",
"{ { { { { { { { { { { { { { { ..X.L 9 , m L L L L Z , 9 L ..{ { { { ",
"{ { { { { { { { { ..............X.L w + , w w w e 5 + w L ..{ { { { ",
"{ { { { { ] / W Y L L L L L L L L Z 5 + , w w 5 + X X e L ..{ { { { ",
"{ { { { { / J m s 9 w w w w w w w 5 @ 9 Z Y Y Z 5 X X e L ..{ { { { ",
"{ { { { { W m y 5 ; ; ; ; ; ; ; ; $ + 9 G ) ) G w X X e L ..{ { { { ",
"{ { { { ..Y s 5 y c c c c c c c c y $ , v F F v 5 X X e L ..{ { { { ",
"{ { { { ..Y s 5 p c c c c c c c c y $ ; c m m c , X X e L ..{ { { { ",
"{ { { { { W m y 5 ; ; ; ; ; ; , ; $ + ; c V V c , X X e L ..{ { { { ",
"{ { { { { ) H m w ; ; ; ; ; ; ; ; $ + ; y c c y $ X X e L ..{ { { { ",
"{ { { { { { ) Y v g g j j j j j c y $ + $ ; ; $ + X X e L ..{ { { { ",
"{ { { { { { { ) H S S S S S S S S v , + $ ; ; ; ; $ + w L ..{ { { { ",
"{ { { { { { { { / / / / / / / / / S 9 $ y j j c c y $ 9 L ..{ { { { ",
"{ { { { { { { { { { { { { { { { ..Y s w m S S S S m w s Y { { { { { ",
"{ { { { { { { { { { { { { { { { { W m v Y / / / / Y v m W { { { { { ",
"{ { { { { { { { { { { { { { { { { / H H / { { { { / H H / { { { { { ",
"{ { { { { { { { { { { { { { { { { ] / / ] { { { { ] / / ] { { { { { ",
"{ { { { { { { { { { { { { { { { { { { { { { { { { { { { { { { { { { ",
"{ { { { { { { { { { { { { { { { { { { { { { { { { { { { { { { { { { ",
"{ { { { { { { { { { { { { { { { { { { { { { { { { { { { { { { { { { ",
"{ { { { { { { { { { { { { { { { { { { { { { { { { { { { { { { { { { ",
"{ { { { { { { { { { { { { { { { { { { { { { { { { { { { { { { { { { ",
"{ { { { { { { { { { { { { { { { { { { { { { { { { { { { { { { { { { ",
"{ { { { { { { { { { { { { { { { { { { { { { { { { { { { { { { { { { ",
"                                                                    ",
"                                                                    "
};
