/* XPM */
static char *maximize_toggled_inactive[] = {
/* columns rows colors chars-per-pixel */
"24 27 3 1 ",
"  c black",
". c #5B80AD s inactive_color_1",
"X c #729CCD s inactive_shadow_1",
/* pixels */
"                        ",
"........................",
"........................",
"........................",
"........................",
"........................",
".....XXXXXXXXXX.........",
".....XXXXXXXXXX.........",
".....XXXXXXXXXX.........",
".....XXXXXXXXXX.........",
".....X........XXXXX.....",
".....X........XXXXX.....",
".....X........XXXXX.....",
".....X........XXXXX.....",
".....X........X...X.....",
".....XXXXXXXXXX...X.....",
".....XXXXXXXXXX...X.....",
".........X........X.....",
".........X........X.....",
".........XXXXXXXXXX.....",
".........XXXXXXXXXX.....",
"........................",
"........................",
"........................",
"........................",
"........................",
"                        "
};
