/* XPM */
static char *maximize_inactive[] = {
/* columns rows colors chars-per-pixel */
"30 33 3 1 ",
"  c None",
". c #0A4ABA s inactive_color_1",
"X c white",
/* pixels */
"                              ",
"                              ",
"                              ",
"   XXXXXXXXXXXXXXXXXXXXXXXX   ",
"   XXXXXXXXXXXXXXXXXXXXXXXX   ",
"  X........................XX ",
"XX...........................X",
"XX...........................X",
"XX...........................X",
"XX...........................X",
"XX...........................X",
"XX......XXXXXXXXXXXXXXX......X",
"XX......XXXXXXXXXXXXXXX......X",
"XX......XXXXXXXXXXXXXXX......X",
"XX......XXXXXXXXXXXXXXX......X",
"XX......X............XX......X",
"XX......X............XX......X",
"XX......X............XX......X",
"XX......X............XX......X",
"XX......X............XX......X",
"XX......X............XX......X",
"XX......X............XX......X",
"XX......X............XX......X",
"XX......X............XX......X",
"XX......XXXXXXXXXXXXXXX......X",
"XX......XXXXXXXXXXXXXXX......X",
"XX...........................X",
"XX...........................X",
"XX...........................X",
"XX...........................X",
"  X........................XX ",
"  X........................XX ",
"   XXXXXXXXXXXXXXXXXXXXXXXX   "
};
