/* XPM */
static char *bottom_left_active[] = {
/* columns rows colors chars-per-pixel */
"38 38 7 1 ",
"  c None",
". c black",
"X c #C5C6C5",
"o c #CDCECD",
"O c #DEDEDE",
"+ c #EEF2EE",
"@ c white",
/* pixels */
"..@OO.                                ",
"..@OO.                                ",
"..@OO.                                ",
"..@OO.                                ",
"..@OO.                                ",
"..@OO.                                ",
"..@OO.                                ",
"..@OO.                                ",
"..@OO.                                ",
"..@OO.                                ",
"..@OO.                                ",
"..@OO.                                ",
"..@OO.                                ",
"..@OO.                                ",
"..@OO.                                ",
"..@OO.                                ",
"..@OO.                                ",
"..@OO.                                ",
"..@OO.                                ",
"..@OO.                                ",
"..@OO.                                ",
"..@OO.                                ",
"..@OO.                                ",
"..@OO.                                ",
"..@OO.                                ",
"..@OO.                                ",
"..@OO.                                ",
"..@OO.                                ",
"..@OO.                                ",
"..@OO.                                ",
"..@OO.                                ",
"..@OO.                                ",
"..@OO.................................",
"..@++@@@@@@@@@@@@@@@@@@@@@@@@@@@@@@@@@",
"..@++@@@@@@@@@@@@@@@@@@@@@@@@@@@@@@@@@",
"..oXXXXXXXXXXXXXXXXXXXXXXXXXXXXXXXXXXX",
"......................................",
"......................................"
};
