/* XPM */
static char *right_active[] = {
/* columns rows colors chars-per-pixel */
"6 48 3 1 ",
"  c black",
". c #C5C6C5",
"X c white",
/* pixels */
"  X.. ",
"  X.. ",
"  X.. ",
"  X.. ",
"  X.. ",
"  X.. ",
"  X.. ",
"  X.. ",
"  X.. ",
"  X.. ",
"  X.. ",
"  X.. ",
"  X.. ",
"  X.. ",
"  X.. ",
"  X.. ",
"  X.. ",
"  X.. ",
"  X.. ",
"  X.. ",
"  X.. ",
"  X.. ",
"  X.. ",
"  X.. ",
"  X.. ",
"  X.. ",
"  X.. ",
"  X.. ",
"  X.. ",
"  X.. ",
"  X.. ",
"  X.. ",
"  X.. ",
"  X.. ",
"  X.. ",
"  X.. ",
"  X.. ",
"  X.. ",
"  X.. ",
"  X.. ",
"  X.. ",
"  X.. ",
"  X.. ",
"  X.. ",
"  X.. ",
"  X.. ",
"  X.. ",
"  X.. "
};
