/* XPM */
static char *bottom_inactive[] = {
/* columns rows colors chars-per-pixel */
"96 9 3 1 ",
"  c #B4BAB4",
". c #D5DAD5",
"X c #E6EAE6",
/* pixels */
"XXXXXXXXXXXXXXXXXXXXXXXXXXXXXXXXXXXXXXXXXXXXXXXXXXXXXXXXXXXXXXXXXXXXXXXXXXXXXXXXXXXXXXXXXXXXXXXX",
"XXXXXXXXXXXXXXXXXXXXXXXXXXXXXXXXXXXXXXXXXXXXXXXXXXXXXXXXXXXXXXXXXXXXXXXXXXXXXXXXXXXXXXXXXXXXXXXX",
"XXXXXXXXXXXXXXXXXXXXXXXXXXXXXXXXXXXXXXXXXXXXXXXXXXXXXXXXXXXXXXXXXXXXXXXXXXXXXXXXXXXXXXXXXXXXXXXX",
"................................................................................................",
"................................................................................................",
"................................................................................................",
"                                                                                                ",
"                                                                                                ",
"                                                                                                "
};
