/* XPM */
static char *stick_inactive[] = {
/* columns rows colors chars-per-pixel */
"38 48 149 2 ",
"   c black",
".  c #252525",
"X  c #3E3E3E",
"o  c #757575",
"O  c #ADADAD",
"+  c #BCBBB6",
"@  c #BDBDBB",
"#  c #C8B594",
"$  c #CABB96",
"%  c #CEB798",
"&  c #C7BE9A",
"*  c #CBBE98",
"=  c #D2BC9C",
"-  c #C2BEB5",
";  c #C0BFBA",
":  c #BFC0BE",
">  c #CBC19D",
",  c #D4C49D",
"<  c #D4C89E",
"1  c #CAC2A3",
"2  c #CDC6AB",
"3  c #D9C2A0",
"4  c #D5CAA3",
"5  c #D5CCAE",
"6  c #DCD0A7",
"7  c #D8D0AD",
"8  c #C5C0B6",
"9  c #CBC2B5",
"0  c #CEC9B5",
"q  c #C3C1BC",
"w  c #CBC5BA",
"e  c #CECABA",
"r  c #D3C6B4",
"t  c #D5CCB5",
"y  c #DACBB3",
"u  c #D2CCBC",
"i  c #DBCDB9",
"p  c #D7D0B6",
"a  c #DAD2B6",
"s  c #D6D1BB",
"d  c #DCD6BD",
"f  c #DFD8BF",
"g  c #E0C7A6",
"h  c #E0CAA6",
"j  c #E9CEAC",
"k  c #E2D5AB",
"l  c #EBD2AE",
"z  c #EBDBAF",
"x  c #F0D4AF",
"c  c #E3CEB1",
"v  c #E5D2B3",
"b  c #ECD3B1",
"n  c #E4D9B5",
"m  c #EDDBB2",
"M  c #E3D2B9",
"N  c #E9D5B9",
"B  c #E6DBBC",
"V  c #E9D8BC",
"C  c #F1D6B1",
"Z  c #F4DBB4",
"A  c #F8DFB7",
"S  c #F3DBB8",
"D  c #EEE1B4",
"F  c #ECE2BA",
"G  c #F4E3B5",
"H  c #F8E5B7",
"J  c #F6E8B6",
"K  c #F4E3BB",
"L  c #F9E3B9",
"P  c #F6EABC",
"I  c #FCECBC",
"U  c #FDF1BF",
"Y  c #BEC0C0",
"T  c #C3C3C3",
"R  c #C8C7C4",
"E  c #CCCAC4",
"W  c #C7C8C8",
"Q  c #CCCDCC",
"!  c #D1CDC2",
"~  c #D0CEC8",
"^  c #D6D2C4",
"/  c #DAD4C3",
"(  c #D3D2CC",
")  c #D9D6C9",
"_  c #DCDACF",
"`  c #CFD0D0",
"'  c #D4D4D3",
"]  c #D7D8D6",
"[  c #DADAD6",
"{  c #DCDCDC",
"}  c #E0D7C0",
"|  c #E2DCC3",
" . c #EADFC0",
".. c #E2DECD",
"X. c #E1DDD1",
"o. c #EEE5C1",
"O. c #E6E0CA",
"+. c #EDE7CD",
"@. c #F4EBC4",
"#. c #F9EEC2",
"$. c #F2EACB",
"%. c #FDF2C4",
"&. c #FBF2CD",
"*. c #E3E0D3",
"=. c #E9E6D5",
"-. c #EFE9D4",
";. c #E2E1DE",
":. c #ECE9DD",
">. c #F2EDD4",
",. c #F1EDDA",
"<. c #FCF4D4",
"1. c #FFF8D6",
"2. c #F7F2DC",
"3. c #FCF6DB",
"4. c #FEF8DD",
"5. c #E0DFE0",
"6. c #E4E5E4",
"7. c #E8E7E1",
"8. c #E7E8E7",
"9. c #EBEAE5",
"0. c #EBEBEB",
"q. c #F1EFE7",
"w. c #F4F1E4",
"e. c #FBF6E3",
"r. c #FEF8E1",
"t. c #FEF9E5",
"y. c #F1F0EA",
"u. c #F6F6EB",
"i. c #F0F0EF",
"p. c #F3F3EE",
"a. c #F5F4ED",
"s. c #FCF7E8",
"d. c #F9F7ED",
"f. c #FBF8E8",
"g. c #FDF9E9",
"h. c #FBF9ED",
"j. c #FCF9EC",
"k. c #F0F0F0",
"l. c #F4F4F3",
"z. c #F5F5F5",
"x. c #F7F7F7",
"c. c #FBFAF1",
"v. c #FDFBF2",
"b. c #FCFBF3",
"n. c #FEFCF3",
"m. c #FEFCF5",
"M. c #FAFAF9",
"N. c #FFFEF9",
"B. c #FFFFFF",
/* pixels */
"                                                                            ",
"                                                                            ",
"                                                                            ",
"X X X X X X X X X X X X X X X X X X X X X X X X X X X X X X X X X X X X X X ",
"T T T T T T T T T T T T T T T T T T T T T T T T T T T T T T T T T T T T T T ",
"B.B.B.B.B.B.B.B.B.B.B.B.B.B.B.B.B.B.B.B.B.B.B.B.B.B.B.B.B.B.B.B.B.B.B.B.B.B.",
"B.B.B.B.B.B.B.B.B.B.B.B.B.B.M.z.l.k.k.k.k.z.M.B.B.B.B.B.B.B.B.B.B.B.B.B.B.B.",
"B.B.B.B.B.B.B.B.B.B.M.z.k.0.9.8.6.;.;.;.6.6.8.0.k.z.M.M.B.B.B.B.B.B.B.B.B.B.",
"B.B.B.B.B.B.B.B.M.z.0.8.{ ] ] ' ' ' ' ( ( ' ' ] { 8.0.z.M.B.B.B.B.B.B.B.B.B.",
"B.B.B.B.B.B.B.M.k.0.6.{ ' ' ' ' ' ' ' ' ( ( ( ( ( ] { 0.k.M.B.B.B.B.B.B.B.B.",
"B.B.B.B.B.B.M.k.6.{ ' ( ' { ;.7.9.9.9.:.:.=.*._ ( ( Q ] 6.0.M.B.B.B.B.B.B.B.",
"B.B.B.B.B.M.k.8.] ' ' ] ;.9.y.a.d.h.j.f.e.2.,.=...) ~ Q ] 6.0.z.B.B.B.B.B.B.",
"B.B.B.B.M.k.6.] ' ' ;.9.p.c.b.b.b.b.j.g.t.r.3.<.>.+...^ Q ( { 0.z.B.B.B.B.B.",
"B.B.B.M.k.8.] ( ' ;.0.c.m.N.m.m.n.n.j.g.t.r.4.1.<.&.$.| ^ E ' { 0.M.B.B.B.B.",
"B.B.B.z.8.{ ( ' ;.y.c.m.m.m.m.m.n.j.g.t.r.4.1.<.&.&.%.@.| ^ Q ' 6.k.M.B.B.B.",
"B.B.M.0.{ ' ( [ q.c.m.m.m.m.m.n.n.j.g.t.r.1.1.<.&.%.%.%.@.| E Q { 9.z.B.B.B.",
"B.M.z.8.' ( [ :.u.n.n.b.b.b.b.b.n.j.g.r.4.1.<.&.%.%.U U I o./ Q ' { 0.M.B.B.",
"B.M.0.;.Q ( ;.w.h.n.j.b.b.b.b.d.w.w.e.r.1.<.@.@.I U I I I P | ^ Q ] 0.z.M.B.",
"B.z.8.{ Q ( :.e.g.g.j.j.j.j.j.w.X...,.4.1.@.n k J I I I I P  ./ E Q 6.p.z.M.",
"M.k.6.' ( _ ,.e.s.e.s.s.g.g.g.,.^ s O.$.$.B 4 4 G I I I I P K } E W { 0.z.M.",
"M.p.{ ( ( _ ,.e.e.e.e.e.e.t.t.,.^ 0 t a 7 4 > 4 D I I I I L K B E W ] 6.k.M.",
"M.0.] Q ) ..>.3.3.3.3.2.>.-.-.O.t 2 1 1 > > * 4 m I L L L L K V ! E ' { 0.z.",
"M.0.' E ) O.>.<.<.<.<.$.f t p t 2 1 1 > > $ $ , m L L L L L K V u E Q { 0.z.",
"M.0.' E ^ ..$.&.&.&.&.o.5 1 1 1 1 > > * * $ $ , m L L L L A A V u W Q { 0.k.",
"z.0.` R ^ | @.#.#.#.#.F 4 & & * * $ $ $ $ $ # , l A A A A A A V e R W { 8.k.",
"z.0.' R ! / o.P P P P D 6 4 < , * $ $ $ # # # = l A A Z Z Z S M w R Q { 8.0.",
"z.0.' E E d F J J J J J m m z k , $ # # # # # = l Z Z Z Z Z S M w T Q { 8.0.",
"l.0.] W E s F J J G G G G G H z , # = = = = # = j Z Z Z Z S V i 8 T ` { 0.0.",
"k.0.{ Q R e n J G G G G G G G l = % h l l g % = j Z Z Z Z m M u q T ' { 0.0.",
"k.0.{ ' T w a m G G G G G G A l 3 3 l Z Z l 3 3 l Z Z Z S N i w q W ] 6.0.0.",
"k.0.8.] T q u n m G G Z Z Z Z Z l l C Z Z C l l C Z Z C C M w q T W { 6.0.0.",
"0.0.0.{ W q w t n m Z Z Z Z Z Z Z C C C C C C C C C C b M y 8 ; W ' { 8.0.0.",
"0.0.0.6.' W ; 8 t n m Z Z Z Z C C C C C C C C C C C C v t 9 @ T Q ] { 8.0.0.",
"0.0.0.8.{ Q T @ 9 t v b m m C x x x x x x x C C b v v y 9 ; @ W ' { 6.8.0.0.",
"0.0.0.9.6.] W q @ 8 r y v b l x x x l l x x C b v y r 9 + @ W Q { { 8.8.0.0.",
"0.0.0.0.8.{ ' W @ @ 8 9 y y c v v v v v v v c c y 9 - @ @ T Q ] { 6.8.0.0.0.",
"0.0.8.8.8.6.{ ' W T @ + - 9 0 r y y y y y r r 9 - + + @ W Q ] { 5.6.8.0.0.0.",
"8.8.8.8.8.8.6.{ ' W T @ @ + - 8 9 9 9 9 9 - - + @ @ @ W Q ] { { 6.8.8.8.8.8.",
"8.8.8.8.8.8.8.6.{ ] ( W T : @ + + + + + + + @ @ T W Q ' ] { { 6.8.8.8.8.8.8.",
"8.8.8.8.8.8.8.6.6.{ { ' Q W T Y @ @ @ @ @ Y T W W Q ] { { 6.6.8.8.8.8.8.8.8.",
"8.8.8.8.8.8.6.6.6.{ { { ] ' Q Q W W W W W Q Q ' ' ] { { { 6.6.8.8.8.8.8.8.8.",
"{ { { { { { { { { { { { { ] ] ' ' ' Q Q ` ' ' ] ] ] { { { { { { { { { { { { ",
"] ] ] ] ] ] ] ] ] ] ' ' ' ' Q Q Q Q Q Q Q Q Q ' ' ' ' ' ] ] ] ] ] ] ] ] ] ] ",
"W W W W W W W W W W W W T T T T T T T T T T T W T W W W W W W W W W W W W W ",
"O O O O O O O O O O O O O O O O O O O O O O O O O O O O O O O O O O O O O O ",
"o o o o o o o o o o o o o o o o o o o o o o o o o o o o o o o o o o o o o o ",
". . . . . . . . . . . . . . . . . . . . . . . . . . . . . . . . . . . . . . ",
"                                                                            "
};
