/* XPM */
static char *bottom_left_inactive[] = {
/* columns rows colors chars-per-pixel */
"12 12 5 1 ",
"  c None",
". c black",
"X c #9B9B8A s inactive_shadow_2",
"o c #D6D6CC s inactive_color_2",
"O c white",
/* pixels */
"..Ooo.      ",
"..Ooo.      ",
"..Ooo.      ",
"..Ooo.      ",
"..Ooo.      ",
"..Ooo.      ",
"..Ooo.......",
"..Ooo.......",
"..OooOOOOOOO",
"..oXXXXXXXXX",
"..oXXXXXXXXX",
"............"
};
