/* XPM */
static char *shade_pressed[] = {
/* columns rows colors chars-per-pixel */
"20 23 3 1 ",
"  c black",
". c #9B9B8A s active_shadow_2",
"X c #D6D6CC s active_mid_2",
/* pixels */
"                    ",
"                    ",
"....................",
"..XXXXXXXXXXXXXXXX..",
"..XXXXXXXXXXXXXXXX..",
"..XXXXXXXXXXXXXXXX..",
"..XXXXXXXXXXXXXXXX..",
"..XXXXXXXXXXXXXXXX..",
"..XXXXXXXXXXXXXXXX..",
"..XXXXXXX  XXXXXXX..",
"..XXXXXXX  XXXXXXX..",
"..XXXXXX    XXXXXX..",
"..XXXX        XXXX..",
"..XXXX        XXXX..",
"..XXX    XX    XXX..",
"..XXX   XXXX   XXX..",
"..XXX   XXXX   XXX..",
"..XXXXXXXXXXXXXXXX..",
"..XXXXXXXXXXXXXXXX..",
"..XXXXXXXXXXXXXXXX..",
"....................",
"                    ",
"                    "
};
