/* XPM */
static char *top_right_active[] = {
/* columns rows colors chars-per-pixel */
"6 23 5 1 ",
"  c None",
". c black",
"X c #9B9B8A s active_shadow_2",
"o c #ABABAA s active_mid_2",
"O c #D6D6CC s active_color_2",
/* pixels */
"      ",
"      ",
"...   ",
"ooX.. ",
"ooX.. ",
"ooX.. ",
"OOoXX.",
"OOoXX.",
"OOoXX.",
"OOoXX.",
"OOoXX.",
"OOoXX.",
"OOoXX.",
"OOoXX.",
"OOoXX.",
"OOoXX.",
"OOoXX.",
"OOoXX.",
"oooXX.",
"oooXX.",
"XXOXX.",
"..OXX.",
"..OXX."
};
