/* XPM */
static char *hide_pressed[] = {
/* columns rows colors chars-per-pixel */
"30 38 179 2 ",
"   c None",
".  c #1E429B",
"X  c #1F439C",
"o  c #20449C",
"O  c #22459D",
"+  c #2C4C9F",
"@  c #2C4D9F",
"#  c #3151A0",
"$  c #3252A0",
"%  c #3352A0",
"&  c #3654A0",
"*  c #3D5AA3",
"=  c #4560A5",
"-  c #4863A7",
";  c #4C66A7",
":  c #556DA8",
">  c #5770AE",
",  c #5871AE",
"<  c #5A73AF",
"1  c #5B73AF",
"2  c #5E75B0",
"3  c #7487B5",
"4  c #7C8CB4",
"5  c #909090",
"6  c #919191",
"7  c #929292",
"8  c #939393",
"9  c #949494",
"0  c #959595",
"q  c #969696",
"w  c #979797",
"e  c #989898",
"r  c #999999",
"t  c #9A9A9A",
"y  c #9B9B9B",
"u  c #9C9C9C",
"i  c #9D9D9D",
"p  c #9E9E9E",
"a  c #9F9F9F",
"s  c #8794B4",
"d  c #909AB3",
"f  c #919BB3",
"g  c #959EB5",
"h  c #909BB8",
"j  c #909CBB",
"k  c #98A0B6",
"l  c #9BA3B7",
"z  c #9CA3B6",
"x  c #97A2BF",
"c  c #A0A0A0",
"v  c #A1A1A1",
"b  c #A2A2A2",
"n  c #A3A2A2",
"m  c #A3A3A3",
"M  c #A4A4A4",
"N  c #A5A5A4",
"B  c #A5A5A5",
"V  c #A6A6A6",
"C  c #A7A7A7",
"Z  c #A8A8A8",
"A  c #A9A9A9",
"S  c #AAAAAA",
"D  c #ABABAB",
"F  c #ACACAC",
"G  c #ADADAD",
"H  c #AEAEAE",
"J  c #AFAFAF",
"K  c #B0B0AF",
"L  c #A0A9BD",
"P  c #ADB1BB",
"I  c #AEB2BB",
"U  c #B0B0B0",
"Y  c #B1B1B1",
"T  c #B2B2B2",
"R  c #B3B3B3",
"E  c #B4B4B4",
"W  c #B5B5B5",
"Q  c #B6B5B4",
"!  c #B6B6B6",
"~  c #B7B7B7",
"^  c #B5B6B9",
"/  c #B8B8B8",
"(  c #B9B9B8",
")  c #B9B9B9",
"_  c #BABABA",
"`  c #BBBBBA",
"'  c #BBBBBB",
"]  c #BCBCBB",
"[  c #BCBCBC",
"{  c #BDBDBC",
"}  c #BDBDBD",
"|  c #BFBEBC",
" . c #BEBEBE",
".. c #BFBFBF",
"X. c #C0BFBC",
"o. c #C0BFBD",
"O. c #C1C0BD",
"+. c #C3C1BF",
"@. c #C0C0C0",
"#. c #C1C1C1",
"$. c #C3C2C1",
"%. c #C2C2C2",
"&. c #C3C3C3",
"*. c #C4C3C0",
"=. c #C4C3C3",
"-. c #C5C4C1",
";. c #C6C5C2",
":. c #C4C4C4",
">. c #C5C4C4",
",. c #C5C5C5",
"<. c #C6C5C5",
"1. c #C6C6C6",
"2. c #C7C7C7",
"3. c #CAC9C6",
"4. c #C2C5CB",
"5. c #C8C8C8",
"6. c #C9C9C8",
"7. c #C9C9C9",
"8. c #CACACA",
"9. c #CBCBCB",
"0. c #CECDCB",
"q. c #CCCCCC",
"w. c #CDCDCD",
"e. c #CECECE",
"r. c #CFCFCF",
"t. c #D2D1CF",
"y. c #D2D2CF",
"u. c #C6C9D1",
"i. c #C6CAD1",
"p. c #C7CAD1",
"a. c #C7CAD2",
"s. c #C8CAD2",
"d. c #CCCDD1",
"f. c #D0D0D0",
"g. c #D1D1D1",
"h. c #D2D2D2",
"j. c #D3D3D3",
"k. c #D5D4D2",
"l. c #D4D4D4",
"z. c #D5D5D5",
"x. c #D6D6D6",
"c. c #D7D7D7",
"v. c #D8D8D8",
"b. c #D9D9D9",
"n. c #DADADA",
"m. c #DBDBDB",
"M. c #DCDCDC",
"N. c #DDDDDD",
"B. c #DEDEDE",
"V. c #DFDFDF",
"C. c #E0E0E0",
"Z. c #E1E1E1",
"A. c #E2E2E2",
"S. c #E3E3E3",
"D. c #E4E4E4",
"F. c #E5E5E5",
"G. c #E6E6E6",
"H. c #E7E7E7",
"J. c #E8E8E8",
"K. c #E9E9E9",
"L. c #EAEAEA",
"P. c #EBEBEB",
"I. c #ECECEC",
"U. c #EDEDED",
"Y. c #EEEEEE",
"T. c #EFEFEF",
"R. c #F0F0F0",
"E. c #F1F1F1",
"W. c #F2F2F2",
"Q. c #F3F3F3",
"!. c #F4F4F4",
"~. c #F5F5F5",
"^. c #F6F6F6",
"/. c #F7F7F7",
"(. c #F8F8F8",
"). c #F9F9F9",
"_. c #FAFAFA",
"`. c #FBFBFB",
"'. c #FCFCFC",
/* pixels */
"                                                            ",
"                                                            ",
"                                                            ",
"                                                            ",
"                                                            ",
"I.I.I.I.I.I.P.G.B.f.,...~ T J J T / %.r.v.G.P.P.I.I.I.I.I.I.",
"I.I.I.I.I.P.S.c.5...~ T J J J J J T ~ / ,.f.B.P.I.I.I.I.I.I.",
"I.I.I.I.G.B.f.%.~ T J Z Z B B B B Z J T ~ ..5.v.G.P.I.I.I.I.",
"I.I.P.P.B.5./ T J Z Z B c p p p p c B Z J J ~ ,.v.G.P.I.I.I.",
"P.I.P.B.5./ T J Z c r 0 r p p p r 0 6 r B J T ~ ,.v.G.P.P.P.",
"P.P.S.r...T T Z c p c Z ~ / ../ ~ Z p 0 r c J T / 5.B.P.P.P.",
"P.G.v.%./ ~ J c p Z %.c.B.S.S.S.B.c.%.B 0 0 B T ~ %.f.S.P.P.",
"P.B.r.../ T c c T f.G.I.Q.Q.Q.Q.Q.I.G.r.T r r Z ~ ..,.v.G.P.",
"G.v.,.../ J c T f.P.!.Q.Q.Q.Q.Q.Q.Q.Q.P.f.J r p ~ ..%.f.S.P.",
"S.f.,.%.~ Z Z 5.P.I.I.P.P.P.P.P.P.P.I.I.G.5.B 0 J ..%.5.v.P.",
"v.f.,.,.T Z ..c.P.P.G.G.G.G.G.G.G.G.P.P.G.f.T r c ~ 5.5.v.G.",
"v.f.5.5.T B 5.B.S.B.B.S.S.V.C.S.S.B.B.v.c.r.T r 0 T r.r.v.G.",
"v.c.f.r.T B r.v.v.v.v.v.v.v.v.v.c.f.r.,.%...Z 0 6 T c.f.v.G.",
"B.v.c.d.~ Z r.c.f.f.c.c.c.c.f.r.5.%.../ / / Z r 6 ~ v.c.B.G.",
"B.B.v.c./ J 5.f.r.r.r.r.r.r.5.%.../ ~ ~ ~ ] J r 6 / B.B.B.G.",
"S.S.B.v...Z ,.5.,.,.,.,.,.%.../ / / / / / ..J r 6 / G.S.S.S.",
"D.G.G.S...c ..,.%.%.%.;.=.+.+.o.o.o.........J r 0 ..P.G.S.S.",
"G.G.P.G.%.B / %.%.%.I l d d d d g l l I ....Z r p ,.I.P.G.S.",
"S.P.I.I.5.J T ..,.%.s = & # # # * ; : h =./ B p ~ c.Q.P.G.B.",
"S.G.I.Q.B...Z ~ 5.5.4 @ O X X O O @ - j ,.K p c r.P.Q.P.S.B.",
"B.S.I.!.I.c.J J %.5.x 2 , > , , > 2 3 L / c p ~ G.!.I.G.B.B.",
"B.B.G.Q.).P.5.T J ,.d.s.a.a.a.a.a.a.4.^ B r T v.!.!.P.S.B.B.",
"v.B.S.I.!.).P.5.T T ] 3.y.k.k.y.0.;.~ B c T c.Q.).Q.G.B.v.v.",
"v.v.B.G.Q.).'.P.r.~ T ~ %.,.,.%./ T B B / v.Q.'.!.P.B.v.v.v.",
"v.v.v.B.G.Q.).).Q.B.5./ ~ ~ ~ ~ ~ T ' f.G.!.).!.P.B.v.v.v.v.",
"v.v.v.v.B.G.I.!.).!.P.S.c.f.f.c.c.v.S.Q.).).Q.P.B.v.v.v.v.v.",
"c.c.c.c.c.v.B.P.Q.!.).).!.Q.Q.Q.!.!.).).Q.P.S.v.c.c.c.c.c.c.",
"f.f.f.f.f.f.f.c.B.G.I.Q.!.).).).!.Q.I.P.S.v.c.f.f.f.f.f.f.f.",
"                                                            ",
"                                                            ",
"                                                            ",
"                                                            ",
"                                                            "
};
