/* XPM */
static char *top_left_active[] = {
/* columns rows colors chars-per-pixel */
"29 29 4 1 ",
"  c None",
". c black",
"X c #EDEAE6 s active_color_2",
"o c white",
/* pixels */
"      .......................",
"    ..ooooooooooooooooooooooo",
"    ..ooooooooooooooooooooooo",
"   .ooXXXXXXXXXXXXXXXXXXXXXXX",
" ..oXXXXXXXXXXXXXXXXXXXXXXXXX",
" ..oXXXXXXXXXXXXXXXXXXXXXXXXX",
".ooXXXXXXXXXXXXXXXXXXXXXXXXXX",
".ooXXXXXXXXXXXXXXXXXXXXXXXXXX",
".ooXXXXXXXXXXXXXXXXXXXXXXXXXX",
".ooXXXXXXXXXXXXXXXXXXXXXXXXXX",
".ooXXXXXXXXXXXXXXXXXXXXXXXXXX",
".ooXXXXXXXXXXXXXXXXXXXXXXXXXX",
".ooXXXXXXXXXXXXXXXXXXXXXXXXXX",
".ooXXXXXXXXXXXXXXXXXXXXXXXXXX",
".ooXXXXXXXXXXXXXXXXXXXXXXXXXX",
".ooXXXXXXXXXXXXXXXXXXXXXXXXXX",
".ooXXXXXXXXXXXXXXXXXXXXXXXXXX",
".ooXXXXXXXXXXXXXXXXXXXXXXXXXX",
".ooXXXXXXXXXXXXXXXXXXXXXXXXXX",
".ooXXXXXXXXXXXXXXXXXXXXXXXXXX",
".ooXXXXXXXXXXXXXXXXXXXXXXXXXX",
".ooXXXXXXXXXXXXXXXXXXXXXXXXXX",
".ooXXXXXXXXXXXXXXXXXXXXXXXXXX",
".ooXXXXXXXXXXXXXXXXXXXXXXXXXX",
".ooXXXXXXXXXXXXXXXXXXXXXXXXXX",
".ooXXXXXXXXXXXXXXXXXXXXXXXXXX",
".ooXXXXXXXXXXXXXXXXXXXXXXXXXX",
".ooXXXXXXXXXXXXXXXXXXXXXXXXXX",
".ooXXXXXXXXXXXXXXXXXXXXXXXXXX"
};
