/* XPM */
static char *maximize_pressed[] = {
/* columns rows colors chars-per-pixel */
"21 32 78 1 ",
"  c None",
". c #2A42AD",
"X c #2D44AE",
"o c #3148AF",
"O c #3248AF",
"+ c #3249B0",
"@ c #3349B0",
"# c #344BB1",
"$ c #354BB1",
"% c #354CB1",
"& c #364DB1",
"* c #374DB1",
"= c #374DB2",
"- c #384DB1",
"; c #384EB1",
": c #384EB2 s active_shadow_1",
"> c #384EB3",
", c #384FB3",
"< c #3950B6",
"1 c #3A50B7",
"2 c #3F54B5",
"3 c #3A51B8",
"4 c #3A51B9",
"5 c #3B52BC",
"6 c #3C53BC",
"7 c #4257B6",
"8 c #4C60BA",
"9 c #4D60BA",
"0 c #5568BD",
"q c #586ABE",
"w c #5B6DBF",
"e c #3E56C4",
"r c #4058C8",
"t c #4059CA",
"y c #415ACD",
"u c #435CD1",
"i c #435DD2",
"p c #445DD4",
"a c #455FD6",
"s c #455FD7 s active_color_1",
"d c #455FD8",
"f c #5E70C1",
"g c #4560D8",
"h c #4660D9",
"j c #6072C2",
"k c #7382C9",
"l c #7786CA",
"z c #8290CF",
"x c #8492CF",
"c c #8592D0",
"v c #8F9CD4",
"b c #98A3D7",
"n c #9BA6D8",
"m c #9CA7D9",
"M c #9DA8D9",
"N c #A0ABDA",
"B c #A2ACDB",
"V c #A2ADDB",
"C c #A3ADDB",
"Z c #B7BFE3",
"A c #BAC2E4",
"S c #C8CEEA",
"D c #CED3EC",
"F c #D1D6ED",
"G c #DEE1F2",
"H c #DEE2F2",
"J c #DFE2F3",
"K c #E0E3F3",
"L c #EAECF7",
"P c #F2F3FA",
"I c #F2F4FA",
"U c #F6F7FB",
"Y c #F8F9FC",
"T c #F9FAFD",
"R c #FAFAFD",
"E c #FBFBFD",
"W c #FEFEFF",
"Q c white",
/* pixels */
"                     ",
"                     ",
"                     ",
"                     ",
"                     ",
"                     ",
"sgu3-------------3ugs",
"gue<-------------<eug",
"se-----------------es",
"6<--%@@@@@@@@@@@%--<6",
"--%-fccxccccccccf----",
"--%%bYYYYYYYYYYYb%%--",
"--%%MQQQQQQQQQQQM%%--",
"--%%nQQQQQQQQQQQn%%--",
"--%%mQUPIIIIIPUQm%%--",
"--%%NLvklllllkvLN%%--",
"--%%CJ0.@@@@@.0JC%%--",
"--%%CJf@-----ofJC%%--",
"--%%CJf@-----@fJC%%--",
"--%%CJqX$$$$$X0JC%%--",
"--%%CKj-22222-jKC%%--",
"--%%CYSZAAAAAZSYC%%--",
"--%%zDFFFFFFFFFDz%%--",
"----7999999999997----",
"r6--$@@@@@@@@@@@%--6r",
"gr3,-------------,3rd",
"dsy3-------------3yss",
"                     ",
"                     ",
"                     ",
"                     ",
"                     "
};
