/* XPM */
static char *close_active[] = {
/* columns rows colors chars-per-pixel */
"29 29 6 1 ",
"  c None",
". c black",
"X c #949594 s active_shadow_2",
"o c #B4BAB4 s active_mid_2",
"O c #D5D6D5 s active_color_2",
"+ c #FFFFFF s active_hilight_2",
/* pixels */
"                             ",
"                             ",
"+++++++++++++++++++++++++++OO",
"++OOOOOOOOOOOOOOOOOOOOOOOOOXX",
"++OOOOOOOOOOOOOOOOOOOOOOOOOXX",
"++OOOOOOOOOOOOOOOOOOOOOOOOOXX",
"++OOOOXX.ooOOOOOOOoo.XXOOOOXX",
"++OOOOXX.ooOOOOOOOoo.XXOOOOXX",
"++OOOO.....oOOOOOo.....OOOOXX",
"++OOOOoo....ooOoo....ooOOOOXX",
"++OOOOoo....ooOoo....ooOOOOXX",
"++OOOOOOo.....o.....oOOOOOOXX",
"++OOOOOOOoo.......ooOOOOOOOXX",
"++OOOOOOOoo.......ooOOOOOOOXX",
"++OOOOOOOOOo.....oOOOOOOOOOXX",
"++OOOOOOOoo.......ooOOOOOOOXX",
"++OOOOOOOoo.......ooOOOOOOOXX",
"++OOOOOOo.....o.....oOOOOOOXX",
"++OOOOoo....ooOoo....ooOOOOXX",
"++OOOOoo....ooOoo....ooOOOOXX",
"++OOOO.....oOOOOOo.....OOOOXX",
"++OOOOXX.ooOOOOOOOoo.XXOOOOXX",
"++OOOOXX.ooOOOOOOOoo.XXOOOOXX",
"++OOOOOOOOOOOOOOOOOOOOOOOOOXX",
"++oooooooooooooooooooooooooXX",
"++oooooooooooooooooooooooooXX",
"XXXXXXXXXXXXXXXXXXXXXXXXXXXXX",
"                             ",
"                             "
};
