/* XPM */
static char *maximize_pressed[] = {
/* columns rows colors chars-per-pixel */
"60 78 160 2 ",
"   c #000000",
".  c gray5",
"X  c #13130F",
"o  c #161616",
"O  c #1F211A",
"+  c #24251F",
"@  c #2A2C26",
"#  c #2B2D2C",
"$  c #33342C",
"%  c #3C3C2D",
"&  c #2D3032",
"*  c #323534",
"=  c #363834",
"-  c #3D3E34",
";  c #373B39",
":  c #3B3D3B",
">  c #3C403F",
",  c #444434",
"<  c #4D4C35",
"1  c #45453A",
"2  c #555139",
"3  c #58543A",
"4  c #393D42",
"5  c #494A47",
"6  c #535341",
"7  c #5A5A47",
"8  c #434651",
"9  c #464A56",
"0  c #494D59",
"q  c #495057",
"w  c #4C535B",
"e  c #555552",
"r  c #5A5A52",
"t  c #5F5F5F",
"y  c #6E6541",
"u  c #62624D",
"i  c #68684E",
"p  c #776C44",
"a  c #7C7645",
"s  c #76754F",
"d  c #63635D",
"f  c #6E6E5A",
"g  c #515560",
"h  c #535A62",
"j  c #5D636C",
"k  c #6B6C67",
"l  c #61656F",
"z  c #6D6D6B",
"x  c #656C73",
"c  c #696C76",
"v  c #757574",
"b  c #70737C",
"n  c #74797D",
"m  c #7C7C7C",
"M  c #8A7947",
"N  c #858147",
"B  c #9F8849",
"V  c #9C924C",
"C  c #A08D4C",
"Z  c #A98E4A",
"A  c #AC914C",
"S  c #B5AB4F",
"D  c #A7A25C",
"F  c #BDA850",
"G  c #B3AD5E",
"H  c #97976B",
"J  c #80807F",
"K  c #ACA96B",
"L  c #D2AB52",
"P  c #C7B250",
"I  c #DFB657",
"U  c #EABC57",
"Y  c #FFCF46",
"T  c #FFCC4D",
"R  c #FFD846",
"E  c #EDC653",
"W  c #F2C257",
"Q  c #FDCC55",
"!  c #F4C758",
"~  c #FFCF58",
"^  c #EED952",
"/  c #FFDC52",
"(  c #FFD059",
")  c #FFD858",
"_  c #FFE54C",
"`  c #FFE94D",
"'  c #FFE453",
"]  c #FFEC53",
"[  c #FFF155",
"{  c #FFF158",
"}  c #FFF95D",
"|  c #FFD567",
" . c #FFDA6D",
".. c #FFD772",
"X. c #FFD877",
"o. c #FFDD7B",
"O. c #FFE767",
"+. c #FFE168",
"@. c #FFF262",
"#. c #FFF36B",
"$. c #FFE277",
"%. c #FFE874",
"&. c #FFF374",
"*. c #FFFB72",
"=. c #FFF578",
"-. c #787B83",
";. c #7D8187",
":. c #7F828A",
">. c #848483",
",. c #8D8D8D",
"<. c #9A9A8A",
"1. c #8D8F96",
"2. c #969695",
"3. c #939699",
"4. c #979999",
"5. c #9B9B9B",
"6. c #9A9DA3",
"7. c #A3A3A3",
"8. c #A6AAAE",
"9. c #ACACAC",
"0. c #B4B4B4",
"q. c #B4B5B9",
"w. c #B6B9BD",
"e. c #BDBDBD",
"r. c #C0C085",
"t. c #FFDD85",
"y. c #FFDF90",
"u. c #FFE887",
"i. c #FFF584",
"p. c #FFF18C",
"a. c #FEFA8A",
"s. c #FFE395",
"d. c #FFF595",
"f. c #FFFF93",
"g. c #FFF898",
"h. c #C6C7A7",
"j. c #FFE8A0",
"k. c #FFE7A8",
"l. c #FFFFA6",
"z. c #FFF5AB",
"x. c #E6E7B4",
"c. c #FFE9B3",
"v. c #FFFCB3",
"b. c #FFF6BA",
"n. c #FFFDBA",
"m. c #C5C6C8",
"M. c #D3D4C7",
"N. c #D6D6D6",
"B. c #DFDFD6",
"V. c #FFF0C1",
"C. c #FFF9C3",
"Z. c #FFF4CA",
"A. c #FEFBCD",
"S. c #EDEDDC",
"D. c #F5F6D4",
"F. c #F0F0DD",
"G. c #FFF6DC",
"H. c #FFFFE5",
"J. c #FFFFEB",
"K. c #FFFFFD",
/* pixels */
"                                                                                                                        ",
"                                                                                                                        ",
"                                                                                                                        ",
"                                                                                                                        ",
"                                                                                                                        ",
"                                                                                                                        ",
"                                                                                                                        ",
"                                                                                                                        ",
"                                                                                                                        ",
"2.2.2.2.2.2.2.2.2.2.2.2.2.2.2.2.2.2.2.2.2.2.2.2.2.2.2.2.2.2.2.2.2.2.2.2.2.2.2.2.2.2.2.2.2.2.2.2.2.2.2.2.2.2.2.2.2.2.2.2.",
"2.2.2.2.2.2.2.2.2.2.2.2.2.2.2.2.2.2.2.2.2.2.2.2.2.2.2.2.2.2.2.2.2.2.2.2.2.2.2.2.2.2.2.2.2.2.2.2.2.2.2.2.2.2.2.2.2.2.2.2.",
"2.2.2.2.2.2.2.2.2.2.2.2.2.2.2.2.2.2.2.2.2.2.2.2.2.2.2.2.2.2.2.2.2.2.2.2.2.2.2.2.2.2.2.2.2.2.2.2.2.2.2.2.2.2.2.2.2.2.2.2.",
"N.N.N.N.N.N.N.N.N.N.N.N.N.N.N.N.N.N.N.N.N.N.N.N.N.N.N.N.N.N.N.N.N.N.N.N.N.N.N.N.N.N.N.N.N.N.N.N.N.N.N.N.N.N.N.N.N.N.N.N.",
"N.N.N.N.N.N.N.N.N.N.N.N.N.N.N.N.N.N.N.N.N.N.N.N.N.N.N.N.N.N.N.N.N.N.N.N.N.N.N.N.N.N.N.N.N.N.N.N.N.N.N.N.N.N.N.N.N.N.N.N.",
"N.N.N.N.N.N.N.N.N.N.N.N.N.N.N.N.N.N.N.N.N.N.N.N.N.N.N.N.N.N.N.N.N.N.N.N.N.N.N.N.N.N.N.N.N.N.N.N.N.N.N.N.N.N.N.N.N.N.N.N.",
"N.N.N.N.N.N.N.N.N.N.N.N.N.N.N.N.N.N.N.N.N.N.N.N.N.N.N.N.N.N.N.N.N.N.N.N.N.N.N.N.N.N.N.N.N.N.N.N.N.N.N.N.N.N.N.N.N.N.N.N.",
"N.N.N.N.N.N.N.N.N.N.N.N.N.N.N.N.N.N.N.N.N.N.N.N.N.N.N.N.N.N.N.N.N.N.N.N.N.N.N.N.N.N.N.N.N.N.N.N.N.N.N.N.N.N.N.N.N.N.N.N.",
"N.N.N.N.N.N.N.N.N.N.N.N.N.N.N.N.N.N.N.N.N.N.N.N.N.N.N.N.N.N.N.N.N.N.N.N.N.N.N.N.N.N.N.N.N.N.N.N.N.N.N.N.N.N.N.N.N.N.N.N.",
"                                                                                                                        ",
"                                                                                                                        ",
"                                                                                                                        ",
"                              . . . * * * t t t >.>.>.2.2.2.,.,.,.v v v e e e * * * o o o                               ",
"                              . . . * * * t t t >.>.>.2.2.2.,.,.,.v v v e e e * * * o o o                               ",
"                              . . . * * * t t t >.>.>.2.2.2.,.,.,.v v v e e e * * * o o o                               ",
"0 0 0 0 0 0 0 0 0 0 0 0 c c c 6.6.6.m.m.m.m.m.m.9.9.9.2.2.2.,.,.,.,.,.,.3.3.3.1.1.1.-.-.-.l l l g g g 0 0 0 0 0 0 0 0 0 ",
"0 0 0 0 0 0 0 0 0 0 0 0 c c c 6.6.6.m.m.m.m.m.m.9.9.9.2.2.2.,.,.,.,.,.,.3.3.3.1.1.1.-.-.-.l l l g g g 0 0 0 0 0 0 0 0 0 ",
"0 0 0 0 0 0 0 0 0 0 0 0 c c c 6.6.6.m.m.m.m.m.m.9.9.9.2.2.2.,.,.,.,.,.,.3.3.3.1.1.1.-.-.-.l l l g g g 0 0 0 0 0 0 0 0 0 ",
"h h h h h h h h h ;.;.;.w.w.w.m.m.m.2.2.2.r r r 6 6 6 7 7 7 7 7 7 6 6 6 1 1 1 e e e n n n n n n x x x h h h h h h h h h ",
"h h h h h h h h h ;.;.;.w.w.w.m.m.m.2.2.2.r r r 6 6 6 7 7 7 7 7 7 6 6 6 1 1 1 e e e n n n n n n x x x h h h h h h h h h ",
"h h h h h h h h h ;.;.;.w.w.w.m.m.m.2.2.2.r r r 6 6 6 7 7 7 7 7 7 6 6 6 1 1 1 e e e n n n n n n x x x h h h h h h h h h ",
"0 0 0 0 0 0 b b b q.q.q.e.e.e.d d d 6 6 6 <.<.<.M.M.M.F.F.F.D.D.D.x.x.x.r.r.r.s s s $ $ $ 5 5 5 h h h w w w 0 0 0 0 0 0 ",
"0 0 0 0 0 0 b b b q.q.q.e.e.e.d d d 6 6 6 <.<.<.M.M.M.F.F.F.D.D.D.x.x.x.r.r.r.s s s $ $ $ 5 5 5 h h h w w w 0 0 0 0 0 0 ",
"0 0 0 0 0 0 b b b q.q.q.e.e.e.d d d 6 6 6 <.<.<.M.M.M.F.F.F.D.D.D.x.x.x.r.r.r.s s s $ $ $ 5 5 5 h h h w w w 0 0 0 0 0 0 ",
"h h h x x x 8.8.8.e.e.e.r r r f f f B.B.B.K.K.K.K.K.K.H.H.H.A.A.A.n.n.n.l.l.l.a.a.a.G G G % % % ; ; ; h h h h h h h h h ",
"h h h x x x 8.8.8.e.e.e.r r r f f f B.B.B.K.K.K.K.K.K.H.H.H.A.A.A.n.n.n.l.l.l.a.a.a.G G G % % % ; ; ; h h h h h h h h h ",
"h h h x x x 8.8.8.e.e.e.r r r f f f B.B.B.K.K.K.K.K.K.H.H.H.A.A.A.n.n.n.l.l.l.a.a.a.G G G % % % ; ; ; h h h h h h h h h ",
"0 0 0 :.:.:.q.q.q.k k k u u u S.S.S.K.K.K.G.G.G.c.c.c.y.y.y.o.o.o.$.$.$.%.%.%.#.#.#.} } } S S S $ $ $ : : : 9 9 0 0 0 0 ",
"0 0 0 :.:.:.q.q.q.k k k u u u S.S.S.K.K.K.G.G.G.c.c.c.y.y.y.o.o.o.$.$.$.%.%.%.#.#.#.} } } S S S $ $ $ : : : 9 9 0 0 0 0 ",
"0 0 0 :.:.:.q.q.q.k k k u u u S.S.S.K.K.K.G.G.G.c.c.c.y.y.y.o.o.o.$.$.$.%.%.%.#.#.#.} } } S S S $ $ $ : : : 9 9 0 0 0 0 ",
"j j j 6.6.6.4.4.4., , , h.h.h.J.J.J.V.V.V.                                          ` ` ` ' ] ] a a a # # # q q q h g h ",
"j j j 6.6.6.4.4.4., , , h.h.h.J.J.J.V.V.V.                                          ` ` ` ] ] ] a a a # # # q q q h g h ",
"j j j 6.6.6.4.4.4., , , h.h.h.J.J.J.V.V.V.                                          ` ` ` ] ] ] a a a # # # q q q h h h ",
"l l l 6.6.6.k k k i i i A.A.A.b.b.b.X.X.X.                                          _ _ _ ` ` ` P P P $ $ $ 4 4 4 9 9 9 ",
"l l l 6.6.6.k k k i i i A.A.A.b.b.b.X.X.X.                                          _ _ _ ` ` ` P P P $ $ $ 4 4 4 9 9 9 ",
"l l l 6.6.6.k k k i i i A.A.A.b.b.b.X.X.X.                                          _ _ _ ` ` ` P P P $ $ $ 4 4 4 9 9 9 ",
"c c c 3.3.3.5 5 5 H H H v.v.v.u.u.u.T T T                                           ] ] ] ' ' ' E E E < < < * * * w w w ",
"c c c 3.3.3.5 5 5 H H H v.v.v.u.u.u.T T T                                           ] ] ] ' ' ' E E E < < < * * * w w w ",
"c c c 3.3.3.5 5 5 H H H v.v.v.u.u.u.T T T                                           ] ] ] ' ' ' E E E < < < * * * w w w ",
"j j j ;.:.;.- : : K K K f.f.f.+.+.+.Y Y Y       R R R _ _ _ ` ` ` [ [ [ @.@.@.      &.&.&.O.O.O.Q Q Q 3 3 3 # # # 8 8 8 ",
"j j j ;.:.>.: : : K K K f.f.f.+.+.+.Y Y Y       R R R _ _ _ ` ` ` [ [ [ @.@.@.      &.&.&.O.O.O.Q Q Q 3 3 3 # # # 8 8 8 ",
"j j j ;.>.>.- - : K K K f.f.f.+.+.+.Y Y Y       R R R _ _ _ ` ` ` [ [ [ @.@.@.      &.&.&.O.O.O.Q Q Q 3 3 3 # # # 8 8 8 ",
"j j j n n n = = = D D D *.*.*.' ' ' R R R       _ _ _ ] ] ] #.#.#.i.i.i.d.d.d.      d.d.d.$.$.$.! ! ! 2 2 2 & & & q q q ",
"j j j n n n = = = D D D *.*.*.' ' ' R R R       _ _ _ ] ] ] #.#.#.i.i.i.d.d.d.      d.d.d.$.$.$.! ! ! 2 2 2 & & & q q q ",
"j j j n n n = = = D D D *.*.*.' ' ' R R R       _ _ _ ] ] ] #.#.#.i.i.i.d.d.d.      d.d.d.$.$.$.! ! ! 2 2 2 & & & q q q ",
"g g g j j j * * * N N N [ [ [ _ _ _ _ _ _       { { { =.=.=.g.g.g.v.v.v.n.n.n.      z.z.z.o.o.o.I I I , , , & & & 8 8 8 ",
"g g g j j j * * * N N N [ [ [ _ _ _ _ _ _       { { { =.=.=.g.g.g.v.v.v.n.n.n.      z.z.z.o.o.o.I I I , , , & & & 8 8 8 ",
"g g g j j j = * * N N N [ [ [ _ _ _ _ _ _       { { { =.=.=.g.g.g.v.v.v.n.n.n.      z.z.z.o.o.o.I I I , , , & & & 8 8 8 ",
"h h h h h h > > > < < < ^ ^ ^ ` ` ` _ _ _                                           j.j.j.| | | A A A @ @ @ 4 4 4 q q q ",
"h h h h h h > > > < < < ^ ^ ^ ` ` ` _ _ _                                           j.j.j.| | | A A A @ @ @ 4 4 4 q q q ",
"h h h h h h > > > < < < ^ ^ ^ ` ` ` _ _ _                                           j.j.j.| | | A A A @ @ @ 4 4 4 q q q ",
"                  + + + V V V ' _ ' ' ' ' O.O.O.p.p.p.z.z.z.C.C.C.A.A.A.Z.Z.Z.k.k.k.......U U U 2 2 2 X X X             ",
"                  + + + V V V ' ' ' ' ' ' O.O.O.p.p.p.z.z.z.C.C.C.A.A.A.Z.Z.Z.k.k.k.......U U U 2 2 2 X X X             ",
"                  + + + V V V ' ' ' ' ' ' O.O.O.p.p.p.z.z.z.C.C.C.A.A.A.Z.Z.Z.k.k.k.......U U U 2 2 2 X X X             ",
"                  X X X % % % F F F / / / ) ) )  . . .t.t.t.s.s.s.s.s.s.t.t.t.| | | W W W p p p O O O                   ",
"                  X X X % % % F F F / / / ) ) )  . . .t.t.t.s.s.s.s.s.s.t.t.t.| | | W W W p p p O O O                   ",
"                  X X X % % % F F F / / / ) ) )  . . .t.t.t.s.s.s.s.s.s.t.t.t.| | | W W W p p p O O +                   ",
"e.e.e.e.e.e.e.e.e.9.9.9.e r r % % % C C C E E E Q Q Q ~ ~ ~ ( ( ~ ~ ~ ~ Q Q Q L L L y y y $ $ $ z z z 5.5.5.0.0.0.e.e.e.",
"e.e.e.e.e.e.e.e.e.9.9.9.e r r % % % C C C E E E Q Q Q ~ ~ ~ ( ( ( ~ ~ ~ Q Q Q L L L y y y $ $ $ z z z 5.5.5.0.0.0.e.e.e.",
"e.e.e.e.e.e.e.e.e.9.9.9.r r r % % % C C C E E E Q Q Q ~ ~ ~ ( ( ( ~ ~ ~ Q Q Q L L L y y y $ $ $ z z z 5.5.5.0.0.0.e.e.e.",
"e.e.e.e.e.e.e.e.e.0.0.0.7.7.7.d d d $ $ $ 2 2 2 M M M Z Z Z A A A C C C y y y % - - : : : v v v 2.2.2.9.0.9.e.e.e.e.e.e.",
"e.e.e.e.e.e.e.e.e.0.0.0.7.7.7.d d d $ $ $ 2 2 2 M M M Z Z Z A A A C C C y y y % - - : : : v v v 2.2.2.9.9.9.e.e.e.e.e.e.",
"e.e.e.e.e.e.e.e.e.0.0.0.7.7.7.d d d $ $ $ 2 2 2 M M M Z Z Z A A A C B C y y y % - - : : : v v v 2.2.2.9.9.9.e.e.e.e.e.e.",
"e.e.e.e.e.e.e.e.e.e.e.e.0.0.0.7.7.7.>.>.J e e e : : : $ $ * $ $ $ = = = 5 5 5 d d d >.>.>.5.5.5.0.0.0.e.e.e.e.e.e.e.e.e.",
"e.e.e.e.e.e.e.e.e.e.e.e.0.0.0.7.7.7.>.>.J e e e : : : * $ $ $ $ $ = = = 5 5 5 d d d >.>.>.5.5.5.0.0.0.e.e.e.e.e.e.e.e.e.",
"e.e.e.e.e.e.e.e.e.e.e.e.0.0.0.7.7.7.>.>.J e e e : : : * & & $ $ $ = = = 5 5 5 d d d >.>.>.5.5.5.0.0.0.e.e.e.e.e.e.e.e.e.",
"e.e.e.e.e.e.e.e.e.e.e.e.e.e.e.0.0.0.9.9.9.5.7.7.,.,.,.m m m m m m J J J ,.,.,.5.5.5.2.2.2.0.e.e.e.e.e.e.e.e.e.e.e.e.e.e.",
"e.e.e.e.e.e.e.e.e.e.e.e.e.e.e.0.0.0.9.9.9.7.7.7.,.,.,.m m m m m m J J J ,.,.,.5.5.5.2.2.2.e.e.e.e.e.e.e.e.e.e.e.e.e.e.e.",
"e.e.e.e.e.e.e.e.e.e.e.e.e.e.e.0.0.0.9.9.9.7.7.7.,.,.,.m m m m m m J J J ,.,.,.5.5.5.2.2.2.e.e.e.e.e.e.e.e.e.e.e.e.e.e.e."
};
