/* XPM */
static char *close_inactive[] = {
/* columns rows colors chars-per-pixel */
"35 46 149 2 ",
"   c #000000",
".  c #0B0B0A",
"X  c #0E1010",
"o  c #121314",
"O  c #161919",
"+  c #1A1C1B",
"@  c #202016",
"#  c #23231C",
"$  c #2F2E1E",
"%  c #1D2223",
"&  c #202423",
"*  c #2D2D25",
"=  c #242529",
"-  c #25292A",
";  c #2C2C2C",
":  c #373220",
">  c #383420",
",  c #37372B",
"<  c #39392F",
"1  c #292B31",
"2  c #2E3132",
"3  c #323333",
"4  c #3D3D32",
"5  c #33363B",
"6  c #35383D",
"7  c #3B3C3B",
"8  c #4F4323",
"9  c #564724",
"0  c #5C4B24",
"q  c #5E5623",
"w  c #434336",
"e  c #4A4A35",
"r  c #595732",
"t  c #6F5624",
"y  c #686225",
"u  c #373C41",
"i  c #4E4E45",
"p  c #47484B",
"a  c #4C4D4B",
"s  c #50504E",
"d  c #424651",
"f  c #464A56",
"g  c #484F56",
"h  c #494D59",
"j  c #495057",
"k  c #4C535B",
"l  c #565656",
"z  c #5A5A55",
"x  c #5E5E5D",
"c  c #7E7D4E",
"v  c #505460",
"b  c #525A62",
"n  c #5D636C",
"m  c #646462",
"M  c #62656F",
"N  c #6B6B69",
"B  c #70706F",
"V  c #656B72",
"C  c #696C76",
"Z  c #6E747B",
"A  c #777777",
"S  c #71767B",
"D  c #747A7F",
"F  c #7C7C7C",
"G  c #866925",
"H  c #926C24",
"J  c #817225",
"K  c #9A7022",
"L  c #9E9024",
"P  c #908A39",
"I  c #9B9337",
"U  c #A88924",
"Y  c #B39522",
"T  c #E4A51E",
"R  c #EDA41D",
"E  c #E1AE1F",
"W  c #FFAB19",
"Q  c #F3B01B",
"!  c #FFB119",
"~  c #FFBB19",
"^  c #C18922",
"/  c #D19121",
"(  c #DF9920",
")  c #E5C71D",
"_  c #FFC319",
"`  c #FFCB19",
"'  c #FFDE17",
"]  c #FFD519",
"[  c #FEDB19",
"{  c #FFE319",
"}  c #FFEA21",
"|  c #FFE92A",
" . c #FFF32A",
".. c #FFE930",
"X. c #FFED39",
"o. c #96934B",
"O. c #818177",
"+. c #ACAB67",
"@. c #FFEE42",
"#. c #FFF34B",
"$. c #FFFB4D",
"%. c #FAF365",
"&. c #FFF76D",
"*. c #FFF770",
"=. c #FFFA7A",
"-. c #787B83",
";. c #7B8187",
":. c #7F8289",
">. c #838382",
",. c #878888",
"<. c #8D8D8E",
"1. c #90908D",
"2. c #8C8F95",
"3. c #969696",
"4. c #9B9B9B",
"5. c #B4B492",
"6. c #9A9DA3",
"7. c #A3A3A3",
"8. c #A5A9AD",
"9. c #ABABAB",
"0. c #B4B4B4",
"q. c #B4B5B9",
"w. c #B6B9BD",
"e. c #BDBDBD",
"r. c #DCDC9D",
"t. c #FFFC86",
"y. c #FFFF8D",
"u. c #FFFF9C",
"i. c #C3C3B9",
"p. c #FFFFA2",
"a. c #FFFFAA",
"s. c #FFFFB3",
"d. c #F9F9B9",
"f. c #C4C5C6",
"g. c #C3C4C8",
"h. c #CACBCC",
"j. c #D2D2CB",
"k. c #D6D6D6",
"l. c #F0F0C4",
"z. c #FFFFC5",
"x. c #FFFFCD",
"c. c #E3E3D0",
"v. c #E9E9D1",
"b. c #FFFFD2",
"n. c #FFFFD8",
"m. c #FFFFE2",
"M. c #FFFFEB",
"N. c #FFFFF3",
"B. c #FFFFFD",
/* pixels */
"k.k.k.k.k.k.k.k.k.k.k.k.k.k.k.k.k.k.k.k.k.k.k.k.k.k.k.k.k.k.k.k.k.k.k.",
"k.k.k.k.k.k.k.k.k.k.k.k.k.k.k.k.k.k.k.k.k.k.k.k.k.k.k.k.k.k.k.k.k.k.k.",
"3.3.3.3.3.3.3.3.3.3.3.3.3.3.3.3.3.3.3.3.3.3.3.3.3.3.3.3.3.3.3.3.3.3.3.",
"3.3.3.3.3.3.3.3.3.3.3.3.3.3.3.3.3.3.3.3.3.3.3.3.3.3.3.3.3.3.3.3.3.3.3.",
"                                                                      ",
"3.3.3.3.3.3.3.3.3.3.3.3.3.3.3.3.3.3.3.3.3.3.3.3.3.3.3.3.3.3.3.3.3.3.3.",
"3.3.3.3.3.3.3.3.3.3.3.3.3.3.3.3.3.3.3.3.3.3.3.3.3.3.3.3.3.3.3.3.3.3.3.",
"k.k.k.k.k.k.k.k.k.k.k.k.k.k.k.k.k.k.k.k.k.k.k.k.k.k.k.k.k.k.k.k.k.k.k.",
"k.k.k.k.k.k.k.k.k.k.k.k.k.k.k.k.k.k.k.k.k.k.k.k.k.k.k.k.k.k.k.k.k.k.k.",
"k.k.k.k.k.k.k.k.k.k.k.k.k.k.k.k.k.k.k.k.k.k.k.k.k.k.k.k.k.k.k.k.k.k.k.",
"k.k.k.k.k.k.k.k.k.k.k.k.k.k.k.k.k.k.k.k.k.k.k.k.k.k.k.k.k.k.k.k.k.k.k.",
"                                                                      ",
"                  . . 3 x x ,.,.3.3.<.A A l l 3 3 O                   ",
"                  . . 3 x x ,.,.3.3.<.A A l l 3 3 O                   ",
"h h h h h h h C C 6.6.g.f.f.9.9.3.3.,.<.<.3.3.2.2.-.M M v v h h h h h ",
"h h h h h h h C C 6.6.g.f.f.9.9.3.3.,.<.<.3.3.2.2.-.M M v v h h h h h ",
"b b b b b ;.;.w.w.h.h.1.i i < < 4 4 4 , , ; ; p p S S S V V b b b b b ",
"b b b b b ;.;.w.w.h.h.1.i i < < 4 4 4 , , ; ; p p S S S V V b b b b b ",
"h h h h S q.q.w.w.z z < O.O.i.i.v.v.l.r.r.+.+.r r + p p b b k k h h h ",
"b b V V 8.w.w.a a i i j.B.B.B.B.M.M.b.a.s.y.y.%.%.I @ @ 2 2 b b b b b ",
"b b V V 8.w.w.a a i i j.B.B.B.B.M.M.b.s.s.y.y.%.%.I @ @ 2 2 b b b b b ",
"h h :.:.q.m m w w c.c.B.B.B.N.N.m.m.z.u.u.*.*.#.#. .L L O O 5 5 h h h ",
"h h :.:.q.m m w w c.c.B.B.B.N.N.m.m.z.u.u.*.*.#.#. .L L O O 5 5 h h h ",
"n n 6.6.3.* * 5.5.M.M.M.M.M.    n.n.s.t.t.    | | { [ [ q q % % g b b ",
"n n 6.6.3.* * 5.5.M.M.M.M.M.    n.n.s.t.t.    | | { [ [ q q % % g b b ",
"M M 6.6.m e e d.d.x.x.b.            p.            [ [ [ Y Y + + 6 f f ",
"M M 6.6.m e e d.d.x.x.b.            p.            [ [ [ Y Y + + 6 f f ",
"Z Z 3.3.7 c c p.p.a.a.a.s.s.                  ] ] ` ` ` E E $ $ 2 k k ",
"V V :.:.; o.o.=.=.=.=.=.=.=.&.&.          ` ` _ _ ~ ~ ~ Q Q > > = d d ",
"V V :.:.; o.o.=.=.=.=.=.=.=.&.&.          ` ` _ _ ~ ~ ~ Q Q > > = d d ",
"V V D D = P P $.$.@.@.X.....                  ! ! ! ! ! R R : : - j j ",
"V V D D = P P $.$.@.@.X.....                  ! ! ! ! ! R R : : - j j ",
"b b n n ; y y } } { { '             ~             W W W / / # # 1 d d ",
"b b n n ; y y } } { { '             ~             W W W / / # # 1 d d ",
"b b b b 5 $ $ ) ) ' ' ] ` `     ~ ~ W W W     W W W ! ! H H O O u k k ",
"          o o J J ] ] ` _ _ ~ ~ W W W W W W W W W W ( ( : : . .       ",
"          o o J J ] ] ` _ _ ~ ~ W W W W W W W W W W ( ( : : . .       ",
"          . . # # U U _ ~ ~ ! ! W W W W W W W ! ! R 0 0 X X           ",
"          . . # # U U _ ~ ~ W W W W W W W W W ! ! R 0 0 X X           ",
"e.e.e.e.w.9.9.s s # # G T T W W W ! ! W W W W ^ ^ 8 & & N N 4.4.0.e.e.",
"e.e.e.e.w.9.9.s s # # G T T W W ! ! ! W W W W ^ ^ 8 & & N N 4.4.0.e.e.",
"e.e.e.e.e.0.0.7.7.x x % : : t t H H K G G 9 9 # # 3 B B 3.3.9.9.e.e.e.",
"e.e.e.e.e.w.e.0.0.7.7.>.a a 2 2 % % % - - 7 7 x x ,.4.4.0.0.e.e.e.e.e.",
"e.e.e.e.e.w.e.0.0.7.7.>.a a 2 2 % % % - - 7 7 x x ,.4.4.0.0.e.e.e.e.e.",
"e.e.e.e.e.e.e.e.w.0.0.9.7.7.<.<.F F A >.O.<.<.4.4.3.w.w.e.e.e.e.e.e.e.",
"e.e.e.e.e.e.e.e.w.0.0.9.7.7.<.<.F F A >.>.<.<.4.4.3.w.w.e.e.e.e.e.e.e."
};
