/* XPM */
static char *shade_pressed[] = {
/* columns rows colors chars-per-pixel */
"26 32 5 1 ",
"  c None",
". c #143D52 s active_shadow_1",
"X c #0A5E89 s active_color_1",
"o c #007EBF s active_hilight_1",
"O c white",
/* pixels */
"                          ",
"                          ",
"                          ",
"                          ",
"                          ",
"                          ",
"XXX...................XXXX",
"XXX...................XXXX",
"X......................XXX",
".....XXXXXXXXXXXXXXXXXXXXo",
"....XXXXXXXXXXXXXXXXXXXXXo",
"....XXXXXXXXXXXXXXXXXXXXXo",
"...XXXXXXXXXXXXXXXXXXXXXXo",
"...XXXXXXXXXXXXXXXXXXXXXXo",
"...XXXXXXXXXXXXXXXXXXXXXXo",
"...XXXXXXXXXXXXXXXXXXXXXXo",
"...XXXXXXXXXXXXXXXXXXXXXXo",
"...XXXXXXOOOOOOOOOOOXXXXXo",
"...XXXXXXOOOOOOOOOOOXXXXXo",
"...XXXXXXXXXXXXXXXXXXXXXXo",
"...XXXXXXXXXXOOOXXXXXXXXXo",
"...XXXXXXXXXXOOOXXXXXXXXXo",
"...XXXXXXXXXOOOOOXXXXXXXXo",
"...XXXXXXXOOOOOOOOXXXXXXXo",
"...XXXXXXOOOOOOOOOOOXXXXXo",
"...XXXXXXOOOOOOOOOOOXXXXXo",
"...XXXXXXXXXXXXXXXXXXXXXXo",
"...XXXXXXXXXXXXXXXXXXXXooo",
"X..XXXXXXXXXXXXXXXXXXXXooo",
"XXXXXXXXXXXXXXXXXXXXXooooX",
"XXXXXXXXXXXXXXXXXXXXXooooX",
"XXXooooooooooooooooooooXXX"
};
