/* XPM */
static char *bottom_left_active[] = {
/* columns rows colors chars-per-pixel */
"72 27 46 1 ",
"  c black",
". c #415062",
"X c #41506A",
"o c #4A556A",
"O c #4A596A",
"+ c #4A5973",
"@ c #4A5D73",
"# c #4A5D7B",
"$ c #52617B",
"% c #526583",
"& c #5A6983",
"* c #5A6D8B",
"= c #5A718B",
"- c #627194",
"; c #627594",
": c #62799C",
"> c #6A7D9C",
", c #6A819C",
"< c #7381A4",
"1 c #7385A4",
"2 c #7389A4",
"3 c #7B89A4",
"4 c #7B8DAC",
"5 c #838183",
"6 c #9C9D9C",
"7 c #8391AC",
"8 c #8395AC",
"9 c #8B99B4",
"0 c #8B9DB4",
"q c #949DB4",
"w c #94A1B4",
"e c #94A1BD",
"r c #9CA5BD",
"t c #BDBEBD",
"y c #ACB6C5",
"u c #ACB6CD",
"i c #ACBACD",
"p c #B4BACD",
"a c #B4BECD",
"s c #B4C2D5",
"d c #BDC2D5",
"f c #BDC6D5",
"g c #C5CAD5",
"h c #C5CEDE",
"j c #CDCEDE",
"k c #CDD2DE",
/* pixels */
"   555666666666666666666666666666666666666666666666666666666666666666666",
"   555666666666666666666666666666666666666666666666666666666666666666666",
"   555666666666666666666666666666666666666666666666666666666666666666666",
"   555tttttttttttttttttttttttttttttttttttttttttttttttttttttttttttttttttt",
"   555tttttttttttttttttttttttttttttttttttttttttttttttttttttttttttttttttt",
"   555tttttttttttttttttttttttttttttttttttttttttttttttttttttttttttttttttt",
"                                                                        ",
"                                                                        ",
"                                                                        ",
"   kkkkkkjjjhhhhhhggggggggggggfffffffffdddaaaaaaaaappppppiiiuuuyyyaaa   ",
"   kkkkkkjjjhhhhhhggggggggggggfffffffffdddaaaaaaaaappppppiiiuuuyyyaaa   ",
"   kkkkkkjjjhhhhhhggggggggggggfffffffffdddaaaaaaaaappppppiiiuuuyyyaaa   ",
"   hhhrrrrrreeeeeewwwqqq000000999999999888777777777444444333222111%%%   ",
"   hhhrrrrrreeeeeewwwqqq000000999999999888777777777444444333222111%%%   ",
"   hhhrrrrrreeeeeewwwqqq000000999999999888777777777444444333222111%%%   ",
"   fffwwwqqq000000999999888888777777444444333333222111111,,,>>>>>>$$$   ",
"   fffwwwqqq000000999999888888777777444444333333222111111,,,>>>>>>$$$   ",
"   fffwwwqqq000000999999888888777777444444333333222111111,,,>>>>>>$$$   ",
"   sss999999888888777777444444333333111111<<<,,,>>>>>>:::;;;;;;---OOO   ",
"   sss999999888888777777444444333333111111<<<,,,>>>>>>:::;;;;;;---OOO   ",
"   sss999999888888777777444444333333111111<<<,,,>>>>>>:::;;;;;;---OOO   ",
"   000------===*********&&&%%%%%%%%%$$$$$$###@@@+++OOOooooooXXX...XXX   ",
"   000------===*********&&&%%%%%%%%%$$$$$$###@@@+++OOOooooooXXX...XXX   ",
"   000------===*********&&&%%%%%%%%%$$$$$$###@@@+++OOOooooooXXX...XXX   ",
"                                                                        ",
"                                                                        ",
"                                                                        "
};
