/* XPM */
static char *maximize_toggled_active[] = {
/* columns rows colors chars-per-pixel */
"35 39 3 1 ",
"  c None",
". c #0A4ABA s active_color_1",
"X c #FFFFFF s active_text_color",
/* pixels */
"                                   ",
"                                   ",
"                                   ",
"                                   ",
"    XXXXXXXXXXXXXXXXXXXXXXXXXXXX   ",
"  XX............................X  ",
"  XX............................X  ",
"XX...............................XX",
"XX...............................XX",
"XX...............................XX",
"XX...............................XX",
"XX...............................XX",
"XX............XXXXXXXXXXXX.......XX",
"XX............XXXXXXXXXXXX.......XX",
"XX............XXXXXXXXXXXX.......XX",
"XX............XXXXXXXXXXXX.......XX",
"XX............XX.........X.......XX",
"XX............XX.........X.......XX",
"XX.......................X.......XX",
"XX.......................X.......XX",
"XX.......XXXXXXXXXXXX....X.......XX",
"XX.......XXXXXXXXXXXX..XXX.......XX",
"XX.......XXXXXXXXXXXX..XXX.......XX",
"XX.......XX........XX............XX",
"XX.......XX........XX............XX",
"XX.......XX........XX............XX",
"XX.......XX........XX............XX",
"XX.......XX........XX............XX",
"XX.......XXXXXXXXXXXX............XX",
"XX.......XXXXXXXXXXXX............XX",
"XX...............................XX",
"XX...............................XX",
"XX...............................XX",
"XX...............................XX",
"XX...............................XX",
"  XX............................X  ",
"  XX............................X  ",
"    XXXXXXXXXXXXXXXXXXXXXXXXXXXX   ",
"    XXXXXXXXXXXXXXXXXXXXXXXXXXXX   "
};
