/* XPM */
static char *bottom_left_inactive[] = {
/* columns rows colors chars-per-pixel */
"35 20 92 1 ",
"  c None",
". c #000000",
"X c #010101",
"o c #040404",
"O c #050505",
"+ c #060606",
"@ c #080808",
"# c #090909",
"$ c #0A0A0A",
"% c #0B0B0B",
"& c #0C0C0C",
"* c #0D0D0D",
"= c #0E0E0E",
"- c #0F0F0F",
"; c #101010",
": c #121212",
"> c #151515",
", c #161616",
"< c #171717",
"1 c #191919",
"2 c #191A1A",
"3 c #1C1C1C",
"4 c #1D1D1D",
"5 c #1F1F1F",
"6 c #202020",
"7 c #222222",
"8 c #2C2C2C",
"9 c #303030",
"0 c #313232",
"q c #363636",
"w c #373737",
"e c #383838",
"r c #3A3A3A",
"t c #3B3B3B",
"y c #3C3C3C",
"u c #3E3E3E",
"i c #3F3F3F",
"p c #404040",
"a c #424242",
"s c #434343",
"d c #444444",
"f c #474747",
"g c #4A4A4A",
"h c #4E4E4E",
"j c #545454",
"k c #565656",
"l c #595959",
"z c #5A5A5A",
"x c #5B5B5B",
"c c #5E5E5E",
"v c #5F5F5F",
"b c #686868",
"n c #6A6A6A",
"m c #707070",
"M c #717171",
"N c #737373",
"B c #747474",
"V c #757575",
"C c #767676",
"Z c #777777",
"A c #797979",
"S c #7B7B7B",
"D c #808080",
"F c #818181",
"G c #8C8C8C",
"H c #8D8D8D",
"J c #8F8F8F",
"K c #909090",
"L c #919191",
"P c #929292",
"I c #949494",
"U c #959595",
"Y c #969696",
"T c #999999",
"R c #9A9A9A",
"E c #9C9C9C",
"W c #9D9D9D",
"Q c #9E9E9E",
"! c #A0A0A0",
"~ c #A1A1A1",
"^ c #A3A3A3",
"/ c #A6A6A6",
"( c #ACACAC",
") c #ADADAD",
"_ c #AEAEAE",
"` c #B2B2B2",
"' c #B9B9B9",
"] c #CCCCCC",
"[ c #CFCFCF",
"{ c #D9D9D9",
"} c #DBDBDB",
"| c #E1E1E1",
/* pixels */
"..,CQD6.                           ",
"..%thp;.                           ",
"..o,3,o.                           ",
"..,CQD6.                           ",
"..3Q'D3.                           ",
"..3RPp-.                           ",
"..3RPu-.                           ",
"..3RPp-.                           ",
"..3RPp;.                           ",
"..3RGd02...........................",
"..3RYlnluttttttttttttttttttttt03o6p",
"..3R^S^`))))))))))))))))))))))Gj;n[",
"..3R^SGYYYYYYYYYYYYYYYYYYYYYYYSd-m|",
"..3Q/CCCCCCCCCCCCCCCCCCCCCCCCCcq%m{",
"..3Y^CCCCCCCCCCCCCCCCCCCCCCCCCcq%m{",
"..-plcccccccccccccccccccccccccjt%n[",
"....,qtqqqqqqqttqqqqqqqqqqqtqqt8%gP",
" ...o%%%%%%%%%%%%%%%%%%%%%%%%%%o.-2",
"  .................................",
"   .............................  ."
};
