/* XPM */
static char *bottom_right_inactive[] = {
/* columns rows colors chars-per-pixel */
"52 32 6 1 ",
"  c None",
". c black",
"X c #949594 s inactive_shadow_2",
"o c #B4BAB4 s inactive_mid_2",
"O c #D5D6D5 s inactive_color_2",
"+ c white",
/* pixels */
"                                            ..OOXX..",
"                                            ..OOXX..",
"                                            ..++OO..",
"                                            ..++OO..",
"                                            ..++XX..",
"                                            ..++XX..",
"                                            ..++XX..",
"                                            ..++XX..",
"                                            ..++XX..",
"                                            ..++XX..",
"                                            ..++XX..",
"                                            ..++XX..",
"                                            ..++XX..",
"                                            ..++XX..",
"                                            ..++XX..",
"                                            ..++XX..",
"                                            ..++XX..",
"                                            ..++XX..",
"                                          ..++OOXX..",
"                                          ..++OOXX..",
"..........................................++OOooXX..",
"..........................................++OOooXX..",
"OO++++++++++++++++++++++++++++++++++++++++OOooXX..  ",
"OO++++++++++++++++++++++++++++++++++++++++OOooXX..  ",
"XX++OOOOOOOOOOOOOOOOOOOOOOOOOOOOOOOOOOOOOOooooXX..  ",
"XX++OOOOOOOOOOOOOOOOOOOOOOOOOOOOOOOOOOOOOOooooXX..  ",
"XX++ooooooooooooooooooooooooooooooooooooooXXXX..    ",
"XX++ooooooooooooooooooooooooooooooooooooooXXXX..    ",
"XXOOXXXXXXXXXXXXXXXXXXXXXXXXXXXXXXXXXXXXXX....      ",
"XXOOXXXXXXXXXXXXXXXXXXXXXXXXXXXXXXXXXXXXXX....      ",
"..........................................          ",
"..........................................          "
};
