/* XPM */
static char *maximize_active[] = {
/* columns rows colors chars-per-pixel */
"60 75 5 1 ",
"  c None",
". c black",
"X c #919189 s active_shadow_2",
"o c #CCCCC7 s active_color_2",
"O c #FFFFFF s active_hilight_2",
/* pixels */
"                                                            ",
"                                                            ",
"                                                            ",
"                                                            ",
"                                                            ",
"                                                            ",
"                                                            ",
"                                                            ",
"                                                            ",
"                                                            ",
"                                                            ",
"                                                            ",
"                                                            ",
"                                                            ",
"                                                            ",
"OOOOOOOOOOOOOOOOOOOOOOOOOOOOOOOOOOOOOOOOOOOOOOOOOOOOOOOOO...",
"OOOOOOOOOOOOOOOOOOOOOOOOOOOOOOOOOOOOOOOOOOOOOOOOOOOOOOOOO...",
"OOOOOOOOOOOOOOOOOOOOOOOOOOOOOOOOOOOOOOOOOOOOOOOOOOOOOOOOO...",
"OOOoooooooooooooooooooooooooooooooooooooooooooooooooooooo...",
"OOOoooooooooooooooooooooooooooooooooooooooooooooooooooooo...",
"OOOoooooooooooooooooooooooooooooooooooooooooooooooooooooo...",
"OOOoooooooooooooooooooooooooooooooooooooooooooooooooooXXX...",
"OOOoooooooooooooooooooooooooooooooooooooooooooooooooooXXX...",
"OOOoooooooooooooooooooooooooooooooooooooooooooooooooooXXX...",
"OOOoooooooooooooooooooooooooooooooooooooooooooooooooooXXX...",
"OOOoooooooooooooooooooooooooooooooooooooooooooooooooooXXX...",
"OOOoooooooooooooooooooooooooooooooooooooooooooooooooooXXX...",
"OOOoooooooooooooooooooooooooooooooooooooooooooooooooooXXX...",
"OOOoooooooooooooooooooooooooooooooooooooooooooooooooooXXX...",
"OOOoooooooooooooooooooooooooooooooooooooooooooooooooooXXX...",
"OOOoooooooooooooooooooooooooooooooooooooooooooooooooooXXX...",
"OOOoooooooooooooooooooooooooooooooooooooooooooooooooooXXX...",
"OOOoooooooooooooooooooooooooooooooooooooooooooooooooooXXX...",
"OOOooooooooooooooo........................ooooooooooooXXX...",
"OOOooooooooooooooo........................ooooooooooooXXX...",
"OOOooooooooooooooo........................ooooooooooooXXX...",
"OOOooooooooooooooo........................ooooooooooooXXX...",
"OOOooooooooooooooo........................ooooooooooooXXX...",
"OOOooooooooooooooo........................ooooooooooooXXX...",
"OOOooooooooooooooo...oooooooooooooooooo...ooooooooooooXXX...",
"OOOooooooooooooooo...oooooooooooooooooo...ooooooooooooXXX...",
"OOOooooooooooooooo...oooooooooooooooooo...ooooooooooooXXX...",
"OOOooooooooooooooo...oooooooooooooooooo...ooooooooooooXXX...",
"OOOooooooooooooooo...oooooooooooooooooo...ooooooooooooXXX...",
"OOOooooooooooooooo...oooooooooooooooooo...ooooooooooooXXX...",
"OOOooooooooooooooo...oooooooooooooooooo...ooooooooooooXXX...",
"OOOooooooooooooooo...oooooooooooooooooo...ooooooooooooXXX...",
"OOOooooooooooooooo...oooooooooooooooooo...ooooooooooooXXX...",
"OOOooooooooooooooo...oooooooooooooooooo...ooooooooooooXXX...",
"OOOooooooooooooooo...oooooooooooooooooo...ooooooooooooXXX...",
"OOOooooooooooooooo...oooooooooooooooooo...ooooooooooooXXX...",
"OOOooooooooooooooo...oooooooooooooooooo...ooooooooooooXXX...",
"OOOooooooooooooooo...oooooooooooooooooo...ooooooooooooXXX...",
"OOOooooooooooooooo...oooooooooooooooooo...ooooooooooooXXX...",
"OOOooooooooooooooo........................ooooooooooooXXX...",
"OOOooooooooooooooo........................ooooooooooooXXX...",
"OOOooooooooooooooo........................ooooooooooooXXX...",
"OOOoooooooooooooooooooooooooooooooooooooooooooooooooooXXX...",
"OOOoooooooooooooooooooooooooooooooooooooooooooooooooooXXX...",
"OOOoooooooooooooooooooooooooooooooooooooooooooooooooooXXX...",
"OOOoooooooooooooooooooooooooooooooooooooooooooooooooooXXX...",
"OOOoooooooooooooooooooooooooooooooooooooooooooooooooooXXX...",
"OOOoooooooooooooooooooooooooooooooooooooooooooooooooooXXX...",
"OOOoooooooooooooooooooooooooooooooooooooooooooooooooooXXX...",
"OOOoooooooooooooooooooooooooooooooooooooooooooooooooooXXX...",
"OOOoooooooooooooooooooooooooooooooooooooooooooooooooooXXX...",
"OOOoooooooooooooooooooooooooooooooooooooooooooooooooooXXX...",
"OOOoooooooooooooooooooooooooooooooooooooooooooooooooooXXX...",
"OOOoooooooooooooooooooooooooooooooooooooooooooooooooooXXX...",
"OOOoooXXXXXXXXXXXXXXXXXXXXXXXXXXXXXXXXXXXXXXXXXXXXXXXXXXX...",
"OOOoooXXXXXXXXXXXXXXXXXXXXXXXXXXXXXXXXXXXXXXXXXXXXXXXXXXX...",
"OOOoooXXXXXXXXXXXXXXXXXXXXXXXXXXXXXXXXXXXXXXXXXXXXXXXXXXX...",
"............................................................",
"............................................................",
"............................................................"
};
