/* XPM */
static char *hide_pressed[] = {
/* columns rows colors chars-per-pixel */
"22 29 4 1 ",
"  c None",
". c #6F6F67",
"X c #BDBDB3",
"o c white",
/* pixels */
"                      ",
"                      ",
"                      ",
"                      ",
" XXXXXXXXXXXXXXXXXXXX ",
"XooooooooooooooooooooX",
"XooooooooooooooooooooX",
"XooooooooooooooooooooX",
"XooooooooooooooooooooX",
"XooooooooooooooooooooX",
"XooooooooooooooooooooX",
"XooooooooooooooooooooX",
"XooooooooooooooooooooX",
"XooooooooooooooooooooX",
"XooooooooooooooooooooX",
"XooooooooooooooooooooX",
"XooooooooooooooooooooX",
"XooooooooooooooooooooX",
"XooooooooooooooooooooX",
"Xooo..............oooX",
"Xooo..............oooX",
"XooooooooooooooooooooX",
"XooooooooooooooooooooX",
"XooooooooooooooooooooX",
" XXXXXXXXXXXXXXXXXXXX ",
"                      ",
"                      ",
"                      ",
"                      "
};
