/* XPM */
static char *shade_toggled_pressed[] = {
/* columns rows colors chars-per-pixel */
"29 29 154 2 ",
"   c None",
".  c black",
"X  c #020202",
"o  c #030303",
"O  c #030403",
"+  c #060606",
"@  c #070707",
"#  c #0B0B0B",
"$  c #0C0D0C",
"%  c #0D0D0D",
"&  c #0D0E0D",
"*  c #0E0F0E",
"=  c #0F0F0F",
"-  c #101010",
";  c #101110",
":  c #111211",
">  c #141414",
",  c #151515",
"<  c #151615",
"1  c #161616",
"2  c #171817",
"3  c #191A19",
"4  c #1B1B1B",
"5  c #1B1C1B",
"6  c #202020",
"7  c #222222",
"8  c #252525",
"9  c #2C2D2C",
"0  c #2C2E2C",
"q  c #2D2E2D",
"w  c #2E2F2E",
"e  c #2F2F2F",
"r  c #2E302E",
"t  c #303030",
"y  c #323232",
"u  c #333533",
"i  c #343634",
"p  c #373837",
"a  c #434643",
"s  c #4E4F4E",
"d  c #4E514E",
"f  c #4F524F",
"g  c #595A59",
"h  c #5B5B5B",
"j  c #5A5C5A",
"k  c #5C5D5C",
"l  c #5E5F5E",
"z  c #5F615F",
"x  c #606360",
"c  c #646464",
"v  c #666966",
"b  c #6E716E",
"n  c #6E726E",
"m  c #717471",
"M  c #717571",
"N  c #727572",
"B  c #737573",
"V  c #737773",
"C  c #757775",
"Z  c #7C807C",
"A  c #7F807F",
"S  c #7E827E",
"D  c #7F837F",
"F  c #828382",
"G  c #838383",
"H  c #838483",
"J  c #838783",
"K  c #858685",
"L  c #838883",
"P  c #848884",
"I  c #848984",
"U  c #858A85",
"Y  c #868B86",
"T  c #878C87",
"R  c #8A8C8A",
"E  c #8C8D8C",
"W  c #8D908D",
"Q  c #8E908E",
"!  c #8F908F",
"~  c #8F918F",
"^  c #909190",
"/  c #919291",
"(  c #929292",
")  c #939493",
"_  c #949594 s active_shadow_2",
"`  c #969796",
"'  c #949994",
"]  c #989D98",
"[  c #9A9C9A",
"{  c #9B9D9B",
"}  c #9C9E9C",
"|  c #9D9E9D",
" . c #9D9F9D",
".. c #9E9F9E",
"X. c #9CA19C",
"o. c #9EA09E",
"O. c #9FA29F",
"+. c #A1A4A1",
"@. c #A1A6A1",
"#. c #A2A5A2",
"$. c #A3A5A3",
"%. c #A2A7A2",
"&. c #A3A6A3",
"*. c #A4A7A4",
"=. c #A3A8A3",
"-. c #A3A9A3",
";. c #A4A8A4",
":. c #A4A9A4",
">. c #A7ABA7",
",. c #A7ACA7",
"<. c #A8ACA8",
"1. c #A9ADA9",
"2. c #AAAEAA",
"3. c #ABAEAB",
"4. c #ACB2AC",
"5. c #ADB3AD",
"6. c #AEB2AE",
"7. c #AEB3AE",
"8. c #AFB3AF",
"9. c #AEB4AE",
"0. c #AFB4AF",
"q. c #B0B5B0",
"w. c #B0B6B0",
"e. c #B1B6B1",
"r. c #B1B7B1",
"t. c #B6B7B6",
"y. c #B2B8B2",
"u. c #B3B9B3",
"i. c #B4B9B4",
"p. c #B4BAB4 s active_mid_2",
"a. c #B4BBB4",
"s. c #B5BAB5",
"d. c #B5BBB5",
"f. c #B5BCB5",
"g. c #B6BCB6",
"h. c #B7BDB7",
"j. c #B8BEB8",
"k. c #B9BFB9",
"l. c #B9C0B9",
"z. c #BAC0BA",
"x. c #BAC1BA",
"c. c #BBC1BB",
"v. c #BBC2BB",
"b. c #C0C6C0",
"n. c #C7C9C7",
"m. c #C8CAC8",
"M. c #D5D6D5 s active_color_2",
"N. c #DCDEDC",
"B. c #DCDFDC",
"V. c #DDDFDD",
"C. c #E8E8E8",
"Z. c #E9EAE9",
"A. c #EFF0EF",
"S. c #FFFFFF s active_hilight_2",
/* pixels */
"                                                          ",
"                                                          ",
"                                                          ",
"_ _ ) ) ) ) ) ) ) ) ) ) ) ) ) ) ) ) ) ) ) ) ) ) ) ) ) t.M.",
"_ [ &.&.&.&.&.&.&.&.&.&.&.&.&.&.&.&.&.&.&.&.&.&.&.&.&.n.C.",
"_ &.a.a.a.a.u.u.a.a.a.u.a.a.a.a.u.u.a.a.u.a.a.u.a.u.a.V.S.",
"_ &.a.a.a.a.a.a.a.a.a.a.a.a.a.a.a.a.a.a.a.a.a.a.a.a.a.V.S.",
"_ &.a.a.a.a.a.g.k.k.k.k.k.k.k.k.k.k.k.k.k.g.a.a.a.u.a.V.S.",
"_ &.a.a.a.a.a.7.-.-.-.-.-.-.-.-.-.-.-.-.-.7.a.a.a.u.a.V.S.",
"_ &.a.a.a.a.g.A u w r w w w w w w w r w u A k.a.a.u.a.V.S.",
"_ &.a.a.a.a.k.v . . = t t w t w t t - . . z 7.u.a.u.a.V.S.",
"_ &.a.a.a.a.k.m - . t A ~ / / / ~ A t . = l X.r.a.u.a.V.S.",
"_ &.a.a.a.a.a.&.m 5 + p ~ a.7.a.~ p + < l F [ r.a.u.a.V.S.",
"_ &.a.a.a.a.a.z.9.x 3 . d ' u.' d + < s E X.*.r.a.u.a.V.S.",
"_ &.a.a.a.a.a.a.u.r.n - . a [ a . = g / _ :.u.a.a.u.a.V.S.",
"_ &.a.a.a.a.a.a.a.k.:.m 3 # i = < l K ..2.r.a.a.a.u.a.V.S.",
"_ &.a.a.a.a.a.a.a.a.z.r.x 5 . < s / ..*.u.a.a.a.a.u.a.V.S.",
"_ &.a.a.a.a.a.a.a.a.a.u.r.n 2 g / _ :.u.a.a.a.a.a.u.a.V.S.",
"_ &.a.a.a.a.a.g.z.z.z.z.b.,.A ~ &.7.g.z.z.g.a.a.a.u.a.V.S.",
"_ &.a.a.a.a.a.&.I L I I I I I C m L I L I &.g.a.a.u.a.V.S.",
") &.a.a.a.a.g.m < = - - - - - = = - - = < m g.a.a.u.a.V.S.",
"_ &.a.a.a.a.k.v . . . . . . . . . . . . . j 2.u.a.u.a.V.S.",
"_ &.a.a.a.a.g.A w 7 7 7 7 7 7 7 7 7 7 7 8 c ..r.a.u.a.V.S.",
"_ &.a.a.a.a.a.7.X.R F H H H H H H H H F H E ..r.a.u.a.V.S.",
"_ &.a.a.a.a.a.g.k.7.2.2.2.2.2.2.2.2.2.2.2.:.2.u.a.u.a.V.S.",
") &.u.u.u.u.u.u.u.u.a.a.a.a.a.a.a.a.a.a.a.a.u.u.u.u.u.V.S.",
"_ &.a.a.a.a.a.a.a.a.a.a.a.a.a.a.a.a.a.a.a.a.a.a.a.u.a.V.S.",
"t.m.V.V.V.V.V.V.V.V.V.V.V.V.V.V.V.V.V.V.V.V.V.V.V.V.V.A.S.",
"M.Z.S.S.S.S.S.S.S.S.S.S.S.S.S.S.S.S.S.S.S.S.S.S.S.S.S.S.S."
};
