/* XPM */
static char *stick_pressed[] = {
/* columns rows colors chars-per-pixel */
"24 35 5 1 ",
"  c None",
". c black",
"X c #7B7B7B s active_shadow_2",
"o c #DEDEDE s active_hilight_2",
"O c #EDEAE6 s active_mid_2",
/* pixels */
"                        ",
"                        ",
"                        ",
"                        ",
"                        ",
"                        ",
"                        ",
"                        ",
"  ..................... ",
"..XXXXXXXXXXXXXXXXXXXXX.",
"..XXXXXXXXXXXXXXXXXXXXX.",
"..XOOOOOOOOOOOOOOOOOOoo.",
"..XOOOOOOOOOOOOOOOOOOoo.",
"..XOOOOOOOOOOOOOOOOOOoo.",
"..XOOOOOOOOOOOOOOOOOOoo.",
"..XOOOOOOOOOOOOOOOOOOoo.",
"..XOOOOOOOOOOOOOOOOOOoo.",
"..XOOOOOOOOOOO.OOO..Ooo.",
"..XOOOOOOOOOOO......Ooo.",
"..XOOOOOOOOOOO......Ooo.",
"..XOOOOO............Ooo.",
"..XOOOOO............Ooo.",
"..XOOOOO............Ooo.",
"..XOOOOOOOOOOO......Ooo.",
"..XOOOOOOOOOOO.OOO..Ooo.",
"..XOOOOOOOOOOO.OOO..Ooo.",
"..XOOOOOOOOOOOOOOOOOOoo.",
"..XOOOOOOOOOOOOOOOOOOoo.",
"..XOOOOOOOOOOOOOOOOOOoo.",
"..Xoooooooooooooooooooo.",
"  ..................... ",
"  ..................... ",
"                        ",
"                        ",
"                        "
};
