/* XPM */
static char *title_4_active[] = {
/* columns rows colors chars-per-pixel */
"10 40 10 1 ",
"  c #CECECE",
". c gray85",
"X c #DEDEDE",
"o c #E0E0E0",
"O c gray90",
"+ c #E9E9E9",
"@ c #EFEFEF",
"# c #F0F0F0",
"$ c #F7F7F7",
"% c white",
/* pixels */
"%%%%%%%%%%",
"%%%%%%%%%%",
"%%%%%%%%%%",
"%%%%%%%%%%",
"##########",
"##########",
"++++++++++",
"++++++++++",
"##########",
"##########",
"%%%%%%%%%%",
"%%%%%%%%%%",
"##########",
"##########",
"++++++++++",
"++++++++++",
"@@@@@@@@@@",
"@@@@@@@@@@",
"%%%%%%%%%%",
"%%%%%%%%%%",
"@@@@@@@@@@",
"@@@@@@@@@@",
"OOOOOOOOOO",
"OOOOOOOOOO",
"++++++++++",
"++++++++++",
"$$$$$$$$$$",
"$$$$$$$$$$",
"++++++++++",
"++++++++++",
"XXXXXXXXXX",
"XXXXXXXXXX",
"oooooooooo",
"oooooooooo",
"++++++++++",
"++++++++++",
"..........",
"..........",
"          ",
"          "
};
