/* XPM */
static char *close_pressed[] = {
/* columns rows colors chars-per-pixel */
"30 38 5 1 ",
"  c None",
". c black",
"X c #606060 s active_shadow_2",
"o c #C0C0C0 s active_color_2",
"O c white",
/* pixels */
"                              ",
"                              ",
"                              ",
"                              ",
"                              ",
"..............................",
"..XXXXXXXXXXXXXXXXXXXXXXXXXXXO",
"..XXXXXXXXXXXXXXXXXXXXXXXXXXXO",
"..XooooooooooooooooooooooooooO",
"..XooooooooooooooooooooooooooO",
"..XooooooooooooooooooooooooooO",
"..XooooooooooooooooooooooooooO",
"..XooooooooooooooooooooooooooO",
"..XooooooooooooooooooooooooooO",
"..XoooooOXXooooooooooooOXXoooO",
"..XoooooOXXXoooooooooOOXXXoooO",
"..XoooooOXXXoooooooooOOXXXoooO",
"..XooooooOOXXXooooooOXXXoooooO",
"..XooooooooOXXXoooOOXXXooooooO",
"..XooooooooOXXXoooOOXXXooooooO",
"..XoooooooooOOXXXOXXXooooooooO",
"..XoooooooooooOXXXXXoooooooooO",
"..XoooooooooooOXXXXXoooooooooO",
"..XoooooooooooOXXXXXoooooooooO",
"..XoooooooooOOXXXOXXXooooooooO",
"..XoooooooooOOXXXOXXXooooooooO",
"..XooooooooOXXXoooOOXXXooooooO",
"..XooooooOOXXXooooooOXXXoooooO",
"..XooooooOOXXXooooooOXXXoooooO",
"..XoooooOXXXoooooooooOOXXXoooO",
"..XoooooOXXooooooooooooOXXoooO",
"..XoooooOXXooooooooooooOXXoooO",
"..XooooooooooooooooooooooooooO",
"..XooooooooooooooooooooooooooO",
"..XooooooooooooooooooooooooooO",
"..OOOOOOOOOOOOOOOOOOOOOOOOOOOO",
"                              ",
"                              "
};
