/* XPM */
static char *maximize_active[] = {
/* columns rows colors chars-per-pixel */
"30 38 4 1 ",
"  c None",
". c #606060 s active_shadow_2",
"X c #C0C0C0 s active_color_2",
"o c #FFFFFF",
/* pixels */
"                              ",
"                              ",
"                              ",
"                              ",
"                              ",
"XXXXXXXXXXXXXXXXXXXXXXXXXXXXXX",
"XXXXXXXXXXXXXXXXXXXXXXXXXXXXXX",
"XXXXXXXXXXXXXXXXXXXXXXXXXXXXXX",
"XXXXXXXXXXXXXXXXXXXXXXXXXXXXXX",
"XXXXXXXXXXXXXXXXXXXXXXXXXXXXXX",
"XXXXXXXXXXXXXXXXXXXXXXXXXXXXXX",
"XXXXXXXXXXXXXXXXXXXXXXXXXXXXXX",
"XXXXXXoooooooooooooooooXXXXXXX",
"XXXXXXoooooooooooooooooXXXXXXX",
"XXXXXXoo...............XXXXXXX",
"XXXXXXoo.XXXXXXXXXXXo..XXXXXXX",
"XXXXXXoo.XXXXXXXXXXXo..XXXXXXX",
"XXXXXXoo.XXXXXXXXXXXo..XXXXXXX",
"XXXXXXoo.XXXXXXXXXXXo..XXXXXXX",
"XXXXXXoo.XXXXXXXXXXXo..XXXXXXX",
"XXXXXXoo.XXXXXXXXXXXo..XXXXXXX",
"XXXXXXoo.XXXXXXXXXXXo..XXXXXXX",
"XXXXXXoo.XXXXXXXXXXXo..XXXXXXX",
"XXXXXXoo.XXXXXXXXXXXo..XXXXXXX",
"XXXXXXoo.XXXXXXXXXXXo..XXXXXXX",
"XXXXXXoo.XXXXXXXXXXXo..XXXXXXX",
"XXXXXXoo.oooooooooooo..XXXXXXX",
"XXXXXXoo...............XXXXXXX",
"XXXXXXoo...............XXXXXXX",
"XXXXXXXXXXXXXXXXXXXXXXXXXXXXXX",
"XXXXXXXXXXXXXXXXXXXXXXXXXXXXXX",
"XXXXXXXXXXXXXXXXXXXXXXXXXXXXXX",
"XXXXXXXXXXXXXXXXXXXXXXXXXXXXXX",
"XXXXXXXXXXXXXXXXXXXXXXXXXXXXXX",
"XXXXXXXXXXXXXXXXXXXXXXXXXXXXXX",
"XXXXXXXXXXXXXXXXXXXXXXXXXXXXXX",
"                              ",
"                              "
};
