/* XPM */
static char *stick_pressed[] = {
/* columns rows colors chars-per-pixel */
"30 38 136 2 ",
"   c None",
".  c black",
"X  c #060606",
"o  c #0C0C0C",
"O  c #0D0D0D",
"+  c #171717",
"@  c #222222",
"#  c #242424",
"$  c #282828",
"%  c #2B2B2B",
"&  c #2F2F2F",
"*  c #3B3B3B",
"=  c #484848",
"-  c #494949",
";  c #4A4A4A",
":  c #565656",
">  c #5A5A5A",
",  c #5B5B5B",
"<  c #5F5F5F",
"1  c #606060 s active_shadow_2",
"2  c #616161",
"3  c #636363",
"4  c #656565",
"5  c #666666",
"6  c #676767",
"7  c #686868",
"8  c #696969",
"9  c #6B6B6B",
"0  c #6C6C6C",
"q  c #6D6D6D",
"w  c #6E6E6E",
"e  c #6F6F6F",
"r  c #707070",
"t  c #717171",
"y  c #727272",
"u  c #737373",
"i  c #747474",
"p  c #757575",
"a  c #767676",
"s  c #777777",
"d  c #787878",
"f  c #797979",
"g  c #7A7A7A",
"h  c #7B7B7B",
"j  c #7C7C7C",
"k  c #7E7E7E",
"l  c #808080",
"z  c #818181",
"x  c #828282",
"c  c #838383",
"v  c #848484",
"b  c #858585",
"n  c #868686",
"m  c #878787",
"M  c #898989",
"N  c #8A8A8A",
"B  c #8B8B8B",
"V  c #8C8C8C",
"C  c #8D8D8D",
"Z  c #8E8E8E",
"A  c #8F8F8F",
"S  c #909090",
"D  c #929292",
"F  c #949494",
"G  c #959595",
"H  c #999999",
"J  c #9A9A9A",
"K  c #9B9B9B",
"L  c #9C9C9C",
"P  c #9D9D9D",
"I  c #A1A1A1",
"U  c #A2A2A2",
"Y  c #A5A5A5",
"T  c #A9A9A9",
"R  c #ABABAB",
"E  c #ADADAD",
"W  c #AEAEAE",
"Q  c #AFAFAF",
"!  c #B0B0B0",
"~  c #B1B1B1",
"^  c #B2B2B2",
"/  c #B3B3B3",
"(  c #B4B4B4",
")  c #B5B5B5",
"_  c #B6B6B6",
"`  c #B7B7B7",
"'  c #B8B8B8",
"]  c #B9B9B9",
"[  c #BABABA",
"{  c #BBBBBB",
"}  c #BCBCBC",
"|  c #BDBDBD",
" . c #BEBEBE",
".. c #BFBFBF",
"X. c #C0C0C0 s active_color_2",
"o. c #C1C1C1",
"O. c #C2C2C2",
"+. c #C3C3C3",
"@. c #C4C4C4",
"#. c #C5C5C5",
"$. c #C6C6C6",
"%. c #C8C8C8",
"&. c #C9C9C9",
"*. c #CCCCCC",
"=. c #CDCDCD",
"-. c #CECECE",
";. c #CFCFCF",
":. c #D2D2D2",
">. c #D3D3D3",
",. c #D5D5D5",
"<. c #D6D6D6",
"1. c #D7D7D7",
"2. c #DADADA",
"3. c #DDDDDD",
"4. c #DFDFDF",
"5. c #E0E0E0",
"6. c #E1E1E1",
"7. c #E3E3E3",
"8. c #E4E4E4",
"9. c #E6E6E6",
"0. c #E7E7E7",
"q. c #E9E9E9",
"w. c #EBEBEB",
"e. c #ECECEC",
"r. c #EDEDED",
"t. c #EFEFEF",
"y. c #F1F1F1",
"u. c #F2F2F2",
"i. c #F3F3F3",
"p. c #F5F5F5",
"a. c #F6F6F6",
"s. c #F8F8F8",
"d. c #FAFAFA",
"f. c #FCFCFC",
"g. c #FDFDFD",
"h. c white",
/* pixels */
"                                                            ",
"                                                            ",
"                                                            ",
"                                                            ",
"                                                            ",
". X o o o o o o o o o o o o o o o o o o o o o o o o o o + @ ",
". # = = = = = = = = = = = = = = = = = = = = = = = = = = M @.",
". & 9 n C C C C C C C C C C C C C C C C C C C C C C C C =.h.",
". % t Q +...............................................4.h.",
". % t ^ @.+.+.+.+.+.+.+.+.+.+.+.+.+.+.+.+.+.+.+.+.+.+.+.6.h.",
". % t ^ +.......+...+.+.+.+.....+.+...+.....+.+.+.+.....6.h.",
". % t ^ +.......+.+.+.+.+.......+.+.........+.+.+.+.....6.h.",
". % t ^ +.+.+.......+.+.+.+.....+...........+.+.+.+...+.6.h.",
". % t ^ +.+.+.+.....+.+.+.+...+.+.+.+.......+.+.+.+.+.+.6.h.",
". % t ^ +.+.+.+.........+.+...] ( ] ..+.......+.+...] ..6.h.",
". % t ^ +.+.+.+.........+.+.( n i c ( +.......+.+.P n ( 6.h.",
". % t ^ +.+.+.+.....+.+.+.+.Q e i G J Q +.+.@...I i e Q 9.h.",
". % t ^ +.+.+.+...+.+.+.+.+.Q e Q 6.n C ] ] ..Q h 2 e Q 9.h.",
". % t ^ +.................+.Q e ^ h.<.I h h h M ..G e Q 9.h.",
". % t ^ +.+.>.<.<.<.<.<.<.2.+.t J q.h.] i M j M e.( e Q 9.h.",
". % t ^ +.%.e.d.p.p.p.p.p.d.4.h h ( u.=.R 9.%.Q e.^ e Q 9.h.",
". % t ^ +.+.@.@.@.@.@.@.@.%.^ t h ^ u.>.( p.<.( u.^ e Q 9.h.",
". % t ^ @.( S n M M M M M M c 5 j Q 2.] P <.] P <.I e Q 6.h.",
". % t ^ @.^ i 5 9 9 9 9 9 9 5 2 c I Y c e J n t J c e Q 6.h.",
". % t ^ @.] I J J J J J J P S 9 c J j 5 < e 5 < t 9 e Q 9.h.",
". % t ^ +.+.+.+.+.+.+.+.+.@.^ t i n 5 9 h h h i 2 > t Q 9.h.",
". % t ^ +.+.+.+.........+.+.^ t 2 5 2 C ( ( ] R t > t Q 9.h.",
". % t ^ +.+.+.+.........+.+.Q e : 5 C ^ +.+.+.] I i e Q 9.h.",
". % t ^ +.+.....+.+.+.....+.^ c t n ( @.......+.+.J c ^ 6.h.",
". % t ^ +.......+.+.+.....+...( ( ( ..+.........+.] ( ..6.h.",
". % t ^ +.+.....+.+.+.+.....+.+.+.+.+.+.+.+.+.+.+.+.+.+.6.h.",
". % t ^ +.+.....+.+.+.......+.+.+.+.+.+.+.+.+.+.+.+.....6.h.",
". % t ^ +.+.+.+.+.+.....+.+.+.+.+.+.+.+.+.+.......+.....6.h.",
". % 9 Q +...............................................4.h.",
". * C +.=.=.=.=.=.=.=.=.=.=.=.=.=.=.=.=.=.=.=.=.=.=.=.=.9.h.",
". e q.p.p.p.p.p.p.p.p.p.p.p.p.p.p.p.p.p.p.p.p.p.p.p.p.p.d.h.",
"                                                            ",
"                                                            "
};
