/* XPM */
static char *close_inactive[] = {
/* columns rows colors chars-per-pixel */
"32 32 125 2 ",
"   c None",
".  c #4E4C4E",
"X  c #504E50",
"o  c #555355",
"O  c #585658",
"+  c #5E5D5E",
"@  c #615F61",
"#  c #656365",
"$  c #696769",
"%  c #6C6A6C",
"&  c #716F71",
"*  c #747274",
"=  c #797779",
"-  c #7B7A7B",
";  c #7F807F",
":  c #828282",
">  c #8D8B8D",
",  c #918F91",
"<  c #969696",
"1  c #989698",
"2  c #9D9B9D",
"3  c #A29FA2",
"4  c #A2A2A2",
"5  c #A9A9A9",
"6  c #B1AEB1",
"7  c #B3B2B3",
"8  c #B9B7B9",
"9  c #BBBABB",
"0  c #C0BEC0",
"q  c #C4C3C4",
"w  c #C8C6C8",
"e  c #CCC9CC",
"r  c #CDC9CD",
"t  c #CECACE",
"y  c #CECCCE",
"u  c #CFCDCF",
"i  c #CFCFCF",
"p  c #CAC9CA",
"a  c #D0CFD0",
"s  c #D0D0D0",
"d  c #D1D1D1",
"f  c #D2D0D2",
"g  c #D3D1D3",
"h  c #D2D2D2",
"j  c #D2D3D2",
"k  c #D3D3D3",
"l  c #D4D2D4",
"z  c #D5D2D5",
"x  c #D5D3D5",
"c  c #D6D3D6",
"v  c #D4D4D4",
"b  c #D5D4D5",
"n  c #D5D5D5",
"m  c #D6D4D6",
"M  c #D6D5D6",
"N  c #D7D4D7",
"B  c #D7D5D7",
"V  c #D6D6D6",
"C  c #D6D7D6",
"Z  c #D7D6D7",
"A  c #D7D7D7",
"S  c #D5D5D5",
"D  c #D9D5D9",
"F  c #D8D6D8",
"G  c #D8D8D8",
"H  c #D8D9D8",
"J  c #D9D9D9",
"K  c #DADADA",
"L  c #DBDADB",
"P  c #DCD9DC",
"I  c #DCDADC",
"U  c #DCDBDC",
"Y  c #DDDBDD",
"T  c #DCDCDC",
"R  c #DDDDDD",
"E  c #DEDCDE",
"W  c #DEDDDE",
"Q  c #DFDCDF",
"!  c #DEDFDE",
"~  c #E0DDE0",
"^  c #E0DFE0",
"/  c #E2DFE2",
"(  c #E2E0E2",
")  c #E2E2E2",
"_  c #E3E3E3",
"`  c #E6E3E6",
"'  c #E5E4E5",
"]  c #E6E5E6",
"[  c #E7E5E7",
"{  c #E7E6E7",
"}  c #E1E0E1",
"|  c #E8E4E8",
" . c #E8E5E8",
".. c #E8E7E8",
"X. c #E9E7E9",
"o. c #EAE7EA",
"O. c #EBE7EB",
"+. c #E9E8E9",
"@. c #EBE8EB",
"#. c #EBEAEB",
"$. c #ECE9EC",
"%. c #ECECEC",
"&. c #EDECED",
"*. c #EEECEE",
"=. c #EEEDEE",
"-. c #EEEEEE",
";. c #EFEFEF",
":. c #EFF0EF",
">. c #F0F0F0",
",. c #F1F1F1",
"<. c #F2F2F2",
"1. c #F6F6F6",
"2. c #F7F7F7",
"3. c #F5F5F5",
"4. c #F8F7F8",
"5. c #F8F8F8",
"6. c #F9F8F9",
"7. c #F9F9F9",
"8. c #FBFAFB",
"9. c #FCFBFC",
"0. c #FDFCFD",
"q. c #FDFDFD",
"w. c #FEFEFE",
"e. c #FFFFFF",
"r. c #FFFFFF",
/* pixels */
"< < < < < < < < < < < < < < < < < < < < < < < < < < < < < <     ",
"< < > : : : : : : : : : : : : : : : : : : : : : : : : : : >     ",
"< > % @ + + + + + + + + + + + + + + + + + + + + + + + + + : h e.",
"< : @ O % - - - - - - - - - - - - - - - - - - - - = * # o - Z e.",
"< : + % 7 F Z Z Z Z Z Z Z Z Z Z Z Z Z Z Z Z Z Z Z i q 2 # - Z e.",
"< : + - F e.e.e.e.e.e.e.e.e.e.e.e.e.e.e.e.e.e.e.e.,.J 5 $ - Z e.",
"< : + - Z e.1.=.=.:.,.,.=.=.=.=.=.=.=.=.,.,.,.,.,.E 8 > # - Z e.",
"< : + - Z e.=.] ] E p p E ..] ] ] ] ..E p p E @.@.h 5 - + - Z e.",
"< : + - Z e.=.....p > > e @...` ` ..@.p > > e $...h 5 - + - Z e.",
"< : + - Z e.=.Y e 3 # # 4 e ~ ....E e 4 # # 3 e Y h 5 ; + - Z e.",
"< : + - Z e.=.q > # o o $ , p ..] p , $ o o # > e h 5 : + - Z e.",
"< : + - Z e.@.q > # o . . $ 4 q q 4 $ . . o # > q a 5 : + - Z e.",
"< : + - Z 6...c q 2 $ . . O $ * * $ O . . $ 3 q F i 5 : + - Z e.",
"< : + - Z 6.] Y ~ q > $ O X . . . . X O $ > q ~ ~ p 4 : + - Z e.",
"< : + - Z 6._ Z J h q 2 $ . . X X . . $ 2 q h J J p 4 : + - Z e.",
"< : + - Z 6._ Z Z J E 8 * . X o o X . * 8 E J Z Z q 4 : + - Z e.",
"< : + - Z 6._ c c F Y 8 * . X o o X . * 8 Y F Z Z q 4 : + - Z e.",
"< : + - Z 6.~ h c i 9 2 $ . . X X . . $ 2 9 i Z c q 4 : + - Z e.",
"< : + - Z 1.E h h 8 > # O X . . . . X O $ > 8 Z h q 4 : + - Z e.",
"< : + - Z 1.E q 8 < # . . O $ & & $ O . . # < 8 p q 4 : + - Z e.",
"< : + - Z 6.E 7 : # o . . # 1 7 7 1 # . . o # : 8 q 4 : + - Z e.",
"< : + - Z 4.Y 7 : # o o # : 8 a a 8 : # o o # : 7 q 4 : + - Z e.",
"< : + - Z 1.J 9 7 < # # < 7 q p p q 7 < # # < 7 q 9 4 : + - Z e.",
"< : + - Z 1.Z q p 7 : : 7 p q q q q p 7 : : 7 p p 8 4 : + - Z e.",
"< : + - Z 1.Z q q 0 6 6 0 e q q q q e 0 6 6 0 e e 8 4 : + - Z e.",
"< : + - i =.p 8 8 8 9 9 8 8 8 8 8 8 8 8 9 9 8 8 8 7 4 : + - Z e.",
"< : + * q Z 7 4 4 4 4 4 4 4 4 4 4 4 4 4 4 4 4 4 4 3 2 : + - Z e.",
"< : + # 2 5 > ; : : : : : : : : : : : : : : : : : : : * o - Z e.",
"< : + o # $ # + + + + + + + + + + + + + + + + + + + + o . - Z e.",
"< > : - - - - - - - - - - - - - - - - - - - - - - - - - - 2 _ e.",
"    h Z Z Z Z Z Z Z Z Z Z Z Z Z Z Z Z Z Z Z Z Z Z Z Z Z Z _ 1.e.",
"    e.e.e.e.e.e.e.e.e.e.e.e.e.e.e.e.e.e.e.e.e.e.e.e.e.e.e.e.e.e."
};
