/* XPM */
static char *title_1_inactive[] = {
/* columns rows colors chars-per-pixel */
"10 37 19 1 ",
"  c None",
". c #C8CCCF",
"X c #E2E6EA",
"o c #E4E8EC",
"O c #E8ECF0",
"+ c #ECF0F4",
"@ c #EDF1F5",
"# c #EEF2F5",
"$ c #EEF2F6",
"% c #EFF2F6",
"& c #EFF3F6",
"* c #F0F3F6",
"= c #F0F4F7",
"- c #F1F4F7",
"; c #F2F5F7",
": c #F2F5F8",
"> c #F3F5F8",
", c #F3F6F8",
"< c #FEFEFE",
/* pixels */
"          ",
"          ",
"          ",
"          ",
"<<<<<<<<<<",
"<<<<<<<<<<",
",,,,,,,,,,",
",,,,,,,,,,",
",,,,,,,,,,",
",,,,,,,,,,",
",,,,,,,,,,",
",,,,,,,,,,",
",,,,,,,,,,",
",,,,,,,,,,",
";;;;;;;;;;",
";;;;;;;;;;",
";;;;;;;;;;",
";;;;;;;;;;",
"&;;;;;,;;;",
"******;;**",
"****;;;;**",
"++**;;;;**",
"++++++++++",
"++++++++++",
"++++++++++",
"++++++++++",
"++++++++++",
"++++++++++",
"++++++++++",
"++++++++++",
"++++++++++",
"++++++++++",
"OOOOOOOOOO",
"oooooooooo",
"XXXXXXXXXX",
"XXXXXXXXXX",
".........."
};
