/* XPM */
static char *bottom_right_active[] = {
/* columns rows colors chars-per-pixel */
"32 32 131 2 ",
"   c None",
".  c black",
"X  c #0D0C0E",
"o  c #0E0E11",
"O  c #0F1012",
"+  c #111114",
"@  c #16161A",
"#  c #17181C",
"$  c #18181C",
"%  c #1E1F23",
"&  c #1F2024",
"*  c #212125",
"=  c #26262B",
"-  c #2A2B2E",
";  c #2C2C33",
":  c #2F3038",
">  c #31323B",
",  c #383A44",
"<  c #3E3F4B",
"1  c #3E404A",
"2  c #41424C",
"3  c #454652",
"4  c #484956",
"5  c #4B4D5B",
"6  c #4F505E",
"7  c #50525F",
"8  c #515362",
"9  c #575966",
"0  c #575969",
"q  c #5A5C6B",
"w  c #5E606E",
"e  c #5F6171",
"r  c #636573",
"t  c #676976",
"y  c #686A77",
"u  c #636579",
"i  c #66697D",
"p  c #6A6B7A",
"a  c #6A6C81",
"s  c #6E718A",
"d  c #707386",
"f  c #72758C",
"g  c #76798D",
"h  c #797B8D",
"j  c #747790",
"k  c #767991",
"l  c #797B93",
"z  c #7F8096",
"x  c #7F8399",
"c  c #83848F",
"v  c #858691",
"b  c #878892",
"n  c #888A93",
"m  c #83859B",
"M  c #87899E",
"N  c #888A9D",
"B  c #88899E",
"V  c #888A9E",
"C  c #898B9E",
"Z  c #888A9F",
"A  c #888B9F",
"S  c #898B9F",
"D  c #8A8C9F",
"F  c #878AA0",
"G  c #888AA0",
"H  c #888BA0",
"J  c #898BA0",
"K  c #898CA0",
"L  c #898CA1",
"P  c #8A8CA0",
"I  c #8A8DA0",
"U  c #8B8DA0",
"Y  c #8A8CA1",
"T  c #8B8CA1",
"R  c #8B8DA1",
"E  c #8B8EA1",
"W  c #8A8DA2",
"Q  c #8C8EA1",
"!  c #8C8DA2",
"~  c #8C8EA2",
"^  c #8C8FA2",
"/  c #8D8FA2",
"(  c #8C8EA3",
")  c #8D8FA3",
"_  c #8E90A3",
"`  c #8F91A3",
"'  c #8E90A4",
"]  c #8F91A4",
"[  c #8E90A5",
"{  c #8F91A5",
"}  c #8F92A4",
"|  c #8F92A5",
" . c #9092A2",
".. c #9092A5",
"X. c #9093A5",
"o. c #9193A5",
"O. c #9092A6",
"+. c #9093A6",
"@. c #9193A6",
"#. c #9193A7",
"$. c #9294A6",
"%. c #9294A7",
"&. c #9295A7",
"*. c #9395A7",
"=. c #9496A7",
"-. c #9294A8",
";. c #9395A8",
":. c #9395A9",
">. c #9496A8",
",. c #9496A9",
"<. c #9597A9",
"1. c #9597AA",
"2. c #9598AA",
"3. c #9698AA",
"4. c #9C9EB0",
"5. c #A3A5B6",
"6. c #A4A5B7",
"7. c #A4A6B7",
"8. c #A4A7B8",
"9. c #A5A7B8",
"0. c #A6A7B8",
"q. c #A7A8B8",
"w. c #A7A9B8",
"e. c #A7A9B9",
"r. c #A7A9BA",
"t. c #A8A9BA",
"y. c #A9AABB",
"u. c #A9ABBB",
"i. c #AAACBB",
"p. c #ABADBC",
"a. c #ABADBD",
/* pixels */
"                                        . * y @.,.,.,.3.=.p * . ",
"                                        . * y @.,.,.,.3.,.p * . ",
"                                        . * t @.-.,.,.,.-.p * . ",
"                                        . * t [ *.-.,.,.*.p * . ",
"                                        . * t _ *.-.-.-.*.p * . ",
"                                        . * r _ *.*.*.-.@.y * . ",
"                                        . * r ) @.@.@.*.@.y * . ",
"                                        . * r ) [ @.@.@.[ t * . ",
"                                        . * r U [ [ [ @.[ t * . ",
"                                        . & r U _ [ [ @._ t * . ",
"                                        . & r D ) _ [ [ ) r * . ",
"                                        . % r Z ) ) ) [ ) r * . ",
"                                        . % r Z U ) ) ) U r * . ",
"                                        . % r M U U ) ) U r * . ",
"                                        . % r M H U U U Z r & . ",
"                                        . % r m H H H U Z r % . ",
"                                        . % e m M Z Z U Z r % . ",
"                                        . % w m M M Z Z Z r % . ",
"                                        . % q m m M M Z M r % . ",
"                                        . % r M M m m m m w % . ",
". . . . . . . . . . . . . . . . . . . . . % p [ H m h h h 9 % . ",
"- - - - - - - - - - - - - - - - - - - - = 2 h -.H z f i q 2 $ . ",
"c c v v v v v v v v b b b b n n n n n b c v  .@.M z f 0 ; @     ",
"5.5.7.7.0.0.0.0.r.r.r.r.i.i.i.i.i.a.a.i.5.4.,.U m l f 8 $ .     ",
"x m m m m m m m m m m M M M Z H U U U U U F M m g d d 7 $ .     ",
"s s s s s s f f f f f f f j k k k k l l k g g f i e 9 1 @ .     ",
"s s s s s s f f f f f f f j k k k k l k s a u e 0 3 = @         ",
"u u u u u u u u i i i i i i a a a a a a u 0 4 < , ; o .         ",
"3 3 3 3 3 4 4 4 4 4 5 5 5 5 6 8 8 8 8 8 8 2 * + + o             ",
"= = = - - - ; ; ; ; ; ; ; ; : > > > > > > ; o . . .             ",
"X X X X X X X X o o o o o o o o o o O + + o                     ",
". . . . . . . . . . . . . . . . . . . . . .                     "
};
