/* XPM */
static char *hide_pressed[] = {
/* columns rows colors chars-per-pixel */
"20 24 165 2 ",
"   c #313031",
".  c #687F1F",
"X  c #7A7F15",
"o  c #7A7D18",
"O  c #60563E",
"+  c #7A6E33",
"@  c #7B673D",
"#  c #4A4D4A",
"$  c #605841",
"%  c #6F6448",
"&  c #696654",
"*  c #787456",
"=  c #787760",
"-  c #83711B",
";  c #8F7B2B",
":  c #856C36",
">  c #966B37",
",  c #8D7437",
"<  c #84723C",
"1  c #937E43",
"2  c #6D9217",
"3  c #779D14",
"4  c #7D9719",
"5  c #8B840F",
"6  c #82940C",
"7  c #8BB709",
"8  c #91BC08",
"9  c #B1B308",
"0  c #808C27",
"q  c #88882B",
"w  c #928736",
"e  c #889235",
"r  c #88903C",
"t  c #929030",
"y  c #A58424",
"u  c #AB8724",
"i  c #A69C31",
"p  c #D08224",
"a  c #C89E26",
"s  c #C4A935",
"d  c #E8B726",
"f  c #E7BA2A",
"g  c #F5A436",
"h  c #FDBC30",
"j  c #FCB33C",
"k  c #94D803",
"l  c #8AF500",
"z  c #8DF500",
"x  c #8DF40D",
"c  c #91F500",
"v  c #94F500",
"b  c #9BF400",
"n  c #9CF400",
"m  c #8FF314",
"M  c #95F312",
"N  c #A8E701",
"B  c #AFED0A",
"V  c #B0E602",
"C  c #BDEF03",
"Z  c #A7F300",
"A  c #A1F400",
"S  c #AAF300",
"D  c #AEF300",
"F  c #B4F200",
"G  c #B8F200",
"H  c #BCF200",
"J  c #A3F01F",
"K  c #AED42D",
"L  c #BBCF34",
"P  c #ADEE2A",
"I  c #C1D204",
"U  c #C4D304",
"Y  c #CBED05",
"T  c #CCE80F",
"R  c #C7F100",
"E  c #C8F100",
"W  c #CCF100",
"Q  c #D3F000",
"!  c #DAF000",
"~  c #DCF000",
"^  c #E7EF00",
"/  c #EBEF00",
"(  c #FEC326",
")  c #F5C42A",
"_  c #F1CE2F",
"`  c #FECC29",
"'  c #FFD22B",
"]  c #FDD12D",
"[  c #FFD72E",
"{  c #FFDA30",
"}  c #FFDF32",
"|  c #FFD936",
" . c #FFDD37",
".. c #FFE133",
"X. c #FFE335",
"o. c #F2E13B",
"O. c #FFEA39",
"+. c #FFE93E",
"@. c #919050",
"#. c #999455",
"$. c #A39F56",
"%. c #A5A152",
"&. c #918F6E",
"*. c #9C9B67",
"=. c #97966D",
"-. c #96946E",
";. c #878375",
":. c #8C8A75",
">. c #919077",
",. c #989673",
"<. c #9D9C72",
"1. c #9C9A76",
"2. c #97A174",
"3. c #A1A060",
"4. c #A2A763",
"5. c #A1A164",
"6. c #A8B56C",
"7. c #A3A473",
"8. c #A3A970",
"9. c #A2A07F",
"0. c #ADEF5A",
"q. c #B9ED66",
"w. c #FFDC42",
"e. c #FFE044",
"r. c #F9E148",
"t. c #FFE453",
"y. c #FFE056",
"u. c #FFE856",
"i. c #D2CB6E",
"p. c #D7CD70",
"a. c #FFE863",
"s. c #FFEF63",
"d. c #FFE56F",
"f. c #FCFC60",
"g. c #FFFA67",
"h. c #FFFE65",
"j. c #FFF46A",
"k. c #F8E875",
"l. c #FAED7E",
"z. c #FFEC7F",
"x. c #908E86",
"c. c #939185",
"v. c #A29F84",
"b. c #A9A687",
"n. c #A3A089",
"m. c #B0AD90",
"M. c #B6B398",
"N. c #BCBAA1",
"B. c #C2C0A9",
"V. c #C9C6B2",
"C. c #C4C1BB",
"Z. c #D0CCBA",
"A. c #D9E1BC",
"S. c #D6D2C3",
"D. c #DBD8C8",
"F. c #DCD8CB",
"G. c #E2DFD4",
"H. c #DFE6C9",
"J. c #E4E5CF",
"K. c #E3EDCA",
"L. c #E4EDCC",
"P. c #E9E5DC",
"I. c #EFECE3",
"U. c #F0ECE5",
"Y. c #F6F1ED",
/* pixels */
"# # # # # # # # # # # # # # # # # # # # ",
"                                        ",
"                                        ",
"Y.Y.Y.Y.Y.Y.Y.Y.Y.Y.Y.Y.Y.Y.Y.Y.Y.Y.Y.Y.",
"U.C.C.:.c.U.U.U.I.K.L.I.I.U.U.U.U.U.U.U.",
"P.x.x.f.@.H.0.0.x l z M M q.J.P.P.P.P.P.",
"G.>.>.h.r m z z v b b n n b J A.G.G.G.G.",
"G.>.>.h.r m z z v b b n n b J A.G.G.G.G.",
"F.=.=.h.0 c b b A Z S S S S Z P D.D.F.F.",
"S.*.*.g.q b Z Z D F G V V 7 3 2 2.2.S.S.",
"Z.5.5.j.i k N N 8 4 e $.$.p.k.a.s s ;.Z.",
"V.3.3.j.o.t %.%.i.l.z.d.d.y.w.| ] ] < V.",
"V.3.3.j.o.t %.%.i.l.z.d.d.y.w.| ] ] < V.",
"B.#.#.s.O.+.u.u.t.e. .{ { [ [ ' ` ` , B.",
"N.* * r.X...} } { [ ] ) ) a u d ( ( : N.",
"M.n.n.+ _ [ ] ] f y - 5 5 9 U ; h h @ M.",
"m.m.m.v.. o X X 6 I ^ / / ^ ! w j j % m.",
"m.m.m.v.. o X X 6 I ^ / / ^ ! w j j % m.",
"b.b.b.b.6.B H H E Q ! ~ ~ ! T 1 g g & b.",
"9.9.9.9.9.8.K K C R W Y Y L 7.> p p = 9.",
"1.1.1.1.1.1.1.1.<.4.4.<.<.1.,.$ O O &.1.",
"=.=.=.=.=.=.=.=.=.=.=.=.=.=.=.=.=.=.=.=.",
"=.=.=.=.=.=.=.=.=.=.=.=.=.=.=.=.=.=.=.=.",
"                                        "
};
