/* XPM */
static char *close_active[] = {
/* columns rows colors chars-per-pixel */
"30 30 16 1 ",
"  c black",
". c #7B7D7B",
"X c #B4B6B4",
"o c #BDBABD",
"O c #BDBEBD",
"+ c #C5C6C5",
"@ c #CDCAC5",
"# c #CDCACD",
"$ c #CDCECD",
"% c #D5D2D5",
"& c #D5D6D5",
"* c #D5DAD5",
"= c #DEDADE",
"- c gray87",
"; c #DEE2DE",
": c #FFFFFF",
/* pixels */
"..............................",
"..............................",
"..                            ",
"..                            ",
"..  ::::::::::::::::::::::$$  ",
"..  ::::::::::::::::::::::$$  ",
"..  ::;;;;;;;;;;;;;;;;;;;;..  ",
"..  ::;;;;;;;;;;;;;;;;;;;;..  ",
"..  ::----  --------  ----..  ",
"..  ::----  --------  ----..  ",
"..  ::**      ====      **..  ",
"..  ::**      ====      **..  ",
"..  ::%%&&            &&&&..  ",
"..  ::%%&&            &&&&..  ",
"..  ::$$$$$$        $$$$$$..  ",
"..  ::$$$$$$        $$$$$$..  ",
"..  ::####@@        ######..  ",
"..  ::####@@        ######..  ",
"..  ::++++            ++++..  ",
"..  ::++++            ++++..  ",
"..  ::OO      OOOO      OO..  ",
"..  ::OO      OOOO      OO..  ",
"..  ::oooo  oooooooo  oooo..  ",
"..  ::oooo  oooooooo  oooo..  ",
"..  ::XXXXXXXXXXXXXXXXXXXX..  ",
"..  ::XXXXXXXXXXXXXXXXXXXX..  ",
"..  $$......................  ",
"..  $$......................  ",
"..                            ",
"..                            "
};
