/* XPM */
static char *top_right_active[] = {
/* columns rows colors chars-per-pixel */
"24 52 105 2 ",
"   c None",
".  c #2E5F91",
"X  c #3369A0",
"o  c #5581AE",
"O  c #6589AE",
"+  c #278BEF",
"@  c #889BAE",
"#  c #97C6F5",
"$  c #A8C7E7",
"%  c #A9C8E6",
"&  c #A9C8E7",
"*  c #AAC9E8",
"=  c #ABC9E8",
"-  c #ABCAE8",
";  c #ACCAE8",
":  c #ACCAE9",
">  c #ADCBE9",
",  c #ADCBEA",
"<  c #AECCE9",
"1  c #AFCCEA",
"2  c #AFCDEA",
"3  c #AFCDEB",
"4  c #AFCEEB",
"5  c #B0CDEB",
"6  c #B1CEEB",
"7  c #B2CEEB",
"8  c #B1CEEC",
"9  c #B2CFEC",
"0  c #B3D0EC",
"q  c #B3D0ED",
"w  c #B4D1ED",
"e  c #B5D1ED",
"r  c #B6D2EE",
"t  c #B7D3EE",
"y  c #B6D2EF",
"u  c #B6D3EF",
"i  c #B7D3EF",
"p  c #B8D4EF",
"a  c #A1CCF6",
"s  c #AFD4F9",
"d  c #B7D3F0",
"f  c #B8D4F0",
"g  c #B9D4F0",
"h  c #B9D5F1",
"j  c #BAD5F0",
"k  c #BAD6F1",
"l  c #BBD6F1",
"z  c #BBD7F2",
"x  c #BCD7F1",
"c  c #BCD7F2",
"v  c #BDD7F2",
"b  c #BCD8F3",
"n  c #BDD8F3",
"m  c #BED9F3",
"M  c #BFD9F3",
"N  c #BED8F4",
"B  c #BEDCFB",
"V  c #CAD1D9",
"C  c #C1DAF3",
"Z  c #C7DDF3",
"A  c #C0DAF4",
"S  c #C1DBF4",
"D  c #C0DBF5",
"F  c #C1DBF5",
"G  c #C2DCF5",
"H  c #C3DCF5",
"J  c #C3DDF5",
"K  c #C2DCF6",
"L  c #C3DCF6",
"P  c #C4DEF6",
"I  c #C6DFF7",
"U  c #DAE2EA",
"Y  c #CBE0F5",
"T  c #C7E0F8",
"R  c #C8E0F8",
"E  c #C9E1F8",
"W  c #C9E1F9",
"Q  c #C9E2F9",
"!  c #CAE2FA",
"~  c #CBE3FA",
"^  c #CCE3FA",
"/  c #CDE4FB",
"(  c #CEE5FB",
")  c #CBE4FD",
"_  c #CFE6FD",
"`  c #DFE8F0",
"'  c #D1E7FD",
"]  c #D2E7FD",
"[  c #D3E9FE",
"{  c #D4E9FE",
"}  c #D6EBFE",
"|  c #EDEEEF",
" . c #E1EDF9",
".. c #E0EDFC",
"X. c #E2F1FE",
"o. c #EEF2F8",
"O. c #EDF5FC",
"+. c #EDF6FE",
"@. c #F6FAFF",
"#. c #F8FBFE",
"$. c #F8FCFF",
"%. c #FAFDFF",
"&. c #FDFEFF",
"*. c #FEFEFF",
"=. c white",
/* pixels */
"=.=.=.=.=.=.                                    ",
"=.=.=.=.=.=.                                    ",
"=.=.=.=.=.=.=.=.=.=.                            ",
"=.=.=.=.=.=.=.=.=.=.                            ",
"X.X.+.+.%.%.=.=.=.=.=.=.=.=.                    ",
"X.X.+.+.%.%.=.=.=.=.=.=.=.=.                    ",
"{ { ] ] ( ( ....=.=.=.=.=.=.| |                 ",
"{ { ] ] ( ( ....=.=.=.=.=.=.| |                 ",
"[ [ [ [ [ [ [ [ { { @.@.=.=.=.=.V V             ",
"[ [ [ [ [ [ [ [ { { @.@.=.=.=.=.V V             ",
"] ] ] ] ] ] ( ( I I G G +.+.=.=.=.=.@ @         ",
"] ] ] ] ] ] ( ( I I G G +.+.=.=.=.=.@ @         ",
"] ] ] ] ] ] ( ( T T C C M M #.#.=.=.` ` O O     ",
"] ] ] ] ] ] ( ( T T C C M M #.#.=.=.` ` O O     ",
"_ _ _ _ _ _ ( ( E E F F v v Y Y =.=.=.=.O O     ",
"_ _ _ _ _ _ ( ( E E F F v v Y Y =.=.=.=.O O     ",
") ) ) ) ) ) ) ) ) ) ) ) ) ) ) ) %.%.=.=.U U o o ",
") ) ) ) ) ) ) ) ) ) ) ) ) ) ) ) %.%.=.=.U U o o ",
"^ ^ ^ ^ ^ ^ E E E E G G v v l l  . .=.=.o.o.X X ",
"^ ^ ^ ^ ^ ^ E E E E G G v v l l  . .=.=.o.o.X X ",
"E E E E E E E E T T G G l l p p Z Z =.=.=.=.. . ",
"E E E E E E E E T T G G l l p p Z Z =.=.=.=.. . ",
"E E E E E E E E I I F F l l r r r r =.=.=.=.. . ",
"E E E E E E E E I I F F l l r r r r =.=.=.=.. . ",
"B B B B B B B B B B B B B B B B B B =.=.=.=.. . ",
"B B B B B B B B B B B B B B B B B B =.=.=.=.. . ",
"I I I I I I I I G G M M r r r r 0 0 =.=.=.=.. . ",
"I I I I I I I I G G M M r r r r 0 0 =.=.=.=.. . ",
"G G G G G G G G F F v v r r 0 0 9 9 =.=.=.=.. . ",
"G G G G G G G G F F v v r r 0 0 9 9 =.=.=.=.. . ",
"F F F F F F F F F F l l 0 0 6 6 6 6 =.=.=.=.. . ",
"F F F F F F F F F F l l 0 0 6 6 6 6 =.=.=.=.. . ",
"s s s s s s s s s s s s s s s s s s =.=.=.=.. . ",
"s s s s s s s s s s s s s s s s s s =.=.=.=.. . ",
"M M M M M M N N l v l l 9 9 2 2 2 2 =.=.=.=.. . ",
"M M M M M M N N v v l l 9 9 2 2 2 2 =.=.=.=.. . ",
"M M b b b b M M l l r r 6 6 , , , , =.=.=.=.. . ",
"M M b b M b M M l l r r 6 6 , , , , =.=.=.=.. . ",
"l l l l l l l l l l r r 2 2 , , * * =.=.=.=.. . ",
"l l l l l l l l l l r r 2 2 , , * * =.=.=.=.. . ",
"a a a a a a a a a a a a a a a a a a =.=.=.=.. . ",
"a a a a a a a a a a a a a a a a a a =.=.=.=.. . ",
"l l l l l l l l d d 0 0 , , & & & & =.=.=.=.. . ",
"l l l l l l l l d d 0 0 , , & & & & =.=.=.=.. . ",
"r r r r r r r r 0 0 2 2 * * & & & & =.=.=.=.. . ",
"r r r r r r r r 0 0 2 2 * * & & & & =.=.=.=.. . ",
"2 2 2 2 2 2 2 2 , , * * & & $ $ $ $ =.=.=.=.. . ",
"2 2 2 2 2 2 2 2 , , * * & & $ $ $ $ =.=.=.=.. . ",
"# # # # # # # # # # # # # # # # # # =.=.=.=.. . ",
"# # # # # # # # # # # # # # # # # # =.=.=.=.. . ",
"+ + + + + + + + + + + + + + + + + + =.=.=.=.. . ",
"+ + + + + + + + + + + + + + + + + + =.=.=.=.. . "
};
