/* XPM */
static char *top_right_inactive[] = {
/* columns rows colors chars-per-pixel */
"15 60 45 1 ",
"  c None",
". c #141414",
"X c #2B354E",
"o c #3B486A",
"O c #5A71A5",
"+ c #6079AA",
"@ c #6078AE",
"# c #6780B3",
"$ c #6A84B7",
"% c #6D86BA",
"& c #728DBE",
"* c #778FC0",
"= c #7A94C6",
"- c #7F99CA",
"; c #89A1CE",
": c #8EA5D0",
"> c #91A7D2",
", c #93AAD4",
"< c #95ABD6",
"1 c #9BB0D7",
"2 c #9CB2D8",
"3 c #9EB3D9",
"4 c #9FB5D9",
"5 c #A1B5DD",
"6 c #A5B9DF",
"7 c #A9BEE0",
"8 c #ACBEE2",
"9 c #AFC0E2",
"0 c #B5C5E3",
"q c #B2C2E4",
"w c #B7C7E6",
"e c #BACAE8",
"r c #BDCBE9",
"t c #C1CFEC",
"y c #C4D2ED",
"u c #CCD7EF",
"i c #CFDBEF",
"p c #D2DBEF",
"a c #D6DEF0",
"s c #D6E0F2",
"d c #DCE5F5",
"f c #E3E7F7",
"g c #E6E9F8",
"h c #EBEDFA",
"j c #EDEEFC",
/* pixels */
"+++            ",
"+++            ",
"+++            ",
"fff++++++      ",
"fff++++++      ",
"fff++++++      ",
"fffssspppooo   ",
"fffssspppooo   ",
"fffssspppooo   ",
"tttqqq666XXX...",
"tttqqq666XXX...",
"tttqqq666XXX...",
"---*********...",
"---*********...",
"---*********...",
"%%%@@@@@@OOO...",
"%%%@@@@@@OOO...",
"%%%@@@@@@OOO...",
"***###@@@OOO...",
"***###@@@OOO...",
"***###@@@OOO...",
";;;===&&&###...",
";;;===&&&###...",
";;;===&&&###...",
";;;---***$$$...",
";;;---***$$$...",
";;;---***$$$...",
"<<<:::;;;---...",
"<<<:::;;;---...",
"<<<:::;;;---...",
"333,,,:::;;;...",
"333,,,:::;;;...",
"333,,,:::;;;...",
"888555111>>>...",
"888555111>>>...",
"888555111>>>...",
"eee999777333...",
"eee999777333...",
"eee999777333...",
"ttt000888444...",
"ttt000888444...",
"ttt000887444...",
"iiiyyyrrr999...",
"iiiyyyrrr999...",
"iiiyyyrrr999...",
"aaauuuyyywww...",
"aaauuuyyywww...",
"aaauuuyyywww...",
"dddsssuuuttt...",
"dddsssuuuttt...",
"dddsssuuuttt...",
"hhhgggddduuu...",
"hhhgggddduuu...",
"hhhgggddduuu...",
"jjjhhhddduuu...",
"jjjhhhddduuu...",
"jjjhhhddduuu...",
"OOOOOOddduuu...",
"OOOOOOddduuu...",
"OOOOOOddduuu..."
};
