/* XPM */
static char *close_inactive[] = {
/* columns rows colors chars-per-pixel */
"28 46 117 2 ",
"   c None",
".  c black",
"X  c #083C70",
"o  c #114476",
"O  c #1C4C7C",
"+  c #40607E",
"@  c #295684",
"#  c #37618B",
"$  c #456D94",
"%  c #55799D",
"&  c #7A8896",
"*  c #6586A6",
"=  c #6988A8",
"-  c #7693B0",
";  c #8F9FB0",
":  c #89A2BB",
">  c #A2B6C9",
",  c #BAC8D7",
"<  c #BFCDDC",
"1  c #BACFE5",
"2  c #CBD3DC",
"3  c #D0D3D6",
"4  c #D1D3D6",
"5  c #D1D3D7",
"6  c #D2D4D7",
"7  c #D3D5D8",
"8  c #D3D6D8",
"9  c #D5D7D9",
"0  c #D7D8D9",
"q  c #D8D9D9",
"w  c #D9DCDF",
"e  c #C9D5E1",
"r  c #CAD5E1",
"t  c #CCD7E2",
"y  c #CED8E3",
"u  c #CED9E3",
"i  c #CFD9E4",
"p  c #D0DAE5",
"a  c #D1DBE5",
"s  c #D3DCE6",
"d  c #D5DEE7",
"f  c #D6DEE7",
"g  c #D6DEE8",
"h  c #DEE1E5",
"j  c #D8E0E9",
"k  c #D9E1E9",
"l  c #D9E1EA",
"z  c #DAE1EA",
"x  c #DAE2EA",
"c  c #DBE2EA",
"v  c #DBE3EA",
"b  c #DCE3EA",
"n  c #DDE4EB",
"m  c #DDE4EC",
"M  c #DDE5EC",
"N  c #DEE4EC",
"B  c #DEE5EC",
"V  c #DFE5EC",
"C  c #DEE5ED",
"Z  c #DFE6ED",
"A  c #CFE7FF",
"S  c #E0E6ED",
"D  c #E0E7ED",
"F  c #E0E7EE",
"G  c #E1E7EE",
"H  c #E2E8EE",
"J  c #E2E8EF",
"K  c #E3E9EF",
"L  c #E2E8F0",
"P  c #E2E9F0",
"I  c #E3E9F0",
"U  c #E4EAF0",
"Y  c #E5EAF0",
"T  c #E5EBF1",
"R  c #E6ECF1",
"E  c #E7ECF1",
"W  c #E6ECF2",
"Q  c #E7ECF2",
"!  c #E7EDF2",
"~  c #E7ECF3",
"^  c #E7EDF3",
"/  c #EAEDF0",
"(  c #E8EDF2",
")  c #E8EDF3",
"_  c #E9EDF3",
"`  c #E9EEF3",
"'  c #EAEFF3",
"]  c #E8EEF4",
"[  c #E9EEF4",
"{  c #EAEFF4",
"}  c #EBF0F4",
"|  c #EBF0F5",
" . c #ECF0F4",
".. c #ECF1F5",
"X. c #EDF1F5",
"o. c #EFF3F6",
"O. c #EFF3F7",
"+. c #F0F3F7",
"@. c #F4F5F6",
"#. c #F1F4F8",
"$. c #F2F5F8",
"%. c #F3F5F8",
"&. c #F3F6F9",
"*. c #F4F6F9",
"=. c #F4F7FA",
"-. c #F5F7FA",
";. c #F6F8FA",
":. c #F7F8FA",
">. c #F6F8FB",
",. c #F7F8FB",
"<. c #F8F9FB",
"1. c #F8F9FC",
"2. c #F9FAFC",
"3. c #F9FBFD",
"4. c #FAFBFC",
"5. c #FCFDFE",
"6. c #FDFDFE",
/* pixels */
"                                                        ",
"                                                        ",
"                                                        ",
"                                                        ",
"                                                        ",
"                                                        ",
"                                                        ",
"                                                        ",
"                                                        ",
",.,.%.%.%.%.%.%.%.%.%.%.%.%.%.%.%.%.%.%.%.%.%.%.%.,.6.6.",
",.,.%.%.%.%.%.%.%.%.%.%.%.%.%.%.%.%.%.%.%.%.%.%.%.,.6.6.",
"K K %.%.*.4.4.,.,.+.+.o.} } { { ( ( Y 4.4.F F F F K 6.6.",
"i i Y Y R o.o.6.6.4.4.,.,.,.%.%.o.o.( o.o.F F Z Z i @.@.",
"i i Y Y R o.o.6.6.4.4.,.,.,.%.%.o.o.( o.o.F F Z Z i @.@.",
", , F F K R R ,.,.6.6.4.4.4.<.<.*.*.o.R R F F Z Z , h h ",
", , F F K R R ,.,.6.6.4.4.4.<.<.*.*.o.R R F F Z Z , h h ",
"> > Z Z z Z Z . . . . 4.4.4.<.<.*.*.. . . z z Z Z > q q ",
"> > Z Z z Z Z . . . . 4.4.4.<.<.*.*.. . . z z Z Z > q q ",
": : Z Z a g g . . . . . ,.,.*.*.. . . . . a a Z Z : 0 0 ",
"- - z z t a a R R . . . . . . . . . . a a t t z z - 9 9 ",
"- - z z t a a R R . . . . . . . . . . a a t t z z - 9 9 ",
"* * z z e y y Y Y o.o.. . . . . . . Y y y e e z z * 2 2 ",
"* * z z e y y Y Y o.o.. . . . . . . Y y y e e z z * 2 2 ",
"% % z z e y y L L { { . . . . . . . L y y e e z z % 8 8 ",
"% % z z e y y L L { { . . . . . . . L y y e e z z % 8 8 ",
"$ $ z z y a a L L . . . . . . . . . . a a y y z z $ 8 8 ",
"$ $ z z y a a L L . . . . . . . . . . a a y y z z $ 8 8 ",
"# # z z f s s . . . . . { { { { . . . . . f f z z # 6 6 ",
"@ @ z z z z z . . . . ( R R ( ( ( ( . . . n n b b @ < < ",
"@ @ z z z z z . . . . ( R R ( ( ( ( . . . n n b b @ < < ",
"O O z z z Z Z F F L L Y R R R R } } %.R R F F Z Z O 3 3 ",
"O O z z z Z Z F F L L Y R R R R } } %.R R F F Z Z O 3 3 ",
"o o z z z z z Z Z F F K K K Y Y R R o.o.o.( ( ( ( o 3 3 ",
"o o z z z z z Z Z F F K K K Y Y R R o.o.o.( ( ( ( o 3 3 ",
"= = X X X X X X X X X X X X X X X X X X X X X X X + 3 3 ",
"A A 1 1 ; & & & & & & & & & & & & & & & & & & & & ; 1 1 ",
"A A 1 1 ; & & & & & & & & & & & & & & & & & & & & ; 1 1 ",
"%.%.( ( w 3 3 3 3 3 3 3 3 3 3 3 3 3 3 3 3 3 3 3 3 w ( ( ",
"%.%.( ( w 3 3 3 3 3 3 3 3 3 3 3 3 3 3 3 3 3 3 3 3 w ( ( ",
"                                                        ",
"                                                        ",
"                                                        ",
"                                                        ",
"                                                        ",
"                                                        ",
"                                                        "
};
