/* XPM */
static char *hide_pressed[] = {
/* columns rows colors chars-per-pixel */
"36 40 33 1 ",
"  c None",
". c #D1D1D1",
"X c #D2D2D2",
"o c #D3D3D3",
"O c #D4D4D4",
"+ c #D5D5D5",
"@ c #D6D6D6",
"# c #D7D7D7",
"$ c #D9D9D9",
"% c #DADADA",
"& c #DCDCDC",
"* c #DDDDDD",
"= c #DEDEDE",
"- c #DFDFDF",
"; c #E1E1E1",
": c #E3E3E3",
"> c #E6E6E6",
", c #E8E8E8",
"< c #E9E9E9",
"1 c #EAEAEA",
"2 c #EBEBEB",
"3 c #ECECEC",
"4 c #EEEEEE",
"5 c #F0F0F0",
"6 c #F1F1F1",
"7 c #F2F2F2",
"8 c #F3F3F3",
"9 c #F4F4F4",
"0 c #F5F5F5",
"q c #F6F6F6",
"w c #F7F7F7 s active_color_2",
"e c #F8F8F8",
"r c #F9F9F9",
/* pixels */
"                                    ",
"                                    ",
"                                    ",
"                                    ",
"wwwwweeeeeeeeeeeeeeeeeeeeeeeeeewwwww",
"wwwwwwwwwwwwwwwwwwwwwwwwwwwwwwwwwwww",
"wwww6666666666666666666666666666wwww",
"www64,,,,,>,,,,,,,,,,,>>,,,,,,,46www",
"ww64,:************************:,46ww",
"ww6,:*@@@@@@@@@@@@@@@@@@@@@@@@*:,6we",
"ew6,*%oo@@@@@@@@@@@@@@@@@@@@oo@*,6we",
"ew6>*@oo@%****************%@oo@*,6we",
"ew6>*@@@*:>,,,,,,,,,,,,,,>:*@@@*>6we",
"ew6>*@@%:,4666666666666664,:%@@*,6we",
"ew6>*@@*>4wwwwwwwwwwwwwww64>*@@*,6we",
"ew6>*@@*,6weeeeeeeeeeeeeew6,*@@*,6we",
"ew6,*@@*,6weeeeeeeewwwweew6,*@@*>6we",
"ew6,*@@*,6weeeeeeeewwwweew6>*@@*,6we",
"ew6,*@@*>6weeeeeeeewwwweew6>*@@*,6we",
"ew6,*@@*,6weeeeeeeewwwweew6>*@@*,6we",
"ew6,*@@*,6weeeeeeeeewweeew6,*@@*>6we",
"ew6>*@@*>46wwwwwwwwwwwwwww4>*@@*>6we",
"ew6,*@@%:,4666666666666664,:%@@*>6we",
"ew6,*@@@*:>,,,,,,,,,>>>,,>:*@@@*,6we",
"ew6,*@oo@%****************%@oo@*,6we",
"ew6>*@ooo@@@@@@@@@@@@@@@@@@ooo@*,6we",
"ew6>*@ooo@@@@@@@@@%@@@@@@@@ooo@*,6we",
"ew6>*@oo@%****************%@oo@*,6we",
"ew6,*@@@*:>,,,,,,,,,,,,,,>:*@@@*>6we",
"ew6>*@@%:,4444444444444444,:%@@*>6we",
"ew6>*@@%:,4444444444444444,:%@@*>6ww",
"ew6,*@@@*:>,,,,,,,,,,,,,,>:*@@@*>4we",
"ew6>*@oo@%****************%@oo@*,6we",
"ew6,*@oo@@@@@@@@@@@@@@@@%@@@oo%*,6we",
"ew6,:*@@@@@@@@@@@@@@@%@@@@@@@@*:,6we",
"ww64,:************************:,46ww",
"www64,,,,,>,,,,,>>>>>>,,,,,,,,,46www",
"wwww6666666666666666666666666666wwww",
"wwwwwwwwwwwwwwwwwwwwwwwwwwwwwwwwwwww",
"wwwwweeeeeeeeeeeeeeeeeeeeeeeeeewwwww"
};
